G04 EAGLE Gerber X2 export*
%TF.Part,Single*%
%TF.FileFunction,Copper,L2,Bot,Mixed*%
%TF.FilePolarity,Positive*%
%TF.GenerationSoftware,Autodesk,EAGLE,9.0.0*%
%TF.CreationDate,2019-06-10T11:01:14Z*%
G75*
%MOMM*%
%FSLAX34Y34*%
%LPD*%
%AMOC8*
5,1,8,0,0,1.08239X$1,22.5*%
G01*
%ADD10P,2.336880X8X292.500000*%
%ADD11P,1.924489X8X292.500000*%
%ADD12C,1.524000*%
%ADD13C,1.676400*%
%ADD14P,3.436588X8X202.500000*%
%ADD15P,1.429621X8X202.500000*%
%ADD16P,3.409096X8X292.500000*%
%ADD17C,3.149600*%
%ADD18R,2.000000X1.500000*%
%ADD19R,2.000000X1.600000*%
%ADD20R,1.600000X2.000000*%
%ADD21R,1.500000X2.000000*%
%ADD22R,0.660400X2.032000*%
%ADD23R,1.000000X1.500000*%
%ADD24C,1.320800*%
%ADD25R,1.600000X1.300000*%
%ADD26R,1.500000X1.000000*%
%ADD27C,1.905000*%
%ADD28P,2.061953X8X202.500000*%
%ADD29R,1.300000X1.600000*%
%ADD30P,1.732040X8X292.500000*%
%ADD31C,1.600200*%
%ADD32R,1.000000X1.400000*%
%ADD33R,3.800000X2.800000*%
%ADD34R,1.500000X1.200000*%
%ADD35P,1.924489X8X112.500000*%
%ADD36R,1.200000X1.500000*%
%ADD37R,1.500000X2.100000*%
%ADD38R,1.800000X1.400000*%
%ADD39P,1.732040X8X202.500000*%
%ADD40P,1.732040X8X112.500000*%
%ADD41R,2.540000X2.540000*%
%ADD42R,3.200000X1.800000*%
%ADD43C,1.270000*%
%ADD44R,1.524000X1.524000*%
%ADD45P,1.649562X8X22.500000*%
%ADD46P,1.649562X8X202.500000*%
%ADD47C,0.609600*%
%ADD48C,1.270000*%
%ADD49C,0.304800*%
%ADD50C,0.406400*%
%ADD51C,1.778000*%
%ADD52C,0.812800*%
%ADD53C,1.016000*%

G36*
X158676Y143486D02*
X158676Y143486D01*
X158753Y143484D01*
X158849Y143505D01*
X158947Y143517D01*
X159019Y143542D01*
X159093Y143559D01*
X159182Y143601D01*
X159275Y143634D01*
X159339Y143676D01*
X159408Y143708D01*
X159485Y143770D01*
X159568Y143823D01*
X159621Y143878D01*
X159680Y143926D01*
X159741Y144003D01*
X159810Y144074D01*
X159849Y144139D01*
X159896Y144199D01*
X159965Y144333D01*
X159989Y144373D01*
X159994Y144391D01*
X160008Y144417D01*
X162909Y151420D01*
X168577Y157089D01*
X168656Y157188D01*
X168740Y157282D01*
X168764Y157324D01*
X168794Y157362D01*
X168848Y157476D01*
X168909Y157587D01*
X168922Y157633D01*
X168943Y157677D01*
X168969Y157800D01*
X169004Y157922D01*
X169009Y157983D01*
X169016Y158017D01*
X169015Y158065D01*
X169023Y158166D01*
X169023Y217500D01*
X169009Y217626D01*
X169002Y217752D01*
X168989Y217798D01*
X168983Y217846D01*
X168941Y217965D01*
X168906Y218087D01*
X168882Y218129D01*
X168866Y218174D01*
X168797Y218281D01*
X168736Y218391D01*
X168696Y218437D01*
X168677Y218467D01*
X168642Y218501D01*
X168577Y218577D01*
X163577Y223577D01*
X163478Y223656D01*
X163384Y223740D01*
X163342Y223764D01*
X163304Y223794D01*
X163190Y223848D01*
X163079Y223909D01*
X163033Y223922D01*
X162989Y223943D01*
X162866Y223969D01*
X162744Y224004D01*
X162683Y224009D01*
X162648Y224016D01*
X162600Y224015D01*
X162500Y224023D01*
X75631Y224023D01*
X69023Y230631D01*
X69023Y233477D01*
X218731Y233477D01*
X218731Y227500D01*
X218743Y227402D01*
X218746Y227303D01*
X218763Y227245D01*
X218771Y227184D01*
X218807Y227092D01*
X218835Y226997D01*
X218865Y226945D01*
X218888Y226889D01*
X218946Y226809D01*
X218996Y226723D01*
X219062Y226648D01*
X219074Y226631D01*
X219084Y226624D01*
X219103Y226603D01*
X221603Y224103D01*
X221681Y224042D01*
X221753Y223974D01*
X221806Y223945D01*
X221854Y223908D01*
X221945Y223868D01*
X222031Y223820D01*
X222090Y223805D01*
X222146Y223781D01*
X222244Y223766D01*
X222339Y223741D01*
X222439Y223735D01*
X222460Y223731D01*
X222472Y223733D01*
X222500Y223731D01*
X354193Y223731D01*
X354292Y223743D01*
X354391Y223746D01*
X354449Y223763D01*
X354509Y223771D01*
X354601Y223807D01*
X354696Y223835D01*
X354748Y223865D01*
X354805Y223888D01*
X354885Y223946D01*
X354970Y223996D01*
X355046Y224062D01*
X355062Y224074D01*
X355070Y224084D01*
X355091Y224103D01*
X357080Y226091D01*
X364490Y229161D01*
X372510Y229161D01*
X379920Y226091D01*
X381909Y224103D01*
X381987Y224042D01*
X382059Y223974D01*
X382112Y223945D01*
X382160Y223908D01*
X382251Y223868D01*
X382338Y223820D01*
X382396Y223805D01*
X382452Y223781D01*
X382550Y223766D01*
X382646Y223741D01*
X382746Y223735D01*
X382766Y223731D01*
X382779Y223733D01*
X382807Y223731D01*
X389193Y223731D01*
X389292Y223743D01*
X389391Y223746D01*
X389449Y223763D01*
X389509Y223771D01*
X389601Y223807D01*
X389696Y223835D01*
X389748Y223865D01*
X389805Y223888D01*
X389885Y223946D01*
X389970Y223996D01*
X390046Y224062D01*
X390062Y224074D01*
X390070Y224084D01*
X390091Y224103D01*
X392080Y226091D01*
X399490Y229161D01*
X407510Y229161D01*
X414920Y226091D01*
X416909Y224103D01*
X416987Y224042D01*
X417059Y223974D01*
X417112Y223945D01*
X417160Y223908D01*
X417251Y223868D01*
X417338Y223820D01*
X417396Y223805D01*
X417452Y223781D01*
X417550Y223766D01*
X417646Y223741D01*
X417746Y223735D01*
X417766Y223731D01*
X417779Y223733D01*
X417807Y223731D01*
X424193Y223731D01*
X424292Y223743D01*
X424391Y223746D01*
X424449Y223763D01*
X424509Y223771D01*
X424601Y223807D01*
X424696Y223835D01*
X424748Y223865D01*
X424805Y223888D01*
X424885Y223946D01*
X424970Y223996D01*
X425046Y224062D01*
X425062Y224074D01*
X425070Y224084D01*
X425091Y224103D01*
X427080Y226091D01*
X434490Y229161D01*
X435766Y229161D01*
X435865Y229173D01*
X435964Y229176D01*
X436022Y229193D01*
X436082Y229201D01*
X436174Y229237D01*
X436270Y229265D01*
X436322Y229295D01*
X436378Y229318D01*
X436458Y229376D01*
X436544Y229427D01*
X436586Y229469D01*
X436635Y229504D01*
X436698Y229581D01*
X436769Y229651D01*
X436799Y229703D01*
X436838Y229749D01*
X436880Y229839D01*
X436931Y229925D01*
X436948Y229983D01*
X436973Y230037D01*
X436992Y230135D01*
X437020Y230230D01*
X437022Y230290D01*
X437033Y230349D01*
X437027Y230449D01*
X437030Y230548D01*
X437017Y230607D01*
X437013Y230667D01*
X436983Y230761D01*
X436961Y230858D01*
X436922Y230950D01*
X436915Y230969D01*
X436909Y230980D01*
X436897Y231006D01*
X433296Y238074D01*
X431407Y250000D01*
X433296Y261926D01*
X438778Y272684D01*
X447316Y281222D01*
X458074Y286704D01*
X470000Y288593D01*
X477301Y287436D01*
X477361Y287435D01*
X477420Y287423D01*
X477519Y287430D01*
X477619Y287426D01*
X477677Y287439D01*
X477737Y287443D01*
X477832Y287474D01*
X477930Y287496D01*
X477983Y287523D01*
X478039Y287541D01*
X478124Y287595D01*
X478213Y287640D01*
X478258Y287679D01*
X478308Y287711D01*
X478377Y287784D01*
X478452Y287850D01*
X478485Y287900D01*
X478526Y287943D01*
X478574Y288031D01*
X478631Y288113D01*
X478651Y288169D01*
X478680Y288221D01*
X478705Y288318D01*
X478739Y288412D01*
X478744Y288472D01*
X478759Y288529D01*
X478769Y288690D01*
X478769Y431310D01*
X478762Y431369D01*
X478764Y431429D01*
X478742Y431526D01*
X478729Y431625D01*
X478708Y431681D01*
X478695Y431739D01*
X478649Y431828D01*
X478612Y431921D01*
X478577Y431969D01*
X478550Y432022D01*
X478484Y432098D01*
X478426Y432178D01*
X478380Y432216D01*
X478340Y432261D01*
X478258Y432317D01*
X478181Y432381D01*
X478127Y432407D01*
X478077Y432440D01*
X477983Y432474D01*
X477893Y432517D01*
X477835Y432528D01*
X477778Y432548D01*
X477678Y432558D01*
X477581Y432577D01*
X477521Y432573D01*
X477462Y432579D01*
X477301Y432564D01*
X470000Y431407D01*
X465018Y432196D01*
X464938Y432199D01*
X464859Y432211D01*
X464780Y432204D01*
X464700Y432206D01*
X464622Y432189D01*
X464543Y432181D01*
X464468Y432154D01*
X464390Y432137D01*
X464319Y432101D01*
X464244Y432074D01*
X464177Y432029D01*
X464106Y431993D01*
X464046Y431940D01*
X463980Y431895D01*
X463927Y431835D01*
X463867Y431782D01*
X463823Y431717D01*
X463770Y431657D01*
X463734Y431585D01*
X463689Y431519D01*
X463662Y431445D01*
X463625Y431374D01*
X463608Y431295D01*
X463581Y431220D01*
X463573Y431141D01*
X463556Y431063D01*
X463558Y430983D01*
X463551Y430904D01*
X463563Y430825D01*
X463565Y430745D01*
X463588Y430669D01*
X463600Y430590D01*
X463632Y430516D01*
X463654Y430440D01*
X463694Y430371D01*
X463726Y430298D01*
X463775Y430234D01*
X463815Y430166D01*
X463920Y430047D01*
X463921Y430046D01*
X463922Y430045D01*
X471522Y422444D01*
X474573Y419394D01*
X474573Y318106D01*
X454687Y298220D01*
X454669Y298197D01*
X454647Y298178D01*
X454572Y298072D01*
X454540Y298030D01*
X454538Y298028D01*
X454537Y298027D01*
X454492Y297969D01*
X454481Y297942D01*
X454464Y297918D01*
X454418Y297797D01*
X454366Y297677D01*
X454361Y297648D01*
X454351Y297620D01*
X454337Y297492D01*
X454316Y297363D01*
X454319Y297334D01*
X454316Y297304D01*
X454334Y297176D01*
X454346Y297047D01*
X454356Y297019D01*
X454360Y296989D01*
X454399Y296876D01*
X454399Y293130D01*
X452968Y289676D01*
X450324Y287032D01*
X446870Y285601D01*
X443130Y285601D01*
X440204Y286814D01*
X440156Y286827D01*
X440111Y286848D01*
X440003Y286868D01*
X439897Y286898D01*
X439847Y286898D01*
X439798Y286908D01*
X439689Y286901D01*
X439579Y286903D01*
X439531Y286891D01*
X439481Y286888D01*
X439377Y286854D01*
X439270Y286828D01*
X439226Y286805D01*
X439179Y286790D01*
X439086Y286731D01*
X438989Y286680D01*
X438952Y286646D01*
X438910Y286620D01*
X438835Y286540D01*
X438753Y286466D01*
X438726Y286424D01*
X438692Y286388D01*
X438639Y286292D01*
X438579Y286200D01*
X438562Y286153D01*
X438538Y286110D01*
X438511Y286003D01*
X438475Y285899D01*
X438471Y285850D01*
X438459Y285802D01*
X438449Y285641D01*
X438449Y285237D01*
X436663Y283451D01*
X421137Y283451D01*
X419414Y285175D01*
X419314Y285252D01*
X419219Y285334D01*
X419189Y285349D01*
X419162Y285370D01*
X419047Y285420D01*
X418934Y285476D01*
X418901Y285483D01*
X418870Y285496D01*
X418746Y285516D01*
X418623Y285542D01*
X418590Y285541D01*
X418556Y285546D01*
X418431Y285534D01*
X418306Y285529D01*
X418273Y285519D01*
X418240Y285516D01*
X418121Y285474D01*
X418001Y285437D01*
X417972Y285420D01*
X417940Y285409D01*
X417837Y285338D01*
X417729Y285273D01*
X417705Y285249D01*
X417677Y285230D01*
X417594Y285136D01*
X417506Y285046D01*
X417479Y285005D01*
X417467Y284992D01*
X417457Y284972D01*
X417440Y284947D01*
X416960Y284467D01*
X416381Y284132D01*
X415734Y283959D01*
X411439Y283959D01*
X411439Y293230D01*
X411424Y293348D01*
X411417Y293467D01*
X411404Y293505D01*
X411399Y293545D01*
X411355Y293656D01*
X411319Y293769D01*
X411297Y293804D01*
X411282Y293841D01*
X411212Y293937D01*
X411149Y294038D01*
X411119Y294066D01*
X411095Y294098D01*
X411004Y294174D01*
X410917Y294256D01*
X410882Y294275D01*
X410850Y294301D01*
X410743Y294352D01*
X410639Y294409D01*
X410599Y294420D01*
X410563Y294437D01*
X410446Y294459D01*
X410331Y294489D01*
X410270Y294493D01*
X410250Y294497D01*
X410230Y294495D01*
X410170Y294499D01*
X408899Y294499D01*
X408899Y294501D01*
X410170Y294501D01*
X410288Y294516D01*
X410407Y294523D01*
X410445Y294536D01*
X410485Y294541D01*
X410596Y294585D01*
X410709Y294621D01*
X410744Y294643D01*
X410781Y294658D01*
X410877Y294728D01*
X410978Y294791D01*
X411006Y294821D01*
X411038Y294845D01*
X411114Y294936D01*
X411196Y295023D01*
X411215Y295058D01*
X411241Y295090D01*
X411292Y295197D01*
X411349Y295301D01*
X411360Y295341D01*
X411377Y295377D01*
X411399Y295494D01*
X411429Y295609D01*
X411433Y295670D01*
X411437Y295690D01*
X411435Y295710D01*
X411439Y295770D01*
X411439Y305041D01*
X415851Y305041D01*
X415920Y305049D01*
X415990Y305048D01*
X416077Y305069D01*
X416166Y305081D01*
X416231Y305106D01*
X416299Y305123D01*
X416378Y305165D01*
X416462Y305198D01*
X416518Y305239D01*
X416580Y305271D01*
X416647Y305332D01*
X416719Y305384D01*
X416764Y305438D01*
X416815Y305485D01*
X416865Y305560D01*
X416922Y305629D01*
X416952Y305693D01*
X416990Y305751D01*
X417019Y305836D01*
X417058Y305917D01*
X417071Y305986D01*
X417093Y306052D01*
X417101Y306141D01*
X417117Y306229D01*
X417113Y306299D01*
X417119Y306369D01*
X417103Y306457D01*
X417098Y306547D01*
X417076Y306613D01*
X417064Y306682D01*
X417027Y306764D01*
X417000Y306849D01*
X416962Y306908D01*
X416934Y306972D01*
X416878Y307042D01*
X416829Y307118D01*
X416779Y307166D01*
X416735Y307220D01*
X416663Y307275D01*
X416598Y307336D01*
X416537Y307370D01*
X416481Y307412D01*
X416336Y307483D01*
X414622Y308193D01*
X410943Y311872D01*
X410169Y313739D01*
X410169Y315347D01*
X410157Y315446D01*
X410154Y315545D01*
X410137Y315603D01*
X410129Y315663D01*
X410093Y315755D01*
X410065Y315850D01*
X410035Y315902D01*
X410012Y315959D01*
X409954Y316039D01*
X409904Y316124D01*
X409838Y316199D01*
X409826Y316216D01*
X409816Y316224D01*
X409798Y316245D01*
X409438Y316604D01*
X409344Y316677D01*
X409255Y316756D01*
X409219Y316774D01*
X409187Y316799D01*
X409078Y316846D01*
X408972Y316901D01*
X408932Y316909D01*
X408895Y316925D01*
X408778Y316944D01*
X408661Y316970D01*
X408621Y316969D01*
X408581Y316975D01*
X408463Y316964D01*
X408344Y316961D01*
X408305Y316949D01*
X408264Y316945D01*
X408152Y316905D01*
X408038Y316872D01*
X408003Y316852D01*
X407965Y316838D01*
X407867Y316771D01*
X407764Y316711D01*
X407719Y316671D01*
X407702Y316659D01*
X407689Y316644D01*
X407643Y316604D01*
X407412Y316373D01*
X406833Y316038D01*
X406186Y315865D01*
X404200Y315865D01*
X404200Y328185D01*
X404185Y328303D01*
X404178Y328422D01*
X404165Y328460D01*
X404160Y328500D01*
X404138Y328556D01*
X404160Y328671D01*
X404190Y328787D01*
X404194Y328847D01*
X404198Y328867D01*
X404196Y328887D01*
X404200Y328947D01*
X404200Y341267D01*
X406186Y341267D01*
X406833Y341094D01*
X407412Y340759D01*
X407643Y340528D01*
X407737Y340455D01*
X407827Y340376D01*
X407863Y340358D01*
X407895Y340333D01*
X408004Y340286D01*
X408110Y340231D01*
X408149Y340223D01*
X408186Y340207D01*
X408304Y340188D01*
X408420Y340162D01*
X408461Y340163D01*
X408501Y340157D01*
X408619Y340168D01*
X408738Y340171D01*
X408777Y340183D01*
X408817Y340187D01*
X408929Y340227D01*
X409044Y340260D01*
X409078Y340280D01*
X409116Y340294D01*
X409215Y340361D01*
X409317Y340421D01*
X409363Y340461D01*
X409380Y340473D01*
X409393Y340488D01*
X409438Y340528D01*
X410685Y341775D01*
X419815Y341775D01*
X421601Y339989D01*
X421601Y318850D01*
X421616Y318732D01*
X421623Y318613D01*
X421636Y318575D01*
X421641Y318534D01*
X421684Y318424D01*
X421721Y318311D01*
X421743Y318276D01*
X421758Y318239D01*
X421827Y318143D01*
X421891Y318042D01*
X421921Y318014D01*
X421944Y317981D01*
X422036Y317905D01*
X422123Y317824D01*
X422158Y317804D01*
X422189Y317779D01*
X422297Y317728D01*
X422401Y317670D01*
X422441Y317660D01*
X422477Y317643D01*
X422594Y317621D01*
X422709Y317591D01*
X422769Y317587D01*
X422789Y317583D01*
X422810Y317585D01*
X422870Y317581D01*
X426011Y317581D01*
X427878Y316807D01*
X433207Y311478D01*
X433981Y309611D01*
X433981Y306818D01*
X433996Y306700D01*
X434003Y306581D01*
X434016Y306543D01*
X434021Y306502D01*
X434064Y306392D01*
X434101Y306279D01*
X434123Y306244D01*
X434138Y306207D01*
X434207Y306111D01*
X434271Y306010D01*
X434301Y305982D01*
X434324Y305949D01*
X434416Y305873D01*
X434503Y305792D01*
X434538Y305772D01*
X434569Y305747D01*
X434677Y305696D01*
X434781Y305638D01*
X434821Y305628D01*
X434857Y305611D01*
X434974Y305589D01*
X435089Y305559D01*
X435149Y305555D01*
X435169Y305551D01*
X435190Y305553D01*
X435250Y305549D01*
X436663Y305549D01*
X438771Y303441D01*
X438794Y303423D01*
X438813Y303400D01*
X438919Y303326D01*
X439022Y303246D01*
X439049Y303234D01*
X439073Y303217D01*
X439195Y303171D01*
X439314Y303120D01*
X439343Y303115D01*
X439371Y303105D01*
X439500Y303090D01*
X439628Y303070D01*
X439657Y303073D01*
X439687Y303069D01*
X439815Y303087D01*
X439944Y303100D01*
X439972Y303110D01*
X440002Y303114D01*
X440154Y303166D01*
X443130Y304399D01*
X446877Y304399D01*
X446892Y304391D01*
X447019Y304362D01*
X447144Y304328D01*
X447173Y304328D01*
X447202Y304321D01*
X447332Y304325D01*
X447462Y304323D01*
X447491Y304330D01*
X447520Y304331D01*
X447645Y304367D01*
X447771Y304397D01*
X447797Y304411D01*
X447826Y304419D01*
X447937Y304485D01*
X448052Y304546D01*
X448074Y304566D01*
X448100Y304581D01*
X448220Y304687D01*
X465056Y321522D01*
X465116Y321601D01*
X465184Y321673D01*
X465213Y321726D01*
X465250Y321774D01*
X465290Y321865D01*
X465338Y321951D01*
X465353Y322010D01*
X465377Y322065D01*
X465392Y322163D01*
X465417Y322259D01*
X465423Y322359D01*
X465427Y322380D01*
X465425Y322392D01*
X465427Y322420D01*
X465427Y415080D01*
X465415Y415178D01*
X465412Y415277D01*
X465395Y415336D01*
X465387Y415396D01*
X465351Y415488D01*
X465323Y415583D01*
X465293Y415635D01*
X465270Y415691D01*
X465212Y415771D01*
X465162Y415857D01*
X465096Y415932D01*
X465084Y415949D01*
X465074Y415957D01*
X465056Y415978D01*
X430427Y450606D01*
X430427Y484394D01*
X444940Y498907D01*
X444977Y498954D01*
X445021Y498995D01*
X445074Y499080D01*
X445135Y499158D01*
X445159Y499213D01*
X445191Y499264D01*
X445222Y499359D01*
X445262Y499450D01*
X445271Y499509D01*
X445289Y499566D01*
X445296Y499666D01*
X445311Y499764D01*
X445306Y499824D01*
X445310Y499884D01*
X445291Y499982D01*
X445282Y500081D01*
X445261Y500137D01*
X445250Y500196D01*
X445208Y500286D01*
X445174Y500380D01*
X445140Y500430D01*
X445115Y500484D01*
X445051Y500561D01*
X444995Y500643D01*
X444950Y500683D01*
X444912Y500729D01*
X444832Y500788D01*
X444757Y500854D01*
X444704Y500881D01*
X444655Y500916D01*
X444562Y500953D01*
X444474Y500998D01*
X444415Y501012D01*
X444360Y501034D01*
X444261Y501046D01*
X444163Y501068D01*
X444104Y501066D01*
X444044Y501074D01*
X443945Y501061D01*
X443846Y501058D01*
X443788Y501042D01*
X443729Y501034D01*
X443636Y500998D01*
X443540Y500970D01*
X443489Y500940D01*
X443433Y500918D01*
X443297Y500831D01*
X442393Y500175D01*
X441110Y499521D01*
X439741Y499076D01*
X439631Y499059D01*
X439631Y505000D01*
X439616Y505118D01*
X439609Y505237D01*
X439596Y505275D01*
X439591Y505316D01*
X439548Y505426D01*
X439511Y505539D01*
X439489Y505574D01*
X439474Y505611D01*
X439405Y505707D01*
X439341Y505808D01*
X439311Y505836D01*
X439288Y505869D01*
X439196Y505945D01*
X439109Y506026D01*
X439074Y506046D01*
X439043Y506071D01*
X438935Y506122D01*
X438831Y506180D01*
X438791Y506190D01*
X438755Y506207D01*
X438638Y506229D01*
X438523Y506259D01*
X438463Y506263D01*
X438443Y506267D01*
X438422Y506265D01*
X438362Y506269D01*
X436838Y506269D01*
X436720Y506254D01*
X436601Y506247D01*
X436563Y506234D01*
X436522Y506229D01*
X436412Y506186D01*
X436299Y506149D01*
X436264Y506127D01*
X436227Y506112D01*
X436130Y506043D01*
X436030Y505979D01*
X436002Y505949D01*
X435969Y505926D01*
X435893Y505834D01*
X435812Y505747D01*
X435792Y505712D01*
X435767Y505681D01*
X435716Y505573D01*
X435658Y505469D01*
X435648Y505429D01*
X435631Y505393D01*
X435609Y505276D01*
X435579Y505161D01*
X435575Y505101D01*
X435571Y505081D01*
X435573Y505060D01*
X435569Y505000D01*
X435569Y499059D01*
X435459Y499076D01*
X434090Y499521D01*
X432807Y500175D01*
X431643Y501021D01*
X430625Y502039D01*
X429779Y503203D01*
X429125Y504486D01*
X428831Y505392D01*
X428797Y505464D01*
X428772Y505539D01*
X428730Y505607D01*
X428695Y505680D01*
X428645Y505741D01*
X428602Y505808D01*
X428544Y505863D01*
X428493Y505925D01*
X428429Y505972D01*
X428371Y506026D01*
X428300Y506065D01*
X428235Y506112D01*
X428162Y506141D01*
X428092Y506180D01*
X428014Y506200D01*
X427940Y506229D01*
X427861Y506239D01*
X427784Y506259D01*
X427625Y506269D01*
X427624Y506269D01*
X292500Y506269D01*
X292382Y506254D01*
X292263Y506247D01*
X292225Y506234D01*
X292184Y506229D01*
X292074Y506186D01*
X291961Y506149D01*
X291926Y506127D01*
X291889Y506112D01*
X291793Y506043D01*
X291692Y505979D01*
X291664Y505949D01*
X291631Y505926D01*
X291556Y505834D01*
X291474Y505747D01*
X291454Y505712D01*
X291429Y505681D01*
X291378Y505573D01*
X291320Y505469D01*
X291310Y505429D01*
X291293Y505393D01*
X291271Y505276D01*
X291241Y505161D01*
X291237Y505101D01*
X291233Y505081D01*
X291235Y505060D01*
X291231Y505000D01*
X291231Y497366D01*
X291246Y497248D01*
X291253Y497129D01*
X291266Y497091D01*
X291271Y497050D01*
X291314Y496940D01*
X291351Y496827D01*
X291373Y496792D01*
X291388Y496755D01*
X291458Y496659D01*
X291521Y496558D01*
X291551Y496530D01*
X291574Y496497D01*
X291666Y496421D01*
X291753Y496340D01*
X291788Y496320D01*
X291819Y496295D01*
X291927Y496244D01*
X292031Y496186D01*
X292071Y496176D01*
X292107Y496159D01*
X292224Y496137D01*
X292339Y496107D01*
X292400Y496103D01*
X292420Y496099D01*
X292440Y496101D01*
X292500Y496097D01*
X300182Y496097D01*
X300300Y496112D01*
X300419Y496119D01*
X300457Y496132D01*
X300498Y496137D01*
X300608Y496180D01*
X300721Y496217D01*
X300756Y496239D01*
X300793Y496254D01*
X300889Y496323D01*
X300990Y496387D01*
X301018Y496417D01*
X301051Y496440D01*
X301127Y496532D01*
X301208Y496619D01*
X301228Y496654D01*
X301253Y496685D01*
X301304Y496793D01*
X301362Y496897D01*
X301372Y496937D01*
X301389Y496973D01*
X301411Y497090D01*
X301441Y497205D01*
X301445Y497265D01*
X301449Y497285D01*
X301447Y497306D01*
X301451Y497366D01*
X301451Y501763D01*
X303237Y503549D01*
X320763Y503549D01*
X322549Y501763D01*
X322549Y478237D01*
X320763Y476451D01*
X303237Y476451D01*
X301451Y478237D01*
X301451Y482634D01*
X301436Y482752D01*
X301429Y482871D01*
X301416Y482909D01*
X301411Y482950D01*
X301368Y483060D01*
X301331Y483173D01*
X301309Y483208D01*
X301294Y483245D01*
X301225Y483341D01*
X301161Y483442D01*
X301131Y483470D01*
X301108Y483503D01*
X301016Y483579D01*
X300929Y483660D01*
X300894Y483680D01*
X300863Y483705D01*
X300755Y483756D01*
X300651Y483814D01*
X300611Y483824D01*
X300575Y483841D01*
X300458Y483863D01*
X300343Y483893D01*
X300283Y483897D01*
X300263Y483901D01*
X300242Y483899D01*
X300182Y483903D01*
X292500Y483903D01*
X292382Y483888D01*
X292263Y483881D01*
X292225Y483868D01*
X292184Y483863D01*
X292074Y483820D01*
X291961Y483783D01*
X291926Y483761D01*
X291889Y483746D01*
X291793Y483677D01*
X291692Y483613D01*
X291664Y483583D01*
X291631Y483560D01*
X291556Y483468D01*
X291474Y483381D01*
X291454Y483346D01*
X291429Y483315D01*
X291378Y483207D01*
X291320Y483103D01*
X291310Y483063D01*
X291293Y483027D01*
X291271Y482910D01*
X291241Y482795D01*
X291237Y482735D01*
X291233Y482715D01*
X291235Y482694D01*
X291231Y482634D01*
X291231Y461107D01*
X291248Y460969D01*
X291261Y460830D01*
X291268Y460811D01*
X291271Y460791D01*
X291322Y460662D01*
X291369Y460531D01*
X291380Y460514D01*
X291388Y460495D01*
X291469Y460383D01*
X291547Y460268D01*
X291563Y460254D01*
X291574Y460238D01*
X291682Y460149D01*
X291786Y460057D01*
X291804Y460048D01*
X291819Y460035D01*
X291945Y459976D01*
X292069Y459913D01*
X292089Y459908D01*
X292107Y459900D01*
X292243Y459874D01*
X292379Y459843D01*
X292400Y459844D01*
X292420Y459840D01*
X292558Y459848D01*
X292697Y459853D01*
X292717Y459858D01*
X292737Y459860D01*
X292869Y459902D01*
X293003Y459941D01*
X293020Y459951D01*
X293039Y459958D01*
X293157Y460032D01*
X293277Y460103D01*
X293298Y460121D01*
X293308Y460128D01*
X293322Y460143D01*
X293398Y460209D01*
X295237Y462049D01*
X317763Y462049D01*
X318285Y461527D01*
X318394Y461442D01*
X318501Y461353D01*
X318520Y461345D01*
X318536Y461332D01*
X318664Y461277D01*
X318789Y461218D01*
X318809Y461214D01*
X318828Y461206D01*
X318966Y461184D01*
X319102Y461158D01*
X319122Y461159D01*
X319142Y461156D01*
X319281Y461169D01*
X319419Y461178D01*
X319438Y461184D01*
X319458Y461186D01*
X319589Y461233D01*
X319721Y461276D01*
X319739Y461286D01*
X319758Y461293D01*
X319872Y461371D01*
X319990Y461446D01*
X320004Y461461D01*
X320021Y461472D01*
X320113Y461576D01*
X320208Y461677D01*
X320218Y461695D01*
X320231Y461710D01*
X320294Y461834D01*
X320362Y461956D01*
X320367Y461975D01*
X320376Y461994D01*
X320406Y462129D01*
X320441Y462264D01*
X320443Y462292D01*
X320446Y462304D01*
X320445Y462324D01*
X320451Y462425D01*
X320451Y464263D01*
X322237Y466049D01*
X342763Y466049D01*
X344549Y464263D01*
X344549Y447737D01*
X342763Y445951D01*
X322237Y445951D01*
X321715Y446473D01*
X321606Y446558D01*
X321499Y446647D01*
X321480Y446655D01*
X321464Y446668D01*
X321336Y446723D01*
X321211Y446782D01*
X321191Y446786D01*
X321172Y446794D01*
X321034Y446816D01*
X320898Y446842D01*
X320878Y446841D01*
X320858Y446844D01*
X320719Y446831D01*
X320581Y446822D01*
X320562Y446816D01*
X320542Y446814D01*
X320411Y446767D01*
X320279Y446724D01*
X320261Y446714D01*
X320242Y446707D01*
X320128Y446629D01*
X320010Y446554D01*
X319996Y446539D01*
X319979Y446528D01*
X319887Y446424D01*
X319792Y446323D01*
X319782Y446305D01*
X319769Y446290D01*
X319706Y446166D01*
X319638Y446044D01*
X319633Y446025D01*
X319624Y446006D01*
X319594Y445871D01*
X319559Y445736D01*
X319557Y445708D01*
X319554Y445696D01*
X319555Y445676D01*
X319549Y445575D01*
X319549Y441737D01*
X317763Y439951D01*
X295237Y439951D01*
X293398Y441791D01*
X293288Y441876D01*
X293181Y441965D01*
X293162Y441973D01*
X293146Y441986D01*
X293018Y442041D01*
X292893Y442100D01*
X292873Y442104D01*
X292854Y442112D01*
X292716Y442134D01*
X292581Y442160D01*
X292560Y442159D01*
X292540Y442162D01*
X292401Y442149D01*
X292263Y442140D01*
X292244Y442134D01*
X292224Y442132D01*
X292092Y442085D01*
X291961Y442042D01*
X291943Y442032D01*
X291924Y442025D01*
X291809Y441947D01*
X291692Y441872D01*
X291678Y441857D01*
X291661Y441846D01*
X291569Y441742D01*
X291474Y441641D01*
X291464Y441623D01*
X291451Y441608D01*
X291387Y441484D01*
X291320Y441362D01*
X291315Y441343D01*
X291306Y441324D01*
X291276Y441189D01*
X291241Y441054D01*
X291239Y441026D01*
X291237Y441014D01*
X291237Y440994D01*
X291231Y440893D01*
X291231Y433107D01*
X291248Y432969D01*
X291261Y432830D01*
X291268Y432811D01*
X291271Y432791D01*
X291322Y432662D01*
X291369Y432531D01*
X291380Y432514D01*
X291388Y432495D01*
X291469Y432383D01*
X291547Y432268D01*
X291563Y432254D01*
X291574Y432238D01*
X291682Y432149D01*
X291786Y432057D01*
X291804Y432048D01*
X291819Y432035D01*
X291945Y431976D01*
X292069Y431913D01*
X292089Y431908D01*
X292107Y431900D01*
X292243Y431874D01*
X292379Y431843D01*
X292400Y431844D01*
X292420Y431840D01*
X292558Y431848D01*
X292697Y431853D01*
X292717Y431858D01*
X292737Y431860D01*
X292869Y431902D01*
X293003Y431941D01*
X293020Y431951D01*
X293039Y431958D01*
X293157Y432032D01*
X293277Y432103D01*
X293298Y432121D01*
X293308Y432128D01*
X293322Y432143D01*
X293398Y432209D01*
X295237Y434049D01*
X317763Y434049D01*
X319570Y432241D01*
X319579Y432148D01*
X319586Y432129D01*
X319589Y432109D01*
X319640Y431980D01*
X319687Y431849D01*
X319698Y431832D01*
X319706Y431813D01*
X319787Y431701D01*
X319865Y431586D01*
X319881Y431572D01*
X319892Y431556D01*
X320000Y431467D01*
X320104Y431375D01*
X320122Y431366D01*
X320137Y431353D01*
X320263Y431294D01*
X320387Y431231D01*
X320407Y431226D01*
X320425Y431218D01*
X320562Y431192D01*
X320697Y431161D01*
X320718Y431162D01*
X320737Y431158D01*
X320876Y431166D01*
X321015Y431171D01*
X321035Y431176D01*
X321055Y431178D01*
X321187Y431220D01*
X321321Y431259D01*
X321338Y431269D01*
X321357Y431276D01*
X321475Y431350D01*
X321595Y431421D01*
X321616Y431439D01*
X321626Y431446D01*
X321640Y431461D01*
X321715Y431527D01*
X322237Y432049D01*
X342763Y432049D01*
X344549Y430263D01*
X344549Y413737D01*
X343158Y412347D01*
X343094Y412263D01*
X343022Y412186D01*
X342997Y412138D01*
X342964Y412096D01*
X342921Y411998D01*
X342872Y411905D01*
X342859Y411853D01*
X342837Y411804D01*
X342821Y411699D01*
X342795Y411597D01*
X342796Y411543D01*
X342787Y411490D01*
X342797Y411384D01*
X342798Y411279D01*
X342815Y411195D01*
X342817Y411173D01*
X342822Y411158D01*
X342830Y411121D01*
X343041Y410334D01*
X343041Y402539D01*
X333770Y402539D01*
X333652Y402524D01*
X333533Y402517D01*
X333495Y402504D01*
X333455Y402499D01*
X333344Y402455D01*
X333231Y402419D01*
X333196Y402397D01*
X333159Y402382D01*
X333063Y402312D01*
X332962Y402249D01*
X332934Y402219D01*
X332902Y402195D01*
X332826Y402104D01*
X332744Y402017D01*
X332725Y401982D01*
X332699Y401950D01*
X332648Y401843D01*
X332591Y401739D01*
X332580Y401699D01*
X332563Y401663D01*
X332541Y401546D01*
X332511Y401431D01*
X332507Y401370D01*
X332503Y401350D01*
X332505Y401330D01*
X332501Y401270D01*
X332501Y399999D01*
X332499Y399999D01*
X332499Y401270D01*
X332484Y401388D01*
X332477Y401507D01*
X332464Y401545D01*
X332459Y401585D01*
X332415Y401696D01*
X332379Y401809D01*
X332357Y401844D01*
X332342Y401881D01*
X332272Y401977D01*
X332209Y402078D01*
X332179Y402106D01*
X332155Y402138D01*
X332064Y402214D01*
X331977Y402296D01*
X331942Y402315D01*
X331910Y402341D01*
X331803Y402392D01*
X331699Y402449D01*
X331659Y402460D01*
X331623Y402477D01*
X331506Y402499D01*
X331391Y402529D01*
X331330Y402533D01*
X331310Y402537D01*
X331290Y402535D01*
X331230Y402539D01*
X321959Y402539D01*
X321959Y410334D01*
X322170Y411121D01*
X322184Y411226D01*
X322208Y411329D01*
X322206Y411383D01*
X322213Y411436D01*
X322201Y411541D01*
X322198Y411647D01*
X322183Y411698D01*
X322177Y411752D01*
X322139Y411851D01*
X322109Y411952D01*
X322082Y411998D01*
X322063Y412049D01*
X322002Y412135D01*
X321948Y412226D01*
X321891Y412290D01*
X321879Y412308D01*
X321867Y412318D01*
X321842Y412347D01*
X320897Y413291D01*
X320803Y413364D01*
X320714Y413443D01*
X320678Y413461D01*
X320646Y413486D01*
X320537Y413533D01*
X320431Y413587D01*
X320392Y413596D01*
X320354Y413612D01*
X320237Y413631D01*
X320121Y413657D01*
X320080Y413656D01*
X320040Y413662D01*
X319922Y413651D01*
X319803Y413647D01*
X319764Y413636D01*
X319724Y413632D01*
X319612Y413592D01*
X319497Y413559D01*
X319462Y413538D01*
X319424Y413525D01*
X319326Y413458D01*
X319223Y413397D01*
X319178Y413358D01*
X319161Y413346D01*
X319148Y413331D01*
X319102Y413291D01*
X317763Y411951D01*
X316818Y411951D01*
X316700Y411936D01*
X316581Y411929D01*
X316543Y411916D01*
X316502Y411911D01*
X316392Y411868D01*
X316279Y411831D01*
X316244Y411809D01*
X316207Y411794D01*
X316111Y411725D01*
X316010Y411661D01*
X315982Y411631D01*
X315949Y411608D01*
X315873Y411516D01*
X315792Y411429D01*
X315772Y411394D01*
X315747Y411363D01*
X315696Y411255D01*
X315638Y411151D01*
X315628Y411111D01*
X315611Y411075D01*
X315589Y410958D01*
X315559Y410843D01*
X315555Y410783D01*
X315551Y410763D01*
X315553Y410742D01*
X315549Y410682D01*
X315549Y388737D01*
X314921Y388109D01*
X314860Y388031D01*
X314792Y387959D01*
X314763Y387905D01*
X314726Y387858D01*
X314686Y387767D01*
X314638Y387680D01*
X314623Y387621D01*
X314599Y387566D01*
X314584Y387468D01*
X314559Y387372D01*
X314553Y387272D01*
X314549Y387252D01*
X314551Y387239D01*
X314549Y387211D01*
X314549Y373168D01*
X314564Y373050D01*
X314571Y372931D01*
X314584Y372893D01*
X314589Y372852D01*
X314632Y372742D01*
X314669Y372629D01*
X314691Y372594D01*
X314706Y372557D01*
X314775Y372461D01*
X314839Y372360D01*
X314869Y372332D01*
X314892Y372299D01*
X314984Y372223D01*
X315071Y372142D01*
X315106Y372122D01*
X315137Y372097D01*
X315245Y372046D01*
X315349Y371988D01*
X315389Y371978D01*
X315425Y371961D01*
X315542Y371939D01*
X315657Y371909D01*
X315717Y371905D01*
X315737Y371901D01*
X315758Y371903D01*
X315818Y371899D01*
X319370Y371899D01*
X321411Y371053D01*
X321466Y371038D01*
X321517Y371015D01*
X321619Y370996D01*
X321718Y370969D01*
X321775Y370968D01*
X321830Y370958D01*
X321933Y370966D01*
X322036Y370964D01*
X322091Y370977D01*
X322147Y370981D01*
X322245Y371014D01*
X322345Y371038D01*
X322395Y371065D01*
X322449Y371082D01*
X322535Y371139D01*
X322626Y371187D01*
X322668Y371225D01*
X322716Y371255D01*
X322763Y371307D01*
X322764Y371307D01*
X322765Y371310D01*
X322786Y371332D01*
X322862Y371401D01*
X322893Y371448D01*
X322931Y371489D01*
X322962Y371547D01*
X322966Y371552D01*
X322978Y371576D01*
X322980Y371580D01*
X323037Y371666D01*
X323055Y371720D01*
X323082Y371770D01*
X323096Y371827D01*
X323102Y371840D01*
X323109Y371879D01*
X323140Y371967D01*
X323144Y372023D01*
X323158Y372078D01*
X323157Y372129D01*
X323162Y372153D01*
X323159Y372204D01*
X323165Y372284D01*
X323155Y372340D01*
X323155Y372396D01*
X323143Y372455D01*
X323142Y372470D01*
X323137Y372486D01*
X323123Y372554D01*
X322959Y373166D01*
X322959Y376961D01*
X331730Y376961D01*
X331848Y376976D01*
X331967Y376983D01*
X332005Y376996D01*
X332045Y377001D01*
X332156Y377044D01*
X332269Y377081D01*
X332304Y377103D01*
X332341Y377118D01*
X332437Y377188D01*
X332538Y377251D01*
X332566Y377281D01*
X332598Y377305D01*
X332674Y377396D01*
X332756Y377483D01*
X332775Y377518D01*
X332801Y377549D01*
X332852Y377657D01*
X332909Y377761D01*
X332920Y377801D01*
X332937Y377837D01*
X332959Y377954D01*
X332989Y378069D01*
X332993Y378130D01*
X332997Y378150D01*
X332995Y378170D01*
X332999Y378230D01*
X332999Y379501D01*
X333001Y379501D01*
X333001Y378230D01*
X333016Y378112D01*
X333023Y377993D01*
X333036Y377955D01*
X333041Y377915D01*
X333085Y377804D01*
X333121Y377691D01*
X333143Y377656D01*
X333158Y377619D01*
X333228Y377523D01*
X333291Y377422D01*
X333321Y377394D01*
X333345Y377361D01*
X333436Y377286D01*
X333523Y377204D01*
X333558Y377184D01*
X333590Y377159D01*
X333697Y377108D01*
X333801Y377050D01*
X333841Y377040D01*
X333877Y377023D01*
X333994Y377001D01*
X334109Y376971D01*
X334170Y376967D01*
X334190Y376963D01*
X334210Y376965D01*
X334270Y376961D01*
X343041Y376961D01*
X343041Y373166D01*
X342868Y372519D01*
X342559Y371985D01*
X342507Y371862D01*
X342451Y371743D01*
X342446Y371716D01*
X342436Y371691D01*
X342416Y371560D01*
X342391Y371430D01*
X342393Y371404D01*
X342389Y371377D01*
X342403Y371245D01*
X342411Y371113D01*
X342419Y371087D01*
X342422Y371061D01*
X342468Y370936D01*
X342509Y370811D01*
X342524Y370788D01*
X342533Y370762D01*
X342609Y370653D01*
X342679Y370542D01*
X342699Y370523D01*
X342714Y370501D01*
X342815Y370415D01*
X342911Y370324D01*
X342935Y370311D01*
X342955Y370293D01*
X343074Y370234D01*
X343189Y370170D01*
X343215Y370164D01*
X343240Y370152D01*
X343370Y370124D01*
X343497Y370091D01*
X343535Y370089D01*
X343551Y370085D01*
X343573Y370086D01*
X343658Y370081D01*
X344870Y370081D01*
X344968Y370093D01*
X345067Y370096D01*
X345125Y370113D01*
X345185Y370121D01*
X345277Y370157D01*
X345372Y370185D01*
X345425Y370215D01*
X345481Y370238D01*
X345561Y370296D01*
X345646Y370346D01*
X345722Y370412D01*
X345738Y370424D01*
X345746Y370434D01*
X345767Y370452D01*
X349622Y374307D01*
X351489Y375081D01*
X372332Y375081D01*
X372476Y375099D01*
X372621Y375114D01*
X372634Y375119D01*
X372647Y375121D01*
X372782Y375174D01*
X372919Y375225D01*
X372931Y375233D01*
X372943Y375238D01*
X373061Y375323D01*
X373181Y375406D01*
X373189Y375416D01*
X373200Y375424D01*
X373294Y375537D01*
X373389Y375647D01*
X373395Y375659D01*
X373403Y375669D01*
X373465Y375801D01*
X373530Y375932D01*
X373533Y375945D01*
X373539Y375957D01*
X373566Y376100D01*
X373597Y376243D01*
X373596Y376256D01*
X373599Y376269D01*
X373590Y376414D01*
X373584Y376560D01*
X373580Y376574D01*
X373579Y376587D01*
X373534Y376725D01*
X373492Y376865D01*
X373485Y376877D01*
X373481Y376889D01*
X373403Y377013D01*
X373327Y377137D01*
X373318Y377147D01*
X373311Y377158D01*
X373204Y377258D01*
X373101Y377360D01*
X373085Y377370D01*
X373079Y377376D01*
X373064Y377384D01*
X372966Y377449D01*
X372288Y377841D01*
X371815Y378314D01*
X371480Y378893D01*
X371307Y379540D01*
X371307Y388384D01*
X376769Y388384D01*
X376887Y388399D01*
X377006Y388406D01*
X377044Y388418D01*
X377084Y388424D01*
X377195Y388467D01*
X377308Y388504D01*
X377342Y388526D01*
X377380Y388541D01*
X377476Y388610D01*
X377577Y388674D01*
X377605Y388704D01*
X377637Y388727D01*
X377713Y388819D01*
X377795Y388906D01*
X377814Y388941D01*
X377840Y388972D01*
X377891Y389080D01*
X377948Y389184D01*
X377958Y389224D01*
X377962Y389231D01*
X378070Y389266D01*
X378105Y389288D01*
X378142Y389303D01*
X378238Y389373D01*
X378339Y389436D01*
X378367Y389466D01*
X378400Y389490D01*
X378476Y389581D01*
X378557Y389668D01*
X378577Y389703D01*
X378602Y389735D01*
X378653Y389842D01*
X378711Y389947D01*
X378721Y389986D01*
X378738Y390022D01*
X378760Y390139D01*
X378790Y390255D01*
X378794Y390315D01*
X378798Y390335D01*
X378796Y390355D01*
X378800Y390415D01*
X378800Y402735D01*
X380786Y402735D01*
X381433Y402562D01*
X382012Y402227D01*
X382243Y401996D01*
X382337Y401923D01*
X382427Y401844D01*
X382463Y401826D01*
X382495Y401801D01*
X382604Y401754D01*
X382710Y401699D01*
X382749Y401691D01*
X382786Y401675D01*
X382904Y401656D01*
X383020Y401630D01*
X383061Y401631D01*
X383101Y401625D01*
X383219Y401636D01*
X383338Y401639D01*
X383377Y401651D01*
X383417Y401655D01*
X383529Y401695D01*
X383644Y401728D01*
X383678Y401748D01*
X383716Y401762D01*
X383815Y401829D01*
X383917Y401889D01*
X383963Y401929D01*
X383980Y401941D01*
X383993Y401956D01*
X384038Y401996D01*
X385285Y403243D01*
X394415Y403243D01*
X395303Y402355D01*
X395412Y402270D01*
X395519Y402181D01*
X395538Y402173D01*
X395554Y402160D01*
X395682Y402105D01*
X395807Y402046D01*
X395827Y402042D01*
X395846Y402034D01*
X395984Y402012D01*
X396120Y401986D01*
X396140Y401987D01*
X396160Y401984D01*
X396299Y401997D01*
X396437Y402006D01*
X396456Y402012D01*
X396476Y402014D01*
X396608Y402061D01*
X396739Y402104D01*
X396757Y402114D01*
X396776Y402121D01*
X396891Y402199D01*
X397008Y402274D01*
X397022Y402289D01*
X397039Y402300D01*
X397131Y402404D01*
X397226Y402505D01*
X397236Y402523D01*
X397249Y402538D01*
X397313Y402662D01*
X397380Y402784D01*
X397385Y402804D01*
X397394Y402822D01*
X397424Y402957D01*
X397459Y403092D01*
X397461Y403120D01*
X397464Y403132D01*
X397463Y403152D01*
X397469Y403253D01*
X397469Y409682D01*
X397454Y409800D01*
X397447Y409919D01*
X397434Y409957D01*
X397429Y409998D01*
X397386Y410108D01*
X397349Y410221D01*
X397327Y410256D01*
X397312Y410293D01*
X397243Y410389D01*
X397179Y410490D01*
X397149Y410518D01*
X397126Y410551D01*
X397034Y410627D01*
X396947Y410708D01*
X396912Y410728D01*
X396881Y410753D01*
X396773Y410804D01*
X396669Y410862D01*
X396629Y410872D01*
X396593Y410889D01*
X396476Y410911D01*
X396361Y410941D01*
X396301Y410945D01*
X396281Y410949D01*
X396260Y410947D01*
X396200Y410951D01*
X393237Y410951D01*
X391451Y412737D01*
X391451Y427263D01*
X393041Y428852D01*
X393114Y428947D01*
X393193Y429036D01*
X393211Y429072D01*
X393236Y429104D01*
X393283Y429213D01*
X393337Y429319D01*
X393346Y429358D01*
X393362Y429396D01*
X393381Y429513D01*
X393407Y429629D01*
X393406Y429670D01*
X393412Y429710D01*
X393401Y429828D01*
X393397Y429947D01*
X393386Y429986D01*
X393382Y430026D01*
X393342Y430139D01*
X393309Y430253D01*
X393288Y430287D01*
X393275Y430326D01*
X393208Y430424D01*
X393147Y430527D01*
X393107Y430572D01*
X393096Y430589D01*
X393081Y430602D01*
X393041Y430647D01*
X392714Y430975D01*
X392614Y431052D01*
X392519Y431134D01*
X392489Y431149D01*
X392462Y431170D01*
X392347Y431220D01*
X392234Y431276D01*
X392201Y431283D01*
X392170Y431296D01*
X392046Y431316D01*
X391923Y431342D01*
X391890Y431341D01*
X391856Y431346D01*
X391731Y431334D01*
X391606Y431329D01*
X391573Y431319D01*
X391540Y431316D01*
X391421Y431274D01*
X391301Y431237D01*
X391272Y431220D01*
X391240Y431209D01*
X391137Y431138D01*
X391029Y431073D01*
X391005Y431049D01*
X390977Y431030D01*
X390894Y430936D01*
X390806Y430846D01*
X390779Y430805D01*
X390767Y430792D01*
X390757Y430772D01*
X390740Y430747D01*
X390260Y430267D01*
X389681Y429932D01*
X389034Y429759D01*
X384739Y429759D01*
X384739Y439030D01*
X384724Y439148D01*
X384717Y439267D01*
X384704Y439305D01*
X384699Y439345D01*
X384655Y439456D01*
X384619Y439569D01*
X384597Y439604D01*
X384582Y439641D01*
X384512Y439737D01*
X384449Y439838D01*
X384419Y439866D01*
X384395Y439898D01*
X384304Y439974D01*
X384217Y440056D01*
X384182Y440075D01*
X384150Y440101D01*
X384043Y440152D01*
X383939Y440209D01*
X383899Y440220D01*
X383863Y440237D01*
X383746Y440259D01*
X383631Y440289D01*
X383570Y440293D01*
X383550Y440297D01*
X383530Y440295D01*
X383470Y440299D01*
X382199Y440299D01*
X382199Y440301D01*
X383470Y440301D01*
X383588Y440316D01*
X383707Y440323D01*
X383745Y440336D01*
X383785Y440341D01*
X383896Y440385D01*
X384009Y440421D01*
X384044Y440443D01*
X384081Y440458D01*
X384177Y440528D01*
X384278Y440591D01*
X384306Y440621D01*
X384338Y440645D01*
X384414Y440736D01*
X384496Y440823D01*
X384515Y440858D01*
X384541Y440890D01*
X384592Y440997D01*
X384649Y441101D01*
X384660Y441141D01*
X384677Y441177D01*
X384699Y441294D01*
X384729Y441409D01*
X384733Y441470D01*
X384737Y441490D01*
X384735Y441510D01*
X384739Y441570D01*
X384739Y450841D01*
X389034Y450841D01*
X389681Y450668D01*
X390260Y450333D01*
X390754Y449839D01*
X390793Y449788D01*
X390863Y449684D01*
X390889Y449662D01*
X390909Y449635D01*
X391008Y449557D01*
X391102Y449473D01*
X391132Y449458D01*
X391158Y449437D01*
X391273Y449386D01*
X391385Y449329D01*
X391418Y449321D01*
X391449Y449308D01*
X391573Y449287D01*
X391695Y449259D01*
X391729Y449260D01*
X391762Y449255D01*
X391888Y449265D01*
X392013Y449269D01*
X392046Y449278D01*
X392079Y449281D01*
X392198Y449322D01*
X392319Y449357D01*
X392348Y449374D01*
X392380Y449385D01*
X392484Y449455D01*
X392593Y449519D01*
X392629Y449551D01*
X392645Y449561D01*
X392659Y449577D01*
X392714Y449625D01*
X394437Y451349D01*
X395134Y451349D01*
X395252Y451364D01*
X395371Y451371D01*
X395409Y451384D01*
X395450Y451389D01*
X395560Y451432D01*
X395673Y451469D01*
X395708Y451491D01*
X395745Y451506D01*
X395841Y451575D01*
X395942Y451639D01*
X395970Y451669D01*
X396003Y451692D01*
X396079Y451784D01*
X396160Y451871D01*
X396180Y451906D01*
X396205Y451937D01*
X396256Y452045D01*
X396314Y452149D01*
X396324Y452189D01*
X396341Y452225D01*
X396363Y452342D01*
X396393Y452457D01*
X396397Y452517D01*
X396401Y452537D01*
X396399Y452558D01*
X396403Y452618D01*
X396403Y453713D01*
X397331Y455954D01*
X400803Y459425D01*
X400821Y459448D01*
X400843Y459468D01*
X400918Y459573D01*
X400998Y459676D01*
X401010Y459703D01*
X401027Y459728D01*
X401073Y459849D01*
X401124Y459968D01*
X401129Y459997D01*
X401139Y460025D01*
X401154Y460154D01*
X401174Y460282D01*
X401171Y460312D01*
X401175Y460341D01*
X401156Y460469D01*
X401144Y460599D01*
X401134Y460627D01*
X401130Y460656D01*
X401078Y460808D01*
X400626Y461899D01*
X400626Y466901D01*
X402540Y471522D01*
X402800Y471782D01*
X402873Y471876D01*
X402952Y471966D01*
X402971Y472002D01*
X402995Y472034D01*
X403043Y472143D01*
X403097Y472249D01*
X403106Y472288D01*
X403122Y472326D01*
X403140Y472443D01*
X403167Y472559D01*
X403165Y472600D01*
X403172Y472640D01*
X403160Y472758D01*
X403157Y472877D01*
X403146Y472916D01*
X403142Y472956D01*
X403101Y473068D01*
X403068Y473183D01*
X403048Y473217D01*
X403034Y473256D01*
X402967Y473354D01*
X402907Y473457D01*
X402867Y473502D01*
X402856Y473519D01*
X402840Y473532D01*
X402801Y473577D01*
X393898Y482480D01*
X393820Y482540D01*
X393748Y482608D01*
X393695Y482637D01*
X393647Y482674D01*
X393556Y482714D01*
X393470Y482762D01*
X393411Y482777D01*
X393355Y482801D01*
X393257Y482816D01*
X393162Y482841D01*
X393062Y482847D01*
X393041Y482851D01*
X393029Y482849D01*
X393001Y482851D01*
X382202Y482851D01*
X382131Y482887D01*
X382092Y482896D01*
X382055Y482912D01*
X381937Y482931D01*
X381821Y482957D01*
X381780Y482956D01*
X381740Y482962D01*
X381622Y482951D01*
X381503Y482947D01*
X381464Y482936D01*
X381424Y482932D01*
X381312Y482892D01*
X381197Y482859D01*
X381184Y482851D01*
X363537Y482851D01*
X362857Y483532D01*
X362779Y483592D01*
X362707Y483660D01*
X362654Y483689D01*
X362606Y483726D01*
X362515Y483766D01*
X362428Y483814D01*
X362369Y483829D01*
X362314Y483853D01*
X362216Y483868D01*
X362120Y483893D01*
X362020Y483899D01*
X362000Y483903D01*
X361987Y483901D01*
X361959Y483903D01*
X359818Y483903D01*
X359700Y483888D01*
X359581Y483881D01*
X359543Y483868D01*
X359502Y483863D01*
X359392Y483820D01*
X359279Y483783D01*
X359244Y483761D01*
X359207Y483746D01*
X359111Y483677D01*
X359010Y483613D01*
X358982Y483583D01*
X358949Y483560D01*
X358873Y483468D01*
X358792Y483381D01*
X358772Y483346D01*
X358747Y483315D01*
X358696Y483207D01*
X358638Y483103D01*
X358628Y483063D01*
X358611Y483027D01*
X358589Y482910D01*
X358559Y482795D01*
X358555Y482735D01*
X358551Y482715D01*
X358553Y482694D01*
X358549Y482634D01*
X358549Y477735D01*
X358564Y477617D01*
X358571Y477498D01*
X358584Y477460D01*
X358589Y477419D01*
X358632Y477309D01*
X358669Y477196D01*
X358691Y477161D01*
X358706Y477124D01*
X358775Y477028D01*
X358839Y476927D01*
X358869Y476899D01*
X358892Y476866D01*
X358984Y476790D01*
X359071Y476709D01*
X359106Y476689D01*
X359137Y476664D01*
X359245Y476613D01*
X359349Y476555D01*
X359389Y476545D01*
X359425Y476528D01*
X359542Y476506D01*
X359657Y476476D01*
X359717Y476472D01*
X359737Y476468D01*
X359758Y476470D01*
X359818Y476466D01*
X360369Y476466D01*
X360369Y466431D01*
X350334Y466431D01*
X350334Y469398D01*
X355221Y474285D01*
X355306Y474394D01*
X355395Y474501D01*
X355404Y474520D01*
X355416Y474536D01*
X355471Y474664D01*
X355530Y474789D01*
X355534Y474809D01*
X355542Y474828D01*
X355564Y474966D01*
X355590Y475102D01*
X355589Y475122D01*
X355592Y475142D01*
X355579Y475281D01*
X355570Y475419D01*
X355564Y475438D01*
X355562Y475458D01*
X355515Y475590D01*
X355472Y475721D01*
X355462Y475739D01*
X355455Y475758D01*
X355377Y475873D01*
X355302Y475990D01*
X355288Y476004D01*
X355276Y476021D01*
X355172Y476113D01*
X355071Y476208D01*
X355053Y476218D01*
X355038Y476231D01*
X354914Y476295D01*
X354792Y476362D01*
X354773Y476367D01*
X354755Y476376D01*
X354619Y476406D01*
X354484Y476441D01*
X354456Y476443D01*
X354444Y476446D01*
X354424Y476445D01*
X354324Y476451D01*
X339237Y476451D01*
X337451Y478237D01*
X337451Y501763D01*
X339237Y503549D01*
X356763Y503549D01*
X358549Y501763D01*
X358549Y497366D01*
X358564Y497248D01*
X358571Y497129D01*
X358584Y497091D01*
X358589Y497050D01*
X358632Y496940D01*
X358669Y496827D01*
X358691Y496792D01*
X358706Y496755D01*
X358775Y496659D01*
X358839Y496558D01*
X358869Y496530D01*
X358892Y496497D01*
X358984Y496421D01*
X359071Y496340D01*
X359106Y496320D01*
X359137Y496295D01*
X359245Y496244D01*
X359349Y496186D01*
X359389Y496176D01*
X359425Y496159D01*
X359542Y496137D01*
X359657Y496107D01*
X359717Y496103D01*
X359737Y496099D01*
X359758Y496101D01*
X359818Y496097D01*
X360482Y496097D01*
X360600Y496112D01*
X360719Y496119D01*
X360757Y496132D01*
X360798Y496137D01*
X360908Y496180D01*
X361021Y496217D01*
X361056Y496239D01*
X361093Y496254D01*
X361189Y496323D01*
X361290Y496387D01*
X361318Y496417D01*
X361351Y496440D01*
X361427Y496532D01*
X361508Y496619D01*
X361528Y496654D01*
X361553Y496685D01*
X361604Y496793D01*
X361662Y496897D01*
X361672Y496937D01*
X361689Y496973D01*
X361711Y497090D01*
X361723Y497134D01*
X363537Y498949D01*
X381199Y498949D01*
X381269Y498913D01*
X381309Y498904D01*
X381346Y498888D01*
X381463Y498869D01*
X381580Y498843D01*
X381620Y498844D01*
X381660Y498838D01*
X381778Y498849D01*
X381897Y498853D01*
X381936Y498864D01*
X381976Y498868D01*
X382089Y498908D01*
X382203Y498941D01*
X382216Y498949D01*
X399863Y498949D01*
X401649Y497163D01*
X401649Y492499D01*
X401661Y492401D01*
X401664Y492302D01*
X401681Y492244D01*
X401689Y492184D01*
X401725Y492091D01*
X401753Y491996D01*
X401783Y491944D01*
X401806Y491888D01*
X401864Y491808D01*
X401914Y491722D01*
X401980Y491647D01*
X401992Y491631D01*
X402002Y491623D01*
X402020Y491602D01*
X416475Y477147D01*
X417140Y476482D01*
X417147Y476477D01*
X417153Y476469D01*
X417273Y476379D01*
X417391Y476287D01*
X417399Y476284D01*
X417407Y476278D01*
X417551Y476207D01*
X420322Y475060D01*
X423860Y471522D01*
X425774Y466901D01*
X425774Y461899D01*
X423860Y457278D01*
X420322Y453740D01*
X415701Y451826D01*
X412550Y451826D01*
X412412Y451809D01*
X412273Y451796D01*
X412254Y451789D01*
X412234Y451786D01*
X412105Y451735D01*
X411974Y451688D01*
X411957Y451677D01*
X411938Y451669D01*
X411826Y451588D01*
X411711Y451510D01*
X411697Y451494D01*
X411681Y451483D01*
X411592Y451376D01*
X411500Y451271D01*
X411491Y451253D01*
X411478Y451238D01*
X411419Y451112D01*
X411356Y450988D01*
X411351Y450968D01*
X411343Y450950D01*
X411317Y450814D01*
X411286Y450678D01*
X411287Y450657D01*
X411283Y450638D01*
X411291Y450499D01*
X411296Y450360D01*
X411301Y450340D01*
X411303Y450320D01*
X411345Y450188D01*
X411384Y450054D01*
X411394Y450037D01*
X411401Y450018D01*
X411475Y449900D01*
X411546Y449780D01*
X411564Y449759D01*
X411571Y449749D01*
X411586Y449735D01*
X411652Y449659D01*
X411749Y449563D01*
X411749Y431037D01*
X411159Y430447D01*
X411086Y430353D01*
X411007Y430264D01*
X410989Y430228D01*
X410964Y430196D01*
X410917Y430087D01*
X410863Y429981D01*
X410854Y429942D01*
X410838Y429904D01*
X410819Y429787D01*
X410793Y429671D01*
X410794Y429630D01*
X410788Y429590D01*
X410799Y429472D01*
X410803Y429353D01*
X410814Y429314D01*
X410818Y429274D01*
X410858Y429162D01*
X410891Y429047D01*
X410912Y429012D01*
X410925Y428974D01*
X410992Y428876D01*
X411053Y428773D01*
X411092Y428728D01*
X411104Y428711D01*
X411119Y428698D01*
X411159Y428652D01*
X412549Y427263D01*
X412549Y412737D01*
X410763Y410951D01*
X408900Y410951D01*
X408782Y410936D01*
X408663Y410929D01*
X408625Y410916D01*
X408584Y410911D01*
X408474Y410868D01*
X408361Y410831D01*
X408326Y410809D01*
X408289Y410794D01*
X408193Y410725D01*
X408092Y410661D01*
X408064Y410631D01*
X408031Y410608D01*
X407955Y410516D01*
X407874Y410429D01*
X407854Y410394D01*
X407829Y410363D01*
X407778Y410255D01*
X407720Y410151D01*
X407710Y410111D01*
X407693Y410075D01*
X407671Y409958D01*
X407641Y409843D01*
X407637Y409783D01*
X407633Y409763D01*
X407635Y409742D01*
X407631Y409682D01*
X407631Y403253D01*
X407643Y403154D01*
X407646Y403055D01*
X407657Y403016D01*
X407661Y402976D01*
X407668Y402957D01*
X407671Y402937D01*
X407707Y402845D01*
X407735Y402750D01*
X407755Y402715D01*
X407769Y402677D01*
X407780Y402660D01*
X407788Y402641D01*
X407846Y402561D01*
X407896Y402476D01*
X407936Y402431D01*
X407947Y402414D01*
X407963Y402400D01*
X407974Y402384D01*
X407984Y402376D01*
X408002Y402355D01*
X408003Y402355D01*
X408097Y402282D01*
X408186Y402203D01*
X408204Y402194D01*
X408219Y402181D01*
X408238Y402173D01*
X408254Y402160D01*
X408363Y402113D01*
X408469Y402059D01*
X408489Y402054D01*
X408507Y402046D01*
X408527Y402042D01*
X408546Y402034D01*
X408663Y402015D01*
X408779Y401989D01*
X408800Y401990D01*
X408819Y401986D01*
X408839Y401987D01*
X408860Y401984D01*
X408978Y401995D01*
X409097Y401999D01*
X409117Y402004D01*
X409137Y402006D01*
X409156Y402012D01*
X409176Y402014D01*
X409288Y402054D01*
X409403Y402087D01*
X409420Y402098D01*
X409439Y402104D01*
X409456Y402114D01*
X409476Y402121D01*
X409574Y402188D01*
X409677Y402249D01*
X409698Y402267D01*
X409708Y402274D01*
X409722Y402288D01*
X409739Y402300D01*
X409752Y402315D01*
X409798Y402355D01*
X410685Y403243D01*
X419907Y403243D01*
X419972Y403215D01*
X420097Y403156D01*
X420117Y403152D01*
X420136Y403144D01*
X420273Y403122D01*
X420410Y403096D01*
X420430Y403097D01*
X420450Y403094D01*
X420588Y403107D01*
X420727Y403116D01*
X420746Y403122D01*
X420766Y403124D01*
X420898Y403171D01*
X421029Y403214D01*
X421046Y403224D01*
X421066Y403231D01*
X421180Y403309D01*
X421298Y403384D01*
X421312Y403399D01*
X421329Y403410D01*
X421420Y403514D01*
X421516Y403615D01*
X421526Y403633D01*
X421539Y403648D01*
X421602Y403772D01*
X421670Y403894D01*
X421675Y403913D01*
X421684Y403931D01*
X421714Y404068D01*
X421749Y404202D01*
X421751Y404230D01*
X421754Y404242D01*
X421753Y404262D01*
X421759Y404363D01*
X421759Y408061D01*
X431030Y408061D01*
X431148Y408076D01*
X431267Y408083D01*
X431305Y408096D01*
X431345Y408101D01*
X431456Y408144D01*
X431569Y408181D01*
X431604Y408203D01*
X431641Y408218D01*
X431737Y408288D01*
X431838Y408351D01*
X431866Y408381D01*
X431898Y408405D01*
X431974Y408496D01*
X432056Y408583D01*
X432075Y408618D01*
X432101Y408649D01*
X432152Y408757D01*
X432209Y408861D01*
X432220Y408901D01*
X432237Y408937D01*
X432259Y409054D01*
X432289Y409169D01*
X432293Y409230D01*
X432297Y409250D01*
X432295Y409270D01*
X432299Y409330D01*
X432299Y410601D01*
X432301Y410601D01*
X432301Y409330D01*
X432316Y409212D01*
X432323Y409093D01*
X432336Y409055D01*
X432341Y409015D01*
X432385Y408904D01*
X432421Y408791D01*
X432443Y408756D01*
X432458Y408719D01*
X432528Y408623D01*
X432591Y408522D01*
X432621Y408494D01*
X432645Y408461D01*
X432736Y408386D01*
X432823Y408304D01*
X432858Y408284D01*
X432890Y408259D01*
X432997Y408208D01*
X433101Y408150D01*
X433141Y408140D01*
X433177Y408123D01*
X433294Y408101D01*
X433409Y408071D01*
X433470Y408067D01*
X433490Y408063D01*
X433510Y408065D01*
X433570Y408061D01*
X442841Y408061D01*
X442841Y403766D01*
X442668Y403119D01*
X442333Y402540D01*
X441839Y402046D01*
X441788Y402007D01*
X441684Y401936D01*
X441662Y401911D01*
X441635Y401891D01*
X441557Y401792D01*
X441473Y401698D01*
X441458Y401668D01*
X441437Y401642D01*
X441386Y401527D01*
X441329Y401415D01*
X441321Y401382D01*
X441308Y401351D01*
X441287Y401227D01*
X441259Y401105D01*
X441260Y401071D01*
X441255Y401038D01*
X441265Y400913D01*
X441269Y400787D01*
X441278Y400754D01*
X441281Y400721D01*
X441322Y400602D01*
X441357Y400481D01*
X441374Y400452D01*
X441385Y400420D01*
X441455Y400316D01*
X441519Y400207D01*
X441551Y400171D01*
X441561Y400155D01*
X441577Y400141D01*
X441625Y400086D01*
X443349Y398363D01*
X443349Y385410D01*
X443364Y385292D01*
X443371Y385173D01*
X443384Y385135D01*
X443389Y385094D01*
X443432Y384984D01*
X443469Y384871D01*
X443491Y384836D01*
X443506Y384799D01*
X443575Y384703D01*
X443639Y384602D01*
X443669Y384574D01*
X443692Y384541D01*
X443784Y384465D01*
X443871Y384384D01*
X443906Y384364D01*
X443937Y384339D01*
X444045Y384288D01*
X444149Y384230D01*
X444189Y384220D01*
X444225Y384203D01*
X444342Y384181D01*
X444457Y384151D01*
X444517Y384147D01*
X444537Y384143D01*
X444558Y384145D01*
X444618Y384141D01*
X448161Y384141D01*
X448161Y376370D01*
X448176Y376252D01*
X448183Y376133D01*
X448196Y376095D01*
X448201Y376055D01*
X448244Y375944D01*
X448281Y375831D01*
X448303Y375796D01*
X448318Y375759D01*
X448388Y375663D01*
X448451Y375562D01*
X448481Y375534D01*
X448505Y375502D01*
X448596Y375426D01*
X448683Y375344D01*
X448718Y375325D01*
X448749Y375299D01*
X448857Y375248D01*
X448961Y375191D01*
X449001Y375180D01*
X449037Y375163D01*
X449154Y375141D01*
X449269Y375111D01*
X449330Y375107D01*
X449350Y375103D01*
X449370Y375105D01*
X449430Y375101D01*
X450701Y375101D01*
X450701Y373830D01*
X450716Y373712D01*
X450723Y373593D01*
X450736Y373555D01*
X450741Y373515D01*
X450785Y373404D01*
X450821Y373291D01*
X450843Y373256D01*
X450858Y373219D01*
X450928Y373123D01*
X450991Y373022D01*
X451021Y372994D01*
X451045Y372961D01*
X451136Y372886D01*
X451223Y372804D01*
X451258Y372784D01*
X451290Y372759D01*
X451397Y372708D01*
X451501Y372650D01*
X451541Y372640D01*
X451577Y372623D01*
X451694Y372601D01*
X451809Y372571D01*
X451870Y372567D01*
X451890Y372563D01*
X451910Y372565D01*
X451970Y372561D01*
X461241Y372561D01*
X461241Y368266D01*
X461068Y367619D01*
X460733Y367040D01*
X460239Y366546D01*
X460188Y366507D01*
X460084Y366436D01*
X460062Y366411D01*
X460035Y366391D01*
X459957Y366292D01*
X459873Y366198D01*
X459858Y366168D01*
X459837Y366142D01*
X459786Y366027D01*
X459729Y365915D01*
X459721Y365882D01*
X459708Y365851D01*
X459687Y365727D01*
X459659Y365605D01*
X459660Y365571D01*
X459655Y365538D01*
X459665Y365413D01*
X459669Y365287D01*
X459678Y365254D01*
X459681Y365221D01*
X459722Y365102D01*
X459757Y364981D01*
X459774Y364952D01*
X459785Y364920D01*
X459855Y364815D01*
X459919Y364707D01*
X459951Y364671D01*
X459961Y364655D01*
X459977Y364641D01*
X460025Y364586D01*
X461749Y362863D01*
X461749Y347337D01*
X459963Y345551D01*
X456986Y345551D01*
X456957Y345548D01*
X456927Y345550D01*
X456799Y345528D01*
X456670Y345511D01*
X456643Y345501D01*
X456614Y345496D01*
X456495Y345442D01*
X456375Y345394D01*
X456351Y345377D01*
X456324Y345365D01*
X456222Y345284D01*
X456117Y345208D01*
X456098Y345185D01*
X456075Y345166D01*
X455997Y345063D01*
X455914Y344963D01*
X455902Y344936D01*
X455884Y344912D01*
X455813Y344768D01*
X455007Y342822D01*
X453399Y341214D01*
X452271Y340085D01*
X452210Y340007D01*
X452142Y339935D01*
X452113Y339882D01*
X452076Y339834D01*
X452036Y339743D01*
X451988Y339656D01*
X451973Y339598D01*
X451949Y339542D01*
X451934Y339444D01*
X451909Y339348D01*
X451903Y339248D01*
X451899Y339228D01*
X451901Y339216D01*
X451899Y339188D01*
X451899Y335630D01*
X450468Y332176D01*
X447824Y329532D01*
X444370Y328101D01*
X440630Y328101D01*
X437176Y329532D01*
X434532Y332176D01*
X433101Y335630D01*
X433101Y339370D01*
X434479Y342696D01*
X434492Y342744D01*
X434514Y342789D01*
X434534Y342897D01*
X434563Y343003D01*
X434564Y343053D01*
X434573Y343102D01*
X434567Y343211D01*
X434568Y343321D01*
X434557Y343369D01*
X434554Y343419D01*
X434520Y343523D01*
X434494Y343630D01*
X434471Y343674D01*
X434456Y343721D01*
X434397Y343814D01*
X434345Y343911D01*
X434312Y343948D01*
X434285Y343990D01*
X434205Y344065D01*
X434131Y344147D01*
X434090Y344174D01*
X434054Y344208D01*
X433958Y344261D01*
X433866Y344321D01*
X433819Y344338D01*
X433775Y344362D01*
X433669Y344389D01*
X433565Y344425D01*
X433515Y344429D01*
X433467Y344441D01*
X433307Y344451D01*
X426637Y344451D01*
X425034Y346054D01*
X424940Y346127D01*
X424851Y346206D01*
X424815Y346224D01*
X424783Y346249D01*
X424674Y346296D01*
X424568Y346350D01*
X424528Y346359D01*
X424491Y346375D01*
X424374Y346394D01*
X424257Y346420D01*
X424217Y346419D01*
X424177Y346425D01*
X424058Y346414D01*
X423940Y346410D01*
X423901Y346399D01*
X423860Y346395D01*
X423748Y346355D01*
X423634Y346322D01*
X423599Y346302D01*
X423561Y346288D01*
X423463Y346221D01*
X423360Y346160D01*
X423315Y346121D01*
X423298Y346109D01*
X423285Y346094D01*
X423239Y346054D01*
X422878Y345693D01*
X421011Y344919D01*
X385130Y344919D01*
X385032Y344907D01*
X384933Y344904D01*
X384875Y344887D01*
X384815Y344879D01*
X384723Y344843D01*
X384628Y344815D01*
X384575Y344785D01*
X384519Y344762D01*
X384439Y344704D01*
X384354Y344654D01*
X384278Y344588D01*
X384262Y344576D01*
X384254Y344566D01*
X384233Y344548D01*
X382952Y343267D01*
X382892Y343189D01*
X382824Y343117D01*
X382795Y343064D01*
X382758Y343016D01*
X382718Y342925D01*
X382670Y342838D01*
X382655Y342780D01*
X382631Y342724D01*
X382616Y342626D01*
X382591Y342530D01*
X382585Y342430D01*
X382581Y342410D01*
X382583Y342398D01*
X382581Y342370D01*
X382581Y342135D01*
X382598Y341997D01*
X382611Y341858D01*
X382618Y341839D01*
X382621Y341819D01*
X382672Y341690D01*
X382719Y341559D01*
X382730Y341542D01*
X382738Y341523D01*
X382819Y341411D01*
X382897Y341296D01*
X382913Y341282D01*
X382924Y341266D01*
X383032Y341177D01*
X383136Y341085D01*
X383154Y341076D01*
X383169Y341063D01*
X383295Y341004D01*
X383419Y340941D01*
X383439Y340936D01*
X383457Y340928D01*
X383594Y340902D01*
X383729Y340871D01*
X383750Y340872D01*
X383769Y340868D01*
X383908Y340876D01*
X384047Y340881D01*
X384067Y340886D01*
X384087Y340888D01*
X384219Y340930D01*
X384353Y340969D01*
X384370Y340979D01*
X384389Y340986D01*
X384507Y341060D01*
X384627Y341131D01*
X384648Y341149D01*
X384658Y341156D01*
X384672Y341171D01*
X384747Y341237D01*
X385285Y341775D01*
X394415Y341775D01*
X395662Y340528D01*
X395756Y340455D01*
X395845Y340376D01*
X395881Y340358D01*
X395913Y340333D01*
X396022Y340286D01*
X396128Y340231D01*
X396168Y340223D01*
X396205Y340207D01*
X396323Y340188D01*
X396439Y340162D01*
X396479Y340163D01*
X396519Y340157D01*
X396638Y340168D01*
X396757Y340172D01*
X396795Y340183D01*
X396836Y340187D01*
X396948Y340227D01*
X397062Y340260D01*
X397097Y340280D01*
X397135Y340294D01*
X397233Y340361D01*
X397336Y340421D01*
X397381Y340461D01*
X397398Y340473D01*
X397412Y340488D01*
X397457Y340528D01*
X397688Y340759D01*
X398267Y341094D01*
X398914Y341267D01*
X400900Y341267D01*
X400900Y328947D01*
X400915Y328829D01*
X400922Y328710D01*
X400934Y328672D01*
X400940Y328632D01*
X400962Y328576D01*
X400940Y328461D01*
X400910Y328345D01*
X400906Y328285D01*
X400902Y328265D01*
X400904Y328245D01*
X400900Y328185D01*
X400900Y315865D01*
X398914Y315865D01*
X398267Y316038D01*
X397688Y316373D01*
X397457Y316604D01*
X397363Y316677D01*
X397273Y316756D01*
X397237Y316774D01*
X397205Y316799D01*
X397096Y316846D01*
X396990Y316901D01*
X396951Y316909D01*
X396914Y316925D01*
X396796Y316944D01*
X396680Y316970D01*
X396639Y316969D01*
X396600Y316975D01*
X396481Y316964D01*
X396362Y316961D01*
X396323Y316949D01*
X396283Y316945D01*
X396171Y316905D01*
X396057Y316872D01*
X396022Y316852D01*
X395984Y316838D01*
X395885Y316771D01*
X395783Y316711D01*
X395737Y316671D01*
X395721Y316659D01*
X395707Y316644D01*
X395662Y316604D01*
X394780Y315722D01*
X394774Y315715D01*
X394767Y315709D01*
X394677Y315590D01*
X394585Y315471D01*
X394581Y315462D01*
X394575Y315455D01*
X394504Y315310D01*
X394157Y314472D01*
X382878Y303193D01*
X381011Y302419D01*
X373937Y302419D01*
X373799Y302402D01*
X373660Y302389D01*
X373641Y302382D01*
X373621Y302379D01*
X373492Y302328D01*
X373361Y302281D01*
X373344Y302270D01*
X373326Y302262D01*
X373213Y302181D01*
X373098Y302103D01*
X373085Y302087D01*
X373068Y302076D01*
X372979Y301968D01*
X372888Y301864D01*
X372878Y301846D01*
X372865Y301831D01*
X372806Y301705D01*
X372743Y301581D01*
X372738Y301561D01*
X372730Y301543D01*
X372704Y301407D01*
X372673Y301271D01*
X372674Y301250D01*
X372670Y301231D01*
X372679Y301092D01*
X372683Y300953D01*
X372689Y300933D01*
X372690Y300913D01*
X372733Y300781D01*
X372771Y300647D01*
X372782Y300630D01*
X372788Y300611D01*
X372862Y300493D01*
X372933Y300373D01*
X372951Y300352D01*
X372958Y300342D01*
X372973Y300328D01*
X373039Y300253D01*
X375468Y297824D01*
X376899Y294370D01*
X376899Y290410D01*
X376900Y290400D01*
X376899Y290391D01*
X376920Y290242D01*
X376939Y290094D01*
X376942Y290085D01*
X376943Y290076D01*
X376995Y289924D01*
X377581Y288511D01*
X377581Y286237D01*
X377593Y286139D01*
X377596Y286040D01*
X377613Y285981D01*
X377621Y285921D01*
X377657Y285829D01*
X377685Y285734D01*
X377715Y285682D01*
X377738Y285626D01*
X377796Y285546D01*
X377846Y285460D01*
X377912Y285385D01*
X377924Y285368D01*
X377934Y285360D01*
X377952Y285339D01*
X380468Y282824D01*
X381899Y279370D01*
X381899Y275630D01*
X380468Y272176D01*
X377952Y269661D01*
X377892Y269582D01*
X377824Y269510D01*
X377795Y269457D01*
X377758Y269409D01*
X377718Y269318D01*
X377670Y269232D01*
X377655Y269173D01*
X377631Y269118D01*
X377616Y269020D01*
X377591Y268924D01*
X377585Y268824D01*
X377581Y268803D01*
X377583Y268791D01*
X377581Y268763D01*
X377581Y265818D01*
X377596Y265700D01*
X377603Y265581D01*
X377616Y265543D01*
X377621Y265502D01*
X377664Y265392D01*
X377701Y265279D01*
X377723Y265244D01*
X377738Y265207D01*
X377807Y265111D01*
X377871Y265010D01*
X377901Y264982D01*
X377924Y264949D01*
X378016Y264873D01*
X378103Y264792D01*
X378138Y264772D01*
X378169Y264747D01*
X378277Y264696D01*
X378381Y264638D01*
X378421Y264628D01*
X378457Y264611D01*
X378574Y264589D01*
X378689Y264559D01*
X378749Y264555D01*
X378769Y264551D01*
X378790Y264553D01*
X378850Y264549D01*
X380663Y264549D01*
X382449Y262763D01*
X382449Y240237D01*
X380663Y238451D01*
X362137Y238451D01*
X360351Y240237D01*
X360351Y262763D01*
X362137Y264549D01*
X366150Y264549D01*
X366268Y264564D01*
X366387Y264571D01*
X366425Y264584D01*
X366466Y264589D01*
X366576Y264632D01*
X366689Y264669D01*
X366724Y264691D01*
X366761Y264706D01*
X366857Y264775D01*
X366958Y264839D01*
X366986Y264869D01*
X367019Y264892D01*
X367095Y264984D01*
X367176Y265071D01*
X367196Y265106D01*
X367221Y265137D01*
X367272Y265245D01*
X367330Y265349D01*
X367340Y265389D01*
X367357Y265425D01*
X367379Y265542D01*
X367409Y265657D01*
X367413Y265717D01*
X367417Y265737D01*
X367415Y265758D01*
X367419Y265818D01*
X367419Y268763D01*
X367407Y268861D01*
X367404Y268960D01*
X367387Y269019D01*
X367379Y269079D01*
X367343Y269171D01*
X367315Y269266D01*
X367285Y269318D01*
X367262Y269374D01*
X367204Y269454D01*
X367154Y269540D01*
X367088Y269615D01*
X367076Y269632D01*
X367066Y269640D01*
X367048Y269661D01*
X364532Y272176D01*
X363101Y275630D01*
X363101Y279370D01*
X364305Y282276D01*
X364337Y282391D01*
X364375Y282504D01*
X364379Y282544D01*
X364389Y282583D01*
X364391Y282702D01*
X364401Y282821D01*
X364394Y282861D01*
X364394Y282901D01*
X364366Y283017D01*
X364346Y283134D01*
X364330Y283171D01*
X364320Y283210D01*
X364264Y283316D01*
X364216Y283424D01*
X364190Y283456D01*
X364171Y283491D01*
X364091Y283579D01*
X364017Y283673D01*
X363985Y283697D01*
X363957Y283727D01*
X363858Y283792D01*
X363763Y283864D01*
X363709Y283890D01*
X363692Y283902D01*
X363672Y283908D01*
X363618Y283935D01*
X362176Y284532D01*
X359532Y287176D01*
X358101Y290630D01*
X358101Y290682D01*
X358086Y290800D01*
X358079Y290919D01*
X358066Y290957D01*
X358061Y290998D01*
X358018Y291108D01*
X357981Y291221D01*
X357959Y291256D01*
X357944Y291293D01*
X357875Y291389D01*
X357811Y291490D01*
X357781Y291518D01*
X357758Y291551D01*
X357666Y291627D01*
X357579Y291708D01*
X357544Y291728D01*
X357513Y291753D01*
X357405Y291804D01*
X357301Y291862D01*
X357261Y291872D01*
X357225Y291889D01*
X357108Y291911D01*
X356993Y291941D01*
X356933Y291945D01*
X356913Y291949D01*
X356892Y291947D01*
X356832Y291951D01*
X355850Y291951D01*
X355732Y291936D01*
X355613Y291929D01*
X355575Y291916D01*
X355534Y291911D01*
X355424Y291868D01*
X355311Y291831D01*
X355276Y291809D01*
X355239Y291794D01*
X355143Y291725D01*
X355042Y291661D01*
X355014Y291631D01*
X354981Y291608D01*
X354905Y291516D01*
X354824Y291429D01*
X354804Y291394D01*
X354779Y291363D01*
X354728Y291255D01*
X354670Y291151D01*
X354660Y291111D01*
X354643Y291075D01*
X354621Y290958D01*
X354591Y290843D01*
X354587Y290783D01*
X354583Y290763D01*
X354585Y290742D01*
X354581Y290682D01*
X354581Y284237D01*
X354593Y284139D01*
X354596Y284040D01*
X354613Y283981D01*
X354621Y283921D01*
X354657Y283829D01*
X354685Y283734D01*
X354715Y283682D01*
X354738Y283626D01*
X354796Y283546D01*
X354846Y283460D01*
X354912Y283385D01*
X354924Y283368D01*
X354934Y283360D01*
X354952Y283339D01*
X355468Y282824D01*
X356899Y279370D01*
X356899Y275630D01*
X355468Y272176D01*
X352824Y269532D01*
X349370Y268101D01*
X345630Y268101D01*
X342176Y269532D01*
X342161Y269548D01*
X342082Y269608D01*
X342010Y269676D01*
X341957Y269705D01*
X341909Y269742D01*
X341818Y269782D01*
X341732Y269830D01*
X341673Y269845D01*
X341618Y269869D01*
X341520Y269884D01*
X341424Y269909D01*
X341324Y269915D01*
X341303Y269919D01*
X341291Y269917D01*
X341263Y269919D01*
X325518Y269919D01*
X325400Y269904D01*
X325281Y269897D01*
X325243Y269884D01*
X325202Y269879D01*
X325092Y269836D01*
X324979Y269799D01*
X324944Y269777D01*
X324907Y269762D01*
X324811Y269693D01*
X324710Y269629D01*
X324682Y269599D01*
X324649Y269576D01*
X324573Y269484D01*
X324492Y269397D01*
X324472Y269362D01*
X324447Y269331D01*
X324396Y269223D01*
X324338Y269119D01*
X324328Y269079D01*
X324311Y269043D01*
X324289Y268926D01*
X324259Y268811D01*
X324255Y268751D01*
X324251Y268731D01*
X324253Y268710D01*
X324249Y268650D01*
X324249Y264637D01*
X324209Y264598D01*
X324136Y264503D01*
X324057Y264414D01*
X324039Y264378D01*
X324014Y264346D01*
X323967Y264237D01*
X323913Y264131D01*
X323904Y264091D01*
X323888Y264054D01*
X323869Y263937D01*
X323843Y263821D01*
X323844Y263780D01*
X323838Y263740D01*
X323849Y263622D01*
X323853Y263503D01*
X323864Y263464D01*
X323868Y263424D01*
X323908Y263311D01*
X323941Y263197D01*
X323962Y263163D01*
X323975Y263124D01*
X324042Y263026D01*
X324103Y262923D01*
X324142Y262878D01*
X324154Y262861D01*
X324169Y262848D01*
X324209Y262803D01*
X324449Y262563D01*
X324449Y258866D01*
X324464Y258748D01*
X324471Y258629D01*
X324484Y258591D01*
X324489Y258550D01*
X324532Y258440D01*
X324569Y258327D01*
X324591Y258292D01*
X324606Y258255D01*
X324675Y258159D01*
X324739Y258058D01*
X324769Y258030D01*
X324792Y257997D01*
X324884Y257921D01*
X324971Y257840D01*
X325006Y257820D01*
X325037Y257795D01*
X325145Y257744D01*
X325249Y257686D01*
X325289Y257676D01*
X325325Y257659D01*
X325442Y257637D01*
X325557Y257607D01*
X325617Y257603D01*
X325637Y257599D01*
X325658Y257601D01*
X325718Y257597D01*
X331082Y257597D01*
X331200Y257612D01*
X331319Y257619D01*
X331357Y257632D01*
X331398Y257637D01*
X331508Y257680D01*
X331621Y257717D01*
X331656Y257739D01*
X331693Y257754D01*
X331789Y257823D01*
X331890Y257887D01*
X331918Y257917D01*
X331951Y257940D01*
X332027Y258032D01*
X332108Y258119D01*
X332128Y258154D01*
X332153Y258185D01*
X332204Y258293D01*
X332262Y258397D01*
X332272Y258437D01*
X332289Y258473D01*
X332311Y258590D01*
X332341Y258705D01*
X332345Y258765D01*
X332349Y258785D01*
X332347Y258806D01*
X332351Y258866D01*
X332351Y262763D01*
X334137Y264549D01*
X352663Y264549D01*
X354449Y262763D01*
X354449Y240237D01*
X352663Y238451D01*
X334137Y238451D01*
X332351Y240237D01*
X332351Y244134D01*
X332336Y244252D01*
X332329Y244371D01*
X332316Y244409D01*
X332311Y244450D01*
X332268Y244560D01*
X332231Y244673D01*
X332209Y244708D01*
X332194Y244745D01*
X332125Y244841D01*
X332061Y244942D01*
X332031Y244970D01*
X332008Y245003D01*
X331916Y245079D01*
X331829Y245160D01*
X331794Y245180D01*
X331763Y245205D01*
X331655Y245256D01*
X331551Y245314D01*
X331511Y245324D01*
X331475Y245341D01*
X331358Y245363D01*
X331243Y245393D01*
X331183Y245397D01*
X331163Y245401D01*
X331142Y245399D01*
X331082Y245403D01*
X325718Y245403D01*
X325600Y245388D01*
X325481Y245381D01*
X325443Y245368D01*
X325402Y245363D01*
X325292Y245320D01*
X325179Y245283D01*
X325144Y245261D01*
X325107Y245246D01*
X325011Y245177D01*
X324910Y245113D01*
X324882Y245083D01*
X324849Y245060D01*
X324773Y244968D01*
X324692Y244881D01*
X324672Y244846D01*
X324647Y244815D01*
X324596Y244707D01*
X324538Y244603D01*
X324528Y244563D01*
X324511Y244527D01*
X324489Y244410D01*
X324459Y244295D01*
X324455Y244235D01*
X324451Y244215D01*
X324453Y244194D01*
X324449Y244134D01*
X324449Y240037D01*
X322663Y238251D01*
X309910Y238251D01*
X309763Y238233D01*
X309617Y238217D01*
X309606Y238213D01*
X309594Y238211D01*
X309457Y238157D01*
X309319Y238105D01*
X309309Y238099D01*
X309299Y238094D01*
X309179Y238007D01*
X309058Y237923D01*
X309051Y237914D01*
X309041Y237908D01*
X308947Y237794D01*
X308851Y237682D01*
X308846Y237671D01*
X308839Y237663D01*
X308776Y237529D01*
X308710Y237397D01*
X308708Y237385D01*
X308703Y237375D01*
X308675Y237230D01*
X308645Y237085D01*
X308645Y237070D01*
X308643Y237063D01*
X308644Y237047D01*
X308642Y236924D01*
X308672Y236269D01*
X231523Y236269D01*
X231523Y256834D01*
X231509Y256960D01*
X231502Y257086D01*
X231489Y257132D01*
X231483Y257180D01*
X231441Y257299D01*
X231406Y257421D01*
X231382Y257463D01*
X231366Y257509D01*
X231297Y257615D01*
X231236Y257725D01*
X231196Y257771D01*
X231177Y257801D01*
X231142Y257835D01*
X231077Y257911D01*
X228909Y260080D01*
X226629Y265583D01*
X226592Y265650D01*
X226564Y265721D01*
X226508Y265802D01*
X226460Y265888D01*
X226408Y265944D01*
X226365Y266007D01*
X226292Y266073D01*
X226226Y266146D01*
X226163Y266189D01*
X226106Y266240D01*
X226020Y266288D01*
X225939Y266344D01*
X225868Y266372D01*
X225801Y266409D01*
X225706Y266436D01*
X225615Y266472D01*
X225539Y266483D01*
X225466Y266504D01*
X225317Y266516D01*
X225270Y266523D01*
X225251Y266521D01*
X225222Y266523D01*
X87500Y266523D01*
X87374Y266509D01*
X87248Y266502D01*
X87202Y266489D01*
X87154Y266483D01*
X87035Y266441D01*
X86913Y266406D01*
X86871Y266382D01*
X86826Y266366D01*
X86719Y266297D01*
X86609Y266236D01*
X86563Y266196D01*
X86533Y266177D01*
X86499Y266142D01*
X86423Y266077D01*
X76869Y256523D01*
X62500Y256523D01*
X62474Y256520D01*
X62448Y256522D01*
X62301Y256500D01*
X62154Y256483D01*
X62129Y256475D01*
X62103Y256471D01*
X61965Y256416D01*
X61826Y256366D01*
X61804Y256352D01*
X61779Y256342D01*
X61658Y256257D01*
X61533Y256177D01*
X61515Y256158D01*
X61493Y256143D01*
X61394Y256033D01*
X61291Y255926D01*
X61277Y255904D01*
X61260Y255884D01*
X61188Y255754D01*
X61112Y255627D01*
X61104Y255602D01*
X61091Y255579D01*
X61051Y255436D01*
X61006Y255295D01*
X61004Y255269D01*
X60996Y255244D01*
X60977Y255000D01*
X60977Y246523D01*
X50000Y246523D01*
X49974Y246520D01*
X49948Y246522D01*
X49801Y246500D01*
X49654Y246483D01*
X49629Y246475D01*
X49603Y246471D01*
X49465Y246416D01*
X49326Y246366D01*
X49304Y246352D01*
X49279Y246342D01*
X49158Y246257D01*
X49033Y246177D01*
X49015Y246158D01*
X48993Y246143D01*
X48894Y246033D01*
X48791Y245926D01*
X48777Y245904D01*
X48760Y245884D01*
X48688Y245754D01*
X48612Y245627D01*
X48604Y245602D01*
X48591Y245579D01*
X48551Y245436D01*
X48506Y245295D01*
X48504Y245269D01*
X48496Y245244D01*
X48477Y245000D01*
X48477Y217500D01*
X48491Y217374D01*
X48498Y217248D01*
X48511Y217202D01*
X48517Y217154D01*
X48559Y217035D01*
X48594Y216913D01*
X48618Y216871D01*
X48634Y216826D01*
X48703Y216719D01*
X48764Y216609D01*
X48804Y216563D01*
X48823Y216533D01*
X48858Y216499D01*
X48923Y216423D01*
X58923Y206423D01*
X59022Y206344D01*
X59116Y206260D01*
X59158Y206236D01*
X59196Y206206D01*
X59310Y206152D01*
X59421Y206091D01*
X59467Y206078D01*
X59511Y206057D01*
X59634Y206031D01*
X59756Y205996D01*
X59817Y205992D01*
X59852Y205984D01*
X59900Y205985D01*
X60000Y205977D01*
X141869Y205977D01*
X150977Y196869D01*
X150977Y196166D01*
X150991Y196040D01*
X150998Y195914D01*
X151011Y195868D01*
X151017Y195820D01*
X151059Y195701D01*
X151094Y195579D01*
X151118Y195537D01*
X151134Y195491D01*
X151203Y195385D01*
X151264Y195275D01*
X151304Y195229D01*
X151323Y195199D01*
X151358Y195165D01*
X151423Y195089D01*
X153091Y193420D01*
X156161Y186010D01*
X156161Y177990D01*
X153091Y170580D01*
X151423Y168911D01*
X151358Y168830D01*
X151305Y168775D01*
X151295Y168757D01*
X151260Y168718D01*
X151236Y168676D01*
X151206Y168638D01*
X151152Y168524D01*
X151091Y168413D01*
X151078Y168367D01*
X151057Y168323D01*
X151031Y168200D01*
X150996Y168078D01*
X150992Y168017D01*
X150984Y167983D01*
X150985Y167935D01*
X150977Y167834D01*
X150977Y145000D01*
X150980Y144974D01*
X150978Y144948D01*
X151000Y144801D01*
X151017Y144654D01*
X151025Y144629D01*
X151029Y144603D01*
X151084Y144465D01*
X151134Y144326D01*
X151148Y144304D01*
X151158Y144279D01*
X151243Y144158D01*
X151323Y144033D01*
X151342Y144015D01*
X151357Y143993D01*
X151467Y143894D01*
X151574Y143791D01*
X151596Y143777D01*
X151616Y143760D01*
X151746Y143688D01*
X151873Y143612D01*
X151898Y143604D01*
X151921Y143591D01*
X152064Y143551D01*
X152205Y143506D01*
X152231Y143504D01*
X152256Y143496D01*
X152500Y143477D01*
X158601Y143477D01*
X158676Y143486D01*
G37*
G36*
X50026Y138480D02*
X50026Y138480D01*
X50052Y138478D01*
X50199Y138500D01*
X50346Y138517D01*
X50371Y138525D01*
X50397Y138529D01*
X50535Y138584D01*
X50674Y138634D01*
X50696Y138648D01*
X50721Y138658D01*
X50842Y138743D01*
X50967Y138823D01*
X50985Y138842D01*
X51007Y138857D01*
X51106Y138967D01*
X51209Y139074D01*
X51223Y139096D01*
X51240Y139116D01*
X51312Y139246D01*
X51388Y139373D01*
X51396Y139398D01*
X51409Y139421D01*
X51449Y139564D01*
X51494Y139705D01*
X51496Y139731D01*
X51504Y139756D01*
X51523Y140000D01*
X51523Y164334D01*
X51509Y164460D01*
X51502Y164586D01*
X51489Y164632D01*
X51483Y164680D01*
X51441Y164799D01*
X51406Y164921D01*
X51382Y164963D01*
X51366Y165009D01*
X51297Y165115D01*
X51236Y165225D01*
X51196Y165271D01*
X51177Y165301D01*
X51142Y165335D01*
X51107Y165376D01*
X51105Y165379D01*
X51103Y165381D01*
X51077Y165411D01*
X45909Y170580D01*
X43206Y177104D01*
X43138Y177227D01*
X43075Y177352D01*
X43050Y177386D01*
X43037Y177409D01*
X43003Y177446D01*
X42926Y177546D01*
X26523Y195589D01*
X26523Y311869D01*
X38131Y323477D01*
X64369Y323477D01*
X83923Y303923D01*
X84022Y303844D01*
X84116Y303760D01*
X84158Y303736D01*
X84196Y303706D01*
X84310Y303652D01*
X84421Y303591D01*
X84467Y303578D01*
X84511Y303557D01*
X84634Y303531D01*
X84756Y303496D01*
X84817Y303492D01*
X84852Y303484D01*
X84900Y303485D01*
X85000Y303477D01*
X92500Y303477D01*
X92626Y303491D01*
X92752Y303498D01*
X92798Y303511D01*
X92846Y303517D01*
X92965Y303559D01*
X93087Y303594D01*
X93129Y303618D01*
X93174Y303634D01*
X93281Y303703D01*
X93391Y303764D01*
X93437Y303804D01*
X93467Y303823D01*
X93501Y303858D01*
X93577Y303923D01*
X93750Y304096D01*
X93923Y303923D01*
X94022Y303844D01*
X94116Y303760D01*
X94158Y303736D01*
X94196Y303706D01*
X94310Y303652D01*
X94421Y303591D01*
X94467Y303578D01*
X94511Y303557D01*
X94634Y303531D01*
X94756Y303496D01*
X94817Y303492D01*
X94852Y303484D01*
X94900Y303485D01*
X95000Y303477D01*
X107500Y303477D01*
X107626Y303491D01*
X107752Y303498D01*
X107798Y303511D01*
X107846Y303517D01*
X107965Y303559D01*
X108087Y303594D01*
X108129Y303618D01*
X108174Y303634D01*
X108281Y303703D01*
X108391Y303764D01*
X108437Y303804D01*
X108467Y303823D01*
X108501Y303858D01*
X108577Y303923D01*
X116077Y311423D01*
X116156Y311522D01*
X116240Y311616D01*
X116264Y311658D01*
X116294Y311696D01*
X116348Y311810D01*
X116409Y311921D01*
X116422Y311967D01*
X116443Y312011D01*
X116469Y312134D01*
X116504Y312256D01*
X116509Y312317D01*
X116516Y312352D01*
X116515Y312400D01*
X116523Y312500D01*
X116523Y345000D01*
X116509Y345126D01*
X116502Y345252D01*
X116489Y345298D01*
X116483Y345346D01*
X116441Y345465D01*
X116406Y345587D01*
X116382Y345629D01*
X116366Y345674D01*
X116297Y345781D01*
X116236Y345891D01*
X116196Y345937D01*
X116177Y345967D01*
X116142Y346001D01*
X116077Y346077D01*
X88577Y373577D01*
X88478Y373656D01*
X88384Y373740D01*
X88342Y373764D01*
X88304Y373794D01*
X88190Y373848D01*
X88079Y373909D01*
X88033Y373922D01*
X87989Y373943D01*
X87866Y373969D01*
X87744Y374004D01*
X87683Y374009D01*
X87648Y374016D01*
X87600Y374015D01*
X87500Y374023D01*
X53131Y374023D01*
X44023Y383131D01*
X44023Y441869D01*
X48577Y446423D01*
X48656Y446522D01*
X48740Y446616D01*
X48764Y446658D01*
X48794Y446696D01*
X48848Y446810D01*
X48909Y446921D01*
X48922Y446967D01*
X48943Y447011D01*
X48969Y447134D01*
X49004Y447256D01*
X49009Y447317D01*
X49016Y447352D01*
X49015Y447400D01*
X49023Y447500D01*
X49023Y512500D01*
X49020Y512526D01*
X49022Y512552D01*
X49000Y512699D01*
X48983Y512846D01*
X48975Y512871D01*
X48971Y512897D01*
X48916Y513035D01*
X48866Y513174D01*
X48852Y513196D01*
X48842Y513221D01*
X48757Y513342D01*
X48677Y513467D01*
X48658Y513485D01*
X48643Y513507D01*
X48533Y513606D01*
X48426Y513709D01*
X48404Y513723D01*
X48384Y513740D01*
X48254Y513812D01*
X48127Y513888D01*
X48102Y513896D01*
X48079Y513909D01*
X47936Y513949D01*
X47795Y513994D01*
X47769Y513996D01*
X47744Y514004D01*
X47500Y514023D01*
X17500Y514023D01*
X17474Y514020D01*
X17448Y514022D01*
X17301Y514000D01*
X17154Y513983D01*
X17129Y513975D01*
X17103Y513971D01*
X16965Y513916D01*
X16826Y513866D01*
X16804Y513852D01*
X16779Y513842D01*
X16658Y513757D01*
X16533Y513677D01*
X16515Y513658D01*
X16493Y513643D01*
X16394Y513533D01*
X16291Y513426D01*
X16277Y513404D01*
X16260Y513384D01*
X16188Y513254D01*
X16112Y513127D01*
X16104Y513102D01*
X16091Y513079D01*
X16051Y512936D01*
X16006Y512795D01*
X16004Y512769D01*
X15996Y512744D01*
X15977Y512500D01*
X15977Y380000D01*
X15991Y379874D01*
X15998Y379748D01*
X16011Y379702D01*
X16017Y379654D01*
X16059Y379535D01*
X16094Y379413D01*
X16118Y379371D01*
X16134Y379326D01*
X16203Y379219D01*
X16264Y379109D01*
X16304Y379063D01*
X16323Y379033D01*
X16358Y378999D01*
X16423Y378923D01*
X36423Y358923D01*
X36522Y358844D01*
X36616Y358760D01*
X36658Y358736D01*
X36696Y358706D01*
X36810Y358652D01*
X36921Y358591D01*
X36967Y358578D01*
X37011Y358557D01*
X37134Y358531D01*
X37256Y358496D01*
X37317Y358492D01*
X37352Y358484D01*
X37400Y358485D01*
X37500Y358477D01*
X79369Y358477D01*
X90977Y346869D01*
X90977Y331177D01*
X78577Y343577D01*
X78478Y343656D01*
X78384Y343740D01*
X78342Y343764D01*
X78304Y343794D01*
X78190Y343848D01*
X78079Y343909D01*
X78033Y343922D01*
X77989Y343943D01*
X77866Y343969D01*
X77744Y344004D01*
X77683Y344009D01*
X77648Y344016D01*
X77600Y344015D01*
X77500Y344023D01*
X25000Y344023D01*
X24874Y344009D01*
X24748Y344002D01*
X24702Y343989D01*
X24654Y343983D01*
X24535Y343941D01*
X24413Y343906D01*
X24371Y343882D01*
X24326Y343866D01*
X24219Y343797D01*
X24109Y343736D01*
X24063Y343696D01*
X24033Y343677D01*
X23999Y343642D01*
X23923Y343577D01*
X10607Y330261D01*
X10528Y330162D01*
X10444Y330068D01*
X10420Y330026D01*
X10390Y329988D01*
X10336Y329874D01*
X10275Y329763D01*
X10262Y329717D01*
X10241Y329673D01*
X10215Y329550D01*
X10180Y329428D01*
X10175Y329367D01*
X10168Y329332D01*
X10169Y329284D01*
X10161Y329184D01*
X10161Y185629D01*
X10171Y185543D01*
X10171Y185456D01*
X10191Y185370D01*
X10201Y185283D01*
X10230Y185201D01*
X10249Y185117D01*
X10288Y185038D01*
X10318Y184955D01*
X10365Y184882D01*
X10403Y184804D01*
X10480Y184704D01*
X10507Y184662D01*
X10526Y184643D01*
X10552Y184610D01*
X30977Y161915D01*
X30977Y140000D01*
X30980Y139974D01*
X30978Y139948D01*
X31000Y139801D01*
X31017Y139654D01*
X31025Y139629D01*
X31029Y139603D01*
X31084Y139465D01*
X31134Y139326D01*
X31148Y139304D01*
X31158Y139279D01*
X31243Y139158D01*
X31323Y139033D01*
X31342Y139015D01*
X31357Y138993D01*
X31467Y138894D01*
X31574Y138791D01*
X31596Y138777D01*
X31616Y138760D01*
X31746Y138688D01*
X31873Y138612D01*
X31898Y138604D01*
X31921Y138591D01*
X32064Y138551D01*
X32205Y138506D01*
X32231Y138504D01*
X32256Y138496D01*
X32500Y138477D01*
X50000Y138477D01*
X50026Y138480D01*
G37*
G36*
X195118Y688746D02*
X195118Y688746D01*
X195237Y688753D01*
X195275Y688766D01*
X195316Y688771D01*
X195426Y688814D01*
X195539Y688851D01*
X195574Y688873D01*
X195611Y688888D01*
X195707Y688958D01*
X195808Y689021D01*
X195836Y689051D01*
X195869Y689074D01*
X195945Y689166D01*
X196026Y689253D01*
X196046Y689288D01*
X196071Y689319D01*
X196122Y689427D01*
X196180Y689531D01*
X196190Y689571D01*
X196207Y689607D01*
X196229Y689724D01*
X196259Y689839D01*
X196263Y689900D01*
X196267Y689920D01*
X196265Y689940D01*
X196269Y690000D01*
X196269Y704474D01*
X210526Y718731D01*
X370000Y718731D01*
X370098Y718743D01*
X370197Y718746D01*
X370255Y718763D01*
X370316Y718771D01*
X370408Y718807D01*
X370503Y718835D01*
X370555Y718865D01*
X370611Y718888D01*
X370691Y718946D01*
X370777Y718996D01*
X370852Y719062D01*
X370869Y719074D01*
X370876Y719084D01*
X370898Y719103D01*
X400526Y748731D01*
X418731Y748731D01*
X418731Y747500D01*
X418746Y747382D01*
X418753Y747263D01*
X418766Y747225D01*
X418771Y747184D01*
X418814Y747074D01*
X418851Y746961D01*
X418873Y746926D01*
X418888Y746889D01*
X418958Y746793D01*
X419021Y746692D01*
X419051Y746664D01*
X419074Y746631D01*
X419166Y746556D01*
X419253Y746474D01*
X419288Y746454D01*
X419319Y746429D01*
X419427Y746378D01*
X419531Y746320D01*
X419571Y746310D01*
X419607Y746293D01*
X419724Y746271D01*
X419839Y746241D01*
X419900Y746237D01*
X419920Y746233D01*
X419940Y746235D01*
X420000Y746231D01*
X428731Y746231D01*
X428731Y743769D01*
X420000Y743769D01*
X419882Y743754D01*
X419763Y743747D01*
X419725Y743734D01*
X419684Y743729D01*
X419574Y743686D01*
X419461Y743649D01*
X419426Y743627D01*
X419389Y743612D01*
X419293Y743543D01*
X419192Y743479D01*
X419164Y743449D01*
X419131Y743426D01*
X419056Y743334D01*
X418974Y743247D01*
X418954Y743212D01*
X418929Y743181D01*
X418878Y743073D01*
X418820Y742969D01*
X418810Y742929D01*
X418793Y742893D01*
X418771Y742776D01*
X418741Y742661D01*
X418737Y742601D01*
X418733Y742581D01*
X418735Y742560D01*
X418731Y742500D01*
X418731Y711269D01*
X322500Y711269D01*
X322402Y711257D01*
X322303Y711254D01*
X322245Y711237D01*
X322184Y711229D01*
X322092Y711193D01*
X321997Y711165D01*
X321945Y711135D01*
X321889Y711112D01*
X321809Y711054D01*
X321723Y711004D01*
X321648Y710938D01*
X321631Y710926D01*
X321624Y710916D01*
X321603Y710898D01*
X319103Y708398D01*
X319042Y708319D01*
X318974Y708247D01*
X318945Y708194D01*
X318908Y708146D01*
X318868Y708055D01*
X318820Y707969D01*
X318805Y707910D01*
X318781Y707854D01*
X318766Y707756D01*
X318741Y707661D01*
X318735Y707561D01*
X318731Y707540D01*
X318733Y707528D01*
X318731Y707500D01*
X318731Y690000D01*
X318746Y689882D01*
X318753Y689763D01*
X318766Y689725D01*
X318771Y689684D01*
X318814Y689574D01*
X318851Y689461D01*
X318873Y689426D01*
X318888Y689389D01*
X318958Y689293D01*
X319021Y689192D01*
X319051Y689164D01*
X319074Y689131D01*
X319166Y689056D01*
X319253Y688974D01*
X319288Y688954D01*
X319319Y688929D01*
X319427Y688878D01*
X319531Y688820D01*
X319571Y688810D01*
X319607Y688793D01*
X319724Y688771D01*
X319839Y688741D01*
X319900Y688737D01*
X319920Y688733D01*
X319940Y688735D01*
X320000Y688731D01*
X420000Y688731D01*
X420155Y688750D01*
X420310Y688769D01*
X420313Y688770D01*
X420316Y688771D01*
X420460Y688828D01*
X420606Y688885D01*
X420609Y688887D01*
X420611Y688888D01*
X420735Y688978D01*
X420864Y689071D01*
X420867Y689073D01*
X420869Y689074D01*
X420872Y689078D01*
X420975Y689187D01*
X445975Y719187D01*
X445998Y719223D01*
X446026Y719253D01*
X446083Y719356D01*
X446146Y719455D01*
X446159Y719495D01*
X446180Y719531D01*
X446209Y719646D01*
X446246Y719757D01*
X446249Y719799D01*
X446259Y719839D01*
X446269Y720000D01*
X446269Y755000D01*
X446257Y755098D01*
X446254Y755197D01*
X446237Y755255D01*
X446229Y755316D01*
X446193Y755408D01*
X446165Y755503D01*
X446135Y755555D01*
X446112Y755611D01*
X446054Y755691D01*
X446004Y755777D01*
X445938Y755852D01*
X445926Y755869D01*
X445916Y755876D01*
X445898Y755898D01*
X440898Y760898D01*
X440819Y760958D01*
X440747Y761026D01*
X440694Y761055D01*
X440646Y761092D01*
X440555Y761132D01*
X440469Y761180D01*
X440410Y761195D01*
X440354Y761219D01*
X440256Y761234D01*
X440161Y761259D01*
X440061Y761265D01*
X440040Y761269D01*
X440028Y761267D01*
X440000Y761269D01*
X395000Y761269D01*
X394902Y761257D01*
X394803Y761254D01*
X394745Y761237D01*
X394684Y761229D01*
X394592Y761193D01*
X394497Y761165D01*
X394445Y761135D01*
X394389Y761112D01*
X394309Y761054D01*
X394223Y761004D01*
X394148Y760938D01*
X394131Y760926D01*
X394124Y760916D01*
X394103Y760898D01*
X364474Y731269D01*
X200000Y731269D01*
X199902Y731257D01*
X199803Y731254D01*
X199745Y731237D01*
X199684Y731229D01*
X199592Y731193D01*
X199497Y731165D01*
X199445Y731135D01*
X199389Y731112D01*
X199309Y731054D01*
X199223Y731004D01*
X199148Y730938D01*
X199131Y730926D01*
X199124Y730916D01*
X199103Y730898D01*
X174103Y705898D01*
X174042Y705819D01*
X173974Y705747D01*
X173945Y705694D01*
X173908Y705646D01*
X173868Y705555D01*
X173820Y705469D01*
X173805Y705410D01*
X173781Y705354D01*
X173766Y705256D01*
X173741Y705161D01*
X173735Y705061D01*
X173731Y705040D01*
X173733Y705028D01*
X173731Y705000D01*
X173731Y690000D01*
X173746Y689882D01*
X173753Y689763D01*
X173766Y689725D01*
X173771Y689684D01*
X173814Y689574D01*
X173851Y689461D01*
X173873Y689426D01*
X173888Y689389D01*
X173958Y689293D01*
X174021Y689192D01*
X174051Y689164D01*
X174074Y689131D01*
X174166Y689056D01*
X174253Y688974D01*
X174288Y688954D01*
X174319Y688929D01*
X174427Y688878D01*
X174531Y688820D01*
X174571Y688810D01*
X174607Y688793D01*
X174724Y688771D01*
X174839Y688741D01*
X174900Y688737D01*
X174920Y688733D01*
X174940Y688735D01*
X175000Y688731D01*
X195000Y688731D01*
X195118Y688746D01*
G37*
G36*
X142598Y688743D02*
X142598Y688743D01*
X142697Y688746D01*
X142755Y688763D01*
X142816Y688771D01*
X142908Y688807D01*
X143003Y688835D01*
X143055Y688865D01*
X143111Y688888D01*
X143191Y688946D01*
X143277Y688996D01*
X143352Y689062D01*
X143369Y689074D01*
X143376Y689084D01*
X143398Y689103D01*
X145898Y691603D01*
X145958Y691681D01*
X146026Y691753D01*
X146055Y691806D01*
X146092Y691854D01*
X146132Y691945D01*
X146180Y692031D01*
X146195Y692090D01*
X146219Y692146D01*
X146234Y692244D01*
X146259Y692339D01*
X146265Y692439D01*
X146269Y692460D01*
X146267Y692472D01*
X146269Y692500D01*
X146269Y704530D01*
X175584Y738731D01*
X360000Y738731D01*
X360098Y738743D01*
X360197Y738746D01*
X360255Y738763D01*
X360316Y738771D01*
X360408Y738807D01*
X360503Y738835D01*
X360555Y738865D01*
X360611Y738888D01*
X360691Y738946D01*
X360777Y738996D01*
X360852Y739062D01*
X360869Y739074D01*
X360876Y739084D01*
X360898Y739103D01*
X380898Y759103D01*
X380958Y759181D01*
X381026Y759253D01*
X381055Y759306D01*
X381092Y759354D01*
X381132Y759445D01*
X381180Y759531D01*
X381195Y759590D01*
X381219Y759646D01*
X381234Y759744D01*
X381259Y759839D01*
X381265Y759939D01*
X381269Y759960D01*
X381267Y759972D01*
X381269Y760000D01*
X381269Y804474D01*
X385526Y808731D01*
X394474Y808731D01*
X399103Y804103D01*
X399181Y804042D01*
X399253Y803974D01*
X399306Y803945D01*
X399354Y803908D01*
X399445Y803868D01*
X399531Y803820D01*
X399590Y803805D01*
X399646Y803781D01*
X399744Y803766D01*
X399839Y803741D01*
X399939Y803735D01*
X399960Y803731D01*
X399972Y803733D01*
X400000Y803731D01*
X415000Y803731D01*
X415098Y803743D01*
X415197Y803746D01*
X415255Y803763D01*
X415316Y803771D01*
X415408Y803807D01*
X415503Y803835D01*
X415555Y803865D01*
X415611Y803888D01*
X415691Y803946D01*
X415777Y803996D01*
X415852Y804062D01*
X415869Y804074D01*
X415876Y804084D01*
X415898Y804103D01*
X420898Y809103D01*
X420958Y809181D01*
X421026Y809253D01*
X421055Y809306D01*
X421092Y809354D01*
X421132Y809445D01*
X421180Y809531D01*
X421195Y809590D01*
X421219Y809646D01*
X421234Y809744D01*
X421259Y809839D01*
X421265Y809939D01*
X421269Y809960D01*
X421267Y809972D01*
X421269Y810000D01*
X421269Y829474D01*
X425526Y833731D01*
X464474Y833731D01*
X468731Y829474D01*
X468731Y800000D01*
X468746Y799882D01*
X468753Y799763D01*
X468766Y799725D01*
X468771Y799684D01*
X468814Y799574D01*
X468851Y799461D01*
X468873Y799426D01*
X468888Y799389D01*
X468958Y799293D01*
X469021Y799192D01*
X469051Y799164D01*
X469074Y799131D01*
X469166Y799056D01*
X469253Y798974D01*
X469288Y798954D01*
X469319Y798929D01*
X469427Y798878D01*
X469531Y798820D01*
X469571Y798810D01*
X469607Y798793D01*
X469724Y798771D01*
X469839Y798741D01*
X469900Y798737D01*
X469920Y798733D01*
X469940Y798735D01*
X470000Y798731D01*
X480000Y798731D01*
X480098Y798743D01*
X480197Y798746D01*
X480255Y798763D01*
X480316Y798771D01*
X480408Y798807D01*
X480503Y798835D01*
X480555Y798865D01*
X480611Y798888D01*
X480691Y798946D01*
X480777Y798996D01*
X480852Y799062D01*
X480869Y799074D01*
X480876Y799084D01*
X480898Y799103D01*
X485898Y804103D01*
X485958Y804181D01*
X486026Y804253D01*
X486055Y804306D01*
X486092Y804354D01*
X486132Y804445D01*
X486180Y804531D01*
X486195Y804590D01*
X486219Y804646D01*
X486234Y804744D01*
X486259Y804839D01*
X486265Y804939D01*
X486269Y804960D01*
X486267Y804972D01*
X486269Y805000D01*
X486269Y835000D01*
X486257Y835098D01*
X486254Y835197D01*
X486237Y835255D01*
X486229Y835316D01*
X486193Y835408D01*
X486165Y835503D01*
X486135Y835555D01*
X486112Y835611D01*
X486054Y835691D01*
X486004Y835777D01*
X485938Y835852D01*
X485926Y835869D01*
X485916Y835876D01*
X485898Y835898D01*
X482327Y839468D01*
X482249Y839528D01*
X482177Y839596D01*
X482124Y839625D01*
X482076Y839662D01*
X481985Y839702D01*
X481899Y839750D01*
X481840Y839765D01*
X481784Y839789D01*
X481686Y839804D01*
X481591Y839829D01*
X481491Y839835D01*
X481470Y839839D01*
X481458Y839837D01*
X481430Y839839D01*
X388570Y839839D01*
X388472Y839827D01*
X388373Y839824D01*
X388315Y839807D01*
X388254Y839799D01*
X388162Y839763D01*
X388067Y839735D01*
X388015Y839705D01*
X387959Y839682D01*
X387879Y839624D01*
X387793Y839574D01*
X387718Y839508D01*
X387701Y839496D01*
X387694Y839486D01*
X387673Y839468D01*
X369103Y820898D01*
X369042Y820819D01*
X368974Y820747D01*
X368945Y820694D01*
X368908Y820646D01*
X368868Y820555D01*
X368820Y820469D01*
X368805Y820410D01*
X368781Y820354D01*
X368766Y820256D01*
X368741Y820161D01*
X368735Y820061D01*
X368731Y820040D01*
X368733Y820028D01*
X368731Y820000D01*
X368731Y765526D01*
X354474Y751269D01*
X160000Y751269D01*
X159863Y751252D01*
X159725Y751239D01*
X159705Y751232D01*
X159684Y751229D01*
X159556Y751179D01*
X159426Y751132D01*
X159408Y751120D01*
X159389Y751112D01*
X159277Y751031D01*
X159162Y750954D01*
X159142Y750933D01*
X159131Y750926D01*
X159118Y750910D01*
X159048Y750840D01*
X121548Y708340D01*
X121515Y708291D01*
X121474Y708247D01*
X121426Y708160D01*
X121369Y708077D01*
X121349Y708021D01*
X121320Y707969D01*
X121295Y707872D01*
X121262Y707778D01*
X121256Y707718D01*
X121241Y707661D01*
X121231Y707500D01*
X121231Y690000D01*
X121246Y689882D01*
X121253Y689763D01*
X121266Y689725D01*
X121271Y689684D01*
X121314Y689574D01*
X121351Y689461D01*
X121373Y689426D01*
X121388Y689389D01*
X121458Y689293D01*
X121521Y689192D01*
X121551Y689164D01*
X121574Y689131D01*
X121666Y689056D01*
X121753Y688974D01*
X121788Y688954D01*
X121819Y688929D01*
X121927Y688878D01*
X122031Y688820D01*
X122071Y688810D01*
X122107Y688793D01*
X122224Y688771D01*
X122339Y688741D01*
X122400Y688737D01*
X122420Y688733D01*
X122440Y688735D01*
X122500Y688731D01*
X142500Y688731D01*
X142598Y688743D01*
G37*
G36*
X95118Y688746D02*
X95118Y688746D01*
X95237Y688753D01*
X95275Y688766D01*
X95316Y688771D01*
X95426Y688814D01*
X95539Y688851D01*
X95574Y688873D01*
X95611Y688888D01*
X95707Y688958D01*
X95808Y689021D01*
X95836Y689051D01*
X95869Y689074D01*
X95945Y689166D01*
X96026Y689253D01*
X96046Y689288D01*
X96071Y689319D01*
X96122Y689427D01*
X96180Y689531D01*
X96190Y689571D01*
X96207Y689607D01*
X96229Y689724D01*
X96259Y689839D01*
X96263Y689900D01*
X96267Y689920D01*
X96265Y689940D01*
X96269Y690000D01*
X96269Y709474D01*
X145898Y759103D01*
X145958Y759181D01*
X146026Y759253D01*
X146055Y759306D01*
X146092Y759354D01*
X146132Y759445D01*
X146180Y759531D01*
X146195Y759590D01*
X146219Y759646D01*
X146234Y759744D01*
X146259Y759839D01*
X146265Y759939D01*
X146269Y759960D01*
X146267Y759972D01*
X146269Y760000D01*
X146269Y763731D01*
X148731Y763731D01*
X148731Y760000D01*
X148746Y759882D01*
X148753Y759763D01*
X148766Y759725D01*
X148771Y759684D01*
X148814Y759574D01*
X148851Y759461D01*
X148873Y759426D01*
X148888Y759389D01*
X148958Y759293D01*
X149021Y759192D01*
X149051Y759164D01*
X149074Y759131D01*
X149166Y759056D01*
X149253Y758974D01*
X149288Y758954D01*
X149319Y758929D01*
X149427Y758878D01*
X149531Y758820D01*
X149571Y758810D01*
X149607Y758793D01*
X149724Y758771D01*
X149839Y758741D01*
X149900Y758737D01*
X149920Y758733D01*
X149940Y758735D01*
X150000Y758731D01*
X278000Y758731D01*
X278118Y758746D01*
X278237Y758753D01*
X278275Y758766D01*
X278316Y758771D01*
X278426Y758814D01*
X278539Y758851D01*
X278574Y758873D01*
X278611Y758888D01*
X278707Y758958D01*
X278808Y759021D01*
X278836Y759051D01*
X278869Y759074D01*
X278945Y759166D01*
X279026Y759253D01*
X279046Y759288D01*
X279071Y759319D01*
X279122Y759427D01*
X279180Y759531D01*
X279190Y759571D01*
X279207Y759607D01*
X279229Y759724D01*
X279259Y759839D01*
X279263Y759900D01*
X279267Y759920D01*
X279265Y759940D01*
X279269Y760000D01*
X279269Y766231D01*
X281731Y766231D01*
X281731Y760000D01*
X281746Y759882D01*
X281753Y759763D01*
X281766Y759725D01*
X281771Y759684D01*
X281814Y759574D01*
X281851Y759461D01*
X281873Y759426D01*
X281888Y759389D01*
X281958Y759293D01*
X282021Y759192D01*
X282051Y759164D01*
X282074Y759131D01*
X282166Y759056D01*
X282253Y758974D01*
X282288Y758954D01*
X282319Y758929D01*
X282427Y758878D01*
X282531Y758820D01*
X282571Y758810D01*
X282607Y758793D01*
X282724Y758771D01*
X282839Y758741D01*
X282900Y758737D01*
X282920Y758733D01*
X282940Y758735D01*
X283000Y758731D01*
X350000Y758731D01*
X350118Y758746D01*
X350237Y758753D01*
X350275Y758766D01*
X350316Y758771D01*
X350426Y758814D01*
X350539Y758851D01*
X350574Y758873D01*
X350611Y758888D01*
X350707Y758958D01*
X350808Y759021D01*
X350836Y759051D01*
X350869Y759074D01*
X350945Y759166D01*
X351026Y759253D01*
X351046Y759288D01*
X351071Y759319D01*
X351122Y759427D01*
X351180Y759531D01*
X351190Y759571D01*
X351207Y759607D01*
X351229Y759724D01*
X351259Y759839D01*
X351263Y759900D01*
X351267Y759920D01*
X351265Y759940D01*
X351269Y760000D01*
X351269Y777500D01*
X351254Y777618D01*
X351247Y777737D01*
X351234Y777775D01*
X351229Y777816D01*
X351186Y777926D01*
X351149Y778039D01*
X351127Y778074D01*
X351112Y778111D01*
X351043Y778207D01*
X350979Y778308D01*
X350949Y778336D01*
X350926Y778369D01*
X350834Y778445D01*
X350747Y778526D01*
X350712Y778546D01*
X350681Y778571D01*
X350573Y778622D01*
X350469Y778680D01*
X350429Y778690D01*
X350393Y778707D01*
X350276Y778729D01*
X350161Y778759D01*
X350101Y778763D01*
X350081Y778767D01*
X350060Y778765D01*
X350000Y778769D01*
X142500Y778769D01*
X142402Y778757D01*
X142303Y778754D01*
X142245Y778737D01*
X142184Y778729D01*
X142092Y778693D01*
X141997Y778665D01*
X141945Y778635D01*
X141889Y778612D01*
X141809Y778554D01*
X141723Y778504D01*
X141648Y778438D01*
X141631Y778426D01*
X141624Y778416D01*
X141603Y778398D01*
X74103Y710898D01*
X74042Y710819D01*
X73974Y710747D01*
X73945Y710694D01*
X73908Y710646D01*
X73868Y710555D01*
X73820Y710469D01*
X73805Y710410D01*
X73781Y710354D01*
X73766Y710256D01*
X73741Y710161D01*
X73735Y710061D01*
X73731Y710040D01*
X73733Y710028D01*
X73731Y710000D01*
X73731Y690000D01*
X73746Y689882D01*
X73753Y689763D01*
X73766Y689725D01*
X73771Y689684D01*
X73814Y689574D01*
X73851Y689461D01*
X73873Y689426D01*
X73888Y689389D01*
X73958Y689293D01*
X74021Y689192D01*
X74051Y689164D01*
X74074Y689131D01*
X74166Y689056D01*
X74253Y688974D01*
X74288Y688954D01*
X74319Y688929D01*
X74427Y688878D01*
X74531Y688820D01*
X74571Y688810D01*
X74607Y688793D01*
X74724Y688771D01*
X74839Y688741D01*
X74900Y688737D01*
X74920Y688733D01*
X74940Y688735D01*
X75000Y688731D01*
X95000Y688731D01*
X95118Y688746D01*
G37*
G36*
X230126Y28491D02*
X230126Y28491D01*
X230252Y28498D01*
X230298Y28511D01*
X230346Y28517D01*
X230465Y28559D01*
X230587Y28594D01*
X230629Y28618D01*
X230674Y28634D01*
X230781Y28703D01*
X230891Y28764D01*
X230937Y28804D01*
X230967Y28823D01*
X231001Y28858D01*
X231077Y28923D01*
X236077Y33923D01*
X236156Y34022D01*
X236240Y34116D01*
X236264Y34158D01*
X236294Y34196D01*
X236348Y34310D01*
X236409Y34421D01*
X236422Y34467D01*
X236443Y34511D01*
X236469Y34634D01*
X236504Y34756D01*
X236509Y34817D01*
X236516Y34852D01*
X236515Y34900D01*
X236523Y35000D01*
X236523Y50000D01*
X236509Y50126D01*
X236502Y50252D01*
X236489Y50298D01*
X236483Y50346D01*
X236441Y50465D01*
X236406Y50587D01*
X236382Y50629D01*
X236366Y50674D01*
X236297Y50781D01*
X236236Y50891D01*
X236196Y50937D01*
X236177Y50967D01*
X236142Y51001D01*
X236077Y51077D01*
X211077Y76077D01*
X210978Y76156D01*
X210884Y76240D01*
X210842Y76264D01*
X210804Y76294D01*
X210690Y76348D01*
X210579Y76409D01*
X210533Y76422D01*
X210489Y76443D01*
X210366Y76469D01*
X210244Y76504D01*
X210183Y76509D01*
X210148Y76516D01*
X210100Y76515D01*
X210000Y76523D01*
X125631Y76523D01*
X116523Y85631D01*
X116523Y95000D01*
X116509Y95126D01*
X116502Y95252D01*
X116489Y95298D01*
X116483Y95346D01*
X116441Y95465D01*
X116406Y95587D01*
X116382Y95629D01*
X116366Y95674D01*
X116297Y95781D01*
X116236Y95891D01*
X116196Y95937D01*
X116177Y95967D01*
X116142Y96001D01*
X116077Y96077D01*
X86523Y125631D01*
X86523Y170000D01*
X86520Y170026D01*
X86522Y170052D01*
X86500Y170199D01*
X86483Y170346D01*
X86475Y170371D01*
X86471Y170397D01*
X86416Y170535D01*
X86366Y170674D01*
X86352Y170696D01*
X86342Y170721D01*
X86257Y170842D01*
X86177Y170967D01*
X86158Y170985D01*
X86143Y171007D01*
X86033Y171106D01*
X85926Y171209D01*
X85904Y171223D01*
X85884Y171240D01*
X85754Y171312D01*
X85627Y171388D01*
X85602Y171396D01*
X85579Y171409D01*
X85436Y171449D01*
X85295Y171494D01*
X85269Y171496D01*
X85244Y171504D01*
X85000Y171523D01*
X81500Y171523D01*
X81424Y171515D01*
X81347Y171516D01*
X81251Y171495D01*
X81154Y171483D01*
X81082Y171458D01*
X81007Y171441D01*
X80918Y171399D01*
X80826Y171366D01*
X80761Y171324D01*
X80692Y171292D01*
X80615Y171230D01*
X80533Y171177D01*
X80480Y171122D01*
X80420Y171074D01*
X80359Y170997D01*
X80291Y170926D01*
X80251Y170861D01*
X80204Y170801D01*
X80136Y170668D01*
X80112Y170627D01*
X80106Y170609D01*
X80093Y170583D01*
X80091Y170580D01*
X74420Y164909D01*
X74417Y164907D01*
X74350Y164870D01*
X74279Y164842D01*
X74199Y164786D01*
X74113Y164738D01*
X74056Y164687D01*
X73993Y164643D01*
X73927Y164570D01*
X73854Y164504D01*
X73811Y164441D01*
X73760Y164384D01*
X73712Y164298D01*
X73656Y164217D01*
X73628Y164146D01*
X73591Y164079D01*
X73564Y163984D01*
X73528Y163893D01*
X73517Y163818D01*
X73496Y163744D01*
X73484Y163595D01*
X73478Y163548D01*
X73479Y163529D01*
X73477Y163500D01*
X73477Y115000D01*
X73491Y114874D01*
X73498Y114748D01*
X73511Y114702D01*
X73517Y114654D01*
X73559Y114535D01*
X73594Y114413D01*
X73618Y114371D01*
X73634Y114326D01*
X73703Y114219D01*
X73764Y114109D01*
X73804Y114063D01*
X73823Y114033D01*
X73858Y113999D01*
X73923Y113923D01*
X83477Y104369D01*
X83477Y95000D01*
X83491Y94874D01*
X83498Y94748D01*
X83511Y94702D01*
X83517Y94654D01*
X83559Y94535D01*
X83594Y94413D01*
X83618Y94371D01*
X83634Y94326D01*
X83703Y94219D01*
X83764Y94109D01*
X83804Y94063D01*
X83823Y94033D01*
X83858Y93999D01*
X83923Y93923D01*
X123923Y53923D01*
X124022Y53844D01*
X124116Y53760D01*
X124158Y53736D01*
X124196Y53706D01*
X124310Y53652D01*
X124421Y53591D01*
X124467Y53578D01*
X124511Y53557D01*
X124634Y53531D01*
X124756Y53496D01*
X124817Y53492D01*
X124852Y53484D01*
X124900Y53485D01*
X125000Y53477D01*
X194369Y53477D01*
X203477Y44369D01*
X203477Y35000D01*
X203491Y34874D01*
X203498Y34748D01*
X203511Y34702D01*
X203517Y34654D01*
X203559Y34535D01*
X203594Y34413D01*
X203618Y34371D01*
X203634Y34326D01*
X203703Y34219D01*
X203764Y34109D01*
X203804Y34063D01*
X203823Y34033D01*
X203858Y33999D01*
X203923Y33923D01*
X208923Y28923D01*
X209022Y28844D01*
X209116Y28760D01*
X209158Y28736D01*
X209196Y28706D01*
X209310Y28652D01*
X209421Y28591D01*
X209467Y28578D01*
X209511Y28557D01*
X209634Y28531D01*
X209756Y28496D01*
X209817Y28492D01*
X209852Y28484D01*
X209900Y28485D01*
X210000Y28477D01*
X230000Y28477D01*
X230126Y28491D01*
G37*
G36*
X45026Y688480D02*
X45026Y688480D01*
X45052Y688478D01*
X45199Y688500D01*
X45346Y688517D01*
X45371Y688525D01*
X45397Y688529D01*
X45535Y688584D01*
X45674Y688634D01*
X45696Y688648D01*
X45721Y688658D01*
X45842Y688743D01*
X45967Y688823D01*
X45985Y688842D01*
X46007Y688857D01*
X46106Y688967D01*
X46209Y689074D01*
X46223Y689096D01*
X46240Y689116D01*
X46312Y689246D01*
X46388Y689373D01*
X46396Y689398D01*
X46409Y689421D01*
X46449Y689564D01*
X46494Y689705D01*
X46496Y689731D01*
X46504Y689756D01*
X46523Y690000D01*
X46523Y710000D01*
X46512Y710101D01*
X46510Y710204D01*
X46492Y710274D01*
X46483Y710346D01*
X46449Y710442D01*
X46424Y710542D01*
X46390Y710606D01*
X46366Y710674D01*
X46310Y710760D01*
X46263Y710851D01*
X46216Y710906D01*
X46177Y710967D01*
X46103Y711038D01*
X46037Y711116D01*
X45961Y711176D01*
X45926Y711209D01*
X45895Y711228D01*
X45845Y711267D01*
X31523Y720815D01*
X31523Y789369D01*
X35631Y793477D01*
X40000Y793477D01*
X40026Y793480D01*
X40052Y793478D01*
X40199Y793500D01*
X40346Y793517D01*
X40371Y793525D01*
X40397Y793529D01*
X40535Y793584D01*
X40674Y793634D01*
X40696Y793648D01*
X40721Y793658D01*
X40842Y793743D01*
X40967Y793823D01*
X40985Y793842D01*
X41007Y793857D01*
X41106Y793967D01*
X41209Y794074D01*
X41223Y794096D01*
X41240Y794116D01*
X41312Y794246D01*
X41388Y794373D01*
X41396Y794398D01*
X41409Y794421D01*
X41449Y794564D01*
X41494Y794705D01*
X41496Y794731D01*
X41504Y794756D01*
X41523Y795000D01*
X41523Y824369D01*
X45631Y828477D01*
X58980Y828477D01*
X58982Y828477D01*
X58984Y828477D01*
X59159Y828497D01*
X59326Y828517D01*
X59328Y828517D01*
X59330Y828518D01*
X59562Y828593D01*
X60480Y828973D01*
X64320Y828973D01*
X65238Y828593D01*
X65240Y828592D01*
X65241Y828591D01*
X65406Y828545D01*
X65573Y828497D01*
X65575Y828497D01*
X65577Y828496D01*
X65820Y828477D01*
X79369Y828477D01*
X83477Y824369D01*
X83477Y795000D01*
X83480Y794974D01*
X83478Y794948D01*
X83500Y794801D01*
X83517Y794654D01*
X83525Y794629D01*
X83529Y794603D01*
X83584Y794465D01*
X83634Y794326D01*
X83648Y794304D01*
X83658Y794279D01*
X83743Y794158D01*
X83823Y794033D01*
X83842Y794015D01*
X83857Y793993D01*
X83967Y793894D01*
X84074Y793791D01*
X84096Y793777D01*
X84116Y793760D01*
X84246Y793688D01*
X84373Y793612D01*
X84398Y793604D01*
X84421Y793591D01*
X84564Y793551D01*
X84705Y793506D01*
X84731Y793504D01*
X84756Y793496D01*
X85000Y793477D01*
X95000Y793477D01*
X95026Y793480D01*
X95052Y793478D01*
X95199Y793500D01*
X95346Y793517D01*
X95371Y793525D01*
X95397Y793529D01*
X95535Y793584D01*
X95674Y793634D01*
X95696Y793648D01*
X95721Y793658D01*
X95842Y793743D01*
X95967Y793823D01*
X95985Y793842D01*
X96007Y793857D01*
X96106Y793967D01*
X96209Y794074D01*
X96223Y794096D01*
X96240Y794116D01*
X96312Y794246D01*
X96388Y794373D01*
X96396Y794398D01*
X96409Y794421D01*
X96449Y794564D01*
X96494Y794705D01*
X96496Y794731D01*
X96504Y794756D01*
X96523Y795000D01*
X96523Y835000D01*
X96520Y835026D01*
X96522Y835052D01*
X96500Y835199D01*
X96483Y835346D01*
X96475Y835371D01*
X96471Y835397D01*
X96416Y835535D01*
X96366Y835674D01*
X96352Y835696D01*
X96342Y835721D01*
X96257Y835842D01*
X96177Y835967D01*
X96158Y835985D01*
X96143Y836007D01*
X96033Y836106D01*
X95926Y836209D01*
X95904Y836223D01*
X95884Y836240D01*
X95754Y836312D01*
X95627Y836388D01*
X95602Y836396D01*
X95579Y836409D01*
X95436Y836449D01*
X95295Y836494D01*
X95269Y836496D01*
X95244Y836504D01*
X95000Y836523D01*
X20000Y836523D01*
X19874Y836509D01*
X19748Y836502D01*
X19702Y836489D01*
X19654Y836483D01*
X19535Y836441D01*
X19413Y836406D01*
X19371Y836382D01*
X19326Y836366D01*
X19219Y836297D01*
X19109Y836236D01*
X19063Y836196D01*
X19033Y836177D01*
X18999Y836142D01*
X18923Y836077D01*
X10607Y827761D01*
X10528Y827662D01*
X10444Y827568D01*
X10420Y827526D01*
X10390Y827488D01*
X10336Y827374D01*
X10275Y827263D01*
X10262Y827217D01*
X10241Y827173D01*
X10215Y827050D01*
X10180Y826928D01*
X10175Y826867D01*
X10168Y826832D01*
X10169Y826784D01*
X10161Y826684D01*
X10161Y690000D01*
X10164Y689974D01*
X10162Y689948D01*
X10184Y689801D01*
X10201Y689654D01*
X10209Y689629D01*
X10213Y689603D01*
X10268Y689465D01*
X10318Y689326D01*
X10332Y689304D01*
X10342Y689279D01*
X10427Y689158D01*
X10507Y689033D01*
X10526Y689015D01*
X10541Y688993D01*
X10651Y688894D01*
X10758Y688791D01*
X10780Y688777D01*
X10800Y688760D01*
X10930Y688688D01*
X11057Y688612D01*
X11082Y688604D01*
X11105Y688591D01*
X11248Y688551D01*
X11389Y688506D01*
X11415Y688504D01*
X11440Y688496D01*
X11684Y688477D01*
X45000Y688477D01*
X45026Y688480D01*
G37*
G36*
X215126Y98491D02*
X215126Y98491D01*
X215252Y98498D01*
X215298Y98511D01*
X215346Y98517D01*
X215465Y98559D01*
X215587Y98594D01*
X215629Y98618D01*
X215674Y98634D01*
X215781Y98703D01*
X215891Y98764D01*
X215937Y98804D01*
X215967Y98823D01*
X216001Y98858D01*
X216077Y98923D01*
X236077Y118923D01*
X236156Y119022D01*
X236240Y119116D01*
X236264Y119158D01*
X236294Y119196D01*
X236348Y119310D01*
X236409Y119421D01*
X236422Y119467D01*
X236443Y119511D01*
X236469Y119634D01*
X236504Y119756D01*
X236509Y119817D01*
X236516Y119852D01*
X236515Y119900D01*
X236523Y120000D01*
X236523Y170000D01*
X236509Y170126D01*
X236502Y170252D01*
X236489Y170298D01*
X236483Y170346D01*
X236441Y170465D01*
X236406Y170587D01*
X236382Y170629D01*
X236366Y170674D01*
X236297Y170781D01*
X236236Y170891D01*
X236196Y170937D01*
X236177Y170967D01*
X236142Y171001D01*
X236077Y171077D01*
X231077Y176077D01*
X230978Y176156D01*
X230884Y176240D01*
X230842Y176264D01*
X230804Y176294D01*
X230690Y176348D01*
X230579Y176409D01*
X230533Y176422D01*
X230489Y176443D01*
X230366Y176469D01*
X230244Y176504D01*
X230183Y176509D01*
X230148Y176516D01*
X230100Y176515D01*
X230000Y176523D01*
X210000Y176523D01*
X209874Y176509D01*
X209748Y176502D01*
X209702Y176489D01*
X209654Y176483D01*
X209535Y176441D01*
X209413Y176406D01*
X209371Y176382D01*
X209326Y176366D01*
X209219Y176297D01*
X209109Y176236D01*
X209063Y176196D01*
X209033Y176177D01*
X208999Y176142D01*
X208923Y176077D01*
X203923Y171077D01*
X203844Y170978D01*
X203760Y170884D01*
X203736Y170842D01*
X203706Y170804D01*
X203652Y170690D01*
X203591Y170579D01*
X203578Y170533D01*
X203557Y170489D01*
X203531Y170366D01*
X203496Y170244D01*
X203492Y170183D01*
X203484Y170148D01*
X203485Y170100D01*
X203477Y170000D01*
X203477Y130631D01*
X194369Y121523D01*
X188379Y121523D01*
X188377Y121523D01*
X188375Y121523D01*
X188204Y121503D01*
X188032Y121483D01*
X188030Y121483D01*
X188028Y121482D01*
X187796Y121407D01*
X184010Y119839D01*
X175990Y119839D01*
X172678Y121211D01*
X172204Y121407D01*
X172202Y121408D01*
X172201Y121409D01*
X172033Y121456D01*
X171869Y121503D01*
X171867Y121503D01*
X171865Y121504D01*
X171621Y121523D01*
X150631Y121523D01*
X126523Y145631D01*
X126523Y163086D01*
X126515Y163162D01*
X126516Y163238D01*
X126495Y163334D01*
X126483Y163432D01*
X126458Y163504D01*
X126441Y163579D01*
X126399Y163668D01*
X126366Y163760D01*
X126324Y163824D01*
X126292Y163893D01*
X126230Y163970D01*
X126177Y164053D01*
X126122Y164106D01*
X126074Y164166D01*
X125997Y164227D01*
X125926Y164295D01*
X125861Y164334D01*
X125801Y164382D01*
X125668Y164450D01*
X125627Y164474D01*
X125609Y164480D01*
X125583Y164493D01*
X124580Y164909D01*
X118909Y170580D01*
X118907Y170583D01*
X118870Y170650D01*
X118842Y170721D01*
X118786Y170801D01*
X118738Y170887D01*
X118687Y170944D01*
X118643Y171007D01*
X118570Y171073D01*
X118504Y171146D01*
X118441Y171189D01*
X118384Y171240D01*
X118298Y171288D01*
X118217Y171344D01*
X118146Y171372D01*
X118079Y171409D01*
X117985Y171436D01*
X117893Y171472D01*
X117817Y171483D01*
X117744Y171504D01*
X117595Y171516D01*
X117548Y171522D01*
X117529Y171521D01*
X117500Y171523D01*
X115000Y171523D01*
X114974Y171520D01*
X114948Y171522D01*
X114801Y171500D01*
X114654Y171483D01*
X114629Y171475D01*
X114603Y171471D01*
X114465Y171416D01*
X114326Y171366D01*
X114304Y171352D01*
X114279Y171342D01*
X114158Y171257D01*
X114033Y171177D01*
X114015Y171158D01*
X113993Y171143D01*
X113894Y171033D01*
X113791Y170926D01*
X113777Y170904D01*
X113760Y170884D01*
X113688Y170754D01*
X113612Y170627D01*
X113604Y170602D01*
X113591Y170579D01*
X113551Y170436D01*
X113506Y170295D01*
X113504Y170269D01*
X113496Y170244D01*
X113477Y170000D01*
X113477Y130000D01*
X113491Y129874D01*
X113498Y129748D01*
X113511Y129702D01*
X113517Y129654D01*
X113559Y129535D01*
X113594Y129413D01*
X113618Y129371D01*
X113634Y129326D01*
X113703Y129219D01*
X113764Y129109D01*
X113804Y129063D01*
X113823Y129033D01*
X113858Y128999D01*
X113923Y128923D01*
X143923Y98923D01*
X144022Y98844D01*
X144116Y98760D01*
X144158Y98736D01*
X144196Y98706D01*
X144310Y98652D01*
X144421Y98591D01*
X144467Y98578D01*
X144511Y98557D01*
X144634Y98531D01*
X144756Y98496D01*
X144817Y98492D01*
X144852Y98484D01*
X144900Y98485D01*
X145000Y98477D01*
X215000Y98477D01*
X215126Y98491D01*
G37*
G36*
X375126Y148491D02*
X375126Y148491D01*
X375252Y148498D01*
X375298Y148511D01*
X375346Y148517D01*
X375465Y148559D01*
X375587Y148594D01*
X375629Y148618D01*
X375674Y148634D01*
X375781Y148703D01*
X375891Y148764D01*
X375937Y148804D01*
X375967Y148823D01*
X376001Y148858D01*
X376077Y148923D01*
X395631Y168477D01*
X435000Y168477D01*
X435126Y168491D01*
X435252Y168498D01*
X435298Y168511D01*
X435346Y168517D01*
X435465Y168559D01*
X435587Y168594D01*
X435629Y168618D01*
X435674Y168634D01*
X435781Y168703D01*
X435891Y168764D01*
X435937Y168804D01*
X435967Y168823D01*
X436001Y168858D01*
X436077Y168923D01*
X441077Y173923D01*
X441156Y174022D01*
X441240Y174116D01*
X441264Y174158D01*
X441294Y174196D01*
X441348Y174310D01*
X441409Y174421D01*
X441422Y174467D01*
X441443Y174511D01*
X441469Y174634D01*
X441504Y174756D01*
X441509Y174817D01*
X441516Y174852D01*
X441515Y174900D01*
X441523Y175000D01*
X441523Y187316D01*
X441520Y187342D01*
X441522Y187368D01*
X441500Y187515D01*
X441483Y187662D01*
X441475Y187687D01*
X441471Y187713D01*
X441416Y187851D01*
X441366Y187990D01*
X441352Y188012D01*
X441342Y188037D01*
X441257Y188158D01*
X441177Y188283D01*
X441158Y188301D01*
X441143Y188323D01*
X441033Y188422D01*
X440926Y188525D01*
X440904Y188539D01*
X440884Y188556D01*
X440754Y188628D01*
X440627Y188704D01*
X440602Y188712D01*
X440579Y188725D01*
X440436Y188765D01*
X440295Y188810D01*
X440269Y188812D01*
X440244Y188820D01*
X440000Y188839D01*
X434490Y188839D01*
X427080Y191909D01*
X422911Y196077D01*
X422812Y196156D01*
X422718Y196240D01*
X422676Y196264D01*
X422638Y196294D01*
X422524Y196348D01*
X422413Y196409D01*
X422367Y196422D01*
X422323Y196443D01*
X422200Y196469D01*
X422078Y196504D01*
X422017Y196509D01*
X421983Y196516D01*
X421935Y196515D01*
X421834Y196523D01*
X420166Y196523D01*
X420040Y196509D01*
X419914Y196502D01*
X419868Y196489D01*
X419820Y196483D01*
X419701Y196441D01*
X419579Y196406D01*
X419537Y196382D01*
X419491Y196366D01*
X419385Y196297D01*
X419275Y196236D01*
X419229Y196196D01*
X419199Y196177D01*
X419165Y196142D01*
X419089Y196077D01*
X414920Y191909D01*
X407510Y188839D01*
X399490Y188839D01*
X392080Y191909D01*
X387911Y196077D01*
X387812Y196156D01*
X387718Y196240D01*
X387676Y196264D01*
X387638Y196294D01*
X387524Y196348D01*
X387413Y196409D01*
X387367Y196422D01*
X387323Y196443D01*
X387200Y196469D01*
X387078Y196504D01*
X387017Y196509D01*
X386983Y196516D01*
X386935Y196515D01*
X386834Y196523D01*
X385166Y196523D01*
X385040Y196509D01*
X384914Y196502D01*
X384868Y196489D01*
X384820Y196483D01*
X384701Y196441D01*
X384579Y196406D01*
X384537Y196382D01*
X384491Y196366D01*
X384385Y196297D01*
X384275Y196236D01*
X384229Y196196D01*
X384199Y196177D01*
X384165Y196142D01*
X384089Y196077D01*
X379920Y191909D01*
X372510Y188839D01*
X364490Y188839D01*
X357080Y191909D01*
X356994Y191994D01*
X356974Y192010D01*
X356957Y192030D01*
X356837Y192119D01*
X356721Y192211D01*
X356698Y192222D01*
X356676Y192238D01*
X356540Y192296D01*
X356406Y192360D01*
X356380Y192365D01*
X356356Y192376D01*
X356210Y192402D01*
X356065Y192433D01*
X356039Y192433D01*
X356013Y192437D01*
X355865Y192430D01*
X355717Y192427D01*
X355692Y192421D01*
X355665Y192419D01*
X355523Y192378D01*
X355379Y192342D01*
X355356Y192330D01*
X355330Y192323D01*
X355201Y192251D01*
X355069Y192183D01*
X355049Y192166D01*
X355026Y192153D01*
X354840Y191994D01*
X349369Y186523D01*
X305000Y186523D01*
X304874Y186509D01*
X304748Y186502D01*
X304702Y186489D01*
X304654Y186483D01*
X304535Y186441D01*
X304413Y186406D01*
X304371Y186382D01*
X304326Y186366D01*
X304219Y186297D01*
X304109Y186236D01*
X304063Y186196D01*
X304033Y186177D01*
X303999Y186142D01*
X303923Y186077D01*
X298923Y181077D01*
X298844Y180978D01*
X298760Y180884D01*
X298736Y180842D01*
X298706Y180804D01*
X298652Y180690D01*
X298591Y180579D01*
X298578Y180533D01*
X298557Y180489D01*
X298531Y180366D01*
X298496Y180244D01*
X298492Y180183D01*
X298484Y180148D01*
X298485Y180100D01*
X298477Y180000D01*
X298477Y160000D01*
X298491Y159874D01*
X298498Y159748D01*
X298511Y159702D01*
X298517Y159654D01*
X298559Y159535D01*
X298594Y159413D01*
X298618Y159371D01*
X298634Y159326D01*
X298703Y159219D01*
X298764Y159109D01*
X298804Y159063D01*
X298823Y159033D01*
X298858Y158999D01*
X298923Y158923D01*
X308923Y148923D01*
X309022Y148844D01*
X309116Y148760D01*
X309158Y148736D01*
X309196Y148706D01*
X309310Y148652D01*
X309421Y148591D01*
X309467Y148578D01*
X309511Y148557D01*
X309634Y148531D01*
X309756Y148496D01*
X309817Y148492D01*
X309852Y148484D01*
X309900Y148485D01*
X310000Y148477D01*
X375000Y148477D01*
X375126Y148491D01*
G37*
G36*
X420126Y18491D02*
X420126Y18491D01*
X420252Y18498D01*
X420298Y18511D01*
X420346Y18517D01*
X420465Y18559D01*
X420587Y18594D01*
X420629Y18618D01*
X420674Y18634D01*
X420781Y18703D01*
X420891Y18764D01*
X420937Y18804D01*
X420967Y18823D01*
X421001Y18858D01*
X421077Y18923D01*
X426077Y23923D01*
X426156Y24022D01*
X426240Y24116D01*
X426264Y24158D01*
X426294Y24196D01*
X426348Y24310D01*
X426409Y24421D01*
X426422Y24467D01*
X426443Y24511D01*
X426469Y24634D01*
X426504Y24756D01*
X426509Y24817D01*
X426516Y24852D01*
X426515Y24900D01*
X426523Y25000D01*
X426523Y40000D01*
X426509Y40126D01*
X426502Y40252D01*
X426489Y40298D01*
X426483Y40346D01*
X426441Y40465D01*
X426406Y40587D01*
X426382Y40629D01*
X426366Y40674D01*
X426297Y40781D01*
X426236Y40891D01*
X426196Y40937D01*
X426177Y40967D01*
X426142Y41001D01*
X426077Y41077D01*
X406077Y61077D01*
X405978Y61156D01*
X405884Y61240D01*
X405842Y61264D01*
X405804Y61294D01*
X405690Y61348D01*
X405579Y61409D01*
X405533Y61422D01*
X405489Y61443D01*
X405366Y61469D01*
X405244Y61504D01*
X405183Y61509D01*
X405148Y61516D01*
X405100Y61515D01*
X405000Y61523D01*
X310000Y61523D01*
X309874Y61509D01*
X309748Y61502D01*
X309702Y61489D01*
X309654Y61483D01*
X309535Y61441D01*
X309413Y61406D01*
X309371Y61382D01*
X309326Y61366D01*
X309219Y61297D01*
X309109Y61236D01*
X309063Y61196D01*
X309033Y61177D01*
X308999Y61142D01*
X308923Y61077D01*
X298923Y51077D01*
X298844Y50978D01*
X298760Y50884D01*
X298736Y50842D01*
X298706Y50804D01*
X298652Y50690D01*
X298591Y50579D01*
X298578Y50533D01*
X298557Y50489D01*
X298531Y50366D01*
X298496Y50244D01*
X298492Y50183D01*
X298484Y50148D01*
X298485Y50100D01*
X298477Y50000D01*
X298477Y35000D01*
X298491Y34874D01*
X298498Y34748D01*
X298511Y34702D01*
X298517Y34654D01*
X298559Y34535D01*
X298594Y34413D01*
X298618Y34371D01*
X298634Y34326D01*
X298703Y34219D01*
X298764Y34109D01*
X298804Y34063D01*
X298823Y34033D01*
X298858Y33999D01*
X298923Y33923D01*
X303923Y28923D01*
X304022Y28844D01*
X304116Y28760D01*
X304158Y28736D01*
X304196Y28706D01*
X304310Y28652D01*
X304421Y28591D01*
X304467Y28578D01*
X304511Y28557D01*
X304634Y28531D01*
X304756Y28496D01*
X304817Y28492D01*
X304852Y28484D01*
X304900Y28485D01*
X305000Y28477D01*
X354369Y28477D01*
X363923Y18923D01*
X364022Y18844D01*
X364116Y18760D01*
X364158Y18736D01*
X364196Y18706D01*
X364310Y18652D01*
X364421Y18591D01*
X364467Y18578D01*
X364511Y18557D01*
X364634Y18531D01*
X364756Y18496D01*
X364817Y18492D01*
X364852Y18484D01*
X364900Y18485D01*
X365000Y18477D01*
X420000Y18477D01*
X420126Y18491D01*
G37*
G36*
X90068Y748485D02*
X90068Y748485D01*
X90136Y748483D01*
X90240Y748504D01*
X90346Y748517D01*
X90410Y748540D01*
X90477Y748553D01*
X90574Y748598D01*
X90674Y748634D01*
X90732Y748671D01*
X90793Y748700D01*
X90933Y748801D01*
X90967Y748823D01*
X90976Y748832D01*
X90991Y748843D01*
X125991Y778843D01*
X125998Y778851D01*
X126007Y778857D01*
X126117Y778979D01*
X126228Y779099D01*
X126233Y779108D01*
X126240Y779116D01*
X126320Y779260D01*
X126401Y779402D01*
X126404Y779412D01*
X126409Y779421D01*
X126453Y779579D01*
X126500Y779736D01*
X126501Y779746D01*
X126504Y779756D01*
X126523Y780000D01*
X126523Y799369D01*
X130631Y803477D01*
X200000Y803477D01*
X200026Y803480D01*
X200052Y803478D01*
X200199Y803500D01*
X200346Y803517D01*
X200371Y803525D01*
X200397Y803529D01*
X200535Y803584D01*
X200674Y803634D01*
X200696Y803648D01*
X200721Y803658D01*
X200842Y803743D01*
X200967Y803823D01*
X200985Y803842D01*
X201007Y803857D01*
X201106Y803967D01*
X201209Y804074D01*
X201223Y804096D01*
X201240Y804116D01*
X201312Y804246D01*
X201388Y804373D01*
X201396Y804398D01*
X201409Y804421D01*
X201449Y804564D01*
X201494Y804705D01*
X201496Y804731D01*
X201504Y804756D01*
X201523Y805000D01*
X201523Y825000D01*
X201520Y825026D01*
X201522Y825052D01*
X201500Y825199D01*
X201483Y825346D01*
X201475Y825371D01*
X201471Y825397D01*
X201416Y825535D01*
X201366Y825674D01*
X201352Y825696D01*
X201342Y825721D01*
X201257Y825842D01*
X201177Y825967D01*
X201158Y825985D01*
X201143Y826007D01*
X201033Y826106D01*
X200926Y826209D01*
X200904Y826223D01*
X200884Y826240D01*
X200754Y826312D01*
X200627Y826388D01*
X200602Y826396D01*
X200579Y826409D01*
X200436Y826449D01*
X200295Y826494D01*
X200269Y826496D01*
X200244Y826504D01*
X200000Y826523D01*
X150000Y826523D01*
X149974Y826520D01*
X149948Y826522D01*
X149801Y826500D01*
X149654Y826483D01*
X149629Y826475D01*
X149603Y826471D01*
X149465Y826416D01*
X149326Y826366D01*
X149304Y826352D01*
X149279Y826342D01*
X149158Y826257D01*
X149033Y826177D01*
X149015Y826158D01*
X148993Y826143D01*
X148894Y826033D01*
X148791Y825926D01*
X148777Y825904D01*
X148760Y825884D01*
X148688Y825754D01*
X148612Y825627D01*
X148604Y825602D01*
X148591Y825579D01*
X148551Y825436D01*
X148506Y825295D01*
X148504Y825269D01*
X148496Y825244D01*
X148477Y825000D01*
X148477Y816523D01*
X146523Y816523D01*
X146523Y825000D01*
X146520Y825026D01*
X146522Y825052D01*
X146500Y825199D01*
X146483Y825346D01*
X146475Y825371D01*
X146471Y825397D01*
X146416Y825535D01*
X146366Y825674D01*
X146352Y825696D01*
X146342Y825721D01*
X146257Y825842D01*
X146177Y825967D01*
X146158Y825985D01*
X146143Y826007D01*
X146033Y826106D01*
X145926Y826209D01*
X145904Y826223D01*
X145884Y826240D01*
X145754Y826312D01*
X145627Y826388D01*
X145602Y826396D01*
X145579Y826409D01*
X145436Y826449D01*
X145295Y826494D01*
X145269Y826496D01*
X145244Y826504D01*
X145000Y826523D01*
X120000Y826523D01*
X119874Y826509D01*
X119748Y826502D01*
X119702Y826489D01*
X119654Y826483D01*
X119535Y826441D01*
X119413Y826406D01*
X119371Y826382D01*
X119326Y826366D01*
X119219Y826297D01*
X119109Y826236D01*
X119063Y826196D01*
X119033Y826177D01*
X118999Y826142D01*
X118923Y826077D01*
X108923Y816077D01*
X108844Y815978D01*
X108760Y815884D01*
X108736Y815842D01*
X108706Y815804D01*
X108652Y815690D01*
X108591Y815579D01*
X108578Y815533D01*
X108557Y815489D01*
X108531Y815366D01*
X108496Y815244D01*
X108492Y815183D01*
X108484Y815148D01*
X108485Y815100D01*
X108477Y815000D01*
X108477Y785631D01*
X104369Y781523D01*
X80631Y781523D01*
X71523Y790631D01*
X71523Y810000D01*
X71520Y810026D01*
X71522Y810052D01*
X71500Y810199D01*
X71483Y810346D01*
X71475Y810371D01*
X71471Y810397D01*
X71416Y810535D01*
X71366Y810674D01*
X71352Y810696D01*
X71342Y810721D01*
X71257Y810842D01*
X71177Y810967D01*
X71158Y810985D01*
X71143Y811007D01*
X71033Y811106D01*
X70926Y811209D01*
X70904Y811223D01*
X70884Y811240D01*
X70754Y811312D01*
X70627Y811388D01*
X70602Y811396D01*
X70579Y811409D01*
X70436Y811449D01*
X70295Y811494D01*
X70269Y811496D01*
X70244Y811504D01*
X70000Y811523D01*
X60000Y811523D01*
X59974Y811520D01*
X59948Y811522D01*
X59801Y811500D01*
X59654Y811483D01*
X59629Y811475D01*
X59603Y811471D01*
X59465Y811416D01*
X59326Y811366D01*
X59304Y811352D01*
X59279Y811342D01*
X59158Y811257D01*
X59033Y811177D01*
X59015Y811158D01*
X58993Y811143D01*
X58894Y811033D01*
X58791Y810926D01*
X58777Y810904D01*
X58760Y810884D01*
X58688Y810754D01*
X58612Y810627D01*
X58604Y810602D01*
X58591Y810579D01*
X58551Y810436D01*
X58506Y810295D01*
X58504Y810269D01*
X58496Y810244D01*
X58477Y810000D01*
X58477Y790000D01*
X58479Y789982D01*
X58477Y789963D01*
X58499Y789808D01*
X58517Y789654D01*
X58523Y789636D01*
X58525Y789618D01*
X58582Y789473D01*
X58634Y789326D01*
X58644Y789310D01*
X58651Y789293D01*
X58781Y789086D01*
X73477Y769492D01*
X73477Y750000D01*
X73480Y749974D01*
X73478Y749948D01*
X73500Y749801D01*
X73517Y749654D01*
X73525Y749629D01*
X73529Y749603D01*
X73584Y749465D01*
X73634Y749326D01*
X73648Y749304D01*
X73658Y749279D01*
X73743Y749158D01*
X73823Y749033D01*
X73842Y749015D01*
X73857Y748993D01*
X73967Y748894D01*
X74074Y748791D01*
X74096Y748777D01*
X74116Y748760D01*
X74246Y748688D01*
X74373Y748612D01*
X74398Y748604D01*
X74421Y748591D01*
X74564Y748551D01*
X74705Y748506D01*
X74731Y748504D01*
X74756Y748496D01*
X75000Y748477D01*
X90000Y748477D01*
X90068Y748485D01*
G37*
G36*
X252526Y415980D02*
X252526Y415980D01*
X252552Y415978D01*
X252699Y416000D01*
X252846Y416017D01*
X252871Y416025D01*
X252897Y416029D01*
X253035Y416084D01*
X253174Y416134D01*
X253196Y416148D01*
X253221Y416158D01*
X253342Y416243D01*
X253467Y416323D01*
X253485Y416342D01*
X253507Y416357D01*
X253606Y416467D01*
X253709Y416574D01*
X253723Y416596D01*
X253740Y416616D01*
X253812Y416746D01*
X253888Y416873D01*
X253896Y416898D01*
X253909Y416921D01*
X253949Y417064D01*
X253994Y417205D01*
X253996Y417231D01*
X254004Y417256D01*
X254023Y417500D01*
X254023Y437500D01*
X254009Y437626D01*
X254002Y437752D01*
X253989Y437798D01*
X253983Y437846D01*
X253941Y437965D01*
X253906Y438087D01*
X253882Y438129D01*
X253866Y438174D01*
X253797Y438281D01*
X253736Y438391D01*
X253696Y438437D01*
X253677Y438467D01*
X253642Y438501D01*
X253577Y438577D01*
X243577Y448577D01*
X243478Y448656D01*
X243384Y448740D01*
X243342Y448764D01*
X243304Y448794D01*
X243190Y448848D01*
X243079Y448909D01*
X243033Y448922D01*
X242989Y448943D01*
X242866Y448969D01*
X242744Y449004D01*
X242683Y449009D01*
X242648Y449016D01*
X242600Y449015D01*
X242500Y449023D01*
X157500Y449023D01*
X157474Y449020D01*
X157448Y449022D01*
X157301Y449000D01*
X157154Y448983D01*
X157129Y448975D01*
X157103Y448971D01*
X156965Y448916D01*
X156826Y448866D01*
X156804Y448852D01*
X156779Y448842D01*
X156658Y448757D01*
X156533Y448677D01*
X156523Y448667D01*
X156523Y462500D01*
X156509Y462626D01*
X156502Y462752D01*
X156489Y462798D01*
X156483Y462846D01*
X156441Y462965D01*
X156406Y463087D01*
X156382Y463129D01*
X156366Y463174D01*
X156297Y463281D01*
X156236Y463391D01*
X156196Y463437D01*
X156177Y463467D01*
X156142Y463501D01*
X156077Y463577D01*
X149023Y470631D01*
X149023Y510000D01*
X149020Y510026D01*
X149022Y510052D01*
X149000Y510199D01*
X148983Y510346D01*
X148975Y510371D01*
X148971Y510397D01*
X148916Y510535D01*
X148866Y510674D01*
X148852Y510696D01*
X148842Y510721D01*
X148757Y510842D01*
X148677Y510967D01*
X148658Y510985D01*
X148643Y511007D01*
X148533Y511106D01*
X148426Y511209D01*
X148404Y511223D01*
X148384Y511240D01*
X148254Y511312D01*
X148127Y511388D01*
X148102Y511396D01*
X148079Y511409D01*
X147936Y511449D01*
X147795Y511494D01*
X147769Y511496D01*
X147744Y511504D01*
X147500Y511523D01*
X122500Y511523D01*
X122474Y511520D01*
X122448Y511522D01*
X122301Y511500D01*
X122154Y511483D01*
X122129Y511475D01*
X122103Y511471D01*
X121965Y511416D01*
X121826Y511366D01*
X121804Y511352D01*
X121779Y511342D01*
X121658Y511257D01*
X121533Y511177D01*
X121515Y511158D01*
X121493Y511143D01*
X121394Y511033D01*
X121291Y510926D01*
X121277Y510904D01*
X121260Y510884D01*
X121188Y510754D01*
X121112Y510627D01*
X121104Y510602D01*
X121091Y510579D01*
X121051Y510436D01*
X121006Y510295D01*
X121004Y510269D01*
X120996Y510244D01*
X120977Y510000D01*
X120977Y467500D01*
X120981Y467464D01*
X120978Y467428D01*
X121001Y467291D01*
X121017Y467154D01*
X121029Y467120D01*
X121035Y467084D01*
X121087Y466956D01*
X121134Y466826D01*
X121154Y466795D01*
X121168Y466762D01*
X121248Y466649D01*
X121323Y466533D01*
X121349Y466508D01*
X121370Y466478D01*
X121548Y466311D01*
X133477Y456768D01*
X133477Y452500D01*
X133494Y452351D01*
X133507Y452200D01*
X133514Y452178D01*
X133517Y452154D01*
X133567Y452012D01*
X133614Y451869D01*
X133628Y451844D01*
X133634Y451826D01*
X133660Y451786D01*
X133733Y451655D01*
X138733Y444155D01*
X138799Y444077D01*
X138857Y443993D01*
X138911Y443945D01*
X138958Y443889D01*
X139040Y443828D01*
X139116Y443760D01*
X139179Y443725D01*
X139238Y443681D01*
X139331Y443641D01*
X139421Y443591D01*
X139491Y443571D01*
X139557Y443543D01*
X139658Y443524D01*
X139756Y443496D01*
X139853Y443489D01*
X139900Y443480D01*
X139937Y443482D01*
X140000Y443477D01*
X155000Y443477D01*
X155026Y443480D01*
X155052Y443478D01*
X155199Y443500D01*
X155346Y443517D01*
X155371Y443525D01*
X155397Y443529D01*
X155535Y443584D01*
X155674Y443634D01*
X155696Y443648D01*
X155721Y443658D01*
X155842Y443743D01*
X155967Y443823D01*
X155977Y443833D01*
X155977Y430000D01*
X155980Y429974D01*
X155978Y429948D01*
X156000Y429800D01*
X156017Y429654D01*
X156025Y429629D01*
X156029Y429603D01*
X156084Y429465D01*
X156134Y429326D01*
X156148Y429304D01*
X156158Y429279D01*
X156243Y429158D01*
X156323Y429033D01*
X156342Y429015D01*
X156357Y428993D01*
X156467Y428894D01*
X156574Y428791D01*
X156596Y428777D01*
X156616Y428760D01*
X156746Y428688D01*
X156873Y428612D01*
X156898Y428604D01*
X156921Y428591D01*
X157064Y428551D01*
X157205Y428506D01*
X157231Y428504D01*
X157256Y428496D01*
X157500Y428477D01*
X226869Y428477D01*
X238923Y416423D01*
X239022Y416344D01*
X239116Y416260D01*
X239158Y416236D01*
X239196Y416206D01*
X239310Y416152D01*
X239421Y416091D01*
X239467Y416078D01*
X239511Y416057D01*
X239634Y416031D01*
X239756Y415996D01*
X239817Y415992D01*
X239852Y415984D01*
X239900Y415985D01*
X240000Y415977D01*
X252500Y415977D01*
X252526Y415980D01*
G37*
G36*
X165126Y13491D02*
X165126Y13491D01*
X165252Y13498D01*
X165298Y13511D01*
X165346Y13517D01*
X165465Y13559D01*
X165587Y13594D01*
X165629Y13618D01*
X165674Y13634D01*
X165781Y13703D01*
X165891Y13764D01*
X165937Y13804D01*
X165967Y13823D01*
X166001Y13858D01*
X166077Y13923D01*
X171077Y18923D01*
X171156Y19022D01*
X171240Y19116D01*
X171264Y19158D01*
X171294Y19196D01*
X171348Y19310D01*
X171409Y19421D01*
X171422Y19467D01*
X171443Y19511D01*
X171469Y19634D01*
X171504Y19756D01*
X171509Y19817D01*
X171516Y19852D01*
X171515Y19900D01*
X171523Y20000D01*
X171523Y25000D01*
X171509Y25126D01*
X171502Y25252D01*
X171489Y25298D01*
X171483Y25346D01*
X171441Y25465D01*
X171406Y25587D01*
X171382Y25629D01*
X171366Y25674D01*
X171297Y25781D01*
X171236Y25891D01*
X171196Y25937D01*
X171177Y25967D01*
X171142Y26001D01*
X171077Y26077D01*
X166077Y31077D01*
X165978Y31156D01*
X165884Y31240D01*
X165842Y31264D01*
X165804Y31294D01*
X165690Y31348D01*
X165579Y31409D01*
X165533Y31422D01*
X165489Y31443D01*
X165366Y31469D01*
X165244Y31504D01*
X165183Y31509D01*
X165148Y31516D01*
X165100Y31515D01*
X165000Y31523D01*
X50631Y31523D01*
X36077Y46077D01*
X35978Y46156D01*
X35884Y46240D01*
X35842Y46264D01*
X35804Y46294D01*
X35690Y46348D01*
X35579Y46409D01*
X35533Y46422D01*
X35489Y46443D01*
X35366Y46469D01*
X35244Y46504D01*
X35183Y46509D01*
X35148Y46516D01*
X35100Y46515D01*
X35000Y46523D01*
X25000Y46523D01*
X24874Y46509D01*
X24748Y46502D01*
X24702Y46489D01*
X24654Y46483D01*
X24535Y46441D01*
X24413Y46406D01*
X24371Y46382D01*
X24326Y46366D01*
X24219Y46297D01*
X24109Y46236D01*
X24063Y46196D01*
X24033Y46177D01*
X23999Y46142D01*
X23923Y46077D01*
X13923Y36077D01*
X13844Y35978D01*
X13760Y35884D01*
X13736Y35842D01*
X13706Y35804D01*
X13652Y35690D01*
X13591Y35579D01*
X13578Y35533D01*
X13557Y35489D01*
X13531Y35366D01*
X13496Y35244D01*
X13492Y35183D01*
X13484Y35148D01*
X13485Y35100D01*
X13477Y35000D01*
X13477Y25000D01*
X13491Y24874D01*
X13498Y24748D01*
X13511Y24702D01*
X13517Y24654D01*
X13559Y24535D01*
X13594Y24413D01*
X13618Y24371D01*
X13634Y24326D01*
X13703Y24219D01*
X13764Y24109D01*
X13804Y24063D01*
X13823Y24033D01*
X13858Y23999D01*
X13923Y23923D01*
X23923Y13923D01*
X24022Y13844D01*
X24116Y13760D01*
X24158Y13736D01*
X24196Y13706D01*
X24310Y13652D01*
X24421Y13591D01*
X24467Y13578D01*
X24511Y13557D01*
X24634Y13531D01*
X24756Y13496D01*
X24817Y13492D01*
X24852Y13484D01*
X24900Y13485D01*
X25000Y13477D01*
X165000Y13477D01*
X165126Y13491D01*
G37*
G36*
X488688Y668746D02*
X488688Y668746D01*
X488807Y668753D01*
X488845Y668766D01*
X488886Y668771D01*
X488996Y668814D01*
X489109Y668851D01*
X489144Y668873D01*
X489181Y668888D01*
X489277Y668958D01*
X489378Y669021D01*
X489406Y669051D01*
X489439Y669074D01*
X489515Y669166D01*
X489596Y669253D01*
X489616Y669288D01*
X489641Y669319D01*
X489692Y669427D01*
X489750Y669531D01*
X489760Y669571D01*
X489777Y669607D01*
X489799Y669724D01*
X489829Y669839D01*
X489833Y669900D01*
X489837Y669920D01*
X489835Y669940D01*
X489839Y670000D01*
X489839Y747500D01*
X489824Y747618D01*
X489817Y747737D01*
X489804Y747775D01*
X489799Y747816D01*
X489756Y747926D01*
X489719Y748039D01*
X489697Y748074D01*
X489682Y748111D01*
X489613Y748207D01*
X489549Y748308D01*
X489519Y748336D01*
X489496Y748369D01*
X489404Y748445D01*
X489317Y748526D01*
X489282Y748546D01*
X489251Y748571D01*
X489143Y748622D01*
X489039Y748680D01*
X488999Y748690D01*
X488963Y748707D01*
X488846Y748729D01*
X488731Y748759D01*
X488671Y748763D01*
X488651Y748767D01*
X488630Y748765D01*
X488570Y748769D01*
X481269Y748769D01*
X481269Y751231D01*
X488570Y751231D01*
X488688Y751246D01*
X488807Y751253D01*
X488845Y751266D01*
X488886Y751271D01*
X488996Y751314D01*
X489109Y751351D01*
X489144Y751373D01*
X489181Y751388D01*
X489277Y751458D01*
X489378Y751521D01*
X489406Y751551D01*
X489439Y751574D01*
X489515Y751666D01*
X489596Y751753D01*
X489616Y751788D01*
X489641Y751819D01*
X489692Y751927D01*
X489750Y752031D01*
X489760Y752071D01*
X489777Y752107D01*
X489799Y752224D01*
X489829Y752339D01*
X489833Y752400D01*
X489837Y752420D01*
X489837Y752421D01*
X489835Y752440D01*
X489839Y752500D01*
X489839Y781430D01*
X489827Y781528D01*
X489824Y781627D01*
X489807Y781685D01*
X489799Y781746D01*
X489763Y781838D01*
X489735Y781933D01*
X489705Y781985D01*
X489682Y782041D01*
X489624Y782121D01*
X489574Y782207D01*
X489508Y782282D01*
X489496Y782299D01*
X489486Y782306D01*
X489468Y782327D01*
X485898Y785898D01*
X485819Y785958D01*
X485747Y786026D01*
X485694Y786055D01*
X485646Y786092D01*
X485555Y786132D01*
X485469Y786180D01*
X485410Y786195D01*
X485354Y786219D01*
X485256Y786234D01*
X485161Y786259D01*
X485061Y786265D01*
X485040Y786269D01*
X485028Y786267D01*
X485000Y786269D01*
X440000Y786269D01*
X439882Y786254D01*
X439763Y786247D01*
X439725Y786234D01*
X439684Y786229D01*
X439574Y786186D01*
X439461Y786149D01*
X439426Y786127D01*
X439389Y786112D01*
X439293Y786043D01*
X439192Y785979D01*
X439164Y785949D01*
X439131Y785926D01*
X439056Y785834D01*
X438974Y785747D01*
X438954Y785712D01*
X438929Y785681D01*
X438878Y785573D01*
X438820Y785469D01*
X438810Y785429D01*
X438793Y785393D01*
X438771Y785276D01*
X438741Y785161D01*
X438737Y785101D01*
X438733Y785081D01*
X438735Y785060D01*
X438731Y785000D01*
X438731Y775000D01*
X438743Y774902D01*
X438746Y774803D01*
X438763Y774745D01*
X438771Y774684D01*
X438807Y774592D01*
X438835Y774497D01*
X438865Y774445D01*
X438888Y774389D01*
X438946Y774309D01*
X438996Y774223D01*
X439062Y774148D01*
X439074Y774131D01*
X439084Y774124D01*
X439103Y774103D01*
X444103Y769103D01*
X444181Y769042D01*
X444253Y768974D01*
X444306Y768945D01*
X444354Y768908D01*
X444445Y768868D01*
X444531Y768820D01*
X444590Y768805D01*
X444646Y768781D01*
X444744Y768766D01*
X444839Y768741D01*
X444939Y768735D01*
X444960Y768731D01*
X444972Y768733D01*
X445000Y768731D01*
X463731Y768731D01*
X463731Y710000D01*
X463739Y709935D01*
X463737Y709871D01*
X463759Y709778D01*
X463771Y709684D01*
X463795Y709624D01*
X463809Y709561D01*
X463853Y709477D01*
X463888Y709389D01*
X463926Y709336D01*
X463956Y709278D01*
X464019Y709208D01*
X464074Y709131D01*
X464125Y709090D01*
X464168Y709042D01*
X464296Y708944D01*
X478731Y699321D01*
X478731Y670000D01*
X478746Y669882D01*
X478753Y669763D01*
X478766Y669725D01*
X478771Y669684D01*
X478814Y669574D01*
X478851Y669461D01*
X478873Y669426D01*
X478888Y669389D01*
X478958Y669293D01*
X479021Y669192D01*
X479051Y669164D01*
X479074Y669131D01*
X479166Y669056D01*
X479253Y668974D01*
X479288Y668954D01*
X479319Y668929D01*
X479427Y668878D01*
X479531Y668820D01*
X479571Y668810D01*
X479607Y668793D01*
X479724Y668771D01*
X479839Y668741D01*
X479900Y668737D01*
X479920Y668733D01*
X479940Y668735D01*
X480000Y668731D01*
X488570Y668731D01*
X488688Y668746D01*
G37*
G36*
X377468Y312593D02*
X377468Y312593D01*
X377567Y312596D01*
X377625Y312613D01*
X377685Y312621D01*
X377777Y312657D01*
X377872Y312685D01*
X377925Y312715D01*
X377981Y312738D01*
X378061Y312796D01*
X378146Y312846D01*
X378222Y312912D01*
X378238Y312924D01*
X378246Y312934D01*
X378267Y312952D01*
X378505Y313190D01*
X378590Y313300D01*
X378679Y313407D01*
X378688Y313426D01*
X378700Y313442D01*
X378755Y313569D01*
X378815Y313695D01*
X378818Y313715D01*
X378827Y313734D01*
X378848Y313871D01*
X378874Y314008D01*
X378873Y314028D01*
X378876Y314048D01*
X378863Y314186D01*
X378855Y314325D01*
X378849Y314344D01*
X378847Y314364D01*
X378800Y314495D01*
X378757Y314627D01*
X378746Y314645D01*
X378739Y314664D01*
X378661Y314778D01*
X378587Y314896D01*
X378572Y314910D01*
X378560Y314927D01*
X378457Y315018D01*
X378355Y315114D01*
X378337Y315124D01*
X378322Y315137D01*
X378198Y315200D01*
X378076Y315268D01*
X378057Y315273D01*
X378039Y315282D01*
X377903Y315312D01*
X377768Y315347D01*
X377740Y315349D01*
X377729Y315352D01*
X377708Y315351D01*
X377608Y315357D01*
X372585Y315357D01*
X370799Y317143D01*
X370799Y339989D01*
X372048Y341237D01*
X372108Y341315D01*
X372176Y341387D01*
X372205Y341440D01*
X372242Y341488D01*
X372282Y341579D01*
X372330Y341666D01*
X372345Y341725D01*
X372369Y341780D01*
X372384Y341878D01*
X372409Y341974D01*
X372415Y342074D01*
X372419Y342094D01*
X372417Y342107D01*
X372419Y342135D01*
X372419Y346011D01*
X373193Y347878D01*
X379622Y354307D01*
X381240Y354977D01*
X381301Y355012D01*
X381365Y355038D01*
X381438Y355090D01*
X381516Y355135D01*
X381566Y355183D01*
X381623Y355224D01*
X381680Y355294D01*
X381745Y355356D01*
X381781Y355416D01*
X381826Y355469D01*
X381864Y355551D01*
X381911Y355627D01*
X381931Y355694D01*
X381961Y355757D01*
X381978Y355845D01*
X382004Y355931D01*
X382008Y356001D01*
X382021Y356070D01*
X382015Y356159D01*
X382020Y356249D01*
X382005Y356317D01*
X382001Y356387D01*
X381973Y356472D01*
X381955Y356560D01*
X381925Y356623D01*
X381903Y356689D01*
X381855Y356765D01*
X381816Y356846D01*
X381770Y356899D01*
X381733Y356958D01*
X381667Y357020D01*
X381609Y357088D01*
X381552Y357128D01*
X381501Y357176D01*
X381423Y357219D01*
X381349Y357271D01*
X381284Y357296D01*
X381223Y357330D01*
X381136Y357352D01*
X381052Y357384D01*
X380982Y357392D01*
X380915Y357409D01*
X380754Y357419D01*
X373168Y357419D01*
X373050Y357404D01*
X372931Y357397D01*
X372893Y357384D01*
X372852Y357379D01*
X372742Y357336D01*
X372629Y357299D01*
X372594Y357277D01*
X372557Y357262D01*
X372461Y357193D01*
X372360Y357129D01*
X372332Y357099D01*
X372299Y357076D01*
X372223Y356984D01*
X372142Y356897D01*
X372122Y356862D01*
X372097Y356831D01*
X372046Y356723D01*
X371988Y356619D01*
X371978Y356579D01*
X371961Y356543D01*
X371939Y356426D01*
X371909Y356311D01*
X371905Y356251D01*
X371901Y356231D01*
X371903Y356210D01*
X371899Y356150D01*
X371899Y353130D01*
X370468Y349676D01*
X367824Y347032D01*
X364370Y345601D01*
X360630Y345601D01*
X357176Y347032D01*
X354532Y349676D01*
X353101Y353130D01*
X353101Y356870D01*
X354532Y360324D01*
X356961Y362753D01*
X357046Y362862D01*
X357135Y362969D01*
X357143Y362988D01*
X357156Y363004D01*
X357211Y363132D01*
X357270Y363257D01*
X357274Y363277D01*
X357282Y363296D01*
X357304Y363434D01*
X357330Y363570D01*
X357329Y363590D01*
X357332Y363610D01*
X357319Y363749D01*
X357310Y363887D01*
X357304Y363906D01*
X357302Y363926D01*
X357255Y364058D01*
X357212Y364189D01*
X357201Y364207D01*
X357194Y364226D01*
X357116Y364341D01*
X357042Y364458D01*
X357027Y364472D01*
X357016Y364489D01*
X356912Y364581D01*
X356810Y364676D01*
X356793Y364686D01*
X356777Y364699D01*
X356653Y364763D01*
X356532Y364830D01*
X356512Y364835D01*
X356494Y364844D01*
X356358Y364874D01*
X356224Y364909D01*
X356196Y364911D01*
X356184Y364914D01*
X356163Y364913D01*
X356063Y364919D01*
X355130Y364919D01*
X355032Y364907D01*
X354933Y364904D01*
X354875Y364887D01*
X354815Y364879D01*
X354723Y364843D01*
X354628Y364815D01*
X354575Y364785D01*
X354519Y364762D01*
X354439Y364704D01*
X354354Y364654D01*
X354278Y364588D01*
X354262Y364576D01*
X354254Y364566D01*
X354233Y364548D01*
X350378Y360693D01*
X348511Y359919D01*
X327452Y359919D01*
X327423Y359916D01*
X327394Y359918D01*
X327265Y359896D01*
X327137Y359879D01*
X327109Y359869D01*
X327080Y359864D01*
X326962Y359810D01*
X326841Y359762D01*
X326817Y359745D01*
X326790Y359733D01*
X326689Y359652D01*
X326584Y359576D01*
X326565Y359553D01*
X326542Y359534D01*
X326464Y359431D01*
X326381Y359331D01*
X326368Y359304D01*
X326351Y359280D01*
X326280Y359136D01*
X325468Y357176D01*
X322824Y354532D01*
X319370Y353101D01*
X315630Y353101D01*
X312176Y354532D01*
X309661Y357048D01*
X309582Y357108D01*
X309510Y357176D01*
X309457Y357205D01*
X309409Y357242D01*
X309318Y357282D01*
X309232Y357330D01*
X309173Y357345D01*
X309118Y357369D01*
X309107Y357370D01*
X307122Y358193D01*
X299693Y365622D01*
X298919Y367489D01*
X298919Y369182D01*
X298904Y369300D01*
X298897Y369419D01*
X298884Y369457D01*
X298879Y369498D01*
X298836Y369608D01*
X298799Y369721D01*
X298777Y369756D01*
X298762Y369793D01*
X298693Y369889D01*
X298629Y369990D01*
X298599Y370018D01*
X298576Y370051D01*
X298484Y370127D01*
X298397Y370208D01*
X298362Y370228D01*
X298331Y370253D01*
X298223Y370304D01*
X298119Y370362D01*
X298079Y370372D01*
X298043Y370389D01*
X297926Y370411D01*
X297811Y370441D01*
X297751Y370445D01*
X297731Y370449D01*
X297710Y370447D01*
X297650Y370451D01*
X295237Y370451D01*
X293398Y372291D01*
X293288Y372376D01*
X293181Y372465D01*
X293162Y372473D01*
X293146Y372486D01*
X293018Y372541D01*
X292893Y372600D01*
X292873Y372604D01*
X292854Y372612D01*
X292716Y372634D01*
X292581Y372660D01*
X292560Y372659D01*
X292540Y372662D01*
X292401Y372649D01*
X292263Y372640D01*
X292244Y372634D01*
X292224Y372632D01*
X292092Y372585D01*
X291961Y372542D01*
X291943Y372532D01*
X291924Y372525D01*
X291809Y372447D01*
X291692Y372372D01*
X291678Y372357D01*
X291661Y372346D01*
X291569Y372242D01*
X291474Y372141D01*
X291464Y372123D01*
X291451Y372108D01*
X291387Y371984D01*
X291320Y371862D01*
X291315Y371843D01*
X291306Y371824D01*
X291276Y371688D01*
X291241Y371554D01*
X291239Y371526D01*
X291237Y371514D01*
X291237Y371494D01*
X291231Y371393D01*
X291231Y341607D01*
X291248Y341469D01*
X291261Y341330D01*
X291268Y341311D01*
X291271Y341291D01*
X291322Y341162D01*
X291369Y341031D01*
X291380Y341014D01*
X291388Y340995D01*
X291469Y340883D01*
X291547Y340768D01*
X291563Y340754D01*
X291574Y340738D01*
X291682Y340649D01*
X291786Y340557D01*
X291804Y340548D01*
X291819Y340535D01*
X291945Y340476D01*
X292069Y340413D01*
X292089Y340408D01*
X292107Y340400D01*
X292244Y340374D01*
X292379Y340343D01*
X292400Y340344D01*
X292420Y340340D01*
X292558Y340348D01*
X292697Y340353D01*
X292717Y340358D01*
X292737Y340360D01*
X292869Y340402D01*
X293003Y340441D01*
X293020Y340451D01*
X293039Y340458D01*
X293157Y340532D01*
X293277Y340603D01*
X293298Y340621D01*
X293308Y340628D01*
X293322Y340643D01*
X293398Y340709D01*
X294737Y342049D01*
X307263Y342049D01*
X309049Y340263D01*
X309049Y322602D01*
X309013Y322531D01*
X309004Y322492D01*
X308988Y322455D01*
X308969Y322337D01*
X308943Y322221D01*
X308944Y322180D01*
X308938Y322140D01*
X308949Y322022D01*
X308953Y321903D01*
X308964Y321864D01*
X308968Y321824D01*
X309008Y321712D01*
X309041Y321597D01*
X309049Y321584D01*
X309049Y318150D01*
X309064Y318032D01*
X309071Y317913D01*
X309084Y317875D01*
X309089Y317834D01*
X309132Y317724D01*
X309169Y317611D01*
X309191Y317576D01*
X309206Y317539D01*
X309275Y317443D01*
X309339Y317342D01*
X309369Y317314D01*
X309392Y317281D01*
X309484Y317205D01*
X309571Y317124D01*
X309606Y317104D01*
X309637Y317079D01*
X309745Y317028D01*
X309849Y316970D01*
X309889Y316960D01*
X309925Y316943D01*
X310042Y316921D01*
X310157Y316891D01*
X310217Y316887D01*
X310237Y316883D01*
X310258Y316885D01*
X310318Y316881D01*
X314082Y316881D01*
X314200Y316896D01*
X314319Y316903D01*
X314357Y316916D01*
X314398Y316921D01*
X314508Y316964D01*
X314621Y317001D01*
X314656Y317023D01*
X314693Y317038D01*
X314789Y317107D01*
X314890Y317171D01*
X314918Y317201D01*
X314951Y317224D01*
X315027Y317316D01*
X315108Y317403D01*
X315128Y317438D01*
X315153Y317469D01*
X315204Y317577D01*
X315262Y317681D01*
X315272Y317721D01*
X315289Y317757D01*
X315311Y317874D01*
X315341Y317989D01*
X315345Y318049D01*
X315349Y318069D01*
X315347Y318090D01*
X315351Y318150D01*
X315351Y319563D01*
X317075Y321286D01*
X317152Y321386D01*
X317234Y321481D01*
X317249Y321511D01*
X317270Y321538D01*
X317320Y321653D01*
X317376Y321766D01*
X317383Y321799D01*
X317396Y321830D01*
X317416Y321954D01*
X317442Y322077D01*
X317441Y322110D01*
X317446Y322144D01*
X317434Y322269D01*
X317429Y322395D01*
X317419Y322427D01*
X317416Y322460D01*
X317374Y322579D01*
X317337Y322699D01*
X317320Y322728D01*
X317309Y322760D01*
X317238Y322864D01*
X317173Y322971D01*
X317149Y322995D01*
X317130Y323023D01*
X317036Y323106D01*
X316946Y323194D01*
X316905Y323221D01*
X316892Y323233D01*
X316872Y323243D01*
X316847Y323260D01*
X316367Y323740D01*
X316032Y324319D01*
X315859Y324966D01*
X315859Y329261D01*
X325130Y329261D01*
X325248Y329276D01*
X325367Y329283D01*
X325405Y329296D01*
X325445Y329301D01*
X325556Y329344D01*
X325669Y329381D01*
X325704Y329403D01*
X325741Y329418D01*
X325837Y329488D01*
X325938Y329551D01*
X325966Y329581D01*
X325998Y329605D01*
X326074Y329696D01*
X326156Y329783D01*
X326175Y329818D01*
X326201Y329849D01*
X326252Y329957D01*
X326309Y330061D01*
X326320Y330101D01*
X326337Y330137D01*
X326359Y330254D01*
X326389Y330369D01*
X326393Y330430D01*
X326397Y330450D01*
X326395Y330470D01*
X326399Y330530D01*
X326399Y331801D01*
X326401Y331801D01*
X326401Y330530D01*
X326416Y330412D01*
X326423Y330293D01*
X326436Y330255D01*
X326441Y330215D01*
X326485Y330104D01*
X326521Y329991D01*
X326543Y329956D01*
X326558Y329919D01*
X326628Y329823D01*
X326691Y329722D01*
X326721Y329694D01*
X326745Y329661D01*
X326836Y329586D01*
X326923Y329504D01*
X326958Y329484D01*
X326990Y329459D01*
X327097Y329408D01*
X327201Y329350D01*
X327241Y329340D01*
X327277Y329323D01*
X327394Y329301D01*
X327509Y329271D01*
X327570Y329267D01*
X327590Y329263D01*
X327610Y329265D01*
X327670Y329261D01*
X336941Y329261D01*
X336941Y324966D01*
X336768Y324319D01*
X336433Y323740D01*
X335939Y323246D01*
X335888Y323207D01*
X335784Y323136D01*
X335762Y323111D01*
X335735Y323091D01*
X335657Y322992D01*
X335573Y322898D01*
X335558Y322868D01*
X335537Y322842D01*
X335486Y322727D01*
X335429Y322615D01*
X335421Y322582D01*
X335408Y322551D01*
X335387Y322427D01*
X335359Y322305D01*
X335360Y322271D01*
X335355Y322238D01*
X335365Y322113D01*
X335369Y321987D01*
X335378Y321954D01*
X335381Y321921D01*
X335422Y321802D01*
X335457Y321681D01*
X335474Y321652D01*
X335485Y321620D01*
X335555Y321516D01*
X335619Y321407D01*
X335651Y321371D01*
X335661Y321355D01*
X335677Y321341D01*
X335725Y321286D01*
X337449Y319563D01*
X337449Y318150D01*
X337464Y318032D01*
X337471Y317913D01*
X337484Y317875D01*
X337489Y317834D01*
X337532Y317724D01*
X337569Y317611D01*
X337591Y317576D01*
X337606Y317539D01*
X337675Y317443D01*
X337739Y317342D01*
X337769Y317314D01*
X337792Y317281D01*
X337884Y317205D01*
X337971Y317124D01*
X338006Y317104D01*
X338037Y317079D01*
X338145Y317028D01*
X338249Y316970D01*
X338289Y316960D01*
X338325Y316943D01*
X338442Y316921D01*
X338557Y316891D01*
X338617Y316887D01*
X338637Y316883D01*
X338658Y316885D01*
X338718Y316881D01*
X341211Y316881D01*
X343078Y316107D01*
X345765Y313420D01*
X345843Y313360D01*
X345915Y313292D01*
X345968Y313263D01*
X346016Y313226D01*
X346107Y313186D01*
X346194Y313138D01*
X346252Y313123D01*
X346308Y313099D01*
X346406Y313084D01*
X346502Y313059D01*
X346602Y313053D01*
X346622Y313049D01*
X346634Y313051D01*
X346662Y313049D01*
X356763Y313049D01*
X356859Y312952D01*
X356937Y312892D01*
X357009Y312824D01*
X357062Y312795D01*
X357110Y312758D01*
X357201Y312718D01*
X357288Y312670D01*
X357347Y312655D01*
X357402Y312631D01*
X357500Y312616D01*
X357596Y312591D01*
X357696Y312585D01*
X357716Y312581D01*
X357729Y312583D01*
X357757Y312581D01*
X377370Y312581D01*
X377468Y312593D01*
G37*
G36*
X227526Y313480D02*
X227526Y313480D01*
X227552Y313478D01*
X227699Y313500D01*
X227846Y313517D01*
X227871Y313525D01*
X227897Y313529D01*
X228035Y313584D01*
X228174Y313634D01*
X228196Y313648D01*
X228221Y313658D01*
X228342Y313743D01*
X228467Y313823D01*
X228485Y313842D01*
X228507Y313857D01*
X228606Y313967D01*
X228709Y314074D01*
X228723Y314096D01*
X228740Y314116D01*
X228812Y314246D01*
X228888Y314373D01*
X228896Y314398D01*
X228909Y314421D01*
X228949Y314564D01*
X228994Y314705D01*
X228996Y314731D01*
X229004Y314756D01*
X229023Y315000D01*
X229023Y334500D01*
X229023Y334502D01*
X229023Y334504D01*
X229003Y334675D01*
X228983Y334846D01*
X228983Y334848D01*
X228982Y334850D01*
X228907Y335083D01*
X225839Y342490D01*
X225839Y350510D01*
X228907Y357917D01*
X228908Y357919D01*
X228909Y357921D01*
X228956Y358088D01*
X229003Y358252D01*
X229003Y358254D01*
X229004Y358256D01*
X229023Y358500D01*
X229023Y383000D01*
X229023Y383002D01*
X229023Y383004D01*
X229003Y383175D01*
X228983Y383346D01*
X228983Y383348D01*
X228982Y383350D01*
X228907Y383583D01*
X225839Y390990D01*
X225839Y397500D01*
X225836Y397526D01*
X225838Y397552D01*
X225816Y397699D01*
X225799Y397846D01*
X225791Y397871D01*
X225787Y397897D01*
X225732Y398035D01*
X225682Y398174D01*
X225668Y398196D01*
X225658Y398221D01*
X225573Y398342D01*
X225493Y398467D01*
X225474Y398485D01*
X225459Y398507D01*
X225349Y398606D01*
X225242Y398709D01*
X225220Y398723D01*
X225200Y398740D01*
X225070Y398812D01*
X224943Y398888D01*
X224918Y398896D01*
X224895Y398909D01*
X224752Y398949D01*
X224611Y398994D01*
X224585Y398996D01*
X224560Y399004D01*
X224316Y399023D01*
X210000Y399023D01*
X209974Y399020D01*
X209948Y399022D01*
X209801Y399000D01*
X209654Y398983D01*
X209629Y398975D01*
X209603Y398971D01*
X209465Y398916D01*
X209326Y398866D01*
X209304Y398852D01*
X209279Y398842D01*
X209158Y398757D01*
X209033Y398677D01*
X209015Y398658D01*
X208993Y398643D01*
X208894Y398533D01*
X208791Y398426D01*
X208777Y398404D01*
X208760Y398384D01*
X208688Y398254D01*
X208612Y398127D01*
X208604Y398102D01*
X208591Y398079D01*
X208551Y397936D01*
X208506Y397795D01*
X208504Y397769D01*
X208496Y397744D01*
X208477Y397500D01*
X208477Y331523D01*
X160000Y331523D01*
X159974Y331520D01*
X159948Y331522D01*
X159801Y331500D01*
X159654Y331483D01*
X159629Y331475D01*
X159603Y331471D01*
X159465Y331416D01*
X159326Y331366D01*
X159304Y331352D01*
X159279Y331342D01*
X159158Y331257D01*
X159033Y331177D01*
X159015Y331158D01*
X158993Y331143D01*
X158894Y331033D01*
X158791Y330926D01*
X158777Y330904D01*
X158760Y330884D01*
X158688Y330754D01*
X158612Y330627D01*
X158604Y330602D01*
X158591Y330579D01*
X158551Y330436D01*
X158506Y330295D01*
X158504Y330269D01*
X158496Y330244D01*
X158477Y330000D01*
X158477Y315000D01*
X158480Y314974D01*
X158478Y314948D01*
X158500Y314801D01*
X158517Y314654D01*
X158525Y314629D01*
X158529Y314603D01*
X158584Y314465D01*
X158634Y314326D01*
X158648Y314304D01*
X158658Y314279D01*
X158743Y314158D01*
X158823Y314033D01*
X158842Y314015D01*
X158857Y313993D01*
X158967Y313894D01*
X159074Y313791D01*
X159096Y313777D01*
X159116Y313760D01*
X159246Y313688D01*
X159373Y313612D01*
X159398Y313604D01*
X159421Y313591D01*
X159564Y313551D01*
X159705Y313506D01*
X159731Y313504D01*
X159756Y313496D01*
X160000Y313477D01*
X227500Y313477D01*
X227526Y313480D01*
G37*
G36*
X340061Y633739D02*
X340061Y633739D01*
X340123Y633737D01*
X340219Y633758D01*
X340316Y633771D01*
X340373Y633793D01*
X340433Y633807D01*
X340521Y633852D01*
X340611Y633888D01*
X340661Y633924D01*
X340716Y633952D01*
X340843Y634051D01*
X362983Y653731D01*
X437500Y653731D01*
X437529Y653734D01*
X437558Y653732D01*
X437686Y653754D01*
X437816Y653771D01*
X437842Y653781D01*
X437871Y653786D01*
X437990Y653840D01*
X438111Y653888D01*
X438135Y653905D01*
X438161Y653916D01*
X438293Y654009D01*
X450793Y664009D01*
X450800Y664016D01*
X450808Y664021D01*
X450910Y664130D01*
X451014Y664237D01*
X451019Y664246D01*
X451026Y664253D01*
X451098Y664384D01*
X451172Y664513D01*
X451175Y664523D01*
X451180Y664531D01*
X451217Y664676D01*
X451256Y664820D01*
X451257Y664830D01*
X451259Y664839D01*
X451269Y665000D01*
X451269Y685000D01*
X451254Y685118D01*
X451247Y685237D01*
X451234Y685275D01*
X451229Y685316D01*
X451186Y685426D01*
X451149Y685539D01*
X451127Y685574D01*
X451112Y685611D01*
X451043Y685707D01*
X450979Y685808D01*
X450949Y685836D01*
X450926Y685869D01*
X450834Y685945D01*
X450747Y686026D01*
X450712Y686046D01*
X450681Y686071D01*
X450573Y686122D01*
X450469Y686180D01*
X450429Y686190D01*
X450393Y686207D01*
X450276Y686229D01*
X450161Y686259D01*
X450101Y686263D01*
X450081Y686267D01*
X450060Y686265D01*
X450000Y686269D01*
X440000Y686269D01*
X439882Y686254D01*
X439763Y686247D01*
X439725Y686234D01*
X439684Y686229D01*
X439574Y686186D01*
X439461Y686149D01*
X439426Y686127D01*
X439389Y686112D01*
X439293Y686043D01*
X439192Y685979D01*
X439164Y685949D01*
X439131Y685926D01*
X439056Y685834D01*
X438974Y685747D01*
X438954Y685712D01*
X438929Y685681D01*
X438878Y685573D01*
X438820Y685469D01*
X438810Y685429D01*
X438793Y685393D01*
X438771Y685276D01*
X438741Y685161D01*
X438737Y685101D01*
X438733Y685081D01*
X438735Y685060D01*
X438731Y685000D01*
X438731Y671269D01*
X360000Y671269D01*
X359971Y671266D01*
X359942Y671268D01*
X359814Y671246D01*
X359684Y671229D01*
X359658Y671219D01*
X359629Y671214D01*
X359510Y671160D01*
X359389Y671112D01*
X359365Y671095D01*
X359339Y671084D01*
X359207Y670991D01*
X334555Y651269D01*
X320000Y651269D01*
X319882Y651254D01*
X319763Y651247D01*
X319725Y651234D01*
X319684Y651229D01*
X319574Y651186D01*
X319461Y651149D01*
X319426Y651127D01*
X319389Y651112D01*
X319293Y651043D01*
X319192Y650979D01*
X319164Y650949D01*
X319131Y650926D01*
X319056Y650834D01*
X318974Y650747D01*
X318954Y650712D01*
X318929Y650681D01*
X318878Y650573D01*
X318820Y650469D01*
X318810Y650429D01*
X318793Y650393D01*
X318771Y650276D01*
X318741Y650161D01*
X318737Y650101D01*
X318733Y650081D01*
X318735Y650060D01*
X318731Y650000D01*
X318731Y635000D01*
X318746Y634882D01*
X318753Y634763D01*
X318766Y634725D01*
X318771Y634684D01*
X318814Y634574D01*
X318851Y634461D01*
X318873Y634426D01*
X318888Y634389D01*
X318958Y634293D01*
X319021Y634192D01*
X319051Y634164D01*
X319074Y634131D01*
X319166Y634056D01*
X319253Y633974D01*
X319288Y633954D01*
X319319Y633929D01*
X319427Y633878D01*
X319531Y633820D01*
X319571Y633810D01*
X319607Y633793D01*
X319724Y633771D01*
X319839Y633741D01*
X319900Y633737D01*
X319920Y633733D01*
X319940Y633735D01*
X320000Y633731D01*
X340000Y633731D01*
X340061Y633739D01*
G37*
G36*
X332618Y806246D02*
X332618Y806246D01*
X332737Y806253D01*
X332775Y806266D01*
X332816Y806271D01*
X332926Y806314D01*
X333039Y806351D01*
X333074Y806373D01*
X333111Y806388D01*
X333207Y806458D01*
X333308Y806521D01*
X333336Y806551D01*
X333369Y806574D01*
X333445Y806666D01*
X333526Y806753D01*
X333546Y806788D01*
X333571Y806819D01*
X333622Y806927D01*
X333680Y807031D01*
X333690Y807071D01*
X333707Y807107D01*
X333729Y807224D01*
X333759Y807339D01*
X333763Y807400D01*
X333767Y807420D01*
X333765Y807440D01*
X333769Y807500D01*
X333769Y811231D01*
X350000Y811231D01*
X350118Y811246D01*
X350237Y811253D01*
X350275Y811266D01*
X350316Y811271D01*
X350426Y811314D01*
X350539Y811351D01*
X350574Y811373D01*
X350611Y811388D01*
X350707Y811458D01*
X350808Y811521D01*
X350836Y811551D01*
X350869Y811574D01*
X350945Y811666D01*
X351026Y811753D01*
X351046Y811788D01*
X351071Y811819D01*
X351122Y811927D01*
X351180Y812031D01*
X351190Y812071D01*
X351207Y812107D01*
X351229Y812224D01*
X351259Y812339D01*
X351263Y812400D01*
X351267Y812420D01*
X351265Y812440D01*
X351269Y812500D01*
X351269Y825000D01*
X351254Y825118D01*
X351247Y825237D01*
X351234Y825275D01*
X351229Y825316D01*
X351186Y825426D01*
X351149Y825539D01*
X351127Y825574D01*
X351112Y825611D01*
X351043Y825707D01*
X350979Y825808D01*
X350949Y825836D01*
X350926Y825869D01*
X350834Y825945D01*
X350747Y826026D01*
X350712Y826046D01*
X350681Y826071D01*
X350573Y826122D01*
X350469Y826180D01*
X350429Y826190D01*
X350393Y826207D01*
X350276Y826229D01*
X350161Y826259D01*
X350101Y826263D01*
X350081Y826267D01*
X350060Y826265D01*
X350000Y826269D01*
X283000Y826269D01*
X282882Y826254D01*
X282763Y826247D01*
X282725Y826234D01*
X282684Y826229D01*
X282574Y826186D01*
X282461Y826149D01*
X282426Y826127D01*
X282389Y826112D01*
X282293Y826043D01*
X282192Y825979D01*
X282164Y825949D01*
X282131Y825926D01*
X282056Y825834D01*
X281974Y825747D01*
X281954Y825712D01*
X281929Y825681D01*
X281878Y825573D01*
X281820Y825469D01*
X281810Y825429D01*
X281793Y825393D01*
X281771Y825276D01*
X281741Y825161D01*
X281737Y825101D01*
X281733Y825081D01*
X281735Y825060D01*
X281731Y825000D01*
X281731Y818769D01*
X278269Y818769D01*
X278269Y825000D01*
X278254Y825118D01*
X278247Y825237D01*
X278234Y825275D01*
X278229Y825316D01*
X278186Y825426D01*
X278149Y825539D01*
X278127Y825574D01*
X278112Y825611D01*
X278043Y825707D01*
X277979Y825808D01*
X277949Y825836D01*
X277926Y825869D01*
X277834Y825945D01*
X277747Y826026D01*
X277712Y826046D01*
X277681Y826071D01*
X277573Y826122D01*
X277469Y826180D01*
X277429Y826190D01*
X277393Y826207D01*
X277276Y826229D01*
X277161Y826259D01*
X277101Y826263D01*
X277081Y826267D01*
X277060Y826265D01*
X277000Y826269D01*
X230000Y826269D01*
X229882Y826254D01*
X229763Y826247D01*
X229725Y826234D01*
X229684Y826229D01*
X229574Y826186D01*
X229461Y826149D01*
X229426Y826127D01*
X229389Y826112D01*
X229293Y826043D01*
X229192Y825979D01*
X229164Y825949D01*
X229131Y825926D01*
X229056Y825834D01*
X228974Y825747D01*
X228954Y825712D01*
X228929Y825681D01*
X228878Y825573D01*
X228820Y825469D01*
X228810Y825429D01*
X228793Y825393D01*
X228771Y825276D01*
X228741Y825161D01*
X228737Y825101D01*
X228733Y825081D01*
X228735Y825060D01*
X228731Y825000D01*
X228731Y807500D01*
X228746Y807382D01*
X228753Y807263D01*
X228766Y807225D01*
X228771Y807184D01*
X228814Y807074D01*
X228851Y806961D01*
X228873Y806926D01*
X228888Y806889D01*
X228958Y806793D01*
X229021Y806692D01*
X229051Y806664D01*
X229074Y806631D01*
X229166Y806556D01*
X229253Y806474D01*
X229288Y806454D01*
X229319Y806429D01*
X229427Y806378D01*
X229531Y806320D01*
X229571Y806310D01*
X229607Y806293D01*
X229724Y806271D01*
X229839Y806241D01*
X229900Y806237D01*
X229920Y806233D01*
X229940Y806235D01*
X230000Y806231D01*
X332500Y806231D01*
X332618Y806246D01*
G37*
G36*
X454460Y118491D02*
X454460Y118491D01*
X454586Y118498D01*
X454632Y118511D01*
X454680Y118517D01*
X454799Y118559D01*
X454921Y118594D01*
X454963Y118618D01*
X455009Y118634D01*
X455115Y118703D01*
X455225Y118764D01*
X455271Y118804D01*
X455301Y118823D01*
X455335Y118858D01*
X455411Y118923D01*
X458580Y122091D01*
X465990Y125161D01*
X471684Y125161D01*
X471810Y125175D01*
X471936Y125182D01*
X471982Y125195D01*
X472030Y125201D01*
X472149Y125243D01*
X472271Y125278D01*
X472313Y125302D01*
X472358Y125318D01*
X472465Y125387D01*
X472575Y125448D01*
X472621Y125488D01*
X472651Y125507D01*
X472685Y125542D01*
X472761Y125607D01*
X486077Y138923D01*
X486156Y139022D01*
X486240Y139116D01*
X486264Y139158D01*
X486294Y139196D01*
X486348Y139310D01*
X486409Y139421D01*
X486422Y139467D01*
X486443Y139511D01*
X486469Y139634D01*
X486504Y139756D01*
X486509Y139817D01*
X486516Y139852D01*
X486515Y139900D01*
X486523Y140000D01*
X486523Y160000D01*
X486520Y160026D01*
X486522Y160052D01*
X486500Y160199D01*
X486483Y160346D01*
X486475Y160371D01*
X486471Y160397D01*
X486416Y160535D01*
X486366Y160674D01*
X486352Y160696D01*
X486342Y160721D01*
X486257Y160842D01*
X486177Y160967D01*
X486158Y160985D01*
X486143Y161007D01*
X486033Y161106D01*
X485926Y161209D01*
X485904Y161223D01*
X485884Y161240D01*
X485754Y161312D01*
X485627Y161388D01*
X485602Y161396D01*
X485579Y161409D01*
X485436Y161449D01*
X485295Y161494D01*
X485269Y161496D01*
X485244Y161504D01*
X485000Y161523D01*
X460000Y161523D01*
X459874Y161509D01*
X459748Y161502D01*
X459702Y161489D01*
X459654Y161483D01*
X459535Y161441D01*
X459413Y161406D01*
X459371Y161382D01*
X459326Y161366D01*
X459219Y161297D01*
X459109Y161236D01*
X459063Y161196D01*
X459033Y161177D01*
X458999Y161142D01*
X458923Y161077D01*
X439369Y141523D01*
X415000Y141523D01*
X414874Y141509D01*
X414748Y141502D01*
X414702Y141489D01*
X414654Y141483D01*
X414535Y141441D01*
X414413Y141406D01*
X414371Y141382D01*
X414326Y141366D01*
X414219Y141297D01*
X414109Y141236D01*
X414063Y141196D01*
X414033Y141177D01*
X413999Y141142D01*
X413923Y141077D01*
X408923Y136077D01*
X408844Y135978D01*
X408760Y135884D01*
X408736Y135842D01*
X408706Y135804D01*
X408652Y135690D01*
X408591Y135579D01*
X408578Y135533D01*
X408557Y135489D01*
X408531Y135366D01*
X408496Y135244D01*
X408492Y135183D01*
X408484Y135148D01*
X408485Y135100D01*
X408477Y135000D01*
X408477Y125000D01*
X408491Y124874D01*
X408498Y124748D01*
X408511Y124702D01*
X408517Y124654D01*
X408559Y124535D01*
X408594Y124413D01*
X408618Y124371D01*
X408634Y124326D01*
X408703Y124219D01*
X408764Y124109D01*
X408804Y124063D01*
X408823Y124033D01*
X408858Y123999D01*
X408923Y123923D01*
X413923Y118923D01*
X414022Y118844D01*
X414116Y118760D01*
X414158Y118736D01*
X414196Y118706D01*
X414310Y118652D01*
X414421Y118591D01*
X414467Y118578D01*
X414511Y118557D01*
X414634Y118531D01*
X414756Y118496D01*
X414817Y118492D01*
X414852Y118484D01*
X414900Y118485D01*
X415000Y118477D01*
X454334Y118477D01*
X454460Y118491D01*
G37*
G36*
X475126Y18491D02*
X475126Y18491D01*
X475252Y18498D01*
X475298Y18511D01*
X475346Y18517D01*
X475465Y18559D01*
X475587Y18594D01*
X475629Y18618D01*
X475674Y18634D01*
X475781Y18703D01*
X475891Y18764D01*
X475937Y18804D01*
X475967Y18823D01*
X476001Y18858D01*
X476077Y18923D01*
X481077Y23923D01*
X481156Y24022D01*
X481240Y24116D01*
X481264Y24158D01*
X481294Y24196D01*
X481348Y24310D01*
X481409Y24421D01*
X481422Y24467D01*
X481443Y24511D01*
X481469Y24634D01*
X481504Y24756D01*
X481509Y24817D01*
X481516Y24852D01*
X481515Y24900D01*
X481523Y25000D01*
X481523Y85000D01*
X481520Y85026D01*
X481522Y85052D01*
X481500Y85199D01*
X481483Y85346D01*
X481475Y85371D01*
X481471Y85397D01*
X481416Y85534D01*
X481366Y85674D01*
X481352Y85696D01*
X481342Y85721D01*
X481257Y85842D01*
X481177Y85967D01*
X481158Y85985D01*
X481143Y86007D01*
X481033Y86106D01*
X480926Y86209D01*
X480904Y86223D01*
X480884Y86240D01*
X480754Y86312D01*
X480627Y86388D01*
X480602Y86396D01*
X480579Y86409D01*
X480436Y86449D01*
X480295Y86494D01*
X480269Y86496D01*
X480244Y86504D01*
X480000Y86523D01*
X478379Y86523D01*
X478377Y86523D01*
X478375Y86523D01*
X478204Y86503D01*
X478032Y86483D01*
X478030Y86483D01*
X478028Y86482D01*
X477796Y86407D01*
X474010Y84839D01*
X465990Y84839D01*
X462204Y86407D01*
X462202Y86408D01*
X462201Y86409D01*
X462033Y86456D01*
X461869Y86503D01*
X461867Y86503D01*
X461865Y86504D01*
X461621Y86523D01*
X450000Y86523D01*
X449974Y86520D01*
X449948Y86522D01*
X449801Y86500D01*
X449654Y86483D01*
X449629Y86475D01*
X449603Y86471D01*
X449465Y86416D01*
X449326Y86366D01*
X449304Y86352D01*
X449279Y86342D01*
X449158Y86257D01*
X449033Y86177D01*
X449015Y86158D01*
X448993Y86143D01*
X448894Y86033D01*
X448791Y85926D01*
X448777Y85904D01*
X448760Y85884D01*
X448688Y85754D01*
X448612Y85627D01*
X448604Y85602D01*
X448591Y85579D01*
X448551Y85436D01*
X448506Y85295D01*
X448504Y85269D01*
X448496Y85244D01*
X448477Y85000D01*
X448477Y55000D01*
X448478Y54988D01*
X448478Y54983D01*
X448482Y54951D01*
X448491Y54874D01*
X448498Y54748D01*
X448511Y54702D01*
X448517Y54654D01*
X448559Y54535D01*
X448594Y54413D01*
X448618Y54371D01*
X448634Y54326D01*
X448703Y54219D01*
X448764Y54109D01*
X448804Y54063D01*
X448823Y54033D01*
X448858Y53999D01*
X448923Y53923D01*
X458477Y44369D01*
X458477Y25000D01*
X458491Y24874D01*
X458498Y24748D01*
X458511Y24702D01*
X458517Y24654D01*
X458559Y24535D01*
X458594Y24413D01*
X458618Y24371D01*
X458634Y24326D01*
X458703Y24219D01*
X458764Y24109D01*
X458804Y24063D01*
X458823Y24033D01*
X458858Y23999D01*
X458923Y23923D01*
X463923Y18923D01*
X464022Y18844D01*
X464116Y18760D01*
X464158Y18736D01*
X464196Y18706D01*
X464310Y18652D01*
X464421Y18591D01*
X464467Y18578D01*
X464511Y18557D01*
X464634Y18531D01*
X464756Y18496D01*
X464817Y18492D01*
X464852Y18484D01*
X464900Y18485D01*
X465000Y18477D01*
X475000Y18477D01*
X475126Y18491D01*
G37*
%LPC*%
G36*
X322959Y382039D02*
X322959Y382039D01*
X322959Y385834D01*
X323139Y386505D01*
X323163Y386561D01*
X323214Y386661D01*
X323224Y386707D01*
X323242Y386750D01*
X323259Y386862D01*
X323283Y386971D01*
X323282Y387018D01*
X323289Y387065D01*
X323277Y387177D01*
X323274Y387289D01*
X323261Y387334D01*
X323256Y387381D01*
X323217Y387487D01*
X323185Y387595D01*
X323161Y387635D01*
X323145Y387679D01*
X323081Y387772D01*
X323024Y387869D01*
X322976Y387923D01*
X322964Y387941D01*
X322950Y387953D01*
X322917Y387990D01*
X322467Y388440D01*
X322132Y389019D01*
X321959Y389666D01*
X321959Y397461D01*
X329961Y397461D01*
X329961Y389310D01*
X329976Y389192D01*
X329983Y389073D01*
X329996Y389035D01*
X330001Y388994D01*
X330044Y388884D01*
X330081Y388771D01*
X330103Y388736D01*
X330118Y388699D01*
X330188Y388603D01*
X330251Y388502D01*
X330281Y388474D01*
X330305Y388441D01*
X330396Y388365D01*
X330461Y388305D01*
X330461Y382039D01*
X322959Y382039D01*
G37*
%LPD*%
%LPC*%
G36*
X335539Y382039D02*
X335539Y382039D01*
X335539Y386190D01*
X335524Y386308D01*
X335517Y386427D01*
X335504Y386465D01*
X335499Y386506D01*
X335455Y386616D01*
X335419Y386729D01*
X335397Y386764D01*
X335382Y386801D01*
X335312Y386897D01*
X335249Y386998D01*
X335219Y387026D01*
X335195Y387059D01*
X335104Y387135D01*
X335039Y387195D01*
X335039Y397461D01*
X343041Y397461D01*
X343041Y389666D01*
X342868Y389019D01*
X342501Y388385D01*
X342460Y388287D01*
X342411Y388194D01*
X342399Y388141D01*
X342378Y388092D01*
X342362Y387987D01*
X342338Y387884D01*
X342339Y387830D01*
X342331Y387777D01*
X342342Y387672D01*
X342344Y387566D01*
X342359Y387514D01*
X342365Y387461D01*
X342401Y387361D01*
X342430Y387260D01*
X342468Y387183D01*
X342475Y387162D01*
X342484Y387150D01*
X342501Y387115D01*
X342868Y386481D01*
X343041Y385834D01*
X343041Y382039D01*
X335539Y382039D01*
G37*
%LPD*%
%LPC*%
G36*
X375539Y422539D02*
X375539Y422539D01*
X375539Y428739D01*
X375525Y428851D01*
X375519Y428963D01*
X375505Y429008D01*
X375499Y429054D01*
X375458Y429159D01*
X375424Y429267D01*
X375400Y429306D01*
X375382Y429350D01*
X375316Y429441D01*
X375257Y429537D01*
X375223Y429569D01*
X375195Y429607D01*
X375109Y429679D01*
X375027Y429757D01*
X374987Y429780D01*
X374950Y429810D01*
X374849Y429858D01*
X374813Y429878D01*
X374140Y430267D01*
X373667Y430740D01*
X373332Y431319D01*
X373159Y431966D01*
X373159Y437761D01*
X379661Y437761D01*
X379661Y429810D01*
X379676Y429692D01*
X379683Y429573D01*
X379696Y429535D01*
X379701Y429494D01*
X379744Y429384D01*
X379781Y429271D01*
X379803Y429236D01*
X379818Y429199D01*
X379888Y429102D01*
X379951Y429002D01*
X379981Y428974D01*
X380005Y428941D01*
X380096Y428865D01*
X380183Y428784D01*
X380218Y428764D01*
X380249Y428739D01*
X380357Y428688D01*
X380461Y428630D01*
X380501Y428620D01*
X380537Y428603D01*
X380654Y428581D01*
X380769Y428551D01*
X380805Y428549D01*
X381481Y428368D01*
X382060Y428033D01*
X382533Y427560D01*
X382868Y426981D01*
X383041Y426334D01*
X383041Y422539D01*
X375539Y422539D01*
G37*
%LPD*%
%LPC*%
G36*
X364431Y466431D02*
X364431Y466431D01*
X364431Y476466D01*
X367398Y476466D01*
X374466Y469398D01*
X374466Y466431D01*
X364431Y466431D01*
G37*
%LPD*%
%LPC*%
G36*
X364431Y452334D02*
X364431Y452334D01*
X364431Y462369D01*
X374466Y462369D01*
X374466Y459402D01*
X367398Y452334D01*
X364431Y452334D01*
G37*
%LPD*%
%LPC*%
G36*
X357402Y452334D02*
X357402Y452334D01*
X350334Y459402D01*
X350334Y462369D01*
X360369Y462369D01*
X360369Y452334D01*
X357402Y452334D01*
G37*
%LPD*%
%LPC*%
G36*
X453239Y377639D02*
X453239Y377639D01*
X453239Y384141D01*
X459034Y384141D01*
X459681Y383968D01*
X460260Y383633D01*
X460733Y383160D01*
X461068Y382581D01*
X461241Y381934D01*
X461241Y377639D01*
X453239Y377639D01*
G37*
%LPD*%
%LPC*%
G36*
X328939Y334339D02*
X328939Y334339D01*
X328939Y340841D01*
X334734Y340841D01*
X335381Y340668D01*
X335960Y340333D01*
X336433Y339860D01*
X336768Y339281D01*
X336941Y338634D01*
X336941Y334339D01*
X328939Y334339D01*
G37*
%LPD*%
%LPC*%
G36*
X434839Y413139D02*
X434839Y413139D01*
X434839Y419641D01*
X440634Y419641D01*
X441281Y419468D01*
X441860Y419133D01*
X442333Y418660D01*
X442668Y418081D01*
X442841Y417434D01*
X442841Y413139D01*
X434839Y413139D01*
G37*
%LPD*%
%LPC*%
G36*
X315859Y334339D02*
X315859Y334339D01*
X315859Y338634D01*
X316032Y339281D01*
X316367Y339860D01*
X316840Y340333D01*
X317419Y340668D01*
X318066Y340841D01*
X323861Y340841D01*
X323861Y334339D01*
X315859Y334339D01*
G37*
%LPD*%
%LPC*%
G36*
X421759Y413139D02*
X421759Y413139D01*
X421759Y417434D01*
X421932Y418081D01*
X422267Y418660D01*
X422740Y419133D01*
X423319Y419468D01*
X423966Y419641D01*
X429761Y419641D01*
X429761Y413139D01*
X421759Y413139D01*
G37*
%LPD*%
%LPC*%
G36*
X373159Y442839D02*
X373159Y442839D01*
X373159Y448634D01*
X373332Y449281D01*
X373667Y449860D01*
X374140Y450333D01*
X374719Y450668D01*
X375366Y450841D01*
X379661Y450841D01*
X379661Y442839D01*
X373159Y442839D01*
G37*
%LPD*%
%LPC*%
G36*
X399859Y297039D02*
X399859Y297039D01*
X399859Y302834D01*
X400032Y303481D01*
X400367Y304060D01*
X400840Y304533D01*
X401419Y304868D01*
X402066Y305041D01*
X406361Y305041D01*
X406361Y297039D01*
X399859Y297039D01*
G37*
%LPD*%
%LPC*%
G36*
X402066Y283959D02*
X402066Y283959D01*
X401419Y284132D01*
X400840Y284467D01*
X400367Y284940D01*
X400032Y285519D01*
X399859Y286166D01*
X399859Y291961D01*
X406361Y291961D01*
X406361Y283959D01*
X402066Y283959D01*
G37*
%LPD*%
%LPC*%
G36*
X371307Y391684D02*
X371307Y391684D01*
X371307Y400528D01*
X371480Y401175D01*
X371815Y401754D01*
X372288Y402227D01*
X372867Y402562D01*
X373514Y402735D01*
X375500Y402735D01*
X375500Y391684D01*
X371307Y391684D01*
G37*
%LPD*%
%LPC*%
G36*
X352039Y334039D02*
X352039Y334039D01*
X352039Y341541D01*
X355834Y341541D01*
X356481Y341368D01*
X357060Y341033D01*
X357533Y340560D01*
X357868Y339981D01*
X358041Y339334D01*
X358041Y334039D01*
X352039Y334039D01*
G37*
%LPD*%
%LPC*%
G36*
X362959Y422539D02*
X362959Y422539D01*
X362959Y426334D01*
X363132Y426981D01*
X363467Y427560D01*
X363940Y428033D01*
X364519Y428368D01*
X365166Y428541D01*
X370461Y428541D01*
X370461Y422539D01*
X362959Y422539D01*
G37*
%LPD*%
%LPC*%
G36*
X340959Y334039D02*
X340959Y334039D01*
X340959Y339334D01*
X341132Y339981D01*
X341467Y340560D01*
X341940Y341033D01*
X342519Y341368D01*
X343166Y341541D01*
X346961Y341541D01*
X346961Y334039D01*
X340959Y334039D01*
G37*
%LPD*%
%LPC*%
G36*
X352039Y321459D02*
X352039Y321459D01*
X352039Y328961D01*
X358041Y328961D01*
X358041Y323666D01*
X357868Y323019D01*
X357533Y322440D01*
X357060Y321967D01*
X356481Y321632D01*
X355834Y321459D01*
X352039Y321459D01*
G37*
%LPD*%
%LPC*%
G36*
X375539Y411459D02*
X375539Y411459D01*
X375539Y417461D01*
X383041Y417461D01*
X383041Y413666D01*
X382868Y413019D01*
X382533Y412440D01*
X382060Y411967D01*
X381481Y411632D01*
X380834Y411459D01*
X375539Y411459D01*
G37*
%LPD*%
%LPC*%
G36*
X365166Y411459D02*
X365166Y411459D01*
X364519Y411632D01*
X363940Y411967D01*
X363467Y412440D01*
X363132Y413019D01*
X362959Y413666D01*
X362959Y417461D01*
X370461Y417461D01*
X370461Y411459D01*
X365166Y411459D01*
G37*
%LPD*%
%LPC*%
G36*
X343166Y321459D02*
X343166Y321459D01*
X342519Y321632D01*
X341940Y321967D01*
X341467Y322440D01*
X341132Y323019D01*
X340959Y323666D01*
X340959Y328961D01*
X346961Y328961D01*
X346961Y321459D01*
X343166Y321459D01*
G37*
%LPD*%
%LPC*%
G36*
X372999Y419999D02*
X372999Y419999D01*
X372999Y420001D01*
X373001Y420001D01*
X373001Y419999D01*
X372999Y419999D01*
G37*
%LPD*%
%LPC*%
G36*
X349499Y331499D02*
X349499Y331499D01*
X349499Y331501D01*
X349501Y331501D01*
X349501Y331499D01*
X349499Y331499D01*
G37*
%LPD*%
D10*
X378200Y177430D03*
X378200Y27570D03*
D11*
X101400Y100588D03*
X101400Y21212D03*
D12*
X416480Y126800D02*
X431720Y126800D01*
X431720Y177600D02*
X416480Y177600D01*
D13*
X330282Y166170D02*
X313518Y166170D01*
X228682Y166170D02*
X211918Y166170D01*
X211918Y36630D02*
X228682Y36630D01*
X313518Y36630D02*
X330282Y36630D01*
D14*
X467500Y145600D03*
X466000Y70600D03*
X30100Y32100D03*
D15*
X466700Y32900D03*
X415900Y32900D03*
D16*
X96100Y247500D03*
D17*
X96100Y323700D03*
D18*
X58200Y328900D03*
X58200Y298900D03*
X58300Y278900D03*
X58300Y248900D03*
D19*
X367900Y119600D03*
X367900Y147600D03*
X368100Y59600D03*
X368100Y87600D03*
D20*
X313400Y251300D03*
X285400Y251300D03*
X371400Y251500D03*
X343400Y251500D03*
X70900Y425700D03*
X42900Y425700D03*
D19*
X101100Y425400D03*
X101100Y397400D03*
D21*
X41100Y397700D03*
X71100Y397700D03*
D22*
X415250Y328566D03*
X415250Y390034D03*
X402550Y328566D03*
X389850Y328566D03*
X402550Y390034D03*
X389850Y390034D03*
X377150Y328566D03*
X377150Y390034D03*
D23*
X301000Y331500D03*
X301000Y312700D03*
D24*
X463000Y584196D02*
X463000Y597404D01*
X437600Y597404D02*
X437600Y584196D01*
X437600Y521204D02*
X437600Y507996D01*
X463000Y507996D02*
X463000Y521204D01*
D25*
X326400Y311800D03*
X326400Y331800D03*
D26*
X391100Y490900D03*
X372300Y490900D03*
D27*
X413200Y464400D03*
D28*
X362400Y464400D03*
D29*
X402200Y440300D03*
X382200Y440300D03*
D12*
X37000Y804080D02*
X37000Y819320D01*
X62400Y819320D02*
X62400Y804080D01*
X87800Y804080D02*
X87800Y819320D01*
D30*
X148500Y772520D03*
D31*
X148500Y808080D03*
D25*
X167700Y800700D03*
X167700Y780700D03*
X300800Y803200D03*
X300800Y783200D03*
D24*
X195950Y809196D02*
X195950Y822404D01*
X234050Y822404D02*
X234050Y809196D01*
D20*
X313200Y275900D03*
X285200Y275900D03*
D25*
X432300Y390600D03*
X432300Y410600D03*
X450700Y355100D03*
X450700Y375100D03*
D23*
X432900Y373800D03*
X432900Y355000D03*
D29*
X428900Y294500D03*
X408900Y294500D03*
D32*
X427900Y639200D03*
X418400Y617200D03*
X437400Y617200D03*
D23*
X368600Y621200D03*
X368600Y640000D03*
X396500Y639800D03*
X396500Y621000D03*
D26*
X473800Y620400D03*
X455000Y620400D03*
D23*
X368800Y584700D03*
X368800Y603500D03*
D25*
X396700Y583100D03*
X396700Y603100D03*
D21*
X18100Y773900D03*
X48100Y773900D03*
D20*
X46800Y750700D03*
X74800Y750700D03*
D33*
X151200Y364200D03*
X151200Y438200D03*
D12*
X157150Y162620D02*
X157150Y147380D01*
X119050Y147380D02*
X119050Y162620D01*
X80950Y162620D02*
X80950Y147380D01*
X42850Y147380D02*
X42850Y162620D01*
D34*
X402000Y420000D03*
X373000Y420000D03*
D12*
X270400Y398020D02*
X270400Y382780D01*
X245000Y420880D02*
X245000Y436120D01*
X219600Y398020D02*
X219600Y382780D01*
D35*
X160000Y18725D03*
X160000Y101275D03*
D34*
X304000Y379500D03*
X333000Y379500D03*
D36*
X349500Y302500D03*
X349500Y331500D03*
D37*
X312000Y490000D03*
X348000Y490000D03*
D38*
X332500Y422000D03*
X332500Y456000D03*
D19*
X306500Y423000D03*
X306500Y451000D03*
D20*
X332500Y400000D03*
X304500Y400000D03*
D12*
X419600Y801980D02*
X419600Y817220D01*
X445000Y817220D02*
X445000Y801980D01*
X470400Y801980D02*
X470400Y817220D01*
D30*
X280000Y774720D03*
D31*
X280000Y810280D03*
D39*
X437220Y750000D03*
D31*
X472780Y750000D03*
D29*
X465000Y725000D03*
X445000Y725000D03*
D24*
X484050Y686604D02*
X484050Y673396D01*
X445950Y673396D02*
X445950Y686604D01*
D40*
X392500Y702780D03*
D31*
X392500Y667220D03*
D25*
X370000Y670000D03*
X370000Y690000D03*
D18*
X395000Y810000D03*
X395000Y780000D03*
D20*
X416000Y780000D03*
X444000Y780000D03*
D11*
X292500Y604688D03*
X292500Y525312D03*
D41*
X34200Y498500D03*
X84200Y498500D03*
X134200Y498500D03*
X184200Y498500D03*
X234200Y498500D03*
X34200Y701000D03*
X84200Y701000D03*
X134200Y701000D03*
X184200Y701000D03*
X234200Y701000D03*
D26*
X455600Y640000D03*
X474400Y640000D03*
D42*
X215000Y264500D03*
X215000Y320500D03*
X175000Y264500D03*
X175000Y320500D03*
D43*
X372500Y277500D03*
X317500Y362500D03*
X347500Y277500D03*
X442500Y337500D03*
X445000Y295000D03*
D44*
X345000Y820000D03*
D45*
X345000Y795000D03*
X345000Y770000D03*
D44*
X325000Y645000D03*
D46*
X325000Y670000D03*
X325000Y695000D03*
D47*
X285200Y275900D02*
X285400Y275700D01*
X285400Y251300D01*
D43*
X270000Y292500D03*
X127500Y292500D03*
D47*
X96300Y323700D01*
X96100Y323700D01*
X270000Y292500D02*
X285200Y277300D01*
X285200Y275900D01*
D48*
X58300Y298800D02*
X58200Y298900D01*
X58300Y298800D02*
X58300Y278900D01*
D47*
X234200Y498500D02*
X234200Y514200D01*
X242500Y522500D01*
X289688Y522500D01*
X292500Y525312D01*
X324688Y525312D01*
X330000Y520000D01*
X330000Y500000D01*
X215000Y264500D02*
X215000Y250000D01*
D49*
X326400Y331800D02*
X327500Y332900D01*
X327500Y347500D01*
X322500Y352500D01*
X295000Y352500D01*
X295000Y367500D01*
X292500Y370000D01*
X292500Y435000D02*
X295000Y437500D01*
X302500Y437500D01*
D47*
X290000Y372500D02*
X292500Y370000D01*
X290000Y372500D02*
X290000Y432500D01*
X295000Y437500D01*
X313600Y251500D02*
X313400Y251300D01*
X313600Y251500D02*
X343400Y251500D01*
D48*
X71200Y425400D02*
X70900Y425700D01*
X71200Y425400D02*
X101100Y425400D01*
X71400Y397400D02*
X71100Y397700D01*
X71400Y397400D02*
X101100Y397400D01*
X101200Y397500D01*
X135000Y397500D01*
X151200Y381300D01*
X151200Y364200D01*
D50*
X306500Y451000D02*
X308000Y452500D01*
X322500Y452500D01*
X322886Y452505D01*
X323271Y452519D01*
X323656Y452542D01*
X324040Y452574D01*
X324424Y452616D01*
X324806Y452667D01*
X325187Y452727D01*
X325566Y452796D01*
X325944Y452874D01*
X326319Y452961D01*
X326693Y453058D01*
X327064Y453163D01*
X327432Y453277D01*
X327797Y453400D01*
X328160Y453532D01*
X328519Y453672D01*
X328875Y453822D01*
X329227Y453979D01*
X329575Y454145D01*
X329919Y454319D01*
X330259Y454502D01*
X330594Y454692D01*
X330924Y454891D01*
X331250Y455098D01*
X331571Y455312D01*
X331886Y455534D01*
X332196Y455763D01*
X332500Y456000D01*
X277500Y397500D02*
X270400Y390400D01*
X277500Y397500D02*
X277500Y440000D01*
X288500Y451000D01*
X306500Y451000D01*
X306500Y422000D02*
X332500Y422000D01*
X306500Y422000D02*
X306500Y423000D01*
X306500Y422000D02*
X304500Y422000D01*
X304500Y400000D01*
X304000Y400000D01*
X304000Y379500D01*
X332500Y422000D02*
X333000Y422500D01*
X352500Y370000D02*
X385000Y370000D01*
X389850Y374850D01*
X389850Y390034D01*
X304000Y379500D02*
X304000Y368500D01*
X310000Y362500D01*
X317500Y362500D01*
X347500Y365000D02*
X352500Y370000D01*
X347500Y365000D02*
X320000Y365000D01*
X317500Y362500D01*
D49*
X300000Y332500D02*
X301000Y331500D01*
X217000Y322500D02*
X215000Y320500D01*
X217000Y322500D02*
X250000Y322500D01*
X259000Y331500D01*
X301000Y331500D01*
X300800Y803200D02*
X300800Y809200D01*
X300000Y810000D01*
D50*
X301000Y312700D02*
X301900Y311800D01*
X326400Y311800D01*
X349500Y279500D02*
X347500Y277500D01*
X349500Y279500D02*
X349500Y302500D01*
X340200Y311800D02*
X326400Y311800D01*
X340200Y311800D02*
X349500Y302500D01*
X354500Y307500D01*
X380000Y307500D01*
X389850Y317350D01*
X389850Y328566D01*
X314100Y275000D02*
X313200Y275900D01*
X314100Y275000D02*
X345000Y275000D01*
X345098Y275002D01*
X345196Y275008D01*
X345294Y275017D01*
X345391Y275031D01*
X345488Y275048D01*
X345584Y275069D01*
X345679Y275094D01*
X345773Y275122D01*
X345865Y275155D01*
X345957Y275190D01*
X346047Y275230D01*
X346135Y275272D01*
X346222Y275319D01*
X346306Y275368D01*
X346389Y275421D01*
X346469Y275477D01*
X346548Y275537D01*
X346624Y275599D01*
X346697Y275664D01*
X346768Y275732D01*
X346836Y275803D01*
X346901Y275876D01*
X346963Y275952D01*
X347023Y276031D01*
X347079Y276111D01*
X347132Y276194D01*
X347181Y276278D01*
X347228Y276365D01*
X347270Y276453D01*
X347310Y276543D01*
X347345Y276635D01*
X347378Y276727D01*
X347406Y276821D01*
X347431Y276916D01*
X347452Y277012D01*
X347469Y277109D01*
X347483Y277206D01*
X347492Y277304D01*
X347498Y277402D01*
X347500Y277500D01*
X415250Y390034D02*
X415816Y390600D01*
X432300Y390600D01*
X432900Y390000D01*
X432900Y373800D01*
X432900Y355000D02*
X425000Y355000D01*
X420000Y350000D01*
X382500Y350000D01*
X377500Y345000D01*
X377500Y328916D01*
X377150Y328566D01*
X432900Y355000D02*
X433000Y355100D01*
X450700Y355100D01*
X450700Y345700D02*
X442500Y337500D01*
X450700Y345700D02*
X450700Y355100D01*
X445000Y295000D02*
X429400Y295000D01*
X428900Y294500D01*
X428900Y308600D01*
X425000Y312500D01*
X417500Y312500D01*
X415250Y314750D01*
X415250Y328566D01*
D49*
X463000Y510500D02*
X463000Y514600D01*
X463000Y510500D02*
X435000Y482500D01*
X435000Y452500D02*
X470000Y417500D01*
X470000Y320000D01*
X445000Y295000D01*
X435000Y452500D02*
X435000Y482500D01*
X400300Y617200D02*
X396500Y621000D01*
X400300Y617200D02*
X418400Y617200D01*
X372300Y617500D02*
X372181Y617502D01*
X372063Y617508D01*
X371945Y617517D01*
X371827Y617530D01*
X371709Y617547D01*
X371593Y617568D01*
X371477Y617593D01*
X371361Y617621D01*
X371247Y617653D01*
X371134Y617688D01*
X371022Y617728D01*
X370912Y617770D01*
X370802Y617817D01*
X370695Y617866D01*
X370589Y617920D01*
X370484Y617976D01*
X370382Y618036D01*
X370282Y618099D01*
X370183Y618165D01*
X370087Y618235D01*
X369993Y618307D01*
X369902Y618383D01*
X369812Y618461D01*
X369726Y618542D01*
X369642Y618626D01*
X369561Y618712D01*
X369483Y618802D01*
X369407Y618893D01*
X369335Y618987D01*
X369265Y619083D01*
X369199Y619182D01*
X369136Y619282D01*
X369076Y619384D01*
X369020Y619489D01*
X368966Y619595D01*
X368917Y619702D01*
X368870Y619812D01*
X368828Y619922D01*
X368788Y620034D01*
X368753Y620147D01*
X368721Y620261D01*
X368693Y620377D01*
X368668Y620493D01*
X368647Y620609D01*
X368630Y620727D01*
X368617Y620845D01*
X368608Y620963D01*
X368602Y621081D01*
X368600Y621200D01*
X372300Y617500D02*
X393000Y617500D01*
X393117Y617502D01*
X393234Y617508D01*
X393350Y617518D01*
X393467Y617531D01*
X393582Y617549D01*
X393697Y617570D01*
X393811Y617595D01*
X393925Y617624D01*
X394037Y617657D01*
X394148Y617694D01*
X394258Y617734D01*
X394366Y617778D01*
X394473Y617825D01*
X394579Y617876D01*
X394682Y617931D01*
X394784Y617989D01*
X394883Y618050D01*
X394981Y618114D01*
X395076Y618182D01*
X395169Y618253D01*
X395260Y618327D01*
X395348Y618404D01*
X395433Y618484D01*
X395516Y618567D01*
X395596Y618652D01*
X395673Y618740D01*
X395747Y618831D01*
X395818Y618924D01*
X395886Y619019D01*
X395950Y619117D01*
X396011Y619216D01*
X396069Y619318D01*
X396124Y619421D01*
X396175Y619527D01*
X396222Y619634D01*
X396266Y619742D01*
X396306Y619852D01*
X396343Y619963D01*
X396376Y620075D01*
X396405Y620189D01*
X396430Y620303D01*
X396451Y620418D01*
X396469Y620533D01*
X396482Y620650D01*
X396492Y620766D01*
X396498Y620883D01*
X396500Y621000D01*
X368600Y621200D02*
X368600Y603700D01*
X368602Y603674D01*
X368607Y603648D01*
X368615Y603623D01*
X368627Y603600D01*
X368641Y603578D01*
X368659Y603559D01*
X368678Y603541D01*
X368700Y603527D01*
X368723Y603515D01*
X368748Y603507D01*
X368774Y603502D01*
X368800Y603500D01*
D51*
X367900Y119600D02*
X368100Y119600D01*
X368100Y87600D01*
D47*
X391100Y490900D02*
X394100Y490900D01*
X413200Y471800D01*
X413200Y464400D01*
X402500Y440600D02*
X402200Y440300D01*
X402500Y440600D02*
X402500Y452500D01*
X413200Y463200D01*
X413200Y464400D01*
X402200Y440300D02*
X402000Y440100D01*
X402000Y420000D01*
D50*
X372500Y252600D02*
X371400Y251500D01*
X372500Y252600D02*
X372500Y277500D01*
X372500Y287500D01*
X367500Y292500D01*
D43*
X367500Y292500D03*
X362500Y355000D03*
D50*
X370000Y362500D01*
X387500Y362500D01*
X402550Y377550D01*
X402550Y390034D01*
X402550Y419450D02*
X402000Y420000D01*
X402550Y419450D02*
X402550Y390034D01*
D47*
X371400Y490000D02*
X348000Y490000D01*
X371400Y490000D02*
X372300Y490900D01*
X184200Y498500D02*
X184200Y480800D01*
X190000Y475000D01*
X272500Y475000D01*
X287500Y490000D01*
X312000Y490000D01*
D49*
X396700Y603100D02*
X414400Y603100D01*
X425000Y592500D01*
X435900Y592500D01*
X437600Y590800D01*
X437400Y591000D02*
X437400Y617200D01*
X437400Y591000D02*
X437600Y590800D01*
X440600Y620400D02*
X455000Y620400D01*
X440600Y620400D02*
X437400Y617200D01*
D52*
X445000Y785000D02*
X445000Y809600D01*
X445000Y785000D02*
X444000Y784000D01*
X444000Y780000D01*
D49*
X484050Y680000D02*
X455600Y646550D01*
X455600Y640000D01*
D52*
X48100Y773900D02*
X46800Y773900D01*
X46800Y750700D01*
D53*
X292500Y607500D02*
X292500Y604688D01*
X292500Y607500D02*
X257500Y642500D01*
X105000Y642500D01*
X85000Y662500D01*
X85000Y700200D01*
X84200Y701000D01*
D49*
X366100Y637500D02*
X368600Y640000D01*
X366100Y637500D02*
X357500Y637500D01*
X340000Y620000D01*
X310000Y620000D01*
X300000Y630000D01*
X300000Y670000D01*
X424600Y642500D02*
X427900Y639200D01*
X424600Y642500D02*
X412500Y642500D01*
D43*
X412500Y642500D03*
X412500Y695000D03*
D49*
X415000Y695000D01*
X325000Y695000D02*
X300000Y670000D01*
X392500Y667220D02*
X396500Y657220D01*
X396500Y639800D01*
D47*
X395000Y780000D02*
X416000Y780000D01*
D49*
X474400Y640000D02*
X473800Y631900D01*
X473800Y620400D01*
X473800Y608800D01*
X463000Y598000D01*
X463000Y590800D01*
X370400Y583100D02*
X368800Y584700D01*
X370400Y583100D02*
X396700Y583100D01*
M02*
