G04 EAGLE Gerber X2 export*
%TF.Part,Single*%
%TF.FileFunction,Copper,L1,Top,Mixed*%
%TF.FilePolarity,Positive*%
%TF.GenerationSoftware,Autodesk,EAGLE,9.0.0*%
%TF.CreationDate,2019-06-10T11:01:14Z*%
G75*
%MOMM*%
%FSLAX34Y34*%
%LPD*%
%AMOC8*
5,1,8,0,0,1.08239X$1,22.5*%
G01*
%ADD10P,2.336880X8X292.500000*%
%ADD11P,1.924489X8X292.500000*%
%ADD12C,1.524000*%
%ADD13C,1.676400*%
%ADD14P,3.436588X8X202.500000*%
%ADD15P,1.429621X8X202.500000*%
%ADD16P,3.409096X8X292.500000*%
%ADD17C,3.149600*%
%ADD18C,1.320800*%
%ADD19C,1.905000*%
%ADD20P,2.061953X8X202.500000*%
%ADD21P,1.732040X8X292.500000*%
%ADD22C,1.600200*%
%ADD23P,1.924489X8X112.500000*%
%ADD24P,1.732040X8X202.500000*%
%ADD25P,1.732040X8X112.500000*%
%ADD26R,2.540000X2.540000*%
%ADD27R,1.524000X1.524000*%
%ADD28P,1.649562X8X22.500000*%
%ADD29P,1.649562X8X202.500000*%
%ADD30C,1.270000*%
%ADD31C,0.406400*%
%ADD32C,0.254000*%
%ADD33C,0.304800*%


D10*
X378200Y177430D03*
X378200Y27570D03*
D11*
X101400Y100588D03*
X101400Y21212D03*
D12*
X416480Y126800D02*
X431720Y126800D01*
X431720Y177600D02*
X416480Y177600D01*
D13*
X330282Y166170D02*
X313518Y166170D01*
X228682Y166170D02*
X211918Y166170D01*
X211918Y36630D02*
X228682Y36630D01*
X313518Y36630D02*
X330282Y36630D01*
D14*
X467500Y145600D03*
X466000Y70600D03*
X30100Y32100D03*
D15*
X466700Y32900D03*
X415900Y32900D03*
D16*
X96100Y247500D03*
D17*
X96100Y323700D03*
D18*
X463000Y584196D02*
X463000Y597404D01*
X437600Y597404D02*
X437600Y584196D01*
X437600Y521204D02*
X437600Y507996D01*
X463000Y507996D02*
X463000Y521204D01*
D19*
X413200Y464400D03*
D20*
X362400Y464400D03*
D12*
X37000Y804080D02*
X37000Y819320D01*
X62400Y819320D02*
X62400Y804080D01*
X87800Y804080D02*
X87800Y819320D01*
D21*
X148500Y772520D03*
D22*
X148500Y808080D03*
D18*
X195950Y809196D02*
X195950Y822404D01*
X234050Y822404D02*
X234050Y809196D01*
D12*
X157150Y162620D02*
X157150Y147380D01*
X119050Y147380D02*
X119050Y162620D01*
X80950Y162620D02*
X80950Y147380D01*
X42850Y147380D02*
X42850Y162620D01*
X270400Y382780D02*
X270400Y398020D01*
X245000Y420880D02*
X245000Y436120D01*
X219600Y398020D02*
X219600Y382780D01*
D23*
X160000Y18725D03*
X160000Y101275D03*
D12*
X419600Y801980D02*
X419600Y817220D01*
X445000Y817220D02*
X445000Y801980D01*
X470400Y801980D02*
X470400Y817220D01*
D21*
X280000Y774720D03*
D22*
X280000Y810280D03*
D24*
X437220Y750000D03*
D22*
X472780Y750000D03*
D18*
X484050Y686604D02*
X484050Y673396D01*
X445950Y673396D02*
X445950Y686604D01*
D25*
X392500Y702780D03*
D22*
X392500Y667220D03*
D11*
X292500Y604688D03*
X292500Y525312D03*
D26*
X34200Y498500D03*
X84200Y498500D03*
X134200Y498500D03*
X184200Y498500D03*
X234200Y498500D03*
X34200Y701000D03*
X84200Y701000D03*
X134200Y701000D03*
X184200Y701000D03*
X234200Y701000D03*
D27*
X345000Y820000D03*
D28*
X345000Y795000D03*
X345000Y770000D03*
D27*
X325000Y645000D03*
D29*
X325000Y670000D03*
X325000Y695000D03*
D30*
X270000Y292500D03*
D31*
X127500Y292500D01*
D30*
X127500Y292500D03*
X367500Y292500D03*
D32*
X362500Y297500D01*
X362500Y355000D01*
D30*
X362500Y355000D03*
X412500Y642500D03*
D33*
X412500Y695000D01*
D30*
X412500Y695000D03*
M02*
