G04 EAGLE Gerber X2 export*
%TF.Part,Single*%
%TF.FileFunction,Profile,NP*%
%TF.FilePolarity,Positive*%
%TF.GenerationSoftware,Autodesk,EAGLE,9.0.0*%
%TF.CreationDate,2019-06-10T11:01:14Z*%
G75*
%MOMM*%
%FSLAX34Y34*%
%LPD*%
%AMOC8*
5,1,8,0,0,1.08239X$1,22.5*%
G01*
%ADD10C,0.254000*%


D10*
X0Y0D02*
X500000Y0D01*
X500000Y850000D01*
X0Y850000D01*
X0Y0D01*
X480000Y104563D02*
X479924Y103694D01*
X479772Y102834D01*
X479546Y101990D01*
X479248Y101170D01*
X478879Y100378D01*
X478442Y99622D01*
X477941Y98907D01*
X477380Y98238D01*
X476762Y97620D01*
X476093Y97059D01*
X475378Y96558D01*
X474622Y96121D01*
X473830Y95752D01*
X473010Y95454D01*
X472166Y95228D01*
X471307Y95076D01*
X470437Y95000D01*
X469563Y95000D01*
X468694Y95076D01*
X467834Y95228D01*
X466990Y95454D01*
X466170Y95752D01*
X465378Y96121D01*
X464622Y96558D01*
X463907Y97059D01*
X463238Y97620D01*
X462620Y98238D01*
X462059Y98907D01*
X461558Y99622D01*
X461121Y100378D01*
X460752Y101170D01*
X460454Y101990D01*
X460228Y102834D01*
X460076Y103694D01*
X460000Y104563D01*
X460000Y105437D01*
X460076Y106307D01*
X460228Y107166D01*
X460454Y108010D01*
X460752Y108830D01*
X461121Y109622D01*
X461558Y110378D01*
X462059Y111093D01*
X462620Y111762D01*
X463238Y112380D01*
X463907Y112941D01*
X464622Y113442D01*
X465378Y113879D01*
X466170Y114248D01*
X466990Y114546D01*
X467834Y114772D01*
X468694Y114924D01*
X469563Y115000D01*
X470437Y115000D01*
X471307Y114924D01*
X472166Y114772D01*
X473010Y114546D01*
X473830Y114248D01*
X474622Y113879D01*
X475378Y113442D01*
X476093Y112941D01*
X476762Y112380D01*
X477380Y111762D01*
X477941Y111093D01*
X478442Y110378D01*
X478879Y109622D01*
X479248Y108830D01*
X479546Y108010D01*
X479772Y107166D01*
X479924Y106307D01*
X480000Y105437D01*
X480000Y104563D01*
X435000Y74563D02*
X434924Y73694D01*
X434772Y72834D01*
X434546Y71990D01*
X434248Y71170D01*
X433879Y70378D01*
X433442Y69622D01*
X432941Y68907D01*
X432380Y68238D01*
X431762Y67620D01*
X431093Y67059D01*
X430378Y66558D01*
X429622Y66121D01*
X428830Y65752D01*
X428010Y65454D01*
X427166Y65228D01*
X426307Y65076D01*
X425437Y65000D01*
X424563Y65000D01*
X423694Y65076D01*
X422834Y65228D01*
X421990Y65454D01*
X421170Y65752D01*
X420378Y66121D01*
X419622Y66558D01*
X418907Y67059D01*
X418238Y67620D01*
X417620Y68238D01*
X417059Y68907D01*
X416558Y69622D01*
X416121Y70378D01*
X415752Y71170D01*
X415454Y71990D01*
X415228Y72834D01*
X415076Y73694D01*
X415000Y74563D01*
X415000Y75437D01*
X415076Y76307D01*
X415228Y77166D01*
X415454Y78010D01*
X415752Y78830D01*
X416121Y79622D01*
X416558Y80378D01*
X417059Y81093D01*
X417620Y81762D01*
X418238Y82380D01*
X418907Y82941D01*
X419622Y83442D01*
X420378Y83879D01*
X421170Y84248D01*
X421990Y84546D01*
X422834Y84772D01*
X423694Y84924D01*
X424563Y85000D01*
X425437Y85000D01*
X426307Y84924D01*
X427166Y84772D01*
X428010Y84546D01*
X428830Y84248D01*
X429622Y83879D01*
X430378Y83442D01*
X431093Y82941D01*
X431762Y82380D01*
X432380Y81762D01*
X432941Y81093D01*
X433442Y80378D01*
X433879Y79622D01*
X434248Y78830D01*
X434546Y78010D01*
X434772Y77166D01*
X434924Y76307D01*
X435000Y75437D01*
X435000Y74563D01*
X190000Y139563D02*
X189924Y138694D01*
X189772Y137834D01*
X189546Y136990D01*
X189248Y136170D01*
X188879Y135378D01*
X188442Y134622D01*
X187941Y133907D01*
X187380Y133238D01*
X186762Y132620D01*
X186093Y132059D01*
X185378Y131558D01*
X184622Y131121D01*
X183830Y130752D01*
X183010Y130454D01*
X182166Y130228D01*
X181307Y130076D01*
X180437Y130000D01*
X179563Y130000D01*
X178694Y130076D01*
X177834Y130228D01*
X176990Y130454D01*
X176170Y130752D01*
X175378Y131121D01*
X174622Y131558D01*
X173907Y132059D01*
X173238Y132620D01*
X172620Y133238D01*
X172059Y133907D01*
X171558Y134622D01*
X171121Y135378D01*
X170752Y136170D01*
X170454Y136990D01*
X170228Y137834D01*
X170076Y138694D01*
X170000Y139563D01*
X170000Y140437D01*
X170076Y141307D01*
X170228Y142166D01*
X170454Y143010D01*
X170752Y143830D01*
X171121Y144622D01*
X171558Y145378D01*
X172059Y146093D01*
X172620Y146762D01*
X173238Y147380D01*
X173907Y147941D01*
X174622Y148442D01*
X175378Y148879D01*
X176170Y149248D01*
X176990Y149546D01*
X177834Y149772D01*
X178694Y149924D01*
X179563Y150000D01*
X180437Y150000D01*
X181307Y149924D01*
X182166Y149772D01*
X183010Y149546D01*
X183830Y149248D01*
X184622Y148879D01*
X185378Y148442D01*
X186093Y147941D01*
X186762Y147380D01*
X187380Y146762D01*
X187941Y146093D01*
X188442Y145378D01*
X188879Y144622D01*
X189248Y143830D01*
X189546Y143010D01*
X189772Y142166D01*
X189924Y141307D01*
X190000Y140437D01*
X190000Y139563D01*
X73000Y181563D02*
X72924Y180694D01*
X72772Y179834D01*
X72546Y178990D01*
X72248Y178170D01*
X71879Y177378D01*
X71442Y176622D01*
X70941Y175907D01*
X70380Y175238D01*
X69762Y174620D01*
X69093Y174059D01*
X68378Y173558D01*
X67622Y173121D01*
X66830Y172752D01*
X66010Y172454D01*
X65166Y172228D01*
X64307Y172076D01*
X63437Y172000D01*
X62563Y172000D01*
X61694Y172076D01*
X60834Y172228D01*
X59990Y172454D01*
X59170Y172752D01*
X58378Y173121D01*
X57622Y173558D01*
X56907Y174059D01*
X56238Y174620D01*
X55620Y175238D01*
X55059Y175907D01*
X54558Y176622D01*
X54121Y177378D01*
X53752Y178170D01*
X53454Y178990D01*
X53228Y179834D01*
X53076Y180694D01*
X53000Y181563D01*
X53000Y182437D01*
X53076Y183307D01*
X53228Y184166D01*
X53454Y185010D01*
X53752Y185830D01*
X54121Y186622D01*
X54558Y187378D01*
X55059Y188093D01*
X55620Y188762D01*
X56238Y189380D01*
X56907Y189941D01*
X57622Y190442D01*
X58378Y190879D01*
X59170Y191248D01*
X59990Y191546D01*
X60834Y191772D01*
X61694Y191924D01*
X62563Y192000D01*
X63437Y192000D01*
X64307Y191924D01*
X65166Y191772D01*
X66010Y191546D01*
X66830Y191248D01*
X67622Y190879D01*
X68378Y190442D01*
X69093Y189941D01*
X69762Y189380D01*
X70380Y188762D01*
X70941Y188093D01*
X71442Y187378D01*
X71879Y186622D01*
X72248Y185830D01*
X72546Y185010D01*
X72772Y184166D01*
X72924Y183307D01*
X73000Y182437D01*
X73000Y181563D01*
X146000Y181563D02*
X145924Y180694D01*
X145772Y179834D01*
X145546Y178990D01*
X145248Y178170D01*
X144879Y177378D01*
X144442Y176622D01*
X143941Y175907D01*
X143380Y175238D01*
X142762Y174620D01*
X142093Y174059D01*
X141378Y173558D01*
X140622Y173121D01*
X139830Y172752D01*
X139010Y172454D01*
X138166Y172228D01*
X137307Y172076D01*
X136437Y172000D01*
X135563Y172000D01*
X134694Y172076D01*
X133834Y172228D01*
X132990Y172454D01*
X132170Y172752D01*
X131378Y173121D01*
X130622Y173558D01*
X129907Y174059D01*
X129238Y174620D01*
X128620Y175238D01*
X128059Y175907D01*
X127558Y176622D01*
X127121Y177378D01*
X126752Y178170D01*
X126454Y178990D01*
X126228Y179834D01*
X126076Y180694D01*
X126000Y181563D01*
X126000Y182437D01*
X126076Y183307D01*
X126228Y184166D01*
X126454Y185010D01*
X126752Y185830D01*
X127121Y186622D01*
X127558Y187378D01*
X128059Y188093D01*
X128620Y188762D01*
X129238Y189380D01*
X129907Y189941D01*
X130622Y190442D01*
X131378Y190879D01*
X132170Y191248D01*
X132990Y191546D01*
X133834Y191772D01*
X134694Y191924D01*
X135563Y192000D01*
X136437Y192000D01*
X137307Y191924D01*
X138166Y191772D01*
X139010Y191546D01*
X139830Y191248D01*
X140622Y190879D01*
X141378Y190442D01*
X142093Y189941D01*
X142762Y189380D01*
X143380Y188762D01*
X143941Y188093D01*
X144442Y187378D01*
X144879Y186622D01*
X145248Y185830D01*
X145546Y185010D01*
X145772Y184166D01*
X145924Y183307D01*
X146000Y182437D01*
X146000Y181563D01*
X256000Y394563D02*
X255924Y393694D01*
X255772Y392834D01*
X255546Y391990D01*
X255248Y391170D01*
X254879Y390378D01*
X254442Y389622D01*
X253941Y388907D01*
X253380Y388238D01*
X252762Y387620D01*
X252093Y387059D01*
X251378Y386558D01*
X250622Y386121D01*
X249830Y385752D01*
X249010Y385454D01*
X248166Y385228D01*
X247307Y385076D01*
X246437Y385000D01*
X245563Y385000D01*
X244694Y385076D01*
X243834Y385228D01*
X242990Y385454D01*
X242170Y385752D01*
X241378Y386121D01*
X240622Y386558D01*
X239907Y387059D01*
X239238Y387620D01*
X238620Y388238D01*
X238059Y388907D01*
X237558Y389622D01*
X237121Y390378D01*
X236752Y391170D01*
X236454Y391990D01*
X236228Y392834D01*
X236076Y393694D01*
X236000Y394563D01*
X236000Y395437D01*
X236076Y396307D01*
X236228Y397166D01*
X236454Y398010D01*
X236752Y398830D01*
X237121Y399622D01*
X237558Y400378D01*
X238059Y401093D01*
X238620Y401762D01*
X239238Y402380D01*
X239907Y402941D01*
X240622Y403442D01*
X241378Y403879D01*
X242170Y404248D01*
X242990Y404546D01*
X243834Y404772D01*
X244694Y404924D01*
X245563Y405000D01*
X246437Y405000D01*
X247307Y404924D01*
X248166Y404772D01*
X249010Y404546D01*
X249830Y404248D01*
X250622Y403879D01*
X251378Y403442D01*
X252093Y402941D01*
X252762Y402380D01*
X253380Y401762D01*
X253941Y401093D01*
X254442Y400378D01*
X254879Y399622D01*
X255248Y398830D01*
X255546Y398010D01*
X255772Y397166D01*
X255924Y396307D01*
X256000Y395437D01*
X256000Y394563D01*
X256000Y346063D02*
X255924Y345194D01*
X255772Y344334D01*
X255546Y343490D01*
X255248Y342670D01*
X254879Y341878D01*
X254442Y341122D01*
X253941Y340407D01*
X253380Y339738D01*
X252762Y339120D01*
X252093Y338559D01*
X251378Y338058D01*
X250622Y337621D01*
X249830Y337252D01*
X249010Y336954D01*
X248166Y336728D01*
X247307Y336576D01*
X246437Y336500D01*
X245563Y336500D01*
X244694Y336576D01*
X243834Y336728D01*
X242990Y336954D01*
X242170Y337252D01*
X241378Y337621D01*
X240622Y338058D01*
X239907Y338559D01*
X239238Y339120D01*
X238620Y339738D01*
X238059Y340407D01*
X237558Y341122D01*
X237121Y341878D01*
X236752Y342670D01*
X236454Y343490D01*
X236228Y344334D01*
X236076Y345194D01*
X236000Y346063D01*
X236000Y346937D01*
X236076Y347807D01*
X236228Y348666D01*
X236454Y349510D01*
X236752Y350330D01*
X237121Y351122D01*
X237558Y351878D01*
X238059Y352593D01*
X238620Y353262D01*
X239238Y353880D01*
X239907Y354441D01*
X240622Y354942D01*
X241378Y355379D01*
X242170Y355748D01*
X242990Y356046D01*
X243834Y356272D01*
X244694Y356424D01*
X245563Y356500D01*
X246437Y356500D01*
X247307Y356424D01*
X248166Y356272D01*
X249010Y356046D01*
X249830Y355748D01*
X250622Y355379D01*
X251378Y354942D01*
X252093Y354441D01*
X252762Y353880D01*
X253380Y353262D01*
X253941Y352593D01*
X254442Y351878D01*
X254879Y351122D01*
X255248Y350330D01*
X255546Y349510D01*
X255772Y348666D01*
X255924Y347807D01*
X256000Y346937D01*
X256000Y346063D01*
X256000Y271063D02*
X255924Y270194D01*
X255772Y269334D01*
X255546Y268490D01*
X255248Y267670D01*
X254879Y266878D01*
X254442Y266122D01*
X253941Y265407D01*
X253380Y264738D01*
X252762Y264120D01*
X252093Y263559D01*
X251378Y263058D01*
X250622Y262621D01*
X249830Y262252D01*
X249010Y261954D01*
X248166Y261728D01*
X247307Y261576D01*
X246437Y261500D01*
X245563Y261500D01*
X244694Y261576D01*
X243834Y261728D01*
X242990Y261954D01*
X242170Y262252D01*
X241378Y262621D01*
X240622Y263058D01*
X239907Y263559D01*
X239238Y264120D01*
X238620Y264738D01*
X238059Y265407D01*
X237558Y266122D01*
X237121Y266878D01*
X236752Y267670D01*
X236454Y268490D01*
X236228Y269334D01*
X236076Y270194D01*
X236000Y271063D01*
X236000Y271937D01*
X236076Y272807D01*
X236228Y273666D01*
X236454Y274510D01*
X236752Y275330D01*
X237121Y276122D01*
X237558Y276878D01*
X238059Y277593D01*
X238620Y278262D01*
X239238Y278880D01*
X239907Y279441D01*
X240622Y279942D01*
X241378Y280379D01*
X242170Y280748D01*
X242990Y281046D01*
X243834Y281272D01*
X244694Y281424D01*
X245563Y281500D01*
X246437Y281500D01*
X247307Y281424D01*
X248166Y281272D01*
X249010Y281046D01*
X249830Y280748D01*
X250622Y280379D01*
X251378Y279942D01*
X252093Y279441D01*
X252762Y278880D01*
X253380Y278262D01*
X253941Y277593D01*
X254442Y276878D01*
X254879Y276122D01*
X255248Y275330D01*
X255546Y274510D01*
X255772Y273666D01*
X255924Y272807D01*
X256000Y271937D01*
X256000Y271063D01*
X378500Y208563D02*
X378424Y207694D01*
X378272Y206834D01*
X378046Y205990D01*
X377748Y205170D01*
X377379Y204378D01*
X376942Y203622D01*
X376441Y202907D01*
X375880Y202238D01*
X375262Y201620D01*
X374593Y201059D01*
X373878Y200558D01*
X373122Y200121D01*
X372330Y199752D01*
X371510Y199454D01*
X370666Y199228D01*
X369807Y199076D01*
X368937Y199000D01*
X368063Y199000D01*
X367194Y199076D01*
X366334Y199228D01*
X365490Y199454D01*
X364670Y199752D01*
X363878Y200121D01*
X363122Y200558D01*
X362407Y201059D01*
X361738Y201620D01*
X361120Y202238D01*
X360559Y202907D01*
X360058Y203622D01*
X359621Y204378D01*
X359252Y205170D01*
X358954Y205990D01*
X358728Y206834D01*
X358576Y207694D01*
X358500Y208563D01*
X358500Y209437D01*
X358576Y210307D01*
X358728Y211166D01*
X358954Y212010D01*
X359252Y212830D01*
X359621Y213622D01*
X360058Y214378D01*
X360559Y215093D01*
X361120Y215762D01*
X361738Y216380D01*
X362407Y216941D01*
X363122Y217442D01*
X363878Y217879D01*
X364670Y218248D01*
X365490Y218546D01*
X366334Y218772D01*
X367194Y218924D01*
X368063Y219000D01*
X368937Y219000D01*
X369807Y218924D01*
X370666Y218772D01*
X371510Y218546D01*
X372330Y218248D01*
X373122Y217879D01*
X373878Y217442D01*
X374593Y216941D01*
X375262Y216380D01*
X375880Y215762D01*
X376441Y215093D01*
X376942Y214378D01*
X377379Y213622D01*
X377748Y212830D01*
X378046Y212010D01*
X378272Y211166D01*
X378424Y210307D01*
X378500Y209437D01*
X378500Y208563D01*
X413500Y208563D02*
X413424Y207694D01*
X413272Y206834D01*
X413046Y205990D01*
X412748Y205170D01*
X412379Y204378D01*
X411942Y203622D01*
X411441Y202907D01*
X410880Y202238D01*
X410262Y201620D01*
X409593Y201059D01*
X408878Y200558D01*
X408122Y200121D01*
X407330Y199752D01*
X406510Y199454D01*
X405666Y199228D01*
X404807Y199076D01*
X403937Y199000D01*
X403063Y199000D01*
X402194Y199076D01*
X401334Y199228D01*
X400490Y199454D01*
X399670Y199752D01*
X398878Y200121D01*
X398122Y200558D01*
X397407Y201059D01*
X396738Y201620D01*
X396120Y202238D01*
X395559Y202907D01*
X395058Y203622D01*
X394621Y204378D01*
X394252Y205170D01*
X393954Y205990D01*
X393728Y206834D01*
X393576Y207694D01*
X393500Y208563D01*
X393500Y209437D01*
X393576Y210307D01*
X393728Y211166D01*
X393954Y212010D01*
X394252Y212830D01*
X394621Y213622D01*
X395058Y214378D01*
X395559Y215093D01*
X396120Y215762D01*
X396738Y216380D01*
X397407Y216941D01*
X398122Y217442D01*
X398878Y217879D01*
X399670Y218248D01*
X400490Y218546D01*
X401334Y218772D01*
X402194Y218924D01*
X403063Y219000D01*
X403937Y219000D01*
X404807Y218924D01*
X405666Y218772D01*
X406510Y218546D01*
X407330Y218248D01*
X408122Y217879D01*
X408878Y217442D01*
X409593Y216941D01*
X410262Y216380D01*
X410880Y215762D01*
X411441Y215093D01*
X411942Y214378D01*
X412379Y213622D01*
X412748Y212830D01*
X413046Y212010D01*
X413272Y211166D01*
X413424Y210307D01*
X413500Y209437D01*
X413500Y208563D01*
X448500Y208563D02*
X448424Y207694D01*
X448272Y206834D01*
X448046Y205990D01*
X447748Y205170D01*
X447379Y204378D01*
X446942Y203622D01*
X446441Y202907D01*
X445880Y202238D01*
X445262Y201620D01*
X444593Y201059D01*
X443878Y200558D01*
X443122Y200121D01*
X442330Y199752D01*
X441510Y199454D01*
X440666Y199228D01*
X439807Y199076D01*
X438937Y199000D01*
X438063Y199000D01*
X437194Y199076D01*
X436334Y199228D01*
X435490Y199454D01*
X434670Y199752D01*
X433878Y200121D01*
X433122Y200558D01*
X432407Y201059D01*
X431738Y201620D01*
X431120Y202238D01*
X430559Y202907D01*
X430058Y203622D01*
X429621Y204378D01*
X429252Y205170D01*
X428954Y205990D01*
X428728Y206834D01*
X428576Y207694D01*
X428500Y208563D01*
X428500Y209437D01*
X428576Y210307D01*
X428728Y211166D01*
X428954Y212010D01*
X429252Y212830D01*
X429621Y213622D01*
X430058Y214378D01*
X430559Y215093D01*
X431120Y215762D01*
X431738Y216380D01*
X432407Y216941D01*
X433122Y217442D01*
X433878Y217879D01*
X434670Y218248D01*
X435490Y218546D01*
X436334Y218772D01*
X437194Y218924D01*
X438063Y219000D01*
X438937Y219000D01*
X439807Y218924D01*
X440666Y218772D01*
X441510Y218546D01*
X442330Y218248D01*
X443122Y217879D01*
X443878Y217442D01*
X444593Y216941D01*
X445262Y216380D01*
X445880Y215762D01*
X446441Y215093D01*
X446942Y214378D01*
X447379Y213622D01*
X447748Y212830D01*
X448046Y212010D01*
X448272Y211166D01*
X448424Y210307D01*
X448500Y209437D01*
X448500Y208563D01*
X480000Y104563D02*
X479924Y103694D01*
X479772Y102834D01*
X479546Y101990D01*
X479248Y101170D01*
X478879Y100378D01*
X478442Y99622D01*
X477941Y98907D01*
X477380Y98238D01*
X476762Y97620D01*
X476093Y97059D01*
X475378Y96558D01*
X474622Y96121D01*
X473830Y95752D01*
X473010Y95454D01*
X472166Y95228D01*
X471307Y95076D01*
X470437Y95000D01*
X469563Y95000D01*
X468694Y95076D01*
X467834Y95228D01*
X466990Y95454D01*
X466170Y95752D01*
X465378Y96121D01*
X464622Y96558D01*
X463907Y97059D01*
X463238Y97620D01*
X462620Y98238D01*
X462059Y98907D01*
X461558Y99622D01*
X461121Y100378D01*
X460752Y101170D01*
X460454Y101990D01*
X460228Y102834D01*
X460076Y103694D01*
X460000Y104563D01*
X460000Y105437D01*
X460076Y106307D01*
X460228Y107166D01*
X460454Y108010D01*
X460752Y108830D01*
X461121Y109622D01*
X461558Y110378D01*
X462059Y111093D01*
X462620Y111762D01*
X463238Y112380D01*
X463907Y112941D01*
X464622Y113442D01*
X465378Y113879D01*
X466170Y114248D01*
X466990Y114546D01*
X467834Y114772D01*
X468694Y114924D01*
X469563Y115000D01*
X470437Y115000D01*
X471307Y114924D01*
X472166Y114772D01*
X473010Y114546D01*
X473830Y114248D01*
X474622Y113879D01*
X475378Y113442D01*
X476093Y112941D01*
X476762Y112380D01*
X477380Y111762D01*
X477941Y111093D01*
X478442Y110378D01*
X478879Y109622D01*
X479248Y108830D01*
X479546Y108010D01*
X479772Y107166D01*
X479924Y106307D01*
X480000Y105437D01*
X480000Y104563D01*
X435000Y74563D02*
X434924Y73694D01*
X434772Y72834D01*
X434546Y71990D01*
X434248Y71170D01*
X433879Y70378D01*
X433442Y69622D01*
X432941Y68907D01*
X432380Y68238D01*
X431762Y67620D01*
X431093Y67059D01*
X430378Y66558D01*
X429622Y66121D01*
X428830Y65752D01*
X428010Y65454D01*
X427166Y65228D01*
X426307Y65076D01*
X425437Y65000D01*
X424563Y65000D01*
X423694Y65076D01*
X422834Y65228D01*
X421990Y65454D01*
X421170Y65752D01*
X420378Y66121D01*
X419622Y66558D01*
X418907Y67059D01*
X418238Y67620D01*
X417620Y68238D01*
X417059Y68907D01*
X416558Y69622D01*
X416121Y70378D01*
X415752Y71170D01*
X415454Y71990D01*
X415228Y72834D01*
X415076Y73694D01*
X415000Y74563D01*
X415000Y75437D01*
X415076Y76307D01*
X415228Y77166D01*
X415454Y78010D01*
X415752Y78830D01*
X416121Y79622D01*
X416558Y80378D01*
X417059Y81093D01*
X417620Y81762D01*
X418238Y82380D01*
X418907Y82941D01*
X419622Y83442D01*
X420378Y83879D01*
X421170Y84248D01*
X421990Y84546D01*
X422834Y84772D01*
X423694Y84924D01*
X424563Y85000D01*
X425437Y85000D01*
X426307Y84924D01*
X427166Y84772D01*
X428010Y84546D01*
X428830Y84248D01*
X429622Y83879D01*
X430378Y83442D01*
X431093Y82941D01*
X431762Y82380D01*
X432380Y81762D01*
X432941Y81093D01*
X433442Y80378D01*
X433879Y79622D01*
X434248Y78830D01*
X434546Y78010D01*
X434772Y77166D01*
X434924Y76307D01*
X435000Y75437D01*
X435000Y74563D01*
X190000Y139563D02*
X189924Y138694D01*
X189772Y137834D01*
X189546Y136990D01*
X189248Y136170D01*
X188879Y135378D01*
X188442Y134622D01*
X187941Y133907D01*
X187380Y133238D01*
X186762Y132620D01*
X186093Y132059D01*
X185378Y131558D01*
X184622Y131121D01*
X183830Y130752D01*
X183010Y130454D01*
X182166Y130228D01*
X181307Y130076D01*
X180437Y130000D01*
X179563Y130000D01*
X178694Y130076D01*
X177834Y130228D01*
X176990Y130454D01*
X176170Y130752D01*
X175378Y131121D01*
X174622Y131558D01*
X173907Y132059D01*
X173238Y132620D01*
X172620Y133238D01*
X172059Y133907D01*
X171558Y134622D01*
X171121Y135378D01*
X170752Y136170D01*
X170454Y136990D01*
X170228Y137834D01*
X170076Y138694D01*
X170000Y139563D01*
X170000Y140437D01*
X170076Y141307D01*
X170228Y142166D01*
X170454Y143010D01*
X170752Y143830D01*
X171121Y144622D01*
X171558Y145378D01*
X172059Y146093D01*
X172620Y146762D01*
X173238Y147380D01*
X173907Y147941D01*
X174622Y148442D01*
X175378Y148879D01*
X176170Y149248D01*
X176990Y149546D01*
X177834Y149772D01*
X178694Y149924D01*
X179563Y150000D01*
X180437Y150000D01*
X181307Y149924D01*
X182166Y149772D01*
X183010Y149546D01*
X183830Y149248D01*
X184622Y148879D01*
X185378Y148442D01*
X186093Y147941D01*
X186762Y147380D01*
X187380Y146762D01*
X187941Y146093D01*
X188442Y145378D01*
X188879Y144622D01*
X189248Y143830D01*
X189546Y143010D01*
X189772Y142166D01*
X189924Y141307D01*
X190000Y140437D01*
X190000Y139563D01*
X73000Y181563D02*
X72924Y180694D01*
X72772Y179834D01*
X72546Y178990D01*
X72248Y178170D01*
X71879Y177378D01*
X71442Y176622D01*
X70941Y175907D01*
X70380Y175238D01*
X69762Y174620D01*
X69093Y174059D01*
X68378Y173558D01*
X67622Y173121D01*
X66830Y172752D01*
X66010Y172454D01*
X65166Y172228D01*
X64307Y172076D01*
X63437Y172000D01*
X62563Y172000D01*
X61694Y172076D01*
X60834Y172228D01*
X59990Y172454D01*
X59170Y172752D01*
X58378Y173121D01*
X57622Y173558D01*
X56907Y174059D01*
X56238Y174620D01*
X55620Y175238D01*
X55059Y175907D01*
X54558Y176622D01*
X54121Y177378D01*
X53752Y178170D01*
X53454Y178990D01*
X53228Y179834D01*
X53076Y180694D01*
X53000Y181563D01*
X53000Y182437D01*
X53076Y183307D01*
X53228Y184166D01*
X53454Y185010D01*
X53752Y185830D01*
X54121Y186622D01*
X54558Y187378D01*
X55059Y188093D01*
X55620Y188762D01*
X56238Y189380D01*
X56907Y189941D01*
X57622Y190442D01*
X58378Y190879D01*
X59170Y191248D01*
X59990Y191546D01*
X60834Y191772D01*
X61694Y191924D01*
X62563Y192000D01*
X63437Y192000D01*
X64307Y191924D01*
X65166Y191772D01*
X66010Y191546D01*
X66830Y191248D01*
X67622Y190879D01*
X68378Y190442D01*
X69093Y189941D01*
X69762Y189380D01*
X70380Y188762D01*
X70941Y188093D01*
X71442Y187378D01*
X71879Y186622D01*
X72248Y185830D01*
X72546Y185010D01*
X72772Y184166D01*
X72924Y183307D01*
X73000Y182437D01*
X73000Y181563D01*
X146000Y181563D02*
X145924Y180694D01*
X145772Y179834D01*
X145546Y178990D01*
X145248Y178170D01*
X144879Y177378D01*
X144442Y176622D01*
X143941Y175907D01*
X143380Y175238D01*
X142762Y174620D01*
X142093Y174059D01*
X141378Y173558D01*
X140622Y173121D01*
X139830Y172752D01*
X139010Y172454D01*
X138166Y172228D01*
X137307Y172076D01*
X136437Y172000D01*
X135563Y172000D01*
X134694Y172076D01*
X133834Y172228D01*
X132990Y172454D01*
X132170Y172752D01*
X131378Y173121D01*
X130622Y173558D01*
X129907Y174059D01*
X129238Y174620D01*
X128620Y175238D01*
X128059Y175907D01*
X127558Y176622D01*
X127121Y177378D01*
X126752Y178170D01*
X126454Y178990D01*
X126228Y179834D01*
X126076Y180694D01*
X126000Y181563D01*
X126000Y182437D01*
X126076Y183307D01*
X126228Y184166D01*
X126454Y185010D01*
X126752Y185830D01*
X127121Y186622D01*
X127558Y187378D01*
X128059Y188093D01*
X128620Y188762D01*
X129238Y189380D01*
X129907Y189941D01*
X130622Y190442D01*
X131378Y190879D01*
X132170Y191248D01*
X132990Y191546D01*
X133834Y191772D01*
X134694Y191924D01*
X135563Y192000D01*
X136437Y192000D01*
X137307Y191924D01*
X138166Y191772D01*
X139010Y191546D01*
X139830Y191248D01*
X140622Y190879D01*
X141378Y190442D01*
X142093Y189941D01*
X142762Y189380D01*
X143380Y188762D01*
X143941Y188093D01*
X144442Y187378D01*
X144879Y186622D01*
X145248Y185830D01*
X145546Y185010D01*
X145772Y184166D01*
X145924Y183307D01*
X146000Y182437D01*
X146000Y181563D01*
X256000Y394563D02*
X255924Y393694D01*
X255772Y392834D01*
X255546Y391990D01*
X255248Y391170D01*
X254879Y390378D01*
X254442Y389622D01*
X253941Y388907D01*
X253380Y388238D01*
X252762Y387620D01*
X252093Y387059D01*
X251378Y386558D01*
X250622Y386121D01*
X249830Y385752D01*
X249010Y385454D01*
X248166Y385228D01*
X247307Y385076D01*
X246437Y385000D01*
X245563Y385000D01*
X244694Y385076D01*
X243834Y385228D01*
X242990Y385454D01*
X242170Y385752D01*
X241378Y386121D01*
X240622Y386558D01*
X239907Y387059D01*
X239238Y387620D01*
X238620Y388238D01*
X238059Y388907D01*
X237558Y389622D01*
X237121Y390378D01*
X236752Y391170D01*
X236454Y391990D01*
X236228Y392834D01*
X236076Y393694D01*
X236000Y394563D01*
X236000Y395437D01*
X236076Y396307D01*
X236228Y397166D01*
X236454Y398010D01*
X236752Y398830D01*
X237121Y399622D01*
X237558Y400378D01*
X238059Y401093D01*
X238620Y401762D01*
X239238Y402380D01*
X239907Y402941D01*
X240622Y403442D01*
X241378Y403879D01*
X242170Y404248D01*
X242990Y404546D01*
X243834Y404772D01*
X244694Y404924D01*
X245563Y405000D01*
X246437Y405000D01*
X247307Y404924D01*
X248166Y404772D01*
X249010Y404546D01*
X249830Y404248D01*
X250622Y403879D01*
X251378Y403442D01*
X252093Y402941D01*
X252762Y402380D01*
X253380Y401762D01*
X253941Y401093D01*
X254442Y400378D01*
X254879Y399622D01*
X255248Y398830D01*
X255546Y398010D01*
X255772Y397166D01*
X255924Y396307D01*
X256000Y395437D01*
X256000Y394563D01*
X256000Y346063D02*
X255924Y345194D01*
X255772Y344334D01*
X255546Y343490D01*
X255248Y342670D01*
X254879Y341878D01*
X254442Y341122D01*
X253941Y340407D01*
X253380Y339738D01*
X252762Y339120D01*
X252093Y338559D01*
X251378Y338058D01*
X250622Y337621D01*
X249830Y337252D01*
X249010Y336954D01*
X248166Y336728D01*
X247307Y336576D01*
X246437Y336500D01*
X245563Y336500D01*
X244694Y336576D01*
X243834Y336728D01*
X242990Y336954D01*
X242170Y337252D01*
X241378Y337621D01*
X240622Y338058D01*
X239907Y338559D01*
X239238Y339120D01*
X238620Y339738D01*
X238059Y340407D01*
X237558Y341122D01*
X237121Y341878D01*
X236752Y342670D01*
X236454Y343490D01*
X236228Y344334D01*
X236076Y345194D01*
X236000Y346063D01*
X236000Y346937D01*
X236076Y347807D01*
X236228Y348666D01*
X236454Y349510D01*
X236752Y350330D01*
X237121Y351122D01*
X237558Y351878D01*
X238059Y352593D01*
X238620Y353262D01*
X239238Y353880D01*
X239907Y354441D01*
X240622Y354942D01*
X241378Y355379D01*
X242170Y355748D01*
X242990Y356046D01*
X243834Y356272D01*
X244694Y356424D01*
X245563Y356500D01*
X246437Y356500D01*
X247307Y356424D01*
X248166Y356272D01*
X249010Y356046D01*
X249830Y355748D01*
X250622Y355379D01*
X251378Y354942D01*
X252093Y354441D01*
X252762Y353880D01*
X253380Y353262D01*
X253941Y352593D01*
X254442Y351878D01*
X254879Y351122D01*
X255248Y350330D01*
X255546Y349510D01*
X255772Y348666D01*
X255924Y347807D01*
X256000Y346937D01*
X256000Y346063D01*
X256000Y271063D02*
X255924Y270194D01*
X255772Y269334D01*
X255546Y268490D01*
X255248Y267670D01*
X254879Y266878D01*
X254442Y266122D01*
X253941Y265407D01*
X253380Y264738D01*
X252762Y264120D01*
X252093Y263559D01*
X251378Y263058D01*
X250622Y262621D01*
X249830Y262252D01*
X249010Y261954D01*
X248166Y261728D01*
X247307Y261576D01*
X246437Y261500D01*
X245563Y261500D01*
X244694Y261576D01*
X243834Y261728D01*
X242990Y261954D01*
X242170Y262252D01*
X241378Y262621D01*
X240622Y263058D01*
X239907Y263559D01*
X239238Y264120D01*
X238620Y264738D01*
X238059Y265407D01*
X237558Y266122D01*
X237121Y266878D01*
X236752Y267670D01*
X236454Y268490D01*
X236228Y269334D01*
X236076Y270194D01*
X236000Y271063D01*
X236000Y271937D01*
X236076Y272807D01*
X236228Y273666D01*
X236454Y274510D01*
X236752Y275330D01*
X237121Y276122D01*
X237558Y276878D01*
X238059Y277593D01*
X238620Y278262D01*
X239238Y278880D01*
X239907Y279441D01*
X240622Y279942D01*
X241378Y280379D01*
X242170Y280748D01*
X242990Y281046D01*
X243834Y281272D01*
X244694Y281424D01*
X245563Y281500D01*
X246437Y281500D01*
X247307Y281424D01*
X248166Y281272D01*
X249010Y281046D01*
X249830Y280748D01*
X250622Y280379D01*
X251378Y279942D01*
X252093Y279441D01*
X252762Y278880D01*
X253380Y278262D01*
X253941Y277593D01*
X254442Y276878D01*
X254879Y276122D01*
X255248Y275330D01*
X255546Y274510D01*
X255772Y273666D01*
X255924Y272807D01*
X256000Y271937D01*
X256000Y271063D01*
X378500Y208563D02*
X378424Y207694D01*
X378272Y206834D01*
X378046Y205990D01*
X377748Y205170D01*
X377379Y204378D01*
X376942Y203622D01*
X376441Y202907D01*
X375880Y202238D01*
X375262Y201620D01*
X374593Y201059D01*
X373878Y200558D01*
X373122Y200121D01*
X372330Y199752D01*
X371510Y199454D01*
X370666Y199228D01*
X369807Y199076D01*
X368937Y199000D01*
X368063Y199000D01*
X367194Y199076D01*
X366334Y199228D01*
X365490Y199454D01*
X364670Y199752D01*
X363878Y200121D01*
X363122Y200558D01*
X362407Y201059D01*
X361738Y201620D01*
X361120Y202238D01*
X360559Y202907D01*
X360058Y203622D01*
X359621Y204378D01*
X359252Y205170D01*
X358954Y205990D01*
X358728Y206834D01*
X358576Y207694D01*
X358500Y208563D01*
X358500Y209437D01*
X358576Y210307D01*
X358728Y211166D01*
X358954Y212010D01*
X359252Y212830D01*
X359621Y213622D01*
X360058Y214378D01*
X360559Y215093D01*
X361120Y215762D01*
X361738Y216380D01*
X362407Y216941D01*
X363122Y217442D01*
X363878Y217879D01*
X364670Y218248D01*
X365490Y218546D01*
X366334Y218772D01*
X367194Y218924D01*
X368063Y219000D01*
X368937Y219000D01*
X369807Y218924D01*
X370666Y218772D01*
X371510Y218546D01*
X372330Y218248D01*
X373122Y217879D01*
X373878Y217442D01*
X374593Y216941D01*
X375262Y216380D01*
X375880Y215762D01*
X376441Y215093D01*
X376942Y214378D01*
X377379Y213622D01*
X377748Y212830D01*
X378046Y212010D01*
X378272Y211166D01*
X378424Y210307D01*
X378500Y209437D01*
X378500Y208563D01*
X413500Y208563D02*
X413424Y207694D01*
X413272Y206834D01*
X413046Y205990D01*
X412748Y205170D01*
X412379Y204378D01*
X411942Y203622D01*
X411441Y202907D01*
X410880Y202238D01*
X410262Y201620D01*
X409593Y201059D01*
X408878Y200558D01*
X408122Y200121D01*
X407330Y199752D01*
X406510Y199454D01*
X405666Y199228D01*
X404807Y199076D01*
X403937Y199000D01*
X403063Y199000D01*
X402194Y199076D01*
X401334Y199228D01*
X400490Y199454D01*
X399670Y199752D01*
X398878Y200121D01*
X398122Y200558D01*
X397407Y201059D01*
X396738Y201620D01*
X396120Y202238D01*
X395559Y202907D01*
X395058Y203622D01*
X394621Y204378D01*
X394252Y205170D01*
X393954Y205990D01*
X393728Y206834D01*
X393576Y207694D01*
X393500Y208563D01*
X393500Y209437D01*
X393576Y210307D01*
X393728Y211166D01*
X393954Y212010D01*
X394252Y212830D01*
X394621Y213622D01*
X395058Y214378D01*
X395559Y215093D01*
X396120Y215762D01*
X396738Y216380D01*
X397407Y216941D01*
X398122Y217442D01*
X398878Y217879D01*
X399670Y218248D01*
X400490Y218546D01*
X401334Y218772D01*
X402194Y218924D01*
X403063Y219000D01*
X403937Y219000D01*
X404807Y218924D01*
X405666Y218772D01*
X406510Y218546D01*
X407330Y218248D01*
X408122Y217879D01*
X408878Y217442D01*
X409593Y216941D01*
X410262Y216380D01*
X410880Y215762D01*
X411441Y215093D01*
X411942Y214378D01*
X412379Y213622D01*
X412748Y212830D01*
X413046Y212010D01*
X413272Y211166D01*
X413424Y210307D01*
X413500Y209437D01*
X413500Y208563D01*
X448500Y208563D02*
X448424Y207694D01*
X448272Y206834D01*
X448046Y205990D01*
X447748Y205170D01*
X447379Y204378D01*
X446942Y203622D01*
X446441Y202907D01*
X445880Y202238D01*
X445262Y201620D01*
X444593Y201059D01*
X443878Y200558D01*
X443122Y200121D01*
X442330Y199752D01*
X441510Y199454D01*
X440666Y199228D01*
X439807Y199076D01*
X438937Y199000D01*
X438063Y199000D01*
X437194Y199076D01*
X436334Y199228D01*
X435490Y199454D01*
X434670Y199752D01*
X433878Y200121D01*
X433122Y200558D01*
X432407Y201059D01*
X431738Y201620D01*
X431120Y202238D01*
X430559Y202907D01*
X430058Y203622D01*
X429621Y204378D01*
X429252Y205170D01*
X428954Y205990D01*
X428728Y206834D01*
X428576Y207694D01*
X428500Y208563D01*
X428500Y209437D01*
X428576Y210307D01*
X428728Y211166D01*
X428954Y212010D01*
X429252Y212830D01*
X429621Y213622D01*
X430058Y214378D01*
X430559Y215093D01*
X431120Y215762D01*
X431738Y216380D01*
X432407Y216941D01*
X433122Y217442D01*
X433878Y217879D01*
X434670Y218248D01*
X435490Y218546D01*
X436334Y218772D01*
X437194Y218924D01*
X438063Y219000D01*
X438937Y219000D01*
X439807Y218924D01*
X440666Y218772D01*
X441510Y218546D01*
X442330Y218248D01*
X443122Y217879D01*
X443878Y217442D01*
X444593Y216941D01*
X445262Y216380D01*
X445880Y215762D01*
X446441Y215093D01*
X446942Y214378D01*
X447379Y213622D01*
X447748Y212830D01*
X448046Y212010D01*
X448272Y211166D01*
X448424Y210307D01*
X448500Y209437D01*
X448500Y208563D01*
X54000Y84500D02*
X53929Y83503D01*
X53786Y82513D01*
X53574Y81536D01*
X53292Y80576D01*
X52943Y79639D01*
X52527Y78729D01*
X52048Y77852D01*
X51507Y77010D01*
X50908Y76210D01*
X50253Y75454D01*
X49546Y74747D01*
X48790Y74092D01*
X47990Y73493D01*
X47148Y72952D01*
X46271Y72473D01*
X45361Y72057D01*
X44424Y71708D01*
X43465Y71426D01*
X42487Y71214D01*
X41498Y71071D01*
X40500Y71000D01*
X39500Y71000D01*
X38503Y71071D01*
X37513Y71214D01*
X36536Y71426D01*
X35576Y71708D01*
X34639Y72057D01*
X33729Y72473D01*
X32852Y72952D01*
X32010Y73493D01*
X31210Y74092D01*
X30454Y74747D01*
X29747Y75454D01*
X29092Y76210D01*
X28493Y77010D01*
X27952Y77852D01*
X27473Y78729D01*
X27057Y79639D01*
X26708Y80576D01*
X26426Y81536D01*
X26214Y82513D01*
X26071Y83503D01*
X26000Y84500D01*
X26000Y85500D01*
X26071Y86498D01*
X26214Y87487D01*
X26426Y88465D01*
X26708Y89424D01*
X27057Y90361D01*
X27473Y91271D01*
X27952Y92148D01*
X28493Y92990D01*
X29092Y93790D01*
X29747Y94546D01*
X30454Y95253D01*
X31210Y95908D01*
X32010Y96507D01*
X32852Y97048D01*
X33729Y97527D01*
X34639Y97943D01*
X35576Y98292D01*
X36536Y98574D01*
X37513Y98786D01*
X38503Y98929D01*
X39500Y99000D01*
X40500Y99000D01*
X41498Y98929D01*
X42487Y98786D01*
X43465Y98574D01*
X44424Y98292D01*
X45361Y97943D01*
X46271Y97527D01*
X47148Y97048D01*
X47990Y96507D01*
X48790Y95908D01*
X49546Y95253D01*
X50253Y94546D01*
X50908Y93790D01*
X51507Y92990D01*
X52048Y92148D01*
X52527Y91271D01*
X52943Y90361D01*
X53292Y89424D01*
X53574Y88465D01*
X53786Y87487D01*
X53929Y86498D01*
X54000Y85500D01*
X54000Y84500D01*
X484000Y469500D02*
X483929Y468503D01*
X483786Y467513D01*
X483574Y466536D01*
X483292Y465576D01*
X482943Y464639D01*
X482527Y463729D01*
X482048Y462852D01*
X481507Y462010D01*
X480908Y461210D01*
X480253Y460454D01*
X479546Y459747D01*
X478790Y459092D01*
X477990Y458493D01*
X477148Y457952D01*
X476271Y457473D01*
X475361Y457057D01*
X474424Y456708D01*
X473465Y456426D01*
X472487Y456214D01*
X471498Y456071D01*
X470500Y456000D01*
X469500Y456000D01*
X468503Y456071D01*
X467513Y456214D01*
X466536Y456426D01*
X465576Y456708D01*
X464639Y457057D01*
X463729Y457473D01*
X462852Y457952D01*
X462010Y458493D01*
X461210Y459092D01*
X460454Y459747D01*
X459747Y460454D01*
X459092Y461210D01*
X458493Y462010D01*
X457952Y462852D01*
X457473Y463729D01*
X457057Y464639D01*
X456708Y465576D01*
X456426Y466536D01*
X456214Y467513D01*
X456071Y468503D01*
X456000Y469500D01*
X456000Y470500D01*
X456071Y471498D01*
X456214Y472487D01*
X456426Y473465D01*
X456708Y474424D01*
X457057Y475361D01*
X457473Y476271D01*
X457952Y477148D01*
X458493Y477990D01*
X459092Y478790D01*
X459747Y479546D01*
X460454Y480253D01*
X461210Y480908D01*
X462010Y481507D01*
X462852Y482048D01*
X463729Y482527D01*
X464639Y482943D01*
X465576Y483292D01*
X466536Y483574D01*
X467513Y483786D01*
X468503Y483929D01*
X469500Y484000D01*
X470500Y484000D01*
X471498Y483929D01*
X472487Y483786D01*
X473465Y483574D01*
X474424Y483292D01*
X475361Y482943D01*
X476271Y482527D01*
X477148Y482048D01*
X477990Y481507D01*
X478790Y480908D01*
X479546Y480253D01*
X480253Y479546D01*
X480908Y478790D01*
X481507Y477990D01*
X482048Y477148D01*
X482527Y476271D01*
X482943Y475361D01*
X483292Y474424D01*
X483574Y473465D01*
X483786Y472487D01*
X483929Y471498D01*
X484000Y470500D01*
X484000Y469500D01*
X484000Y249500D02*
X483929Y248503D01*
X483786Y247513D01*
X483574Y246536D01*
X483292Y245576D01*
X482943Y244639D01*
X482527Y243729D01*
X482048Y242852D01*
X481507Y242010D01*
X480908Y241210D01*
X480253Y240454D01*
X479546Y239747D01*
X478790Y239092D01*
X477990Y238493D01*
X477148Y237952D01*
X476271Y237473D01*
X475361Y237057D01*
X474424Y236708D01*
X473465Y236426D01*
X472487Y236214D01*
X471498Y236071D01*
X470500Y236000D01*
X469500Y236000D01*
X468503Y236071D01*
X467513Y236214D01*
X466536Y236426D01*
X465576Y236708D01*
X464639Y237057D01*
X463729Y237473D01*
X462852Y237952D01*
X462010Y238493D01*
X461210Y239092D01*
X460454Y239747D01*
X459747Y240454D01*
X459092Y241210D01*
X458493Y242010D01*
X457952Y242852D01*
X457473Y243729D01*
X457057Y244639D01*
X456708Y245576D01*
X456426Y246536D01*
X456214Y247513D01*
X456071Y248503D01*
X456000Y249500D01*
X456000Y250500D01*
X456071Y251498D01*
X456214Y252487D01*
X456426Y253465D01*
X456708Y254424D01*
X457057Y255361D01*
X457473Y256271D01*
X457952Y257148D01*
X458493Y257990D01*
X459092Y258790D01*
X459747Y259546D01*
X460454Y260253D01*
X461210Y260908D01*
X462010Y261507D01*
X462852Y262048D01*
X463729Y262527D01*
X464639Y262943D01*
X465576Y263292D01*
X466536Y263574D01*
X467513Y263786D01*
X468503Y263929D01*
X469500Y264000D01*
X470500Y264000D01*
X471498Y263929D01*
X472487Y263786D01*
X473465Y263574D01*
X474424Y263292D01*
X475361Y262943D01*
X476271Y262527D01*
X477148Y262048D01*
X477990Y261507D01*
X478790Y260908D01*
X479546Y260253D01*
X480253Y259546D01*
X480908Y258790D01*
X481507Y257990D01*
X482048Y257148D01*
X482527Y256271D01*
X482943Y255361D01*
X483292Y254424D01*
X483574Y253465D01*
X483786Y252487D01*
X483929Y251498D01*
X484000Y250500D01*
X484000Y249500D01*
M02*
