G04 EAGLE Gerber X2 export*
%TF.Part,Single*%
%TF.FileFunction,Legend,Bot,1*%
%TF.FilePolarity,Positive*%
%TF.GenerationSoftware,Autodesk,EAGLE,9.0.0*%
%TF.CreationDate,2019-06-10T11:01:15Z*%
G75*
%MOMM*%
%FSLAX34Y34*%
%LPD*%
%AMOC8*
5,1,8,0,0,1.08239X$1,22.5*%
G01*
%ADD10C,0.152400*%
%ADD11C,0.050800*%
%ADD12C,0.015238*%
%ADD13C,0.076200*%
%ADD14C,0.101600*%
%ADD15C,0.203200*%
%ADD16R,6.200000X1.250000*%
%ADD17C,0.127000*%
%ADD18R,1.574800X0.609600*%


D10*
X45005Y307714D02*
X46445Y306273D01*
X46445Y303392D01*
X45005Y301952D01*
X39243Y301952D01*
X37802Y303392D01*
X37802Y306273D01*
X39243Y307714D01*
X37802Y315629D02*
X46445Y315629D01*
X42124Y311307D01*
X42124Y317069D01*
X45105Y260214D02*
X46545Y258773D01*
X46545Y255892D01*
X45105Y254452D01*
X39343Y254452D01*
X37902Y255892D01*
X37902Y258773D01*
X39343Y260214D01*
X46545Y263807D02*
X46545Y269569D01*
X46545Y263807D02*
X42224Y263807D01*
X43664Y266688D01*
X43664Y268129D01*
X42224Y269569D01*
X39343Y269569D01*
X37902Y268129D01*
X37902Y265247D01*
X39343Y263807D01*
X381362Y121662D02*
X390005Y121662D01*
X390005Y125984D01*
X388565Y127424D01*
X385684Y127424D01*
X384243Y125984D01*
X384243Y121662D01*
X384243Y124543D02*
X381362Y127424D01*
X387124Y131017D02*
X390005Y133898D01*
X381362Y133898D01*
X381362Y131017D02*
X381362Y136779D01*
X381562Y69162D02*
X390205Y69162D01*
X390205Y73484D01*
X388765Y74924D01*
X385884Y74924D01*
X384443Y73484D01*
X384443Y69162D01*
X384443Y72043D02*
X381562Y74924D01*
X381562Y78517D02*
X381562Y84279D01*
X381562Y78517D02*
X387324Y84279D01*
X388765Y84279D01*
X390205Y82839D01*
X390205Y79958D01*
X388765Y78517D01*
X238838Y257262D02*
X238838Y265905D01*
X234516Y265905D01*
X233076Y264465D01*
X233076Y261584D01*
X234516Y260143D01*
X238838Y260143D01*
X235957Y260143D02*
X233076Y257262D01*
X225161Y257262D02*
X225161Y265905D01*
X229483Y261584D01*
X223721Y261584D01*
X366838Y236105D02*
X366838Y227462D01*
X366838Y236105D02*
X362516Y236105D01*
X361076Y234665D01*
X361076Y231784D01*
X362516Y230343D01*
X366838Y230343D01*
X363957Y230343D02*
X361076Y227462D01*
X357483Y236105D02*
X351721Y236105D01*
X357483Y236105D02*
X357483Y231784D01*
X354602Y233224D01*
X353161Y233224D01*
X351721Y231784D01*
X351721Y228903D01*
X353161Y227462D01*
X356042Y227462D01*
X357483Y228903D01*
D11*
X370800Y343298D02*
X421600Y343298D01*
D12*
X422285Y377155D02*
X420912Y377155D01*
X420912Y377156D02*
X420907Y377239D01*
X420898Y377323D01*
X420885Y377405D01*
X420869Y377487D01*
X420849Y377568D01*
X420825Y377649D01*
X420797Y377728D01*
X420766Y377805D01*
X420732Y377881D01*
X420694Y377956D01*
X420653Y378029D01*
X420608Y378100D01*
X420561Y378169D01*
X420510Y378235D01*
X420457Y378299D01*
X420400Y378361D01*
X420341Y378420D01*
X420279Y378477D01*
X420215Y378530D01*
X420149Y378581D01*
X420080Y378628D01*
X420009Y378673D01*
X419936Y378714D01*
X419861Y378752D01*
X419785Y378786D01*
X419708Y378817D01*
X419629Y378845D01*
X419548Y378869D01*
X419467Y378889D01*
X419385Y378905D01*
X419303Y378918D01*
X419219Y378927D01*
X419136Y378932D01*
X419135Y380305D01*
X419136Y380305D01*
X419248Y380301D01*
X419359Y380292D01*
X419470Y380280D01*
X419581Y380264D01*
X419690Y380244D01*
X419800Y380220D01*
X419908Y380193D01*
X420015Y380161D01*
X420121Y380126D01*
X420226Y380088D01*
X420330Y380046D01*
X420431Y380000D01*
X420532Y379951D01*
X420630Y379898D01*
X420727Y379842D01*
X420822Y379783D01*
X420914Y379720D01*
X421004Y379654D01*
X421092Y379585D01*
X421178Y379514D01*
X421261Y379439D01*
X421341Y379361D01*
X421419Y379281D01*
X421494Y379198D01*
X421565Y379112D01*
X421634Y379024D01*
X421700Y378934D01*
X421763Y378842D01*
X421822Y378747D01*
X421878Y378650D01*
X421931Y378552D01*
X421980Y378451D01*
X422026Y378350D01*
X422068Y378246D01*
X422106Y378141D01*
X422141Y378035D01*
X422173Y377928D01*
X422200Y377820D01*
X422224Y377710D01*
X422244Y377601D01*
X422260Y377490D01*
X422272Y377379D01*
X422281Y377268D01*
X422285Y377156D01*
X422142Y377156D01*
X422137Y377265D01*
X422129Y377374D01*
X422117Y377482D01*
X422101Y377590D01*
X422081Y377697D01*
X422057Y377804D01*
X422029Y377909D01*
X421998Y378014D01*
X421963Y378117D01*
X421925Y378219D01*
X421883Y378320D01*
X421837Y378419D01*
X421788Y378516D01*
X421735Y378612D01*
X421680Y378706D01*
X421620Y378797D01*
X421558Y378887D01*
X421493Y378974D01*
X421424Y379059D01*
X421353Y379141D01*
X421278Y379221D01*
X421201Y379298D01*
X421121Y379373D01*
X421039Y379444D01*
X420954Y379513D01*
X420867Y379578D01*
X420777Y379640D01*
X420686Y379700D01*
X420592Y379755D01*
X420496Y379808D01*
X420399Y379857D01*
X420300Y379903D01*
X420199Y379945D01*
X420097Y379983D01*
X419994Y380018D01*
X419889Y380049D01*
X419784Y380077D01*
X419677Y380101D01*
X419570Y380121D01*
X419462Y380137D01*
X419354Y380149D01*
X419245Y380157D01*
X419136Y380162D01*
X419136Y380019D01*
X419242Y380014D01*
X419348Y380006D01*
X419454Y379994D01*
X419559Y379977D01*
X419663Y379957D01*
X419767Y379934D01*
X419870Y379906D01*
X419971Y379875D01*
X420072Y379840D01*
X420171Y379802D01*
X420269Y379760D01*
X420365Y379715D01*
X420459Y379666D01*
X420552Y379613D01*
X420643Y379558D01*
X420731Y379499D01*
X420817Y379437D01*
X420902Y379372D01*
X420983Y379304D01*
X421062Y379233D01*
X421139Y379159D01*
X421213Y379082D01*
X421284Y379003D01*
X421352Y378922D01*
X421417Y378837D01*
X421479Y378751D01*
X421538Y378663D01*
X421593Y378572D01*
X421646Y378479D01*
X421695Y378385D01*
X421740Y378289D01*
X421782Y378191D01*
X421820Y378092D01*
X421855Y377991D01*
X421886Y377890D01*
X421914Y377787D01*
X421937Y377683D01*
X421957Y377579D01*
X421974Y377474D01*
X421986Y377368D01*
X421994Y377262D01*
X421999Y377156D01*
X421856Y377156D01*
X421851Y377259D01*
X421843Y377362D01*
X421830Y377465D01*
X421814Y377567D01*
X421794Y377669D01*
X421771Y377770D01*
X421743Y377869D01*
X421712Y377968D01*
X421678Y378065D01*
X421639Y378162D01*
X421598Y378256D01*
X421552Y378349D01*
X421504Y378441D01*
X421452Y378530D01*
X421397Y378617D01*
X421338Y378703D01*
X421277Y378786D01*
X421212Y378867D01*
X421144Y378945D01*
X421074Y379021D01*
X421001Y379094D01*
X420925Y379164D01*
X420847Y379232D01*
X420766Y379297D01*
X420683Y379358D01*
X420597Y379417D01*
X420510Y379472D01*
X420421Y379524D01*
X420329Y379572D01*
X420236Y379618D01*
X420142Y379659D01*
X420045Y379698D01*
X419948Y379732D01*
X419849Y379763D01*
X419750Y379791D01*
X419649Y379814D01*
X419547Y379834D01*
X419445Y379850D01*
X419342Y379863D01*
X419239Y379871D01*
X419136Y379876D01*
X419136Y379733D01*
X419236Y379728D01*
X419336Y379720D01*
X419436Y379707D01*
X419535Y379691D01*
X419634Y379671D01*
X419731Y379648D01*
X419828Y379621D01*
X419923Y379590D01*
X420018Y379555D01*
X420111Y379517D01*
X420202Y379476D01*
X420292Y379431D01*
X420380Y379382D01*
X420466Y379331D01*
X420550Y379276D01*
X420632Y379218D01*
X420712Y379157D01*
X420789Y379093D01*
X420864Y379026D01*
X420937Y378957D01*
X421006Y378884D01*
X421073Y378809D01*
X421137Y378732D01*
X421198Y378652D01*
X421256Y378570D01*
X421311Y378486D01*
X421362Y378400D01*
X421411Y378312D01*
X421456Y378222D01*
X421497Y378131D01*
X421535Y378038D01*
X421570Y377943D01*
X421601Y377848D01*
X421628Y377751D01*
X421651Y377654D01*
X421671Y377555D01*
X421687Y377456D01*
X421700Y377356D01*
X421708Y377256D01*
X421713Y377156D01*
X421570Y377156D01*
X421565Y377256D01*
X421556Y377355D01*
X421543Y377454D01*
X421526Y377552D01*
X421505Y377650D01*
X421481Y377747D01*
X421452Y377842D01*
X421420Y377937D01*
X421384Y378030D01*
X421345Y378122D01*
X421302Y378211D01*
X421255Y378300D01*
X421205Y378386D01*
X421151Y378470D01*
X421094Y378552D01*
X421034Y378632D01*
X420971Y378709D01*
X420905Y378784D01*
X420836Y378856D01*
X420764Y378925D01*
X420689Y378991D01*
X420612Y379054D01*
X420532Y379114D01*
X420450Y379171D01*
X420366Y379225D01*
X420280Y379275D01*
X420191Y379322D01*
X420102Y379365D01*
X420010Y379404D01*
X419917Y379440D01*
X419822Y379472D01*
X419727Y379501D01*
X419630Y379525D01*
X419532Y379546D01*
X419434Y379563D01*
X419335Y379576D01*
X419236Y379585D01*
X419136Y379590D01*
X419136Y379447D01*
X419232Y379442D01*
X419328Y379433D01*
X419424Y379420D01*
X419519Y379403D01*
X419613Y379383D01*
X419706Y379358D01*
X419798Y379330D01*
X419889Y379298D01*
X419979Y379262D01*
X420067Y379223D01*
X420154Y379180D01*
X420238Y379134D01*
X420321Y379084D01*
X420401Y379031D01*
X420480Y378975D01*
X420556Y378916D01*
X420629Y378854D01*
X420700Y378788D01*
X420768Y378720D01*
X420834Y378649D01*
X420896Y378576D01*
X420955Y378500D01*
X421011Y378421D01*
X421064Y378341D01*
X421114Y378258D01*
X421160Y378174D01*
X421203Y378087D01*
X421242Y377999D01*
X421278Y377909D01*
X421310Y377818D01*
X421338Y377726D01*
X421363Y377633D01*
X421383Y377539D01*
X421400Y377444D01*
X421413Y377348D01*
X421422Y377252D01*
X421427Y377156D01*
X421284Y377156D01*
X421279Y377249D01*
X421270Y377341D01*
X421257Y377433D01*
X421240Y377524D01*
X421220Y377615D01*
X421196Y377705D01*
X421168Y377793D01*
X421136Y377881D01*
X421101Y377966D01*
X421062Y378051D01*
X421020Y378134D01*
X420974Y378214D01*
X420925Y378293D01*
X420873Y378370D01*
X420817Y378445D01*
X420759Y378517D01*
X420698Y378586D01*
X420633Y378653D01*
X420566Y378718D01*
X420497Y378779D01*
X420425Y378837D01*
X420350Y378893D01*
X420273Y378945D01*
X420194Y378994D01*
X420114Y379040D01*
X420031Y379082D01*
X419946Y379121D01*
X419861Y379156D01*
X419773Y379188D01*
X419685Y379216D01*
X419595Y379240D01*
X419504Y379260D01*
X419413Y379277D01*
X419321Y379290D01*
X419229Y379299D01*
X419136Y379304D01*
X419136Y379161D01*
X419225Y379155D01*
X419314Y379147D01*
X419402Y379134D01*
X419489Y379117D01*
X419576Y379097D01*
X419662Y379073D01*
X419747Y379046D01*
X419830Y379014D01*
X419912Y378980D01*
X419993Y378941D01*
X420071Y378900D01*
X420148Y378855D01*
X420223Y378807D01*
X420296Y378755D01*
X420367Y378701D01*
X420435Y378644D01*
X420500Y378583D01*
X420563Y378520D01*
X420624Y378455D01*
X420681Y378387D01*
X420735Y378316D01*
X420787Y378243D01*
X420835Y378168D01*
X420880Y378091D01*
X420921Y378013D01*
X420960Y377932D01*
X420994Y377850D01*
X421026Y377767D01*
X421053Y377682D01*
X421077Y377596D01*
X421097Y377509D01*
X421114Y377422D01*
X421127Y377334D01*
X421135Y377245D01*
X421141Y377156D01*
X420998Y377156D01*
X420992Y377241D01*
X420983Y377326D01*
X420971Y377410D01*
X420954Y377493D01*
X420934Y377576D01*
X420911Y377658D01*
X420884Y377738D01*
X420853Y377818D01*
X420819Y377896D01*
X420782Y377972D01*
X420741Y378047D01*
X420697Y378120D01*
X420649Y378191D01*
X420599Y378259D01*
X420546Y378326D01*
X420490Y378390D01*
X420431Y378451D01*
X420370Y378510D01*
X420306Y378566D01*
X420239Y378619D01*
X420171Y378669D01*
X420100Y378717D01*
X420027Y378761D01*
X419952Y378802D01*
X419876Y378839D01*
X419798Y378873D01*
X419718Y378904D01*
X419638Y378931D01*
X419556Y378954D01*
X419473Y378974D01*
X419390Y378991D01*
X419306Y379003D01*
X419221Y379012D01*
X419136Y379018D01*
D10*
X410170Y379620D02*
X407630Y379620D01*
X397470Y379620D02*
X394930Y379620D01*
X384770Y379620D02*
X382230Y379620D01*
D12*
X373265Y380305D02*
X373265Y378932D01*
X373264Y378932D02*
X373181Y378927D01*
X373097Y378918D01*
X373015Y378905D01*
X372933Y378889D01*
X372852Y378869D01*
X372771Y378845D01*
X372692Y378817D01*
X372615Y378786D01*
X372539Y378752D01*
X372464Y378714D01*
X372391Y378673D01*
X372320Y378628D01*
X372251Y378581D01*
X372185Y378530D01*
X372121Y378477D01*
X372059Y378420D01*
X372000Y378361D01*
X371943Y378299D01*
X371890Y378235D01*
X371839Y378169D01*
X371792Y378100D01*
X371747Y378029D01*
X371706Y377956D01*
X371668Y377881D01*
X371634Y377805D01*
X371603Y377728D01*
X371575Y377649D01*
X371551Y377568D01*
X371531Y377487D01*
X371515Y377405D01*
X371502Y377323D01*
X371493Y377239D01*
X371488Y377156D01*
X370115Y377155D01*
X370115Y377156D01*
X370119Y377268D01*
X370128Y377379D01*
X370140Y377490D01*
X370156Y377601D01*
X370176Y377710D01*
X370200Y377820D01*
X370227Y377928D01*
X370259Y378035D01*
X370294Y378141D01*
X370332Y378246D01*
X370374Y378350D01*
X370420Y378451D01*
X370469Y378552D01*
X370522Y378650D01*
X370578Y378747D01*
X370637Y378842D01*
X370700Y378934D01*
X370766Y379024D01*
X370835Y379112D01*
X370906Y379198D01*
X370981Y379281D01*
X371059Y379361D01*
X371139Y379439D01*
X371222Y379514D01*
X371308Y379585D01*
X371396Y379654D01*
X371486Y379720D01*
X371578Y379783D01*
X371673Y379842D01*
X371770Y379898D01*
X371868Y379951D01*
X371969Y380000D01*
X372070Y380046D01*
X372174Y380088D01*
X372279Y380126D01*
X372385Y380161D01*
X372492Y380193D01*
X372600Y380220D01*
X372710Y380244D01*
X372819Y380264D01*
X372930Y380280D01*
X373041Y380292D01*
X373152Y380301D01*
X373264Y380305D01*
X373264Y380162D01*
X373155Y380157D01*
X373046Y380149D01*
X372938Y380137D01*
X372830Y380121D01*
X372723Y380101D01*
X372616Y380077D01*
X372511Y380049D01*
X372406Y380018D01*
X372303Y379983D01*
X372201Y379945D01*
X372100Y379903D01*
X372001Y379857D01*
X371904Y379808D01*
X371808Y379755D01*
X371714Y379700D01*
X371623Y379640D01*
X371533Y379578D01*
X371446Y379513D01*
X371361Y379444D01*
X371279Y379373D01*
X371199Y379298D01*
X371122Y379221D01*
X371047Y379141D01*
X370976Y379059D01*
X370907Y378974D01*
X370842Y378887D01*
X370780Y378797D01*
X370720Y378706D01*
X370665Y378612D01*
X370612Y378516D01*
X370563Y378419D01*
X370517Y378320D01*
X370475Y378219D01*
X370437Y378117D01*
X370402Y378014D01*
X370371Y377909D01*
X370343Y377804D01*
X370319Y377697D01*
X370299Y377590D01*
X370283Y377482D01*
X370271Y377374D01*
X370263Y377265D01*
X370258Y377156D01*
X370401Y377156D01*
X370406Y377262D01*
X370414Y377368D01*
X370426Y377474D01*
X370443Y377579D01*
X370463Y377683D01*
X370486Y377787D01*
X370514Y377890D01*
X370545Y377991D01*
X370580Y378092D01*
X370618Y378191D01*
X370660Y378289D01*
X370705Y378385D01*
X370754Y378479D01*
X370807Y378572D01*
X370862Y378663D01*
X370921Y378751D01*
X370983Y378837D01*
X371048Y378922D01*
X371116Y379003D01*
X371187Y379082D01*
X371261Y379159D01*
X371338Y379233D01*
X371417Y379304D01*
X371498Y379372D01*
X371583Y379437D01*
X371669Y379499D01*
X371757Y379558D01*
X371848Y379613D01*
X371941Y379666D01*
X372035Y379715D01*
X372131Y379760D01*
X372229Y379802D01*
X372328Y379840D01*
X372429Y379875D01*
X372530Y379906D01*
X372633Y379934D01*
X372737Y379957D01*
X372841Y379977D01*
X372946Y379994D01*
X373052Y380006D01*
X373158Y380014D01*
X373264Y380019D01*
X373264Y379876D01*
X373161Y379871D01*
X373058Y379863D01*
X372955Y379850D01*
X372853Y379834D01*
X372751Y379814D01*
X372650Y379791D01*
X372551Y379763D01*
X372452Y379732D01*
X372355Y379698D01*
X372258Y379659D01*
X372164Y379618D01*
X372071Y379572D01*
X371979Y379524D01*
X371890Y379472D01*
X371803Y379417D01*
X371717Y379358D01*
X371634Y379297D01*
X371553Y379232D01*
X371475Y379164D01*
X371399Y379094D01*
X371326Y379021D01*
X371256Y378945D01*
X371188Y378867D01*
X371123Y378786D01*
X371062Y378703D01*
X371003Y378617D01*
X370948Y378530D01*
X370896Y378441D01*
X370848Y378349D01*
X370802Y378256D01*
X370761Y378162D01*
X370722Y378065D01*
X370688Y377968D01*
X370657Y377869D01*
X370629Y377770D01*
X370606Y377669D01*
X370586Y377567D01*
X370570Y377465D01*
X370557Y377362D01*
X370549Y377259D01*
X370544Y377156D01*
X370687Y377156D01*
X370692Y377256D01*
X370700Y377356D01*
X370713Y377456D01*
X370729Y377555D01*
X370749Y377654D01*
X370772Y377751D01*
X370799Y377848D01*
X370830Y377943D01*
X370865Y378038D01*
X370903Y378131D01*
X370944Y378222D01*
X370989Y378312D01*
X371038Y378400D01*
X371089Y378486D01*
X371144Y378570D01*
X371202Y378652D01*
X371263Y378732D01*
X371327Y378809D01*
X371394Y378884D01*
X371463Y378957D01*
X371536Y379026D01*
X371611Y379093D01*
X371688Y379157D01*
X371768Y379218D01*
X371850Y379276D01*
X371934Y379331D01*
X372020Y379382D01*
X372108Y379431D01*
X372198Y379476D01*
X372289Y379517D01*
X372382Y379555D01*
X372477Y379590D01*
X372572Y379621D01*
X372669Y379648D01*
X372766Y379671D01*
X372865Y379691D01*
X372964Y379707D01*
X373064Y379720D01*
X373164Y379728D01*
X373264Y379733D01*
X373264Y379590D01*
X373164Y379585D01*
X373065Y379576D01*
X372966Y379563D01*
X372868Y379546D01*
X372770Y379525D01*
X372673Y379501D01*
X372578Y379472D01*
X372483Y379440D01*
X372390Y379404D01*
X372298Y379365D01*
X372209Y379322D01*
X372120Y379275D01*
X372034Y379225D01*
X371950Y379171D01*
X371868Y379114D01*
X371788Y379054D01*
X371711Y378991D01*
X371636Y378925D01*
X371564Y378856D01*
X371495Y378784D01*
X371429Y378709D01*
X371366Y378632D01*
X371306Y378552D01*
X371249Y378470D01*
X371195Y378386D01*
X371145Y378300D01*
X371098Y378211D01*
X371055Y378122D01*
X371016Y378030D01*
X370980Y377937D01*
X370948Y377842D01*
X370919Y377747D01*
X370895Y377650D01*
X370874Y377552D01*
X370857Y377454D01*
X370844Y377355D01*
X370835Y377256D01*
X370830Y377156D01*
X370973Y377156D01*
X370978Y377252D01*
X370987Y377348D01*
X371000Y377444D01*
X371017Y377539D01*
X371037Y377633D01*
X371062Y377726D01*
X371090Y377818D01*
X371122Y377909D01*
X371158Y377999D01*
X371197Y378087D01*
X371240Y378174D01*
X371286Y378258D01*
X371336Y378341D01*
X371389Y378421D01*
X371445Y378500D01*
X371504Y378576D01*
X371566Y378649D01*
X371632Y378720D01*
X371700Y378788D01*
X371771Y378854D01*
X371844Y378916D01*
X371920Y378975D01*
X371999Y379031D01*
X372079Y379084D01*
X372162Y379134D01*
X372246Y379180D01*
X372333Y379223D01*
X372421Y379262D01*
X372511Y379298D01*
X372602Y379330D01*
X372694Y379358D01*
X372787Y379383D01*
X372881Y379403D01*
X372976Y379420D01*
X373072Y379433D01*
X373168Y379442D01*
X373264Y379447D01*
X373264Y379304D01*
X373171Y379299D01*
X373079Y379290D01*
X372987Y379277D01*
X372896Y379260D01*
X372805Y379240D01*
X372715Y379216D01*
X372627Y379188D01*
X372539Y379156D01*
X372454Y379121D01*
X372369Y379082D01*
X372286Y379040D01*
X372206Y378994D01*
X372127Y378945D01*
X372050Y378893D01*
X371975Y378837D01*
X371903Y378779D01*
X371834Y378718D01*
X371767Y378653D01*
X371702Y378586D01*
X371641Y378517D01*
X371583Y378445D01*
X371527Y378370D01*
X371475Y378293D01*
X371426Y378214D01*
X371380Y378134D01*
X371338Y378051D01*
X371299Y377966D01*
X371264Y377881D01*
X371232Y377793D01*
X371204Y377705D01*
X371180Y377615D01*
X371160Y377524D01*
X371143Y377433D01*
X371130Y377341D01*
X371121Y377249D01*
X371116Y377156D01*
X371259Y377156D01*
X371265Y377245D01*
X371273Y377334D01*
X371286Y377422D01*
X371303Y377509D01*
X371323Y377596D01*
X371347Y377682D01*
X371374Y377767D01*
X371406Y377850D01*
X371440Y377932D01*
X371479Y378013D01*
X371520Y378091D01*
X371565Y378168D01*
X371613Y378243D01*
X371665Y378316D01*
X371719Y378387D01*
X371776Y378455D01*
X371837Y378520D01*
X371900Y378583D01*
X371965Y378644D01*
X372033Y378701D01*
X372104Y378755D01*
X372177Y378807D01*
X372252Y378855D01*
X372329Y378900D01*
X372407Y378941D01*
X372488Y378980D01*
X372570Y379014D01*
X372653Y379046D01*
X372738Y379073D01*
X372824Y379097D01*
X372911Y379117D01*
X372998Y379134D01*
X373086Y379147D01*
X373175Y379155D01*
X373264Y379161D01*
X373264Y379018D01*
X373179Y379012D01*
X373094Y379003D01*
X373010Y378991D01*
X372927Y378974D01*
X372844Y378954D01*
X372762Y378931D01*
X372682Y378904D01*
X372602Y378873D01*
X372524Y378839D01*
X372448Y378802D01*
X372373Y378761D01*
X372300Y378717D01*
X372229Y378669D01*
X372161Y378619D01*
X372094Y378566D01*
X372030Y378510D01*
X371969Y378451D01*
X371910Y378390D01*
X371854Y378326D01*
X371801Y378259D01*
X371751Y378191D01*
X371703Y378120D01*
X371659Y378047D01*
X371618Y377972D01*
X371581Y377896D01*
X371547Y377818D01*
X371516Y377738D01*
X371489Y377658D01*
X371466Y377576D01*
X371446Y377493D01*
X371429Y377410D01*
X371417Y377326D01*
X371408Y377241D01*
X371402Y377156D01*
D10*
X407630Y338980D02*
X410170Y338980D01*
X397470Y338980D02*
X394930Y338980D01*
X384770Y338980D02*
X382230Y338980D01*
D12*
X370115Y341445D02*
X371488Y341445D01*
X371488Y341444D02*
X371493Y341361D01*
X371502Y341277D01*
X371515Y341195D01*
X371531Y341113D01*
X371551Y341032D01*
X371575Y340951D01*
X371603Y340872D01*
X371634Y340795D01*
X371668Y340719D01*
X371706Y340644D01*
X371747Y340571D01*
X371792Y340500D01*
X371839Y340431D01*
X371890Y340365D01*
X371943Y340301D01*
X372000Y340239D01*
X372059Y340180D01*
X372121Y340123D01*
X372185Y340070D01*
X372251Y340019D01*
X372320Y339972D01*
X372391Y339927D01*
X372464Y339886D01*
X372539Y339848D01*
X372615Y339814D01*
X372692Y339783D01*
X372771Y339755D01*
X372852Y339731D01*
X372933Y339711D01*
X373015Y339695D01*
X373097Y339682D01*
X373181Y339673D01*
X373264Y339668D01*
X373265Y338295D01*
X373264Y338295D01*
X373152Y338299D01*
X373041Y338308D01*
X372930Y338320D01*
X372819Y338336D01*
X372710Y338356D01*
X372600Y338380D01*
X372492Y338407D01*
X372385Y338439D01*
X372279Y338474D01*
X372174Y338512D01*
X372070Y338554D01*
X371969Y338600D01*
X371868Y338649D01*
X371770Y338702D01*
X371673Y338758D01*
X371578Y338817D01*
X371486Y338880D01*
X371396Y338946D01*
X371308Y339015D01*
X371222Y339086D01*
X371139Y339161D01*
X371059Y339239D01*
X370981Y339319D01*
X370906Y339402D01*
X370835Y339488D01*
X370766Y339576D01*
X370700Y339666D01*
X370637Y339758D01*
X370578Y339853D01*
X370522Y339950D01*
X370469Y340048D01*
X370420Y340149D01*
X370374Y340250D01*
X370332Y340354D01*
X370294Y340459D01*
X370259Y340565D01*
X370227Y340672D01*
X370200Y340780D01*
X370176Y340890D01*
X370156Y340999D01*
X370140Y341110D01*
X370128Y341221D01*
X370119Y341332D01*
X370115Y341444D01*
X370258Y341444D01*
X370263Y341335D01*
X370271Y341226D01*
X370283Y341118D01*
X370299Y341010D01*
X370319Y340903D01*
X370343Y340796D01*
X370371Y340691D01*
X370402Y340586D01*
X370437Y340483D01*
X370475Y340381D01*
X370517Y340280D01*
X370563Y340181D01*
X370612Y340084D01*
X370665Y339988D01*
X370720Y339894D01*
X370780Y339803D01*
X370842Y339713D01*
X370907Y339626D01*
X370976Y339541D01*
X371047Y339459D01*
X371122Y339379D01*
X371199Y339302D01*
X371279Y339227D01*
X371361Y339156D01*
X371446Y339087D01*
X371533Y339022D01*
X371623Y338960D01*
X371714Y338900D01*
X371808Y338845D01*
X371904Y338792D01*
X372001Y338743D01*
X372100Y338697D01*
X372201Y338655D01*
X372303Y338617D01*
X372406Y338582D01*
X372511Y338551D01*
X372616Y338523D01*
X372723Y338499D01*
X372830Y338479D01*
X372938Y338463D01*
X373046Y338451D01*
X373155Y338443D01*
X373264Y338438D01*
X373264Y338581D01*
X373158Y338586D01*
X373052Y338594D01*
X372946Y338606D01*
X372841Y338623D01*
X372737Y338643D01*
X372633Y338666D01*
X372530Y338694D01*
X372429Y338725D01*
X372328Y338760D01*
X372229Y338798D01*
X372131Y338840D01*
X372035Y338885D01*
X371941Y338934D01*
X371848Y338987D01*
X371757Y339042D01*
X371669Y339101D01*
X371583Y339163D01*
X371498Y339228D01*
X371417Y339296D01*
X371338Y339367D01*
X371261Y339441D01*
X371187Y339518D01*
X371116Y339597D01*
X371048Y339678D01*
X370983Y339763D01*
X370921Y339849D01*
X370862Y339937D01*
X370807Y340028D01*
X370754Y340121D01*
X370705Y340215D01*
X370660Y340311D01*
X370618Y340409D01*
X370580Y340508D01*
X370545Y340609D01*
X370514Y340710D01*
X370486Y340813D01*
X370463Y340917D01*
X370443Y341021D01*
X370426Y341126D01*
X370414Y341232D01*
X370406Y341338D01*
X370401Y341444D01*
X370544Y341444D01*
X370549Y341341D01*
X370557Y341238D01*
X370570Y341135D01*
X370586Y341033D01*
X370606Y340931D01*
X370629Y340830D01*
X370657Y340731D01*
X370688Y340632D01*
X370722Y340535D01*
X370761Y340438D01*
X370802Y340344D01*
X370848Y340251D01*
X370896Y340159D01*
X370948Y340070D01*
X371003Y339983D01*
X371062Y339897D01*
X371123Y339814D01*
X371188Y339733D01*
X371256Y339655D01*
X371326Y339579D01*
X371399Y339506D01*
X371475Y339436D01*
X371553Y339368D01*
X371634Y339303D01*
X371717Y339242D01*
X371803Y339183D01*
X371890Y339128D01*
X371979Y339076D01*
X372071Y339028D01*
X372164Y338982D01*
X372258Y338941D01*
X372355Y338902D01*
X372452Y338868D01*
X372551Y338837D01*
X372650Y338809D01*
X372751Y338786D01*
X372853Y338766D01*
X372955Y338750D01*
X373058Y338737D01*
X373161Y338729D01*
X373264Y338724D01*
X373264Y338867D01*
X373164Y338872D01*
X373064Y338880D01*
X372964Y338893D01*
X372865Y338909D01*
X372766Y338929D01*
X372669Y338952D01*
X372572Y338979D01*
X372477Y339010D01*
X372382Y339045D01*
X372289Y339083D01*
X372198Y339124D01*
X372108Y339169D01*
X372020Y339218D01*
X371934Y339269D01*
X371850Y339324D01*
X371768Y339382D01*
X371688Y339443D01*
X371611Y339507D01*
X371536Y339574D01*
X371463Y339643D01*
X371394Y339716D01*
X371327Y339791D01*
X371263Y339868D01*
X371202Y339948D01*
X371144Y340030D01*
X371089Y340114D01*
X371038Y340200D01*
X370989Y340288D01*
X370944Y340378D01*
X370903Y340469D01*
X370865Y340562D01*
X370830Y340657D01*
X370799Y340752D01*
X370772Y340849D01*
X370749Y340946D01*
X370729Y341045D01*
X370713Y341144D01*
X370700Y341244D01*
X370692Y341344D01*
X370687Y341444D01*
X370830Y341444D01*
X370835Y341344D01*
X370844Y341245D01*
X370857Y341146D01*
X370874Y341048D01*
X370895Y340950D01*
X370919Y340853D01*
X370948Y340758D01*
X370980Y340663D01*
X371016Y340570D01*
X371055Y340478D01*
X371098Y340389D01*
X371145Y340300D01*
X371195Y340214D01*
X371249Y340130D01*
X371306Y340048D01*
X371366Y339968D01*
X371429Y339891D01*
X371495Y339816D01*
X371564Y339744D01*
X371636Y339675D01*
X371711Y339609D01*
X371788Y339546D01*
X371868Y339486D01*
X371950Y339429D01*
X372034Y339375D01*
X372120Y339325D01*
X372209Y339278D01*
X372298Y339235D01*
X372390Y339196D01*
X372483Y339160D01*
X372578Y339128D01*
X372673Y339099D01*
X372770Y339075D01*
X372868Y339054D01*
X372966Y339037D01*
X373065Y339024D01*
X373164Y339015D01*
X373264Y339010D01*
X373264Y339153D01*
X373168Y339158D01*
X373072Y339167D01*
X372976Y339180D01*
X372881Y339197D01*
X372787Y339217D01*
X372694Y339242D01*
X372602Y339270D01*
X372511Y339302D01*
X372421Y339338D01*
X372333Y339377D01*
X372246Y339420D01*
X372162Y339466D01*
X372079Y339516D01*
X371999Y339569D01*
X371920Y339625D01*
X371844Y339684D01*
X371771Y339746D01*
X371700Y339812D01*
X371632Y339880D01*
X371566Y339951D01*
X371504Y340024D01*
X371445Y340100D01*
X371389Y340179D01*
X371336Y340259D01*
X371286Y340342D01*
X371240Y340426D01*
X371197Y340513D01*
X371158Y340601D01*
X371122Y340691D01*
X371090Y340782D01*
X371062Y340874D01*
X371037Y340967D01*
X371017Y341061D01*
X371000Y341156D01*
X370987Y341252D01*
X370978Y341348D01*
X370973Y341444D01*
X371116Y341444D01*
X371121Y341351D01*
X371130Y341259D01*
X371143Y341167D01*
X371160Y341076D01*
X371180Y340985D01*
X371204Y340895D01*
X371232Y340807D01*
X371264Y340719D01*
X371299Y340634D01*
X371338Y340549D01*
X371380Y340466D01*
X371426Y340386D01*
X371475Y340307D01*
X371527Y340230D01*
X371583Y340155D01*
X371641Y340083D01*
X371702Y340014D01*
X371767Y339947D01*
X371834Y339882D01*
X371903Y339821D01*
X371975Y339763D01*
X372050Y339707D01*
X372127Y339655D01*
X372206Y339606D01*
X372286Y339560D01*
X372369Y339518D01*
X372454Y339479D01*
X372539Y339444D01*
X372627Y339412D01*
X372715Y339384D01*
X372805Y339360D01*
X372896Y339340D01*
X372987Y339323D01*
X373079Y339310D01*
X373171Y339301D01*
X373264Y339296D01*
X373264Y339439D01*
X373175Y339445D01*
X373086Y339453D01*
X372998Y339466D01*
X372911Y339483D01*
X372824Y339503D01*
X372738Y339527D01*
X372653Y339554D01*
X372570Y339586D01*
X372488Y339620D01*
X372407Y339659D01*
X372329Y339700D01*
X372252Y339745D01*
X372177Y339793D01*
X372104Y339845D01*
X372033Y339899D01*
X371965Y339956D01*
X371900Y340017D01*
X371837Y340080D01*
X371776Y340145D01*
X371719Y340213D01*
X371665Y340284D01*
X371613Y340357D01*
X371565Y340432D01*
X371520Y340509D01*
X371479Y340587D01*
X371440Y340668D01*
X371406Y340750D01*
X371374Y340833D01*
X371347Y340918D01*
X371323Y341004D01*
X371303Y341091D01*
X371286Y341178D01*
X371273Y341266D01*
X371265Y341355D01*
X371259Y341444D01*
X371402Y341444D01*
X371408Y341359D01*
X371417Y341274D01*
X371429Y341190D01*
X371446Y341107D01*
X371466Y341024D01*
X371489Y340942D01*
X371516Y340862D01*
X371547Y340782D01*
X371581Y340704D01*
X371618Y340628D01*
X371659Y340553D01*
X371703Y340480D01*
X371751Y340409D01*
X371801Y340341D01*
X371854Y340274D01*
X371910Y340210D01*
X371969Y340149D01*
X372030Y340090D01*
X372094Y340034D01*
X372161Y339981D01*
X372229Y339931D01*
X372300Y339883D01*
X372373Y339839D01*
X372448Y339798D01*
X372524Y339761D01*
X372602Y339727D01*
X372682Y339696D01*
X372762Y339669D01*
X372844Y339646D01*
X372927Y339626D01*
X373010Y339609D01*
X373094Y339597D01*
X373179Y339588D01*
X373264Y339582D01*
D10*
X370800Y341520D02*
X370800Y377080D01*
X421600Y377080D02*
X421600Y341520D01*
D12*
X419135Y338295D02*
X419135Y339668D01*
X419136Y339668D02*
X419219Y339673D01*
X419303Y339682D01*
X419385Y339695D01*
X419467Y339711D01*
X419548Y339731D01*
X419629Y339755D01*
X419708Y339783D01*
X419785Y339814D01*
X419861Y339848D01*
X419936Y339886D01*
X420009Y339927D01*
X420080Y339972D01*
X420149Y340019D01*
X420215Y340070D01*
X420279Y340123D01*
X420341Y340180D01*
X420400Y340239D01*
X420457Y340301D01*
X420510Y340365D01*
X420561Y340431D01*
X420608Y340500D01*
X420653Y340571D01*
X420694Y340644D01*
X420732Y340719D01*
X420766Y340795D01*
X420797Y340872D01*
X420825Y340951D01*
X420849Y341032D01*
X420869Y341113D01*
X420885Y341195D01*
X420898Y341277D01*
X420907Y341361D01*
X420912Y341444D01*
X422285Y341445D01*
X422285Y341444D01*
X422281Y341332D01*
X422272Y341221D01*
X422260Y341110D01*
X422244Y340999D01*
X422224Y340890D01*
X422200Y340780D01*
X422173Y340672D01*
X422141Y340565D01*
X422106Y340459D01*
X422068Y340354D01*
X422026Y340250D01*
X421980Y340149D01*
X421931Y340048D01*
X421878Y339950D01*
X421822Y339853D01*
X421763Y339758D01*
X421700Y339666D01*
X421634Y339576D01*
X421565Y339488D01*
X421494Y339402D01*
X421419Y339319D01*
X421341Y339239D01*
X421261Y339161D01*
X421178Y339086D01*
X421092Y339015D01*
X421004Y338946D01*
X420914Y338880D01*
X420822Y338817D01*
X420727Y338758D01*
X420630Y338702D01*
X420532Y338649D01*
X420431Y338600D01*
X420330Y338554D01*
X420226Y338512D01*
X420121Y338474D01*
X420015Y338439D01*
X419908Y338407D01*
X419800Y338380D01*
X419690Y338356D01*
X419581Y338336D01*
X419470Y338320D01*
X419359Y338308D01*
X419248Y338299D01*
X419136Y338295D01*
X419136Y338438D01*
X419245Y338443D01*
X419354Y338451D01*
X419462Y338463D01*
X419570Y338479D01*
X419677Y338499D01*
X419784Y338523D01*
X419889Y338551D01*
X419994Y338582D01*
X420097Y338617D01*
X420199Y338655D01*
X420300Y338697D01*
X420399Y338743D01*
X420496Y338792D01*
X420592Y338845D01*
X420686Y338900D01*
X420777Y338960D01*
X420867Y339022D01*
X420954Y339087D01*
X421039Y339156D01*
X421121Y339227D01*
X421201Y339302D01*
X421278Y339379D01*
X421353Y339459D01*
X421424Y339541D01*
X421493Y339626D01*
X421558Y339713D01*
X421620Y339803D01*
X421680Y339894D01*
X421735Y339988D01*
X421788Y340084D01*
X421837Y340181D01*
X421883Y340280D01*
X421925Y340381D01*
X421963Y340483D01*
X421998Y340586D01*
X422029Y340691D01*
X422057Y340796D01*
X422081Y340903D01*
X422101Y341010D01*
X422117Y341118D01*
X422129Y341226D01*
X422137Y341335D01*
X422142Y341444D01*
X421999Y341444D01*
X421994Y341338D01*
X421986Y341232D01*
X421974Y341126D01*
X421957Y341021D01*
X421937Y340917D01*
X421914Y340813D01*
X421886Y340710D01*
X421855Y340609D01*
X421820Y340508D01*
X421782Y340409D01*
X421740Y340311D01*
X421695Y340215D01*
X421646Y340121D01*
X421593Y340028D01*
X421538Y339937D01*
X421479Y339849D01*
X421417Y339763D01*
X421352Y339678D01*
X421284Y339597D01*
X421213Y339518D01*
X421139Y339441D01*
X421062Y339367D01*
X420983Y339296D01*
X420902Y339228D01*
X420817Y339163D01*
X420731Y339101D01*
X420643Y339042D01*
X420552Y338987D01*
X420459Y338934D01*
X420365Y338885D01*
X420269Y338840D01*
X420171Y338798D01*
X420072Y338760D01*
X419971Y338725D01*
X419870Y338694D01*
X419767Y338666D01*
X419663Y338643D01*
X419559Y338623D01*
X419454Y338606D01*
X419348Y338594D01*
X419242Y338586D01*
X419136Y338581D01*
X419136Y338724D01*
X419239Y338729D01*
X419342Y338737D01*
X419445Y338750D01*
X419547Y338766D01*
X419649Y338786D01*
X419750Y338809D01*
X419849Y338837D01*
X419948Y338868D01*
X420045Y338902D01*
X420142Y338941D01*
X420236Y338982D01*
X420329Y339028D01*
X420421Y339076D01*
X420510Y339128D01*
X420597Y339183D01*
X420683Y339242D01*
X420766Y339303D01*
X420847Y339368D01*
X420925Y339436D01*
X421001Y339506D01*
X421074Y339579D01*
X421144Y339655D01*
X421212Y339733D01*
X421277Y339814D01*
X421338Y339897D01*
X421397Y339983D01*
X421452Y340070D01*
X421504Y340159D01*
X421552Y340251D01*
X421598Y340344D01*
X421639Y340438D01*
X421678Y340535D01*
X421712Y340632D01*
X421743Y340731D01*
X421771Y340830D01*
X421794Y340931D01*
X421814Y341033D01*
X421830Y341135D01*
X421843Y341238D01*
X421851Y341341D01*
X421856Y341444D01*
X421713Y341444D01*
X421708Y341344D01*
X421700Y341244D01*
X421687Y341144D01*
X421671Y341045D01*
X421651Y340946D01*
X421628Y340849D01*
X421601Y340752D01*
X421570Y340657D01*
X421535Y340562D01*
X421497Y340469D01*
X421456Y340378D01*
X421411Y340288D01*
X421362Y340200D01*
X421311Y340114D01*
X421256Y340030D01*
X421198Y339948D01*
X421137Y339868D01*
X421073Y339791D01*
X421006Y339716D01*
X420937Y339643D01*
X420864Y339574D01*
X420789Y339507D01*
X420712Y339443D01*
X420632Y339382D01*
X420550Y339324D01*
X420466Y339269D01*
X420380Y339218D01*
X420292Y339169D01*
X420202Y339124D01*
X420111Y339083D01*
X420018Y339045D01*
X419923Y339010D01*
X419828Y338979D01*
X419731Y338952D01*
X419634Y338929D01*
X419535Y338909D01*
X419436Y338893D01*
X419336Y338880D01*
X419236Y338872D01*
X419136Y338867D01*
X419136Y339010D01*
X419236Y339015D01*
X419335Y339024D01*
X419434Y339037D01*
X419532Y339054D01*
X419630Y339075D01*
X419727Y339099D01*
X419822Y339128D01*
X419917Y339160D01*
X420010Y339196D01*
X420102Y339235D01*
X420191Y339278D01*
X420280Y339325D01*
X420366Y339375D01*
X420450Y339429D01*
X420532Y339486D01*
X420612Y339546D01*
X420689Y339609D01*
X420764Y339675D01*
X420836Y339744D01*
X420905Y339816D01*
X420971Y339891D01*
X421034Y339968D01*
X421094Y340048D01*
X421151Y340130D01*
X421205Y340214D01*
X421255Y340300D01*
X421302Y340389D01*
X421345Y340478D01*
X421384Y340570D01*
X421420Y340663D01*
X421452Y340758D01*
X421481Y340853D01*
X421505Y340950D01*
X421526Y341048D01*
X421543Y341146D01*
X421556Y341245D01*
X421565Y341344D01*
X421570Y341444D01*
X421427Y341444D01*
X421422Y341348D01*
X421413Y341252D01*
X421400Y341156D01*
X421383Y341061D01*
X421363Y340967D01*
X421338Y340874D01*
X421310Y340782D01*
X421278Y340691D01*
X421242Y340601D01*
X421203Y340513D01*
X421160Y340426D01*
X421114Y340342D01*
X421064Y340259D01*
X421011Y340179D01*
X420955Y340100D01*
X420896Y340024D01*
X420834Y339951D01*
X420768Y339880D01*
X420700Y339812D01*
X420629Y339746D01*
X420556Y339684D01*
X420480Y339625D01*
X420401Y339569D01*
X420321Y339516D01*
X420238Y339466D01*
X420154Y339420D01*
X420067Y339377D01*
X419979Y339338D01*
X419889Y339302D01*
X419798Y339270D01*
X419706Y339242D01*
X419613Y339217D01*
X419519Y339197D01*
X419424Y339180D01*
X419328Y339167D01*
X419232Y339158D01*
X419136Y339153D01*
X419136Y339296D01*
X419229Y339301D01*
X419321Y339310D01*
X419413Y339323D01*
X419504Y339340D01*
X419595Y339360D01*
X419685Y339384D01*
X419773Y339412D01*
X419861Y339444D01*
X419946Y339479D01*
X420031Y339518D01*
X420114Y339560D01*
X420194Y339606D01*
X420273Y339655D01*
X420350Y339707D01*
X420425Y339763D01*
X420497Y339821D01*
X420566Y339882D01*
X420633Y339947D01*
X420698Y340014D01*
X420759Y340083D01*
X420817Y340155D01*
X420873Y340230D01*
X420925Y340307D01*
X420974Y340386D01*
X421020Y340466D01*
X421062Y340549D01*
X421101Y340634D01*
X421136Y340719D01*
X421168Y340807D01*
X421196Y340895D01*
X421220Y340985D01*
X421240Y341076D01*
X421257Y341167D01*
X421270Y341259D01*
X421279Y341351D01*
X421284Y341444D01*
X421141Y341444D01*
X421135Y341355D01*
X421127Y341266D01*
X421114Y341178D01*
X421097Y341091D01*
X421077Y341004D01*
X421053Y340918D01*
X421026Y340833D01*
X420994Y340750D01*
X420960Y340668D01*
X420921Y340587D01*
X420880Y340509D01*
X420835Y340432D01*
X420787Y340357D01*
X420735Y340284D01*
X420681Y340213D01*
X420624Y340145D01*
X420563Y340080D01*
X420500Y340017D01*
X420435Y339956D01*
X420367Y339899D01*
X420296Y339845D01*
X420223Y339793D01*
X420148Y339745D01*
X420071Y339700D01*
X419993Y339659D01*
X419912Y339620D01*
X419830Y339586D01*
X419747Y339554D01*
X419662Y339527D01*
X419576Y339503D01*
X419489Y339483D01*
X419402Y339466D01*
X419314Y339453D01*
X419225Y339445D01*
X419136Y339439D01*
X419136Y339582D01*
X419221Y339588D01*
X419306Y339597D01*
X419390Y339609D01*
X419473Y339626D01*
X419556Y339646D01*
X419638Y339669D01*
X419718Y339696D01*
X419798Y339727D01*
X419876Y339761D01*
X419952Y339798D01*
X420027Y339839D01*
X420100Y339883D01*
X420171Y339931D01*
X420239Y339981D01*
X420306Y340034D01*
X420370Y340090D01*
X420431Y340149D01*
X420490Y340210D01*
X420546Y340274D01*
X420599Y340341D01*
X420649Y340409D01*
X420697Y340480D01*
X420741Y340553D01*
X420782Y340628D01*
X420819Y340704D01*
X420853Y340782D01*
X420884Y340862D01*
X420911Y340942D01*
X420934Y341024D01*
X420954Y341107D01*
X420971Y341190D01*
X420983Y341274D01*
X420992Y341359D01*
X420998Y341444D01*
D10*
X410170Y349140D02*
X410172Y349263D01*
X410178Y349387D01*
X410188Y349510D01*
X410202Y349632D01*
X410220Y349754D01*
X410242Y349876D01*
X410267Y349996D01*
X410297Y350116D01*
X410331Y350235D01*
X410368Y350353D01*
X410409Y350469D01*
X410454Y350584D01*
X410503Y350697D01*
X410555Y350809D01*
X410611Y350919D01*
X410670Y351027D01*
X410733Y351133D01*
X410799Y351237D01*
X410869Y351339D01*
X410942Y351439D01*
X411018Y351536D01*
X411097Y351631D01*
X411179Y351723D01*
X411264Y351812D01*
X411352Y351899D01*
X411443Y351982D01*
X411536Y352063D01*
X411632Y352141D01*
X411731Y352215D01*
X411831Y352286D01*
X411934Y352354D01*
X412039Y352419D01*
X412147Y352480D01*
X412256Y352538D01*
X412367Y352592D01*
X412479Y352642D01*
X412594Y352689D01*
X412709Y352732D01*
X412826Y352771D01*
X412944Y352807D01*
X413064Y352838D01*
X413184Y352866D01*
X413305Y352890D01*
X413427Y352910D01*
X413549Y352926D01*
X413672Y352938D01*
X413795Y352946D01*
X413918Y352950D01*
X414042Y352950D01*
X414165Y352946D01*
X414288Y352938D01*
X414411Y352926D01*
X414533Y352910D01*
X414655Y352890D01*
X414776Y352866D01*
X414896Y352838D01*
X415016Y352807D01*
X415134Y352771D01*
X415251Y352732D01*
X415366Y352689D01*
X415481Y352642D01*
X415593Y352592D01*
X415704Y352538D01*
X415813Y352480D01*
X415921Y352419D01*
X416026Y352354D01*
X416129Y352286D01*
X416229Y352215D01*
X416328Y352141D01*
X416424Y352063D01*
X416517Y351982D01*
X416608Y351899D01*
X416696Y351812D01*
X416781Y351723D01*
X416863Y351631D01*
X416942Y351536D01*
X417018Y351439D01*
X417091Y351339D01*
X417161Y351237D01*
X417227Y351133D01*
X417290Y351027D01*
X417349Y350919D01*
X417405Y350809D01*
X417457Y350697D01*
X417506Y350584D01*
X417551Y350469D01*
X417592Y350353D01*
X417629Y350235D01*
X417663Y350116D01*
X417693Y349996D01*
X417718Y349876D01*
X417740Y349754D01*
X417758Y349632D01*
X417772Y349510D01*
X417782Y349387D01*
X417788Y349263D01*
X417790Y349140D01*
X417788Y349017D01*
X417782Y348893D01*
X417772Y348770D01*
X417758Y348648D01*
X417740Y348526D01*
X417718Y348404D01*
X417693Y348284D01*
X417663Y348164D01*
X417629Y348045D01*
X417592Y347927D01*
X417551Y347811D01*
X417506Y347696D01*
X417457Y347583D01*
X417405Y347471D01*
X417349Y347361D01*
X417290Y347253D01*
X417227Y347147D01*
X417161Y347043D01*
X417091Y346941D01*
X417018Y346841D01*
X416942Y346744D01*
X416863Y346649D01*
X416781Y346557D01*
X416696Y346468D01*
X416608Y346381D01*
X416517Y346298D01*
X416424Y346217D01*
X416328Y346139D01*
X416229Y346065D01*
X416129Y345994D01*
X416026Y345926D01*
X415921Y345861D01*
X415813Y345800D01*
X415704Y345742D01*
X415593Y345688D01*
X415481Y345638D01*
X415366Y345591D01*
X415251Y345548D01*
X415134Y345509D01*
X415016Y345473D01*
X414896Y345442D01*
X414776Y345414D01*
X414655Y345390D01*
X414533Y345370D01*
X414411Y345354D01*
X414288Y345342D01*
X414165Y345334D01*
X414042Y345330D01*
X413918Y345330D01*
X413795Y345334D01*
X413672Y345342D01*
X413549Y345354D01*
X413427Y345370D01*
X413305Y345390D01*
X413184Y345414D01*
X413064Y345442D01*
X412944Y345473D01*
X412826Y345509D01*
X412709Y345548D01*
X412594Y345591D01*
X412479Y345638D01*
X412367Y345688D01*
X412256Y345742D01*
X412147Y345800D01*
X412039Y345861D01*
X411934Y345926D01*
X411831Y345994D01*
X411731Y346065D01*
X411632Y346139D01*
X411536Y346217D01*
X411443Y346298D01*
X411352Y346381D01*
X411264Y346468D01*
X411179Y346557D01*
X411097Y346649D01*
X411018Y346744D01*
X410942Y346841D01*
X410869Y346941D01*
X410799Y347043D01*
X410733Y347147D01*
X410670Y347253D01*
X410611Y347361D01*
X410555Y347471D01*
X410503Y347583D01*
X410454Y347696D01*
X410409Y347811D01*
X410368Y347927D01*
X410331Y348045D01*
X410297Y348164D01*
X410267Y348284D01*
X410242Y348404D01*
X410220Y348526D01*
X410202Y348648D01*
X410188Y348770D01*
X410178Y348893D01*
X410172Y349017D01*
X410170Y349140D01*
X358672Y368512D02*
X358672Y371393D01*
X358672Y369953D02*
X367315Y369953D01*
X367315Y371393D02*
X367315Y368512D01*
X367315Y379070D02*
X365875Y380511D01*
X367315Y379070D02*
X367315Y376189D01*
X365875Y374749D01*
X360113Y374749D01*
X358672Y376189D01*
X358672Y379070D01*
X360113Y380511D01*
X364434Y384104D02*
X367315Y386985D01*
X358672Y386985D01*
X358672Y384104D02*
X358672Y389866D01*
X315188Y301065D02*
X315188Y292422D01*
X315188Y301065D02*
X310866Y301065D01*
X309426Y299625D01*
X309426Y296744D01*
X310866Y295303D01*
X315188Y295303D01*
X312307Y295303D02*
X309426Y292422D01*
X305833Y298184D02*
X302952Y301065D01*
X302952Y292422D01*
X305833Y292422D02*
X300071Y292422D01*
X296478Y292422D02*
X290715Y292422D01*
X290715Y298184D02*
X296478Y292422D01*
X290715Y298184D02*
X290715Y299625D01*
X292156Y301065D01*
X295037Y301065D01*
X296478Y299625D01*
D13*
X321548Y348369D02*
X323116Y349937D01*
X326251Y349937D01*
X327819Y348369D01*
X327819Y342099D01*
X326251Y340531D01*
X323116Y340531D01*
X321548Y342099D01*
X318464Y342099D02*
X316896Y340531D01*
X313761Y340531D01*
X312193Y342099D01*
X312193Y348369D01*
X313761Y349937D01*
X316896Y349937D01*
X318464Y348369D01*
X318464Y346802D01*
X316896Y345234D01*
X312193Y345234D01*
D10*
X394788Y499322D02*
X394788Y507965D01*
X390466Y507965D01*
X389026Y506525D01*
X389026Y503644D01*
X390466Y502203D01*
X394788Y502203D01*
X391907Y502203D02*
X389026Y499322D01*
X385433Y505084D02*
X382552Y507965D01*
X382552Y499322D01*
X385433Y499322D02*
X379671Y499322D01*
X376078Y506525D02*
X374637Y507965D01*
X371756Y507965D01*
X370315Y506525D01*
X370315Y505084D01*
X371756Y503644D01*
X373197Y503644D01*
X371756Y503644D02*
X370315Y502203D01*
X370315Y500763D01*
X371756Y499322D01*
X374637Y499322D01*
X376078Y500763D01*
X433176Y447015D02*
X434616Y448455D01*
X437497Y448455D01*
X438938Y447015D01*
X438938Y441253D01*
X437497Y439812D01*
X434616Y439812D01*
X433176Y441253D01*
X429583Y445574D02*
X426702Y448455D01*
X426702Y439812D01*
X429583Y439812D02*
X423821Y439812D01*
X420228Y445574D02*
X417347Y448455D01*
X417347Y439812D01*
X420228Y439812D02*
X414465Y439812D01*
X188195Y775218D02*
X186755Y776659D01*
X188195Y775218D02*
X188195Y772337D01*
X186755Y770896D01*
X180993Y770896D01*
X179552Y772337D01*
X179552Y775218D01*
X180993Y776659D01*
X185314Y780252D02*
X188195Y783133D01*
X179552Y783133D01*
X179552Y780252D02*
X179552Y786014D01*
X179552Y793929D02*
X188195Y793929D01*
X183874Y789607D01*
X183874Y795369D01*
X322355Y786659D02*
X323795Y785218D01*
X323795Y782337D01*
X322355Y780896D01*
X316593Y780896D01*
X315152Y782337D01*
X315152Y785218D01*
X316593Y786659D01*
X320914Y790252D02*
X323795Y793133D01*
X315152Y793133D01*
X315152Y790252D02*
X315152Y796014D01*
X323795Y799607D02*
X323795Y805369D01*
X323795Y799607D02*
X319474Y799607D01*
X320914Y802488D01*
X320914Y803929D01*
X319474Y805369D01*
X316593Y805369D01*
X315152Y803929D01*
X315152Y801047D01*
X316593Y799607D01*
X238638Y280505D02*
X238638Y271862D01*
X238638Y280505D02*
X234316Y280505D01*
X232876Y279065D01*
X232876Y276184D01*
X234316Y274743D01*
X238638Y274743D01*
X235757Y274743D02*
X232876Y271862D01*
X229283Y277624D02*
X226402Y280505D01*
X226402Y271862D01*
X229283Y271862D02*
X223521Y271862D01*
X215606Y271862D02*
X215606Y280505D01*
X219928Y276184D01*
X214165Y276184D01*
X451515Y394624D02*
X452955Y393184D01*
X452955Y390303D01*
X451515Y388862D01*
X445753Y388862D01*
X444312Y390303D01*
X444312Y393184D01*
X445753Y394624D01*
X450074Y398217D02*
X452955Y401098D01*
X444312Y401098D01*
X444312Y398217D02*
X444312Y403979D01*
X451515Y410454D02*
X452955Y413335D01*
X451515Y410454D02*
X448634Y407572D01*
X445753Y407572D01*
X444312Y409013D01*
X444312Y411894D01*
X445753Y413335D01*
X447193Y413335D01*
X448634Y411894D01*
X448634Y407572D01*
X484915Y366624D02*
X486355Y365184D01*
X486355Y362303D01*
X484915Y360862D01*
X479153Y360862D01*
X477712Y362303D01*
X477712Y365184D01*
X479153Y366624D01*
X483474Y370217D02*
X486355Y373098D01*
X477712Y373098D01*
X477712Y370217D02*
X477712Y375979D01*
X486355Y379572D02*
X486355Y385335D01*
X484915Y385335D01*
X479153Y379572D01*
X477712Y379572D01*
X471665Y360012D02*
X463022Y360012D01*
X471665Y360012D02*
X471665Y364334D01*
X470225Y365774D01*
X467344Y365774D01*
X465903Y364334D01*
X465903Y360012D01*
X465903Y362893D02*
X463022Y365774D01*
X468784Y369367D02*
X471665Y372248D01*
X463022Y372248D01*
X463022Y369367D02*
X463022Y375129D01*
X471665Y378722D02*
X471665Y384485D01*
X471665Y378722D02*
X467344Y378722D01*
X468784Y381604D01*
X468784Y383044D01*
X467344Y384485D01*
X464463Y384485D01*
X463022Y383044D01*
X463022Y380163D01*
X464463Y378722D01*
X426316Y282655D02*
X424876Y281215D01*
X426316Y282655D02*
X429197Y282655D01*
X430638Y281215D01*
X430638Y275453D01*
X429197Y274012D01*
X426316Y274012D01*
X424876Y275453D01*
X421283Y279774D02*
X418402Y282655D01*
X418402Y274012D01*
X421283Y274012D02*
X415521Y274012D01*
X411928Y281215D02*
X410487Y282655D01*
X407606Y282655D01*
X406165Y281215D01*
X406165Y279774D01*
X407606Y278334D01*
X406165Y276893D01*
X406165Y275453D01*
X407606Y274012D01*
X410487Y274012D01*
X411928Y275453D01*
X411928Y276893D01*
X410487Y278334D01*
X411928Y279774D01*
X411928Y281215D01*
X410487Y278334D02*
X407606Y278334D01*
X425807Y598012D02*
X428688Y598012D01*
X427247Y598012D02*
X427247Y606655D01*
X425807Y606655D02*
X428688Y606655D01*
X421011Y606655D02*
X418130Y606655D01*
X421011Y606655D02*
X422451Y605215D01*
X422451Y599453D01*
X421011Y598012D01*
X418130Y598012D01*
X416689Y599453D01*
X416689Y605215D01*
X418130Y606655D01*
X413096Y603774D02*
X410215Y606655D01*
X410215Y598012D01*
X413096Y598012D02*
X407334Y598012D01*
X324988Y609522D02*
X324988Y618165D01*
X320666Y618165D01*
X319226Y616725D01*
X319226Y613844D01*
X320666Y612403D01*
X324988Y612403D01*
X322107Y612403D02*
X319226Y609522D01*
X315633Y615284D02*
X312752Y618165D01*
X312752Y609522D01*
X315633Y609522D02*
X309871Y609522D01*
X306278Y618165D02*
X300515Y618165D01*
X300515Y616725D01*
X306278Y610963D01*
X306278Y609522D01*
X355988Y609422D02*
X355988Y618065D01*
X351666Y618065D01*
X350226Y616625D01*
X350226Y613744D01*
X351666Y612303D01*
X355988Y612303D01*
X353107Y612303D02*
X350226Y609422D01*
X346633Y615184D02*
X343752Y618065D01*
X343752Y609422D01*
X346633Y609422D02*
X340871Y609422D01*
X337278Y616625D02*
X335837Y618065D01*
X332956Y618065D01*
X331515Y616625D01*
X331515Y615184D01*
X332956Y613744D01*
X331515Y612303D01*
X331515Y610863D01*
X332956Y609422D01*
X335837Y609422D01*
X337278Y610863D01*
X337278Y612303D01*
X335837Y613744D01*
X337278Y615184D01*
X337278Y616625D01*
X335837Y613744D02*
X332956Y613744D01*
X497488Y597465D02*
X497488Y588822D01*
X497488Y597465D02*
X493166Y597465D01*
X491726Y596025D01*
X491726Y593144D01*
X493166Y591703D01*
X497488Y591703D01*
X494607Y591703D02*
X491726Y588822D01*
X488133Y594584D02*
X485252Y597465D01*
X485252Y588822D01*
X488133Y588822D02*
X482371Y588822D01*
X478778Y590263D02*
X477337Y588822D01*
X474456Y588822D01*
X473015Y590263D01*
X473015Y596025D01*
X474456Y597465D01*
X477337Y597465D01*
X478778Y596025D01*
X478778Y594584D01*
X477337Y593144D01*
X473015Y593144D01*
X326488Y592222D02*
X326488Y600865D01*
X322166Y600865D01*
X320726Y599425D01*
X320726Y596544D01*
X322166Y595103D01*
X326488Y595103D01*
X323607Y595103D02*
X320726Y592222D01*
X317133Y592222D02*
X311371Y592222D01*
X317133Y592222D02*
X311371Y597984D01*
X311371Y599425D01*
X312811Y600865D01*
X315692Y600865D01*
X317133Y599425D01*
X307778Y599425D02*
X307778Y593663D01*
X307778Y599425D02*
X306337Y600865D01*
X303456Y600865D01*
X302015Y599425D01*
X302015Y593663D01*
X303456Y592222D01*
X306337Y592222D01*
X307778Y593663D01*
X302015Y599425D01*
X350376Y600915D02*
X351816Y602355D01*
X354697Y602355D01*
X356138Y600915D01*
X356138Y595153D01*
X354697Y593712D01*
X351816Y593712D01*
X350376Y595153D01*
X346783Y599474D02*
X343902Y602355D01*
X343902Y593712D01*
X346783Y593712D02*
X341021Y593712D01*
X337428Y595153D02*
X335987Y593712D01*
X333106Y593712D01*
X331665Y595153D01*
X331665Y600915D01*
X333106Y602355D01*
X335987Y602355D01*
X337428Y600915D01*
X337428Y599474D01*
X335987Y598034D01*
X331665Y598034D01*
X30082Y762145D02*
X28641Y760705D01*
X30082Y762145D02*
X32963Y762145D01*
X34404Y760705D01*
X34404Y754943D01*
X32963Y753502D01*
X30082Y753502D01*
X28641Y754943D01*
X25048Y753502D02*
X19286Y753502D01*
X25048Y753502D02*
X19286Y759264D01*
X19286Y760705D01*
X20727Y762145D01*
X23608Y762145D01*
X25048Y760705D01*
X15693Y760705D02*
X15693Y754943D01*
X15693Y760705D02*
X14253Y762145D01*
X11372Y762145D01*
X9931Y760705D01*
X9931Y754943D01*
X11372Y753502D01*
X14253Y753502D01*
X15693Y754943D01*
X9931Y760705D01*
X83638Y765262D02*
X83638Y773905D01*
X79316Y773905D01*
X77876Y772465D01*
X77876Y769584D01*
X79316Y768143D01*
X83638Y768143D01*
X80757Y768143D02*
X77876Y765262D01*
X74283Y765262D02*
X68521Y765262D01*
X74283Y765262D02*
X68521Y771024D01*
X68521Y772465D01*
X69961Y773905D01*
X72842Y773905D01*
X74283Y772465D01*
X64928Y771024D02*
X62047Y773905D01*
X62047Y765262D01*
X64928Y765262D02*
X59165Y765262D01*
D14*
X182250Y436806D02*
X182250Y365594D01*
X120150Y365594D02*
X120150Y436806D01*
D15*
X161200Y406630D02*
X151200Y392900D01*
X141200Y406630D01*
X161200Y406630D01*
D16*
X151200Y386450D03*
D10*
X175552Y337372D02*
X184195Y337372D01*
X175552Y337372D02*
X175552Y341694D01*
X176993Y343134D01*
X182755Y343134D01*
X184195Y341694D01*
X184195Y337372D01*
X182755Y349608D02*
X184195Y352489D01*
X182755Y349608D02*
X179874Y346727D01*
X176993Y346727D01*
X175552Y348168D01*
X175552Y351049D01*
X176993Y352489D01*
X178433Y352489D01*
X179874Y351049D01*
X179874Y346727D01*
X440238Y425762D02*
X440238Y434405D01*
X440238Y425762D02*
X435916Y425762D01*
X434476Y427203D01*
X434476Y432965D01*
X435916Y434405D01*
X440238Y434405D01*
X430883Y432965D02*
X429442Y434405D01*
X426561Y434405D01*
X425121Y432965D01*
X425121Y431524D01*
X426561Y430084D01*
X425121Y428643D01*
X425121Y427203D01*
X426561Y425762D01*
X429442Y425762D01*
X430883Y427203D01*
X430883Y428643D01*
X429442Y430084D01*
X430883Y431524D01*
X430883Y432965D01*
X429442Y430084D02*
X426561Y430084D01*
X350448Y383745D02*
X350448Y375102D01*
X346127Y375102D01*
X344686Y376543D01*
X344686Y382305D01*
X346127Y383745D01*
X350448Y383745D01*
X341093Y375102D02*
X335331Y375102D01*
X341093Y375102D02*
X335331Y380864D01*
X335331Y382305D01*
X336772Y383745D01*
X339653Y383745D01*
X341093Y382305D01*
D14*
X380992Y314202D02*
X380992Y302508D01*
X375145Y302508D01*
X373196Y304457D01*
X373196Y312253D01*
X375145Y314202D01*
X380992Y314202D01*
X363451Y314202D02*
X363451Y302508D01*
X369298Y308355D02*
X363451Y314202D01*
X361502Y308355D02*
X369298Y308355D01*
D17*
X326825Y485237D02*
X333175Y490000D01*
X326825Y490000D02*
X326825Y485237D01*
X326825Y490000D02*
X326825Y494763D01*
X333175Y490000D01*
X333175Y485237D01*
X333175Y490000D02*
X333175Y494763D01*
X326825Y490000D02*
X324387Y490000D01*
X333175Y490000D02*
X335613Y490000D01*
D10*
X334718Y502192D02*
X334718Y510835D01*
X334718Y502192D02*
X330396Y502192D01*
X328956Y503633D01*
X328956Y509395D01*
X330396Y510835D01*
X334718Y510835D01*
X325363Y510835D02*
X319601Y510835D01*
X319601Y509395D01*
X325363Y503633D01*
X325363Y502192D01*
D15*
X337500Y444000D02*
X332500Y434000D01*
X327500Y444000D01*
X337500Y444000D01*
D18*
X332500Y433412D03*
D10*
X341748Y464692D02*
X341748Y473335D01*
X341748Y464692D02*
X337426Y464692D01*
X335986Y466133D01*
X335986Y471895D01*
X337426Y473335D01*
X341748Y473335D01*
X332393Y471895D02*
X330952Y473335D01*
X328071Y473335D01*
X326631Y471895D01*
X326631Y470454D01*
X328071Y469014D01*
X329512Y469014D01*
X328071Y469014D02*
X326631Y467573D01*
X326631Y466133D01*
X328071Y464692D01*
X330952Y464692D01*
X332393Y466133D01*
X314938Y462462D02*
X314938Y471105D01*
X310616Y471105D01*
X309176Y469665D01*
X309176Y466784D01*
X310616Y465343D01*
X314938Y465343D01*
X312057Y465343D02*
X309176Y462462D01*
X305583Y469665D02*
X304142Y471105D01*
X301261Y471105D01*
X299821Y469665D01*
X299821Y468224D01*
X301261Y466784D01*
X299821Y465343D01*
X299821Y463903D01*
X301261Y462462D01*
X304142Y462462D01*
X305583Y463903D01*
X305583Y465343D01*
X304142Y466784D01*
X305583Y468224D01*
X305583Y469665D01*
X304142Y466784D02*
X301261Y466784D01*
X342902Y388896D02*
X351545Y388896D01*
X351545Y393218D01*
X350105Y394659D01*
X347224Y394659D01*
X345783Y393218D01*
X345783Y388896D01*
X345783Y391778D02*
X342902Y394659D01*
X342902Y398252D02*
X342902Y404014D01*
X342902Y398252D02*
X348664Y404014D01*
X350105Y404014D01*
X351545Y402573D01*
X351545Y399692D01*
X350105Y398252D01*
X342902Y407607D02*
X342902Y413369D01*
X342902Y407607D02*
X348664Y413369D01*
X350105Y413369D01*
X351545Y411929D01*
X351545Y409047D01*
X350105Y407607D01*
X460976Y711715D02*
X462416Y713155D01*
X465297Y713155D01*
X466738Y711715D01*
X466738Y705953D01*
X465297Y704512D01*
X462416Y704512D01*
X460976Y705953D01*
X457383Y704512D02*
X451621Y704512D01*
X457383Y704512D02*
X451621Y710274D01*
X451621Y711715D01*
X453061Y713155D01*
X455942Y713155D01*
X457383Y711715D01*
X448028Y704512D02*
X442265Y704512D01*
X442265Y710274D02*
X448028Y704512D01*
X442265Y710274D02*
X442265Y711715D01*
X443706Y713155D01*
X446587Y713155D01*
X448028Y711715D01*
X358155Y675084D02*
X356715Y676524D01*
X358155Y675084D02*
X358155Y672203D01*
X356715Y670762D01*
X350953Y670762D01*
X349512Y672203D01*
X349512Y675084D01*
X350953Y676524D01*
X349512Y680117D02*
X349512Y685879D01*
X349512Y680117D02*
X355274Y685879D01*
X356715Y685879D01*
X358155Y684439D01*
X358155Y681558D01*
X356715Y680117D01*
X358155Y693794D02*
X349512Y693794D01*
X353834Y689472D02*
X358155Y693794D01*
X353834Y695235D02*
X353834Y689472D01*
X380745Y783018D02*
X379305Y784459D01*
X380745Y783018D02*
X380745Y780137D01*
X379305Y778696D01*
X373543Y778696D01*
X372102Y780137D01*
X372102Y783018D01*
X373543Y784459D01*
X372102Y788052D02*
X372102Y793814D01*
X372102Y788052D02*
X377864Y793814D01*
X379305Y793814D01*
X380745Y792373D01*
X380745Y789492D01*
X379305Y788052D01*
X380745Y797407D02*
X380745Y803169D01*
X380745Y797407D02*
X376424Y797407D01*
X377864Y800288D01*
X377864Y801729D01*
X376424Y803169D01*
X373543Y803169D01*
X372102Y801729D01*
X372102Y798847D01*
X373543Y797407D01*
X422748Y766545D02*
X422748Y757902D01*
X422748Y766545D02*
X418427Y766545D01*
X416986Y765105D01*
X416986Y762224D01*
X418427Y760783D01*
X422748Y760783D01*
X419867Y760783D02*
X416986Y757902D01*
X413393Y759343D02*
X411953Y757902D01*
X409072Y757902D01*
X407631Y759343D01*
X407631Y765105D01*
X409072Y766545D01*
X411953Y766545D01*
X413393Y765105D01*
X413393Y763664D01*
X411953Y762224D01*
X407631Y762224D01*
X498088Y609565D02*
X498088Y600922D01*
X498088Y609565D02*
X493766Y609565D01*
X492326Y608125D01*
X492326Y605244D01*
X493766Y603803D01*
X498088Y603803D01*
X495207Y603803D02*
X492326Y600922D01*
X488733Y606684D02*
X485852Y609565D01*
X485852Y600922D01*
X488733Y600922D02*
X482971Y600922D01*
X479378Y602363D02*
X479378Y608125D01*
X477937Y609565D01*
X475056Y609565D01*
X473615Y608125D01*
X473615Y602363D01*
X475056Y600922D01*
X477937Y600922D01*
X479378Y602363D01*
X473615Y608125D01*
X227138Y343455D02*
X227138Y334812D01*
X227138Y343455D02*
X222816Y343455D01*
X221376Y342015D01*
X221376Y339134D01*
X222816Y337693D01*
X227138Y337693D01*
X224257Y337693D02*
X221376Y334812D01*
X217783Y340574D02*
X214902Y343455D01*
X214902Y334812D01*
X217783Y334812D02*
X212021Y334812D01*
X205547Y342015D02*
X202665Y343455D01*
X205547Y342015D02*
X208428Y339134D01*
X208428Y336253D01*
X206987Y334812D01*
X204106Y334812D01*
X202665Y336253D01*
X202665Y337693D01*
X204106Y339134D01*
X208428Y339134D01*
X189638Y334812D02*
X189638Y343455D01*
X185316Y343455D01*
X183876Y342015D01*
X183876Y339134D01*
X185316Y337693D01*
X189638Y337693D01*
X186757Y337693D02*
X183876Y334812D01*
X180283Y334812D02*
X174521Y334812D01*
X180283Y334812D02*
X174521Y340574D01*
X174521Y342015D01*
X175961Y343455D01*
X178842Y343455D01*
X180283Y342015D01*
X170928Y342015D02*
X169487Y343455D01*
X166606Y343455D01*
X165165Y342015D01*
X165165Y340574D01*
X166606Y339134D01*
X168047Y339134D01*
X166606Y339134D02*
X165165Y337693D01*
X165165Y336253D01*
X166606Y334812D01*
X169487Y334812D01*
X170928Y336253D01*
X267707Y264565D02*
X267707Y255922D01*
X270588Y264565D02*
X264826Y264565D01*
X261233Y264565D02*
X261233Y255922D01*
X261233Y264565D02*
X256911Y264565D01*
X255471Y263125D01*
X255471Y260244D01*
X256911Y258803D01*
X261233Y258803D01*
X251878Y261684D02*
X248997Y264565D01*
X248997Y255922D01*
X251878Y255922D02*
X246115Y255922D01*
X347707Y360922D02*
X347707Y369565D01*
X350588Y369565D02*
X344826Y369565D01*
X341233Y369565D02*
X341233Y360922D01*
X341233Y369565D02*
X336911Y369565D01*
X335471Y368125D01*
X335471Y365244D01*
X336911Y363803D01*
X341233Y363803D01*
X331878Y360922D02*
X326115Y360922D01*
X326115Y366684D02*
X331878Y360922D01*
X326115Y366684D02*
X326115Y368125D01*
X327556Y369565D01*
X330437Y369565D01*
X331878Y368125D01*
X267707Y279565D02*
X267707Y270922D01*
X270588Y279565D02*
X264826Y279565D01*
X261233Y279565D02*
X261233Y270922D01*
X261233Y279565D02*
X256911Y279565D01*
X255471Y278125D01*
X255471Y275244D01*
X256911Y273803D01*
X261233Y273803D01*
X251878Y278125D02*
X250437Y279565D01*
X247556Y279565D01*
X246115Y278125D01*
X246115Y276684D01*
X247556Y275244D01*
X248997Y275244D01*
X247556Y275244D02*
X246115Y273803D01*
X246115Y272363D01*
X247556Y270922D01*
X250437Y270922D01*
X251878Y272363D01*
X478422Y332293D02*
X487065Y332293D01*
X487065Y329412D02*
X487065Y335174D01*
X487065Y338767D02*
X478422Y338767D01*
X487065Y338767D02*
X487065Y343089D01*
X485625Y344529D01*
X482744Y344529D01*
X481303Y343089D01*
X481303Y338767D01*
X478422Y352444D02*
X487065Y352444D01*
X482744Y348122D01*
X482744Y353885D01*
X457707Y314565D02*
X457707Y305922D01*
X460588Y314565D02*
X454826Y314565D01*
X451233Y314565D02*
X451233Y305922D01*
X451233Y314565D02*
X446911Y314565D01*
X445471Y313125D01*
X445471Y310244D01*
X446911Y308803D01*
X451233Y308803D01*
X441878Y314565D02*
X436115Y314565D01*
X441878Y314565D02*
X441878Y310244D01*
X438997Y311684D01*
X437556Y311684D01*
X436115Y310244D01*
X436115Y307363D01*
X437556Y305922D01*
X440437Y305922D01*
X441878Y307363D01*
M02*
