G04 EAGLE Gerber X2 export*
%TF.Part,Single*%
%TF.FileFunction,Legend,Top,1*%
%TF.FilePolarity,Positive*%
%TF.GenerationSoftware,Autodesk,EAGLE,9.0.0*%
%TF.CreationDate,2019-06-10T11:01:15Z*%
G75*
%MOMM*%
%FSLAX34Y34*%
%LPD*%
%AMOC8*
5,1,8,0,0,1.08239X$1,22.5*%
G01*
%ADD10C,5.000000*%
%ADD11C,0.279400*%
%ADD12C,0.406400*%
%ADD13C,0.152400*%
%ADD14C,0.203200*%
%ADD15C,0.127000*%
%ADD16R,3.810000X0.635000*%
%ADD17R,0.508000X2.032000*%
%ADD18C,0.508000*%
%ADD19R,10.668000X0.762000*%
%ADD20R,1.905000X0.508000*%
%ADD21R,0.762000X0.508000*%
%ADD22C,0.812800*%
%ADD23R,3.302000X0.508000*%
%ADD24R,1.016000X0.635000*%
%ADD25C,0.101600*%
%ADD26C,0.609600*%
%ADD27C,0.177800*%


D10*
X475000Y562500D02*
X25000Y562500D01*
D11*
X291397Y643896D02*
X301396Y643896D01*
X296397Y638897D02*
X296397Y648896D01*
X368897Y821396D02*
X378896Y821396D01*
X373897Y816397D02*
X373897Y826396D01*
D12*
X378200Y153300D02*
X390900Y153300D01*
X378200Y153300D02*
X365500Y153300D01*
X378200Y144410D02*
X390900Y144410D01*
X378200Y144410D02*
X365500Y144410D01*
D13*
X378200Y144410D02*
X378200Y41540D01*
X378200Y153300D02*
X378200Y163460D01*
X398520Y12330D02*
X357880Y12330D01*
X352800Y17410D02*
X352800Y187590D01*
X357880Y192670D02*
X398520Y192670D01*
X403600Y187590D02*
X403600Y17410D01*
X403598Y17270D01*
X403592Y17130D01*
X403583Y16990D01*
X403569Y16851D01*
X403552Y16712D01*
X403531Y16574D01*
X403506Y16436D01*
X403477Y16299D01*
X403445Y16163D01*
X403408Y16028D01*
X403368Y15894D01*
X403325Y15761D01*
X403277Y15629D01*
X403227Y15498D01*
X403172Y15369D01*
X403114Y15242D01*
X403053Y15116D01*
X402988Y14992D01*
X402919Y14870D01*
X402848Y14750D01*
X402773Y14632D01*
X402695Y14515D01*
X402613Y14401D01*
X402529Y14290D01*
X402441Y14181D01*
X402351Y14074D01*
X402257Y13969D01*
X402161Y13868D01*
X402062Y13769D01*
X401961Y13673D01*
X401856Y13579D01*
X401749Y13489D01*
X401640Y13401D01*
X401529Y13317D01*
X401415Y13235D01*
X401298Y13157D01*
X401180Y13082D01*
X401060Y13011D01*
X400938Y12942D01*
X400814Y12877D01*
X400688Y12816D01*
X400561Y12758D01*
X400432Y12703D01*
X400301Y12653D01*
X400169Y12605D01*
X400036Y12562D01*
X399902Y12522D01*
X399767Y12485D01*
X399631Y12453D01*
X399494Y12424D01*
X399356Y12399D01*
X399218Y12378D01*
X399079Y12361D01*
X398940Y12347D01*
X398800Y12338D01*
X398660Y12332D01*
X398520Y12330D01*
X357880Y12330D02*
X357740Y12332D01*
X357600Y12338D01*
X357460Y12347D01*
X357321Y12361D01*
X357182Y12378D01*
X357044Y12399D01*
X356906Y12424D01*
X356769Y12453D01*
X356633Y12485D01*
X356498Y12522D01*
X356364Y12562D01*
X356231Y12605D01*
X356099Y12653D01*
X355968Y12703D01*
X355839Y12758D01*
X355712Y12816D01*
X355586Y12877D01*
X355462Y12942D01*
X355340Y13011D01*
X355220Y13082D01*
X355102Y13157D01*
X354985Y13235D01*
X354871Y13317D01*
X354760Y13401D01*
X354651Y13489D01*
X354544Y13579D01*
X354439Y13673D01*
X354338Y13769D01*
X354239Y13868D01*
X354143Y13969D01*
X354049Y14074D01*
X353959Y14181D01*
X353871Y14290D01*
X353787Y14401D01*
X353705Y14515D01*
X353627Y14632D01*
X353552Y14750D01*
X353481Y14870D01*
X353412Y14992D01*
X353347Y15116D01*
X353286Y15242D01*
X353228Y15369D01*
X353173Y15498D01*
X353123Y15629D01*
X353075Y15761D01*
X353032Y15894D01*
X352992Y16028D01*
X352955Y16163D01*
X352923Y16299D01*
X352894Y16436D01*
X352869Y16574D01*
X352848Y16712D01*
X352831Y16851D01*
X352817Y16990D01*
X352808Y17130D01*
X352802Y17270D01*
X352800Y17410D01*
X352800Y187590D02*
X352802Y187730D01*
X352808Y187870D01*
X352817Y188010D01*
X352831Y188149D01*
X352848Y188288D01*
X352869Y188426D01*
X352894Y188564D01*
X352923Y188701D01*
X352955Y188837D01*
X352992Y188972D01*
X353032Y189106D01*
X353075Y189239D01*
X353123Y189371D01*
X353173Y189502D01*
X353228Y189631D01*
X353286Y189758D01*
X353347Y189884D01*
X353412Y190008D01*
X353481Y190130D01*
X353552Y190250D01*
X353627Y190368D01*
X353705Y190485D01*
X353787Y190599D01*
X353871Y190710D01*
X353959Y190819D01*
X354049Y190926D01*
X354143Y191031D01*
X354239Y191132D01*
X354338Y191231D01*
X354439Y191327D01*
X354544Y191421D01*
X354651Y191511D01*
X354760Y191599D01*
X354871Y191683D01*
X354985Y191765D01*
X355102Y191843D01*
X355220Y191918D01*
X355340Y191989D01*
X355462Y192058D01*
X355586Y192123D01*
X355712Y192184D01*
X355839Y192242D01*
X355968Y192297D01*
X356099Y192347D01*
X356231Y192395D01*
X356364Y192438D01*
X356498Y192478D01*
X356633Y192515D01*
X356769Y192547D01*
X356906Y192576D01*
X357044Y192601D01*
X357182Y192622D01*
X357321Y192639D01*
X357460Y192653D01*
X357600Y192662D01*
X357740Y192668D01*
X357880Y192670D01*
X398520Y192670D02*
X398660Y192668D01*
X398800Y192662D01*
X398940Y192653D01*
X399079Y192639D01*
X399218Y192622D01*
X399356Y192601D01*
X399494Y192576D01*
X399631Y192547D01*
X399767Y192515D01*
X399902Y192478D01*
X400036Y192438D01*
X400169Y192395D01*
X400301Y192347D01*
X400432Y192297D01*
X400561Y192242D01*
X400688Y192184D01*
X400814Y192123D01*
X400938Y192058D01*
X401060Y191989D01*
X401180Y191918D01*
X401298Y191843D01*
X401415Y191765D01*
X401529Y191683D01*
X401640Y191599D01*
X401749Y191511D01*
X401856Y191421D01*
X401961Y191327D01*
X402062Y191231D01*
X402161Y191132D01*
X402257Y191031D01*
X402351Y190926D01*
X402441Y190819D01*
X402529Y190710D01*
X402613Y190599D01*
X402695Y190485D01*
X402773Y190368D01*
X402848Y190250D01*
X402919Y190130D01*
X402988Y190008D01*
X403053Y189884D01*
X403114Y189758D01*
X403172Y189631D01*
X403227Y189502D01*
X403277Y189371D01*
X403325Y189239D01*
X403368Y189106D01*
X403408Y188972D01*
X403445Y188837D01*
X403477Y188701D01*
X403506Y188564D01*
X403531Y188426D01*
X403552Y188288D01*
X403569Y188149D01*
X403583Y188010D01*
X403592Y187870D01*
X403598Y187730D01*
X403600Y187590D01*
X408335Y95244D02*
X406895Y93803D01*
X406895Y90922D01*
X408335Y89482D01*
X414097Y89482D01*
X415538Y90922D01*
X415538Y93803D01*
X414097Y95244D01*
X409776Y98837D02*
X406895Y101718D01*
X415538Y101718D01*
X415538Y98837D02*
X415538Y104599D01*
D14*
X124813Y13400D02*
X124811Y13260D01*
X124805Y13120D01*
X124795Y12980D01*
X124782Y12840D01*
X124764Y12701D01*
X124742Y12562D01*
X124717Y12425D01*
X124688Y12287D01*
X124655Y12151D01*
X124618Y12016D01*
X124577Y11882D01*
X124532Y11749D01*
X124484Y11617D01*
X124432Y11487D01*
X124377Y11358D01*
X124318Y11231D01*
X124255Y11105D01*
X124189Y10981D01*
X124120Y10860D01*
X124047Y10740D01*
X123970Y10622D01*
X123891Y10507D01*
X123808Y10393D01*
X123722Y10283D01*
X123633Y10174D01*
X123541Y10068D01*
X123446Y9965D01*
X123349Y9864D01*
X123248Y9767D01*
X123145Y9672D01*
X123039Y9580D01*
X122930Y9491D01*
X122820Y9405D01*
X122706Y9322D01*
X122591Y9243D01*
X122473Y9166D01*
X122353Y9093D01*
X122232Y9024D01*
X122108Y8958D01*
X121982Y8895D01*
X121855Y8836D01*
X121726Y8781D01*
X121596Y8729D01*
X121464Y8681D01*
X121331Y8636D01*
X121197Y8595D01*
X121062Y8558D01*
X120926Y8525D01*
X120788Y8496D01*
X120651Y8471D01*
X120512Y8449D01*
X120373Y8431D01*
X120233Y8418D01*
X120093Y8408D01*
X119953Y8402D01*
X119813Y8400D01*
X124813Y13400D02*
X124813Y108400D01*
X124811Y108540D01*
X124805Y108680D01*
X124795Y108820D01*
X124782Y108960D01*
X124764Y109099D01*
X124742Y109238D01*
X124717Y109375D01*
X124688Y109513D01*
X124655Y109649D01*
X124618Y109784D01*
X124577Y109918D01*
X124532Y110051D01*
X124484Y110183D01*
X124432Y110313D01*
X124377Y110442D01*
X124318Y110569D01*
X124255Y110695D01*
X124189Y110819D01*
X124120Y110940D01*
X124047Y111060D01*
X123970Y111178D01*
X123891Y111293D01*
X123808Y111407D01*
X123722Y111517D01*
X123633Y111626D01*
X123541Y111732D01*
X123446Y111835D01*
X123349Y111936D01*
X123248Y112033D01*
X123145Y112128D01*
X123039Y112220D01*
X122930Y112309D01*
X122820Y112395D01*
X122706Y112478D01*
X122591Y112557D01*
X122473Y112634D01*
X122353Y112707D01*
X122232Y112776D01*
X122108Y112842D01*
X121982Y112905D01*
X121855Y112964D01*
X121726Y113019D01*
X121596Y113071D01*
X121464Y113119D01*
X121331Y113164D01*
X121197Y113205D01*
X121062Y113242D01*
X120926Y113275D01*
X120788Y113304D01*
X120651Y113329D01*
X120512Y113351D01*
X120373Y113369D01*
X120233Y113382D01*
X120093Y113392D01*
X119953Y113398D01*
X119813Y113400D01*
X82987Y113400D01*
X82847Y113398D01*
X82707Y113392D01*
X82567Y113382D01*
X82427Y113369D01*
X82288Y113351D01*
X82149Y113329D01*
X82012Y113304D01*
X81874Y113275D01*
X81738Y113242D01*
X81603Y113205D01*
X81469Y113164D01*
X81336Y113119D01*
X81204Y113071D01*
X81074Y113019D01*
X80945Y112964D01*
X80818Y112905D01*
X80692Y112842D01*
X80568Y112776D01*
X80447Y112707D01*
X80327Y112634D01*
X80209Y112557D01*
X80094Y112478D01*
X79980Y112395D01*
X79870Y112309D01*
X79761Y112220D01*
X79655Y112128D01*
X79552Y112033D01*
X79451Y111936D01*
X79354Y111835D01*
X79259Y111732D01*
X79167Y111626D01*
X79078Y111517D01*
X78992Y111407D01*
X78909Y111293D01*
X78830Y111178D01*
X78753Y111060D01*
X78680Y110940D01*
X78611Y110819D01*
X78545Y110695D01*
X78482Y110569D01*
X78423Y110442D01*
X78368Y110313D01*
X78316Y110183D01*
X78268Y110051D01*
X78223Y109918D01*
X78182Y109784D01*
X78145Y109649D01*
X78112Y109513D01*
X78083Y109375D01*
X78058Y109238D01*
X78036Y109099D01*
X78018Y108960D01*
X78005Y108820D01*
X77995Y108680D01*
X77989Y108540D01*
X77987Y108400D01*
X77987Y13400D01*
X77989Y13260D01*
X77995Y13120D01*
X78005Y12980D01*
X78018Y12840D01*
X78036Y12701D01*
X78058Y12562D01*
X78083Y12425D01*
X78112Y12287D01*
X78145Y12151D01*
X78182Y12016D01*
X78223Y11882D01*
X78268Y11749D01*
X78316Y11617D01*
X78368Y11487D01*
X78423Y11358D01*
X78482Y11231D01*
X78545Y11105D01*
X78611Y10981D01*
X78680Y10860D01*
X78753Y10740D01*
X78830Y10622D01*
X78909Y10507D01*
X78992Y10393D01*
X79078Y10283D01*
X79167Y10174D01*
X79259Y10068D01*
X79354Y9965D01*
X79451Y9864D01*
X79552Y9767D01*
X79655Y9672D01*
X79761Y9580D01*
X79870Y9491D01*
X79980Y9405D01*
X80094Y9322D01*
X80209Y9243D01*
X80327Y9166D01*
X80447Y9093D01*
X80568Y9024D01*
X80692Y8958D01*
X80818Y8895D01*
X80945Y8836D01*
X81074Y8781D01*
X81204Y8729D01*
X81336Y8681D01*
X81469Y8636D01*
X81603Y8595D01*
X81738Y8558D01*
X81874Y8525D01*
X82012Y8496D01*
X82149Y8471D01*
X82288Y8449D01*
X82427Y8431D01*
X82567Y8418D01*
X82707Y8408D01*
X82847Y8402D01*
X82987Y8400D01*
X119813Y8400D01*
D13*
X63595Y30889D02*
X62155Y29448D01*
X62155Y26567D01*
X63595Y25127D01*
X69357Y25127D01*
X70798Y26567D01*
X70798Y29448D01*
X69357Y30889D01*
X63595Y34482D02*
X62155Y35922D01*
X62155Y38804D01*
X63595Y40244D01*
X65036Y40244D01*
X66476Y38804D01*
X66476Y37363D01*
X66476Y38804D02*
X67917Y40244D01*
X69357Y40244D01*
X70798Y38804D01*
X70798Y35922D01*
X69357Y34482D01*
X403780Y189030D02*
X403782Y189188D01*
X403788Y189347D01*
X403798Y189505D01*
X403812Y189662D01*
X403829Y189820D01*
X403851Y189976D01*
X403876Y190133D01*
X403906Y190288D01*
X403939Y190443D01*
X403976Y190597D01*
X404017Y190750D01*
X404062Y190902D01*
X404111Y191052D01*
X404163Y191202D01*
X404219Y191350D01*
X404279Y191497D01*
X404342Y191642D01*
X404409Y191785D01*
X404479Y191927D01*
X404553Y192067D01*
X404631Y192205D01*
X404712Y192341D01*
X404796Y192475D01*
X404883Y192607D01*
X404974Y192737D01*
X405068Y192864D01*
X405165Y192989D01*
X405266Y193112D01*
X405369Y193232D01*
X405475Y193349D01*
X405584Y193464D01*
X405696Y193576D01*
X405811Y193685D01*
X405928Y193791D01*
X406048Y193894D01*
X406171Y193995D01*
X406296Y194092D01*
X406423Y194186D01*
X406553Y194277D01*
X406685Y194364D01*
X406819Y194448D01*
X406955Y194529D01*
X407093Y194607D01*
X407233Y194681D01*
X407375Y194751D01*
X407518Y194818D01*
X407663Y194881D01*
X407810Y194941D01*
X407958Y194997D01*
X408108Y195049D01*
X408258Y195098D01*
X408410Y195143D01*
X408563Y195184D01*
X408717Y195221D01*
X408872Y195254D01*
X409027Y195284D01*
X409184Y195309D01*
X409340Y195331D01*
X409498Y195348D01*
X409655Y195362D01*
X409813Y195372D01*
X409972Y195378D01*
X410130Y195380D01*
X438070Y195380D02*
X438228Y195378D01*
X438387Y195372D01*
X438545Y195362D01*
X438702Y195348D01*
X438860Y195331D01*
X439016Y195309D01*
X439173Y195284D01*
X439328Y195254D01*
X439483Y195221D01*
X439637Y195184D01*
X439790Y195143D01*
X439942Y195098D01*
X440092Y195049D01*
X440242Y194997D01*
X440390Y194941D01*
X440537Y194881D01*
X440682Y194818D01*
X440825Y194751D01*
X440967Y194681D01*
X441107Y194607D01*
X441245Y194529D01*
X441381Y194448D01*
X441515Y194364D01*
X441647Y194277D01*
X441777Y194186D01*
X441904Y194092D01*
X442029Y193995D01*
X442152Y193894D01*
X442272Y193791D01*
X442389Y193685D01*
X442504Y193576D01*
X442616Y193464D01*
X442725Y193349D01*
X442831Y193232D01*
X442934Y193112D01*
X443035Y192989D01*
X443132Y192864D01*
X443226Y192737D01*
X443317Y192607D01*
X443404Y192475D01*
X443488Y192341D01*
X443569Y192205D01*
X443647Y192067D01*
X443721Y191927D01*
X443791Y191785D01*
X443858Y191642D01*
X443921Y191497D01*
X443981Y191350D01*
X444037Y191202D01*
X444089Y191052D01*
X444138Y190902D01*
X444183Y190750D01*
X444224Y190597D01*
X444261Y190443D01*
X444294Y190288D01*
X444324Y190133D01*
X444349Y189976D01*
X444371Y189820D01*
X444388Y189662D01*
X444402Y189505D01*
X444412Y189347D01*
X444418Y189188D01*
X444420Y189030D01*
X444420Y115370D02*
X444418Y115212D01*
X444412Y115053D01*
X444402Y114895D01*
X444388Y114738D01*
X444371Y114580D01*
X444349Y114424D01*
X444324Y114267D01*
X444294Y114112D01*
X444261Y113957D01*
X444224Y113803D01*
X444183Y113650D01*
X444138Y113498D01*
X444089Y113348D01*
X444037Y113198D01*
X443981Y113050D01*
X443921Y112903D01*
X443858Y112758D01*
X443791Y112615D01*
X443721Y112473D01*
X443647Y112333D01*
X443569Y112195D01*
X443488Y112059D01*
X443404Y111925D01*
X443317Y111793D01*
X443226Y111663D01*
X443132Y111536D01*
X443035Y111411D01*
X442934Y111288D01*
X442831Y111168D01*
X442725Y111051D01*
X442616Y110936D01*
X442504Y110824D01*
X442389Y110715D01*
X442272Y110609D01*
X442152Y110506D01*
X442029Y110405D01*
X441904Y110308D01*
X441777Y110214D01*
X441647Y110123D01*
X441515Y110036D01*
X441381Y109952D01*
X441245Y109871D01*
X441107Y109793D01*
X440967Y109719D01*
X440825Y109649D01*
X440682Y109582D01*
X440537Y109519D01*
X440390Y109459D01*
X440242Y109403D01*
X440092Y109351D01*
X439942Y109302D01*
X439790Y109257D01*
X439637Y109216D01*
X439483Y109179D01*
X439328Y109146D01*
X439173Y109116D01*
X439016Y109091D01*
X438860Y109069D01*
X438702Y109052D01*
X438545Y109038D01*
X438387Y109028D01*
X438228Y109022D01*
X438070Y109020D01*
X410130Y109020D02*
X409972Y109022D01*
X409813Y109028D01*
X409655Y109038D01*
X409498Y109052D01*
X409340Y109069D01*
X409184Y109091D01*
X409027Y109116D01*
X408872Y109146D01*
X408717Y109179D01*
X408563Y109216D01*
X408410Y109257D01*
X408258Y109302D01*
X408108Y109351D01*
X407958Y109403D01*
X407810Y109459D01*
X407663Y109519D01*
X407518Y109582D01*
X407375Y109649D01*
X407233Y109719D01*
X407093Y109793D01*
X406955Y109871D01*
X406819Y109952D01*
X406685Y110036D01*
X406553Y110123D01*
X406423Y110214D01*
X406296Y110308D01*
X406171Y110405D01*
X406048Y110506D01*
X405928Y110609D01*
X405811Y110715D01*
X405696Y110824D01*
X405584Y110936D01*
X405475Y111051D01*
X405369Y111168D01*
X405266Y111288D01*
X405165Y111411D01*
X405068Y111536D01*
X404974Y111663D01*
X404883Y111793D01*
X404796Y111925D01*
X404712Y112059D01*
X404631Y112195D01*
X404553Y112333D01*
X404479Y112473D01*
X404409Y112615D01*
X404342Y112758D01*
X404279Y112903D01*
X404219Y113050D01*
X404163Y113198D01*
X404111Y113348D01*
X404062Y113498D01*
X404017Y113650D01*
X403976Y113803D01*
X403939Y113957D01*
X403906Y114112D01*
X403876Y114267D01*
X403851Y114424D01*
X403829Y114580D01*
X403812Y114738D01*
X403798Y114895D01*
X403788Y115053D01*
X403782Y115212D01*
X403780Y115370D01*
X403780Y189030D01*
X410130Y109020D02*
X438070Y109020D01*
X444420Y115370D02*
X444420Y189030D01*
X438070Y195380D02*
X410130Y195380D01*
X434295Y93552D02*
X442938Y93552D01*
X434295Y93552D02*
X434295Y99314D01*
X438616Y96433D02*
X438616Y93552D01*
X437176Y102907D02*
X434295Y105788D01*
X442938Y105788D01*
X442938Y102907D02*
X442938Y108669D01*
X245700Y60760D02*
X245700Y11230D01*
X245700Y60760D02*
X245700Y96320D01*
X245700Y106480D01*
X245700Y142040D01*
X245700Y191570D01*
X296500Y60760D02*
X296500Y11230D01*
X296500Y60760D02*
X296500Y96320D01*
X296500Y106480D01*
X296500Y142040D01*
X296500Y191570D01*
X193630Y106480D02*
X193530Y106478D01*
X193431Y106472D01*
X193331Y106462D01*
X193233Y106449D01*
X193134Y106431D01*
X193037Y106410D01*
X192941Y106385D01*
X192845Y106356D01*
X192751Y106323D01*
X192658Y106287D01*
X192567Y106247D01*
X192477Y106203D01*
X192389Y106156D01*
X192303Y106106D01*
X192219Y106052D01*
X192137Y105995D01*
X192058Y105935D01*
X191980Y105871D01*
X191906Y105805D01*
X191834Y105736D01*
X191765Y105664D01*
X191699Y105590D01*
X191635Y105512D01*
X191575Y105433D01*
X191518Y105351D01*
X191464Y105267D01*
X191414Y105181D01*
X191367Y105093D01*
X191323Y105003D01*
X191283Y104912D01*
X191247Y104819D01*
X191214Y104725D01*
X191185Y104629D01*
X191160Y104533D01*
X191139Y104436D01*
X191121Y104337D01*
X191108Y104239D01*
X191098Y104139D01*
X191092Y104040D01*
X191090Y103940D01*
X348570Y106480D02*
X348670Y106478D01*
X348769Y106472D01*
X348869Y106462D01*
X348967Y106449D01*
X349066Y106431D01*
X349163Y106410D01*
X349259Y106385D01*
X349355Y106356D01*
X349449Y106323D01*
X349542Y106287D01*
X349633Y106247D01*
X349723Y106203D01*
X349811Y106156D01*
X349897Y106106D01*
X349981Y106052D01*
X350063Y105995D01*
X350142Y105935D01*
X350220Y105871D01*
X350294Y105805D01*
X350366Y105736D01*
X350435Y105664D01*
X350501Y105590D01*
X350565Y105512D01*
X350625Y105433D01*
X350682Y105351D01*
X350736Y105267D01*
X350786Y105181D01*
X350833Y105093D01*
X350877Y105003D01*
X350917Y104912D01*
X350953Y104819D01*
X350986Y104725D01*
X351015Y104629D01*
X351040Y104533D01*
X351061Y104436D01*
X351079Y104337D01*
X351092Y104239D01*
X351102Y104139D01*
X351108Y104040D01*
X351110Y103940D01*
X348570Y11230D02*
X310470Y11230D01*
X231730Y11230D01*
X193630Y11230D01*
X351110Y13770D02*
X351110Y46790D01*
X351110Y58220D01*
X351110Y13770D02*
X351108Y13670D01*
X351102Y13571D01*
X351092Y13471D01*
X351079Y13373D01*
X351061Y13274D01*
X351040Y13177D01*
X351015Y13081D01*
X350986Y12985D01*
X350953Y12891D01*
X350917Y12798D01*
X350877Y12707D01*
X350833Y12617D01*
X350786Y12529D01*
X350736Y12443D01*
X350682Y12359D01*
X350625Y12277D01*
X350565Y12198D01*
X350501Y12120D01*
X350435Y12046D01*
X350366Y11974D01*
X350294Y11905D01*
X350220Y11839D01*
X350142Y11775D01*
X350063Y11715D01*
X349981Y11658D01*
X349897Y11604D01*
X349811Y11554D01*
X349723Y11507D01*
X349633Y11463D01*
X349542Y11423D01*
X349449Y11387D01*
X349355Y11354D01*
X349259Y11325D01*
X349163Y11300D01*
X349066Y11279D01*
X348967Y11261D01*
X348869Y11248D01*
X348769Y11238D01*
X348670Y11232D01*
X348570Y11230D01*
X310470Y11230D02*
X310470Y26550D01*
X296500Y96320D02*
X342220Y96320D01*
X348570Y96320D01*
X342220Y60760D02*
X296500Y60760D01*
X342220Y60760D02*
X348570Y60760D01*
X342220Y60760D02*
X342220Y96320D01*
X351110Y98860D02*
X351110Y103940D01*
X351110Y98860D02*
X351108Y98760D01*
X351102Y98661D01*
X351092Y98561D01*
X351079Y98463D01*
X351061Y98364D01*
X351040Y98267D01*
X351015Y98171D01*
X350986Y98075D01*
X350953Y97981D01*
X350917Y97888D01*
X350877Y97797D01*
X350833Y97707D01*
X350786Y97619D01*
X350736Y97533D01*
X350682Y97449D01*
X350625Y97367D01*
X350565Y97288D01*
X350501Y97210D01*
X350435Y97136D01*
X350366Y97064D01*
X350294Y96995D01*
X350220Y96929D01*
X350142Y96865D01*
X350063Y96805D01*
X349981Y96748D01*
X349897Y96694D01*
X349811Y96644D01*
X349723Y96597D01*
X349633Y96553D01*
X349542Y96513D01*
X349449Y96477D01*
X349355Y96444D01*
X349259Y96415D01*
X349163Y96390D01*
X349066Y96369D01*
X348967Y96351D01*
X348869Y96338D01*
X348769Y96328D01*
X348670Y96322D01*
X348570Y96320D01*
X348570Y60760D02*
X348670Y60758D01*
X348769Y60752D01*
X348869Y60742D01*
X348967Y60729D01*
X349066Y60711D01*
X349163Y60690D01*
X349259Y60665D01*
X349355Y60636D01*
X349449Y60603D01*
X349542Y60567D01*
X349633Y60527D01*
X349723Y60483D01*
X349811Y60436D01*
X349897Y60386D01*
X349981Y60332D01*
X350063Y60275D01*
X350142Y60215D01*
X350220Y60151D01*
X350294Y60085D01*
X350366Y60016D01*
X350435Y59944D01*
X350501Y59870D01*
X350565Y59792D01*
X350625Y59713D01*
X350682Y59631D01*
X350736Y59547D01*
X350786Y59461D01*
X350833Y59373D01*
X350877Y59283D01*
X350917Y59192D01*
X350953Y59099D01*
X350986Y59005D01*
X351015Y58909D01*
X351040Y58813D01*
X351061Y58716D01*
X351079Y58617D01*
X351092Y58519D01*
X351102Y58419D01*
X351108Y58320D01*
X351110Y58220D01*
X351110Y46790D02*
X333260Y46790D01*
X191090Y46790D02*
X191090Y13770D01*
X191090Y46790D02*
X191090Y58220D01*
X231730Y26550D02*
X231730Y11230D01*
X193630Y11230D02*
X193530Y11232D01*
X193431Y11238D01*
X193331Y11248D01*
X193233Y11261D01*
X193134Y11279D01*
X193037Y11300D01*
X192941Y11325D01*
X192845Y11354D01*
X192751Y11387D01*
X192658Y11423D01*
X192567Y11463D01*
X192477Y11507D01*
X192389Y11554D01*
X192303Y11604D01*
X192219Y11658D01*
X192137Y11715D01*
X192058Y11775D01*
X191980Y11839D01*
X191906Y11905D01*
X191834Y11974D01*
X191765Y12046D01*
X191699Y12120D01*
X191635Y12198D01*
X191575Y12277D01*
X191518Y12359D01*
X191464Y12443D01*
X191414Y12529D01*
X191367Y12617D01*
X191323Y12707D01*
X191283Y12798D01*
X191247Y12891D01*
X191214Y12985D01*
X191185Y13081D01*
X191160Y13177D01*
X191139Y13274D01*
X191121Y13373D01*
X191108Y13471D01*
X191098Y13571D01*
X191092Y13670D01*
X191090Y13770D01*
X199980Y60760D02*
X245700Y60760D01*
X199980Y60760D02*
X193630Y60760D01*
X199980Y96320D02*
X245700Y96320D01*
X199980Y96320D02*
X193630Y96320D01*
X199980Y96320D02*
X199980Y60760D01*
X193630Y60760D02*
X193530Y60758D01*
X193431Y60752D01*
X193331Y60742D01*
X193233Y60729D01*
X193134Y60711D01*
X193037Y60690D01*
X192941Y60665D01*
X192845Y60636D01*
X192751Y60603D01*
X192658Y60567D01*
X192567Y60527D01*
X192477Y60483D01*
X192389Y60436D01*
X192303Y60386D01*
X192219Y60332D01*
X192137Y60275D01*
X192058Y60215D01*
X191980Y60151D01*
X191906Y60085D01*
X191834Y60016D01*
X191765Y59944D01*
X191699Y59870D01*
X191635Y59792D01*
X191575Y59713D01*
X191518Y59631D01*
X191464Y59547D01*
X191414Y59461D01*
X191367Y59373D01*
X191323Y59283D01*
X191283Y59192D01*
X191247Y59099D01*
X191214Y59005D01*
X191185Y58909D01*
X191160Y58813D01*
X191139Y58716D01*
X191121Y58617D01*
X191108Y58519D01*
X191098Y58419D01*
X191092Y58320D01*
X191090Y58220D01*
X191090Y98860D02*
X191090Y103940D01*
X191090Y98860D02*
X191092Y98760D01*
X191098Y98661D01*
X191108Y98561D01*
X191121Y98463D01*
X191139Y98364D01*
X191160Y98267D01*
X191185Y98171D01*
X191214Y98075D01*
X191247Y97981D01*
X191283Y97888D01*
X191323Y97797D01*
X191367Y97707D01*
X191414Y97619D01*
X191464Y97533D01*
X191518Y97449D01*
X191575Y97367D01*
X191635Y97288D01*
X191699Y97210D01*
X191765Y97136D01*
X191834Y97064D01*
X191906Y96995D01*
X191980Y96929D01*
X192058Y96865D01*
X192137Y96805D01*
X192219Y96748D01*
X192303Y96694D01*
X192389Y96644D01*
X192477Y96597D01*
X192567Y96553D01*
X192658Y96513D01*
X192751Y96477D01*
X192845Y96444D01*
X192941Y96415D01*
X193037Y96390D01*
X193134Y96369D01*
X193233Y96351D01*
X193331Y96338D01*
X193431Y96328D01*
X193530Y96322D01*
X193630Y96320D01*
X191090Y46790D02*
X208940Y46790D01*
X310470Y191570D02*
X348570Y191570D01*
X310470Y191570D02*
X231730Y191570D01*
X193630Y191570D01*
X351110Y189030D02*
X351110Y156010D01*
X351110Y144580D01*
X310470Y176250D02*
X310470Y191570D01*
X296500Y142040D02*
X342220Y142040D01*
X348570Y142040D01*
X342220Y106480D02*
X296500Y106480D01*
X342220Y106480D02*
X348570Y106480D01*
X342220Y106480D02*
X342220Y142040D01*
X348570Y142040D02*
X348670Y142042D01*
X348769Y142048D01*
X348869Y142058D01*
X348967Y142071D01*
X349066Y142089D01*
X349163Y142110D01*
X349259Y142135D01*
X349355Y142164D01*
X349449Y142197D01*
X349542Y142233D01*
X349633Y142273D01*
X349723Y142317D01*
X349811Y142364D01*
X349897Y142414D01*
X349981Y142468D01*
X350063Y142525D01*
X350142Y142585D01*
X350220Y142649D01*
X350294Y142715D01*
X350366Y142784D01*
X350435Y142856D01*
X350501Y142930D01*
X350565Y143008D01*
X350625Y143087D01*
X350682Y143169D01*
X350736Y143253D01*
X350786Y143339D01*
X350833Y143427D01*
X350877Y143517D01*
X350917Y143608D01*
X350953Y143701D01*
X350986Y143795D01*
X351015Y143891D01*
X351040Y143987D01*
X351061Y144084D01*
X351079Y144183D01*
X351092Y144281D01*
X351102Y144381D01*
X351108Y144480D01*
X351110Y144580D01*
X351110Y156010D02*
X333260Y156010D01*
X351110Y189030D02*
X351108Y189130D01*
X351102Y189229D01*
X351092Y189329D01*
X351079Y189427D01*
X351061Y189526D01*
X351040Y189623D01*
X351015Y189719D01*
X350986Y189815D01*
X350953Y189909D01*
X350917Y190002D01*
X350877Y190093D01*
X350833Y190183D01*
X350786Y190271D01*
X350736Y190357D01*
X350682Y190441D01*
X350625Y190523D01*
X350565Y190602D01*
X350501Y190680D01*
X350435Y190754D01*
X350366Y190826D01*
X350294Y190895D01*
X350220Y190961D01*
X350142Y191025D01*
X350063Y191085D01*
X349981Y191142D01*
X349897Y191196D01*
X349811Y191246D01*
X349723Y191293D01*
X349633Y191337D01*
X349542Y191377D01*
X349449Y191413D01*
X349355Y191446D01*
X349259Y191475D01*
X349163Y191500D01*
X349066Y191521D01*
X348967Y191539D01*
X348869Y191552D01*
X348769Y191562D01*
X348670Y191568D01*
X348570Y191570D01*
X191090Y189030D02*
X191090Y156010D01*
X191090Y144580D01*
X231730Y176250D02*
X231730Y191570D01*
X245700Y106480D02*
X199980Y106480D01*
X193630Y106480D01*
X199980Y142040D02*
X245700Y142040D01*
X199980Y142040D02*
X193630Y142040D01*
X199980Y142040D02*
X199980Y106480D01*
X193630Y142040D02*
X193530Y142042D01*
X193431Y142048D01*
X193331Y142058D01*
X193233Y142071D01*
X193134Y142089D01*
X193037Y142110D01*
X192941Y142135D01*
X192845Y142164D01*
X192751Y142197D01*
X192658Y142233D01*
X192567Y142273D01*
X192477Y142317D01*
X192389Y142364D01*
X192303Y142414D01*
X192219Y142468D01*
X192137Y142525D01*
X192058Y142585D01*
X191980Y142649D01*
X191906Y142715D01*
X191834Y142784D01*
X191765Y142856D01*
X191699Y142930D01*
X191635Y143008D01*
X191575Y143087D01*
X191518Y143169D01*
X191464Y143253D01*
X191414Y143339D01*
X191367Y143427D01*
X191323Y143517D01*
X191283Y143608D01*
X191247Y143701D01*
X191214Y143795D01*
X191185Y143891D01*
X191160Y143987D01*
X191139Y144084D01*
X191121Y144183D01*
X191108Y144281D01*
X191098Y144381D01*
X191092Y144480D01*
X191090Y144580D01*
X191090Y156010D02*
X208940Y156010D01*
X191090Y189030D02*
X191092Y189130D01*
X191098Y189229D01*
X191108Y189329D01*
X191121Y189427D01*
X191139Y189526D01*
X191160Y189623D01*
X191185Y189719D01*
X191214Y189815D01*
X191247Y189909D01*
X191283Y190002D01*
X191323Y190093D01*
X191367Y190183D01*
X191414Y190271D01*
X191464Y190357D01*
X191518Y190441D01*
X191575Y190523D01*
X191635Y190602D01*
X191699Y190680D01*
X191765Y190754D01*
X191834Y190826D01*
X191906Y190895D01*
X191980Y190961D01*
X192058Y191025D01*
X192137Y191085D01*
X192219Y191142D01*
X192303Y191196D01*
X192389Y191246D01*
X192477Y191293D01*
X192567Y191337D01*
X192658Y191377D01*
X192751Y191413D01*
X192845Y191446D01*
X192941Y191475D01*
X193037Y191500D01*
X193134Y191521D01*
X193233Y191539D01*
X193331Y191552D01*
X193431Y191562D01*
X193530Y191568D01*
X193630Y191570D01*
X252105Y18002D02*
X260748Y18002D01*
X260748Y23764D01*
X254986Y27357D02*
X252105Y30238D01*
X260748Y30238D01*
X260748Y27357D02*
X260748Y33119D01*
X452260Y155760D02*
X452260Y160840D01*
X457340Y160840D01*
X477660Y160840D02*
X482740Y160840D01*
X482740Y155760D01*
X482740Y135440D02*
X482740Y130360D01*
X477660Y130360D01*
X457340Y130360D02*
X452260Y130360D01*
X452260Y135440D01*
D15*
X471681Y125925D02*
X471681Y114485D01*
X479308Y114485D01*
D13*
X450760Y85840D02*
X450760Y80760D01*
X450760Y85840D02*
X455840Y85840D01*
X476160Y85840D02*
X481240Y85840D01*
X481240Y80760D01*
X481240Y60440D02*
X481240Y55360D01*
X476160Y55360D01*
X455840Y55360D02*
X450760Y55360D01*
X450760Y60440D01*
D15*
X470181Y50925D02*
X470181Y39485D01*
X477808Y39485D02*
X470181Y50925D01*
X477808Y50925D02*
X477808Y39485D01*
D13*
X14860Y42260D02*
X14860Y47340D01*
X19940Y47340D01*
X40260Y47340D02*
X45340Y47340D01*
X45340Y42260D01*
X45340Y21940D02*
X45340Y16860D01*
X40260Y16860D01*
X19940Y16860D02*
X14860Y16860D01*
X14860Y21940D01*
D15*
X-801Y8612D02*
X-801Y985D01*
X-801Y8612D02*
X3012Y12425D01*
X6826Y8612D01*
X6826Y985D01*
X6826Y6705D02*
X-801Y6705D01*
X16613Y12425D02*
X18520Y10518D01*
X16613Y12425D02*
X12800Y12425D01*
X10893Y10518D01*
X10893Y2892D01*
X12800Y985D01*
X16613Y985D01*
X18520Y2892D01*
X18520Y6705D01*
X14706Y6705D01*
X22587Y985D02*
X22587Y12425D01*
X30213Y985D01*
X30213Y12425D01*
X34281Y12425D02*
X34281Y985D01*
X40001Y985D01*
X41907Y2892D01*
X41907Y10518D01*
X40001Y12425D01*
X34281Y12425D01*
D13*
X428600Y26550D02*
X454000Y26550D01*
X454000Y39250D02*
X428600Y39250D01*
X428600Y32900D02*
X423520Y32900D01*
X428600Y32900D02*
X428600Y26550D01*
X454000Y32900D02*
X459080Y32900D01*
X454000Y32900D02*
X454000Y26550D01*
X428600Y32900D02*
X428600Y39250D01*
X454000Y39250D02*
X454000Y32900D01*
X429578Y21985D02*
X429578Y13342D01*
X426696Y21985D02*
X432459Y21985D01*
X436052Y21985D02*
X436052Y13342D01*
X436052Y21985D02*
X440373Y21985D01*
X441814Y20545D01*
X441814Y17664D01*
X440373Y16223D01*
X436052Y16223D01*
X438933Y16223D02*
X441814Y13342D01*
X445407Y20545D02*
X446847Y21985D01*
X449729Y21985D01*
X451169Y20545D01*
X451169Y19104D01*
X449729Y17664D01*
X448288Y17664D01*
X449729Y17664D02*
X451169Y16223D01*
X451169Y14783D01*
X449729Y13342D01*
X446847Y13342D01*
X445407Y14783D01*
X96100Y265280D02*
X96100Y279250D01*
X96100Y294490D02*
X96100Y305920D01*
X96100Y294490D02*
X115150Y294490D01*
X77050Y294490D02*
X77050Y288140D01*
X115150Y288140D01*
X115150Y294490D01*
X96100Y294490D02*
X77050Y294490D01*
X96100Y345290D02*
X96100Y360530D01*
X88480Y352910D02*
X103720Y352910D01*
X13550Y285600D02*
X13575Y287626D01*
X13649Y289651D01*
X13774Y291673D01*
X13948Y293691D01*
X14171Y295705D01*
X14443Y297713D01*
X14765Y299713D01*
X15136Y301705D01*
X15556Y303687D01*
X16024Y305658D01*
X16540Y307617D01*
X17105Y309563D01*
X17716Y311494D01*
X18376Y313410D01*
X19081Y315309D01*
X19834Y317191D01*
X20632Y319053D01*
X21476Y320895D01*
X22364Y322715D01*
X23297Y324514D01*
X24274Y326289D01*
X25295Y328039D01*
X26357Y329764D01*
X27462Y331462D01*
X28608Y333133D01*
X29795Y334775D01*
X31022Y336387D01*
X32288Y337969D01*
X33592Y339519D01*
X34934Y341037D01*
X36313Y342522D01*
X37728Y343972D01*
X39178Y345387D01*
X40663Y346766D01*
X42181Y348108D01*
X43731Y349412D01*
X45313Y350678D01*
X46925Y351905D01*
X48567Y353092D01*
X50238Y354238D01*
X51936Y355343D01*
X53661Y356405D01*
X55411Y357426D01*
X57186Y358403D01*
X58985Y359336D01*
X60805Y360224D01*
X62647Y361068D01*
X64509Y361866D01*
X66391Y362619D01*
X68290Y363324D01*
X70206Y363984D01*
X72137Y364595D01*
X74083Y365160D01*
X76042Y365676D01*
X78013Y366144D01*
X79995Y366564D01*
X81987Y366935D01*
X83987Y367257D01*
X85995Y367529D01*
X88009Y367752D01*
X90027Y367926D01*
X92049Y368051D01*
X94074Y368125D01*
X96100Y368150D01*
X98126Y368125D01*
X100151Y368051D01*
X102173Y367926D01*
X104191Y367752D01*
X106205Y367529D01*
X108213Y367257D01*
X110213Y366935D01*
X112205Y366564D01*
X114187Y366144D01*
X116158Y365676D01*
X118117Y365160D01*
X120063Y364595D01*
X121994Y363984D01*
X123910Y363324D01*
X125809Y362619D01*
X127691Y361866D01*
X129553Y361068D01*
X131395Y360224D01*
X133215Y359336D01*
X135014Y358403D01*
X136789Y357426D01*
X138539Y356405D01*
X140264Y355343D01*
X141962Y354238D01*
X143633Y353092D01*
X145275Y351905D01*
X146887Y350678D01*
X148469Y349412D01*
X150019Y348108D01*
X151537Y346766D01*
X153022Y345387D01*
X154472Y343972D01*
X155887Y342522D01*
X157266Y341037D01*
X158608Y339519D01*
X159912Y337969D01*
X161178Y336387D01*
X162405Y334775D01*
X163592Y333133D01*
X164738Y331462D01*
X165843Y329764D01*
X166905Y328039D01*
X167926Y326289D01*
X168903Y324514D01*
X169836Y322715D01*
X170724Y320895D01*
X171568Y319053D01*
X172366Y317191D01*
X173119Y315309D01*
X173824Y313410D01*
X174484Y311494D01*
X175095Y309563D01*
X175660Y307617D01*
X176176Y305658D01*
X176644Y303687D01*
X177064Y301705D01*
X177435Y299713D01*
X177757Y297713D01*
X178029Y295705D01*
X178252Y293691D01*
X178426Y291673D01*
X178551Y289651D01*
X178625Y287626D01*
X178650Y285600D01*
X178625Y283574D01*
X178551Y281549D01*
X178426Y279527D01*
X178252Y277509D01*
X178029Y275495D01*
X177757Y273487D01*
X177435Y271487D01*
X177064Y269495D01*
X176644Y267513D01*
X176176Y265542D01*
X175660Y263583D01*
X175095Y261637D01*
X174484Y259706D01*
X173824Y257790D01*
X173119Y255891D01*
X172366Y254009D01*
X171568Y252147D01*
X170724Y250305D01*
X169836Y248485D01*
X168903Y246686D01*
X167926Y244911D01*
X166905Y243161D01*
X165843Y241436D01*
X164738Y239738D01*
X163592Y238067D01*
X162405Y236425D01*
X161178Y234813D01*
X159912Y233231D01*
X158608Y231681D01*
X157266Y230163D01*
X155887Y228678D01*
X154472Y227228D01*
X153022Y225813D01*
X151537Y224434D01*
X150019Y223092D01*
X148469Y221788D01*
X146887Y220522D01*
X145275Y219295D01*
X143633Y218108D01*
X141962Y216962D01*
X140264Y215857D01*
X138539Y214795D01*
X136789Y213774D01*
X135014Y212797D01*
X133215Y211864D01*
X131395Y210976D01*
X129553Y210132D01*
X127691Y209334D01*
X125809Y208581D01*
X123910Y207876D01*
X121994Y207216D01*
X120063Y206605D01*
X118117Y206040D01*
X116158Y205524D01*
X114187Y205056D01*
X112205Y204636D01*
X110213Y204265D01*
X108213Y203943D01*
X106205Y203671D01*
X104191Y203448D01*
X102173Y203274D01*
X100151Y203149D01*
X98126Y203075D01*
X96100Y203050D01*
X94074Y203075D01*
X92049Y203149D01*
X90027Y203274D01*
X88009Y203448D01*
X85995Y203671D01*
X83987Y203943D01*
X81987Y204265D01*
X79995Y204636D01*
X78013Y205056D01*
X76042Y205524D01*
X74083Y206040D01*
X72137Y206605D01*
X70206Y207216D01*
X68290Y207876D01*
X66391Y208581D01*
X64509Y209334D01*
X62647Y210132D01*
X60805Y210976D01*
X58985Y211864D01*
X57186Y212797D01*
X55411Y213774D01*
X53661Y214795D01*
X51936Y215857D01*
X50238Y216962D01*
X48567Y218108D01*
X46925Y219295D01*
X45313Y220522D01*
X43731Y221788D01*
X42181Y223092D01*
X40663Y224434D01*
X39178Y225813D01*
X37728Y227228D01*
X36313Y228678D01*
X34934Y230163D01*
X33592Y231681D01*
X32288Y233231D01*
X31022Y234813D01*
X29795Y236425D01*
X28608Y238067D01*
X27462Y239738D01*
X26357Y241436D01*
X25295Y243161D01*
X24274Y244911D01*
X23297Y246686D01*
X22364Y248485D01*
X21476Y250305D01*
X20632Y252147D01*
X19834Y254009D01*
X19081Y255891D01*
X18376Y257790D01*
X17716Y259706D01*
X17105Y261637D01*
X16540Y263583D01*
X16024Y265542D01*
X15556Y267513D01*
X15136Y269495D01*
X14765Y271487D01*
X14443Y273487D01*
X14171Y275495D01*
X13948Y277509D01*
X13774Y279527D01*
X13649Y281549D01*
X13575Y283574D01*
X13550Y285600D01*
D16*
X96100Y279885D03*
D13*
X33895Y204674D02*
X32455Y203233D01*
X32455Y200352D01*
X33895Y198912D01*
X39657Y198912D01*
X41098Y200352D01*
X41098Y203233D01*
X39657Y204674D01*
X33895Y211148D02*
X32455Y214029D01*
X33895Y211148D02*
X36776Y208267D01*
X39657Y208267D01*
X41098Y209707D01*
X41098Y212589D01*
X39657Y214029D01*
X38217Y214029D01*
X36776Y212589D01*
X36776Y208267D01*
X424900Y523490D02*
X475700Y523490D01*
X475700Y581910D02*
X424900Y581910D01*
X424900Y523490D01*
X475700Y523490D02*
X475700Y542540D01*
X475700Y562860D02*
X475700Y581910D01*
X475700Y562860D02*
X475453Y562857D01*
X475205Y562848D01*
X474958Y562833D01*
X474712Y562812D01*
X474466Y562785D01*
X474221Y562752D01*
X473976Y562713D01*
X473733Y562668D01*
X473491Y562617D01*
X473250Y562560D01*
X473011Y562498D01*
X472773Y562429D01*
X472537Y562355D01*
X472303Y562275D01*
X472071Y562190D01*
X471841Y562098D01*
X471613Y562002D01*
X471388Y561899D01*
X471165Y561792D01*
X470945Y561678D01*
X470728Y561560D01*
X470513Y561436D01*
X470302Y561307D01*
X470094Y561173D01*
X469889Y561034D01*
X469688Y560890D01*
X469490Y560742D01*
X469296Y560588D01*
X469106Y560430D01*
X468920Y560267D01*
X468738Y560100D01*
X468560Y559928D01*
X468386Y559752D01*
X468216Y559572D01*
X468051Y559387D01*
X467891Y559199D01*
X467735Y559007D01*
X467583Y558811D01*
X467437Y558612D01*
X467295Y558409D01*
X467159Y558202D01*
X467027Y557993D01*
X466901Y557780D01*
X466780Y557564D01*
X466664Y557346D01*
X466554Y557124D01*
X466449Y556900D01*
X466349Y556674D01*
X466255Y556445D01*
X466167Y556214D01*
X466084Y555980D01*
X466007Y555745D01*
X465936Y555508D01*
X465870Y555270D01*
X465811Y555030D01*
X465757Y554788D01*
X465709Y554545D01*
X465667Y554302D01*
X465631Y554057D01*
X465601Y553811D01*
X465577Y553565D01*
X465559Y553318D01*
X465547Y553071D01*
X465541Y552824D01*
X465541Y552576D01*
X465547Y552329D01*
X465559Y552082D01*
X465577Y551835D01*
X465601Y551589D01*
X465631Y551343D01*
X465667Y551098D01*
X465709Y550855D01*
X465757Y550612D01*
X465811Y550370D01*
X465870Y550130D01*
X465936Y549892D01*
X466007Y549655D01*
X466084Y549420D01*
X466167Y549186D01*
X466255Y548955D01*
X466349Y548726D01*
X466449Y548500D01*
X466554Y548276D01*
X466664Y548054D01*
X466780Y547836D01*
X466901Y547620D01*
X467027Y547407D01*
X467159Y547198D01*
X467295Y546991D01*
X467437Y546788D01*
X467583Y546589D01*
X467735Y546393D01*
X467891Y546201D01*
X468051Y546013D01*
X468216Y545828D01*
X468386Y545648D01*
X468560Y545472D01*
X468738Y545300D01*
X468920Y545133D01*
X469106Y544970D01*
X469296Y544812D01*
X469490Y544658D01*
X469688Y544510D01*
X469889Y544366D01*
X470094Y544227D01*
X470302Y544093D01*
X470513Y543964D01*
X470728Y543840D01*
X470945Y543722D01*
X471165Y543608D01*
X471388Y543501D01*
X471613Y543398D01*
X471841Y543302D01*
X472071Y543210D01*
X472303Y543125D01*
X472537Y543045D01*
X472773Y542971D01*
X473011Y542902D01*
X473250Y542840D01*
X473491Y542783D01*
X473733Y542732D01*
X473976Y542687D01*
X474221Y542648D01*
X474466Y542615D01*
X474712Y542588D01*
X474958Y542567D01*
X475205Y542552D01*
X475453Y542543D01*
X475700Y542540D01*
X476007Y519735D02*
X478888Y519735D01*
X476007Y519735D02*
X474566Y518295D01*
X474566Y512533D01*
X476007Y511092D01*
X478888Y511092D01*
X480329Y512533D01*
X480329Y518295D01*
X478888Y519735D01*
X488243Y519735D02*
X489684Y518295D01*
X488243Y519735D02*
X485362Y519735D01*
X483922Y518295D01*
X483922Y512533D01*
X485362Y511092D01*
X488243Y511092D01*
X489684Y512533D01*
X493277Y516854D02*
X496158Y519735D01*
X496158Y511092D01*
X493277Y511092D02*
X499039Y511092D01*
X409357Y450968D02*
X409022Y450446D01*
X408675Y449932D01*
X408316Y449426D01*
X407944Y448930D01*
X407560Y448442D01*
X407164Y447964D01*
X406757Y447496D01*
X406339Y447039D01*
X405909Y446591D01*
X405469Y446154D01*
X405018Y445728D01*
X404557Y445313D01*
X404086Y444910D01*
X403605Y444518D01*
X403115Y444138D01*
X402615Y443770D01*
X402107Y443414D01*
X401590Y443071D01*
X401065Y442740D01*
X400533Y442423D01*
X399992Y442119D01*
X399444Y441827D01*
X398890Y441550D01*
X398328Y441286D01*
X397761Y441036D01*
X397187Y440799D01*
X396608Y440577D01*
X396024Y440369D01*
X395434Y440175D01*
X394840Y439996D01*
X394242Y439832D01*
X393640Y439682D01*
X393035Y439546D01*
X392426Y439426D01*
X391815Y439320D01*
X391202Y439230D01*
X390586Y439154D01*
X389969Y439094D01*
X389350Y439048D01*
X388730Y439018D01*
X388110Y439003D01*
X387490Y439003D01*
X386870Y439018D01*
X386250Y439048D01*
X385631Y439094D01*
X385014Y439154D01*
X384398Y439230D01*
X383785Y439320D01*
X383174Y439426D01*
X382565Y439546D01*
X381960Y439682D01*
X381358Y439832D01*
X380760Y439996D01*
X380166Y440175D01*
X379576Y440369D01*
X378992Y440577D01*
X378413Y440799D01*
X377839Y441036D01*
X377272Y441286D01*
X376710Y441550D01*
X376156Y441827D01*
X375608Y442119D01*
X375067Y442423D01*
X374535Y442740D01*
X374010Y443071D01*
X373493Y443414D01*
X372985Y443770D01*
X372485Y444138D01*
X371995Y444518D01*
X371514Y444910D01*
X371043Y445313D01*
X370582Y445728D01*
X370131Y446154D01*
X369691Y446591D01*
X369261Y447039D01*
X368843Y447496D01*
X368436Y447964D01*
X368040Y448442D01*
X367656Y448930D01*
X367284Y449426D01*
X366925Y449932D01*
X366578Y450446D01*
X366243Y450968D01*
X366243Y477832D02*
X366578Y478354D01*
X366925Y478868D01*
X367284Y479374D01*
X367656Y479870D01*
X368040Y480358D01*
X368436Y480836D01*
X368843Y481304D01*
X369261Y481761D01*
X369691Y482209D01*
X370131Y482646D01*
X370582Y483072D01*
X371043Y483487D01*
X371514Y483890D01*
X371995Y484282D01*
X372485Y484662D01*
X372985Y485030D01*
X373493Y485386D01*
X374010Y485729D01*
X374535Y486060D01*
X375067Y486377D01*
X375608Y486681D01*
X376156Y486973D01*
X376710Y487250D01*
X377272Y487514D01*
X377839Y487764D01*
X378413Y488001D01*
X378992Y488223D01*
X379576Y488431D01*
X380166Y488625D01*
X380760Y488804D01*
X381358Y488968D01*
X381960Y489118D01*
X382565Y489254D01*
X383174Y489374D01*
X383785Y489480D01*
X384398Y489570D01*
X385014Y489646D01*
X385631Y489706D01*
X386250Y489752D01*
X386870Y489782D01*
X387490Y489797D01*
X388110Y489797D01*
X388730Y489782D01*
X389350Y489752D01*
X389969Y489706D01*
X390586Y489646D01*
X391202Y489570D01*
X391815Y489480D01*
X392426Y489374D01*
X393035Y489254D01*
X393640Y489118D01*
X394242Y488968D01*
X394840Y488804D01*
X395434Y488625D01*
X396024Y488431D01*
X396608Y488223D01*
X397187Y488001D01*
X397761Y487764D01*
X398328Y487514D01*
X398890Y487250D01*
X399444Y486973D01*
X399992Y486681D01*
X400533Y486377D01*
X401065Y486060D01*
X401590Y485729D01*
X402107Y485386D01*
X402615Y485030D01*
X403115Y484662D01*
X403605Y484282D01*
X404086Y483890D01*
X404557Y483487D01*
X405018Y483072D01*
X405469Y482646D01*
X405909Y482209D01*
X406339Y481761D01*
X406757Y481304D01*
X407164Y480836D01*
X407560Y480358D01*
X407944Y479870D01*
X408316Y479374D01*
X408675Y478868D01*
X409022Y478354D01*
X409357Y477832D01*
X401770Y464400D02*
X395420Y464400D01*
X395420Y474560D01*
X390340Y474560D01*
X390340Y454240D01*
X395420Y454240D01*
X395420Y464400D01*
X381450Y464400D02*
X373830Y464400D01*
X397960Y458050D02*
X403040Y458050D01*
X400500Y460590D02*
X400500Y455510D01*
D17*
X382720Y464400D03*
D13*
X414418Y495945D02*
X415859Y494505D01*
X414418Y495945D02*
X411537Y495945D01*
X410096Y494505D01*
X410096Y488743D01*
X411537Y487302D01*
X414418Y487302D01*
X415859Y488743D01*
X419452Y493064D02*
X422333Y495945D01*
X422333Y487302D01*
X419452Y487302D02*
X425214Y487302D01*
X428807Y488743D02*
X428807Y494505D01*
X430247Y495945D01*
X433129Y495945D01*
X434569Y494505D01*
X434569Y488743D01*
X433129Y487302D01*
X430247Y487302D01*
X428807Y488743D01*
X434569Y494505D01*
X111930Y796460D02*
X113200Y825670D01*
X111930Y796460D02*
X109390Y793920D01*
X15410Y793920D01*
X12870Y796460D01*
X11600Y825670D01*
D18*
X17442Y800016D03*
D19*
X62400Y833290D03*
D20*
X18585Y826940D03*
D21*
X49700Y826940D03*
X75100Y826940D03*
D20*
X106215Y826940D03*
D13*
X62362Y788553D02*
X62362Y779910D01*
X66684Y779910D01*
X68124Y781351D01*
X68124Y787113D01*
X66684Y788553D01*
X62362Y788553D01*
X71717Y788553D02*
X77479Y788553D01*
X71717Y788553D02*
X71717Y784232D01*
X74598Y785672D01*
X76039Y785672D01*
X77479Y784232D01*
X77479Y781351D01*
X76039Y779910D01*
X73158Y779910D01*
X71717Y781351D01*
X159930Y816970D02*
X159930Y824590D01*
X156120Y820780D02*
X163740Y820780D01*
X107860Y790300D02*
X107872Y791297D01*
X107909Y792294D01*
X107970Y793290D01*
X108056Y794283D01*
X108166Y795275D01*
X108300Y796263D01*
X108458Y797248D01*
X108641Y798228D01*
X108847Y799204D01*
X109078Y800175D01*
X109332Y801139D01*
X109610Y802097D01*
X109911Y803048D01*
X110236Y803991D01*
X110583Y804926D01*
X110954Y805852D01*
X111347Y806769D01*
X111762Y807676D01*
X112199Y808572D01*
X112659Y809458D01*
X113140Y810331D01*
X113642Y811193D01*
X114165Y812042D01*
X114709Y812878D01*
X115273Y813701D01*
X115858Y814509D01*
X116462Y815303D01*
X117085Y816082D01*
X117727Y816845D01*
X118388Y817592D01*
X119067Y818323D01*
X119763Y819037D01*
X120477Y819733D01*
X121208Y820412D01*
X121955Y821073D01*
X122718Y821715D01*
X123497Y822338D01*
X124291Y822942D01*
X125099Y823527D01*
X125922Y824091D01*
X126758Y824635D01*
X127607Y825158D01*
X128469Y825660D01*
X129342Y826141D01*
X130228Y826601D01*
X131124Y827038D01*
X132031Y827453D01*
X132948Y827846D01*
X133874Y828217D01*
X134809Y828564D01*
X135752Y828889D01*
X136703Y829190D01*
X137661Y829468D01*
X138625Y829722D01*
X139596Y829953D01*
X140572Y830159D01*
X141552Y830342D01*
X142537Y830500D01*
X143525Y830634D01*
X144517Y830744D01*
X145510Y830830D01*
X146506Y830891D01*
X147503Y830928D01*
X148500Y830940D01*
X149497Y830928D01*
X150494Y830891D01*
X151490Y830830D01*
X152483Y830744D01*
X153475Y830634D01*
X154463Y830500D01*
X155448Y830342D01*
X156428Y830159D01*
X157404Y829953D01*
X158375Y829722D01*
X159339Y829468D01*
X160297Y829190D01*
X161248Y828889D01*
X162191Y828564D01*
X163126Y828217D01*
X164052Y827846D01*
X164969Y827453D01*
X165876Y827038D01*
X166772Y826601D01*
X167658Y826141D01*
X168531Y825660D01*
X169393Y825158D01*
X170242Y824635D01*
X171078Y824091D01*
X171901Y823527D01*
X172709Y822942D01*
X173503Y822338D01*
X174282Y821715D01*
X175045Y821073D01*
X175792Y820412D01*
X176523Y819733D01*
X177237Y819037D01*
X177933Y818323D01*
X178612Y817592D01*
X179273Y816845D01*
X179915Y816082D01*
X180538Y815303D01*
X181142Y814509D01*
X181727Y813701D01*
X182291Y812878D01*
X182835Y812042D01*
X183358Y811193D01*
X183860Y810331D01*
X184341Y809458D01*
X184801Y808572D01*
X185238Y807676D01*
X185653Y806769D01*
X186046Y805852D01*
X186417Y804926D01*
X186764Y803991D01*
X187089Y803048D01*
X187390Y802097D01*
X187668Y801139D01*
X187922Y800175D01*
X188153Y799204D01*
X188359Y798228D01*
X188542Y797248D01*
X188700Y796263D01*
X188834Y795275D01*
X188944Y794283D01*
X189030Y793290D01*
X189091Y792294D01*
X189128Y791297D01*
X189140Y790300D01*
X189128Y789303D01*
X189091Y788306D01*
X189030Y787310D01*
X188944Y786317D01*
X188834Y785325D01*
X188700Y784337D01*
X188542Y783352D01*
X188359Y782372D01*
X188153Y781396D01*
X187922Y780425D01*
X187668Y779461D01*
X187390Y778503D01*
X187089Y777552D01*
X186764Y776609D01*
X186417Y775674D01*
X186046Y774748D01*
X185653Y773831D01*
X185238Y772924D01*
X184801Y772028D01*
X184341Y771142D01*
X183860Y770269D01*
X183358Y769407D01*
X182835Y768558D01*
X182291Y767722D01*
X181727Y766899D01*
X181142Y766091D01*
X180538Y765297D01*
X179915Y764518D01*
X179273Y763755D01*
X178612Y763008D01*
X177933Y762277D01*
X177237Y761563D01*
X176523Y760867D01*
X175792Y760188D01*
X175045Y759527D01*
X174282Y758885D01*
X173503Y758262D01*
X172709Y757658D01*
X171901Y757073D01*
X171078Y756509D01*
X170242Y755965D01*
X169393Y755442D01*
X168531Y754940D01*
X167658Y754459D01*
X166772Y753999D01*
X165876Y753562D01*
X164969Y753147D01*
X164052Y752754D01*
X163126Y752383D01*
X162191Y752036D01*
X161248Y751711D01*
X160297Y751410D01*
X159339Y751132D01*
X158375Y750878D01*
X157404Y750647D01*
X156428Y750441D01*
X155448Y750258D01*
X154463Y750100D01*
X153475Y749966D01*
X152483Y749856D01*
X151490Y749770D01*
X150494Y749709D01*
X149497Y749672D01*
X148500Y749660D01*
X147503Y749672D01*
X146506Y749709D01*
X145510Y749770D01*
X144517Y749856D01*
X143525Y749966D01*
X142537Y750100D01*
X141552Y750258D01*
X140572Y750441D01*
X139596Y750647D01*
X138625Y750878D01*
X137661Y751132D01*
X136703Y751410D01*
X135752Y751711D01*
X134809Y752036D01*
X133874Y752383D01*
X132948Y752754D01*
X132031Y753147D01*
X131124Y753562D01*
X130228Y753999D01*
X129342Y754459D01*
X128469Y754940D01*
X127607Y755442D01*
X126758Y755965D01*
X125922Y756509D01*
X125099Y757073D01*
X124291Y757658D01*
X123497Y758262D01*
X122718Y758885D01*
X121955Y759527D01*
X121208Y760188D01*
X120477Y760867D01*
X119763Y761563D01*
X119067Y762277D01*
X118388Y763008D01*
X117727Y763755D01*
X117085Y764518D01*
X116462Y765297D01*
X115858Y766091D01*
X115273Y766899D01*
X114709Y767722D01*
X114165Y768558D01*
X113642Y769407D01*
X113140Y770269D01*
X112659Y771142D01*
X112199Y772028D01*
X111762Y772924D01*
X111347Y773831D01*
X110954Y774748D01*
X110583Y775674D01*
X110236Y776609D01*
X109911Y777552D01*
X109610Y778503D01*
X109332Y779461D01*
X109078Y780425D01*
X108847Y781396D01*
X108641Y782372D01*
X108458Y783352D01*
X108300Y784337D01*
X108166Y785325D01*
X108056Y786317D01*
X107970Y787310D01*
X107909Y788306D01*
X107872Y789303D01*
X107860Y790300D01*
X102804Y753345D02*
X104244Y751905D01*
X102804Y753345D02*
X99923Y753345D01*
X98482Y751905D01*
X98482Y746143D01*
X99923Y744702D01*
X102804Y744702D01*
X104244Y746143D01*
X107837Y750464D02*
X110718Y753345D01*
X110718Y744702D01*
X107837Y744702D02*
X113599Y744702D01*
X117192Y751905D02*
X118633Y753345D01*
X121514Y753345D01*
X122955Y751905D01*
X122955Y750464D01*
X121514Y749024D01*
X120074Y749024D01*
X121514Y749024D02*
X122955Y747583D01*
X122955Y746143D01*
X121514Y744702D01*
X118633Y744702D01*
X117192Y746143D01*
X211822Y838028D02*
X211918Y838121D01*
X212017Y838211D01*
X212118Y838298D01*
X212222Y838382D01*
X212328Y838463D01*
X212436Y838541D01*
X212547Y838616D01*
X212660Y838687D01*
X212775Y838755D01*
X212892Y838819D01*
X213011Y838880D01*
X213132Y838937D01*
X213254Y838991D01*
X213378Y839041D01*
X213504Y839088D01*
X213630Y839130D01*
X213758Y839169D01*
X213887Y839204D01*
X214017Y839235D01*
X214148Y839262D01*
X214279Y839286D01*
X214412Y839305D01*
X214544Y839321D01*
X214678Y839332D01*
X214811Y839340D01*
X214945Y839344D01*
X215078Y839343D01*
X215212Y839339D01*
X215345Y839331D01*
X215478Y839318D01*
X215611Y839302D01*
X215743Y839282D01*
X215874Y839258D01*
X216005Y839230D01*
X216135Y839198D01*
X216264Y839163D01*
X216391Y839123D01*
X216518Y839080D01*
X216643Y839033D01*
X216766Y838982D01*
X216888Y838928D01*
X217009Y838870D01*
X217128Y838808D01*
X217244Y838743D01*
X217359Y838675D01*
X217472Y838603D01*
X217582Y838528D01*
X217690Y838450D01*
X217796Y838368D01*
X217900Y838283D01*
X218000Y838196D01*
X218099Y838105D01*
X218194Y838011D01*
X218287Y837915D01*
X218376Y837816D01*
X218463Y837714D01*
X218547Y837610D01*
X218627Y837503D01*
X218704Y837394D01*
X218778Y837283D01*
X218849Y837170D01*
X218916Y837054D01*
X218980Y836937D01*
X219040Y836818D01*
X219097Y836697D01*
X219150Y836574D01*
X219200Y836450D01*
X219245Y836324D01*
X219287Y836197D01*
X219325Y836069D01*
X219360Y835940D01*
X219390Y835810D01*
X219417Y835679D01*
X219440Y835547D01*
X219458Y835415D01*
X219473Y835282D01*
X219484Y835149D01*
X219491Y835016D01*
X219494Y834882D01*
X219493Y834749D01*
X219488Y834615D01*
X219479Y834482D01*
X219466Y834349D01*
X219449Y834216D01*
X219428Y834084D01*
X219404Y833953D01*
X219375Y833822D01*
X219342Y833693D01*
X219306Y833564D01*
X219266Y833437D01*
X219222Y833310D01*
X219174Y833186D01*
X219123Y833062D01*
X219068Y832940D01*
X219010Y832820D01*
X218947Y832702D01*
X218882Y832586D01*
X218813Y832471D01*
X218740Y832359D01*
X218665Y832249D01*
X218586Y832141D01*
X218504Y832036D01*
X218418Y831933D01*
X218330Y831832D01*
X218239Y831735D01*
X218145Y831640D01*
X218048Y831548D01*
X211952Y800052D02*
X211855Y799960D01*
X211761Y799865D01*
X211670Y799768D01*
X211582Y799667D01*
X211496Y799564D01*
X211414Y799459D01*
X211335Y799351D01*
X211260Y799241D01*
X211187Y799129D01*
X211118Y799014D01*
X211053Y798898D01*
X210990Y798780D01*
X210932Y798660D01*
X210877Y798538D01*
X210826Y798414D01*
X210778Y798290D01*
X210734Y798163D01*
X210694Y798036D01*
X210658Y797907D01*
X210625Y797778D01*
X210596Y797647D01*
X210572Y797516D01*
X210551Y797384D01*
X210534Y797251D01*
X210521Y797118D01*
X210512Y796985D01*
X210507Y796851D01*
X210506Y796718D01*
X210509Y796584D01*
X210516Y796451D01*
X210527Y796318D01*
X210542Y796185D01*
X210560Y796053D01*
X210583Y795921D01*
X210610Y795790D01*
X210640Y795660D01*
X210675Y795531D01*
X210713Y795403D01*
X210755Y795276D01*
X210800Y795150D01*
X210850Y795026D01*
X210903Y794903D01*
X210960Y794782D01*
X211020Y794663D01*
X211084Y794546D01*
X211151Y794430D01*
X211222Y794317D01*
X211296Y794206D01*
X211373Y794097D01*
X211453Y793990D01*
X211537Y793886D01*
X211624Y793784D01*
X211713Y793685D01*
X211806Y793589D01*
X211901Y793495D01*
X212000Y793404D01*
X212100Y793317D01*
X212204Y793232D01*
X212310Y793150D01*
X212418Y793072D01*
X212528Y792997D01*
X212641Y792925D01*
X212756Y792857D01*
X212872Y792792D01*
X212991Y792730D01*
X213112Y792672D01*
X213234Y792618D01*
X213357Y792567D01*
X213482Y792520D01*
X213609Y792477D01*
X213736Y792437D01*
X213865Y792402D01*
X213995Y792370D01*
X214126Y792342D01*
X214257Y792318D01*
X214389Y792298D01*
X214522Y792282D01*
X214655Y792269D01*
X214788Y792261D01*
X214922Y792257D01*
X215055Y792256D01*
X215189Y792260D01*
X215322Y792268D01*
X215456Y792279D01*
X215588Y792295D01*
X215721Y792314D01*
X215852Y792338D01*
X215983Y792365D01*
X216113Y792396D01*
X216242Y792431D01*
X216370Y792470D01*
X216496Y792512D01*
X216622Y792559D01*
X216746Y792609D01*
X216868Y792663D01*
X216989Y792720D01*
X217108Y792781D01*
X217225Y792845D01*
X217340Y792913D01*
X217453Y792984D01*
X217564Y793059D01*
X217672Y793137D01*
X217778Y793218D01*
X217882Y793302D01*
X217983Y793389D01*
X218082Y793479D01*
X218178Y793572D01*
X211952Y800052D02*
X218302Y806402D01*
X224652Y800052D02*
X218302Y793702D01*
X211952Y825452D02*
X218302Y831802D01*
X211952Y838152D02*
X205602Y831802D01*
D22*
X208650Y828500D02*
X215000Y834850D01*
X221350Y803100D02*
X215000Y796750D01*
X212460Y813260D02*
X217540Y818340D01*
D13*
X183250Y815800D02*
X183260Y816579D01*
X183288Y817358D01*
X183336Y818136D01*
X183403Y818912D01*
X183489Y819687D01*
X183594Y820459D01*
X183717Y821228D01*
X183860Y821994D01*
X184021Y822756D01*
X184202Y823515D01*
X184400Y824268D01*
X184617Y825017D01*
X184852Y825759D01*
X185106Y826496D01*
X185377Y827227D01*
X185667Y827950D01*
X185974Y828666D01*
X186298Y829375D01*
X186640Y830075D01*
X186999Y830767D01*
X187375Y831450D01*
X187767Y832123D01*
X188176Y832786D01*
X188601Y833439D01*
X189042Y834082D01*
X189498Y834713D01*
X189970Y835334D01*
X190457Y835942D01*
X190959Y836538D01*
X191475Y837122D01*
X192005Y837693D01*
X192549Y838251D01*
X193107Y838795D01*
X193678Y839325D01*
X194262Y839841D01*
X194858Y840343D01*
X195466Y840830D01*
X196087Y841302D01*
X196718Y841758D01*
X197361Y842199D01*
X198014Y842624D01*
X198677Y843033D01*
X199350Y843425D01*
X200033Y843801D01*
X200725Y844160D01*
X201425Y844502D01*
X202134Y844826D01*
X202850Y845133D01*
X203573Y845423D01*
X204304Y845694D01*
X205041Y845948D01*
X205783Y846183D01*
X206532Y846400D01*
X207285Y846598D01*
X208044Y846779D01*
X208806Y846940D01*
X209572Y847083D01*
X210341Y847206D01*
X211113Y847311D01*
X211888Y847397D01*
X212664Y847464D01*
X213442Y847512D01*
X214221Y847540D01*
X215000Y847550D01*
X215779Y847540D01*
X216558Y847512D01*
X217336Y847464D01*
X218112Y847397D01*
X218887Y847311D01*
X219659Y847206D01*
X220428Y847083D01*
X221194Y846940D01*
X221956Y846779D01*
X222715Y846598D01*
X223468Y846400D01*
X224217Y846183D01*
X224959Y845948D01*
X225696Y845694D01*
X226427Y845423D01*
X227150Y845133D01*
X227866Y844826D01*
X228575Y844502D01*
X229275Y844160D01*
X229967Y843801D01*
X230650Y843425D01*
X231323Y843033D01*
X231986Y842624D01*
X232639Y842199D01*
X233282Y841758D01*
X233913Y841302D01*
X234534Y840830D01*
X235142Y840343D01*
X235738Y839841D01*
X236322Y839325D01*
X236893Y838795D01*
X237451Y838251D01*
X237995Y837693D01*
X238525Y837122D01*
X239041Y836538D01*
X239543Y835942D01*
X240030Y835334D01*
X240502Y834713D01*
X240958Y834082D01*
X241399Y833439D01*
X241824Y832786D01*
X242233Y832123D01*
X242625Y831450D01*
X243001Y830767D01*
X243360Y830075D01*
X243702Y829375D01*
X244026Y828666D01*
X244333Y827950D01*
X244623Y827227D01*
X244894Y826496D01*
X245148Y825759D01*
X245383Y825017D01*
X245600Y824268D01*
X245798Y823515D01*
X245979Y822756D01*
X246140Y821994D01*
X246283Y821228D01*
X246406Y820459D01*
X246511Y819687D01*
X246597Y818912D01*
X246664Y818136D01*
X246712Y817358D01*
X246740Y816579D01*
X246750Y815800D01*
X246740Y815021D01*
X246712Y814242D01*
X246664Y813464D01*
X246597Y812688D01*
X246511Y811913D01*
X246406Y811141D01*
X246283Y810372D01*
X246140Y809606D01*
X245979Y808844D01*
X245798Y808085D01*
X245600Y807332D01*
X245383Y806583D01*
X245148Y805841D01*
X244894Y805104D01*
X244623Y804373D01*
X244333Y803650D01*
X244026Y802934D01*
X243702Y802225D01*
X243360Y801525D01*
X243001Y800833D01*
X242625Y800150D01*
X242233Y799477D01*
X241824Y798814D01*
X241399Y798161D01*
X240958Y797518D01*
X240502Y796887D01*
X240030Y796266D01*
X239543Y795658D01*
X239041Y795062D01*
X238525Y794478D01*
X237995Y793907D01*
X237451Y793349D01*
X236893Y792805D01*
X236322Y792275D01*
X235738Y791759D01*
X235142Y791257D01*
X234534Y790770D01*
X233913Y790298D01*
X233282Y789842D01*
X232639Y789401D01*
X231986Y788976D01*
X231323Y788567D01*
X230650Y788175D01*
X229967Y787799D01*
X229275Y787440D01*
X228575Y787098D01*
X227866Y786774D01*
X227150Y786467D01*
X226427Y786177D01*
X225696Y785906D01*
X224959Y785652D01*
X224217Y785417D01*
X223468Y785200D01*
X222715Y785002D01*
X221956Y784821D01*
X221194Y784660D01*
X220428Y784517D01*
X219659Y784394D01*
X218887Y784289D01*
X218112Y784203D01*
X217336Y784136D01*
X216558Y784088D01*
X215779Y784060D01*
X215000Y784050D01*
X214221Y784060D01*
X213442Y784088D01*
X212664Y784136D01*
X211888Y784203D01*
X211113Y784289D01*
X210341Y784394D01*
X209572Y784517D01*
X208806Y784660D01*
X208044Y784821D01*
X207285Y785002D01*
X206532Y785200D01*
X205783Y785417D01*
X205041Y785652D01*
X204304Y785906D01*
X203573Y786177D01*
X202850Y786467D01*
X202134Y786774D01*
X201425Y787098D01*
X200725Y787440D01*
X200033Y787799D01*
X199350Y788175D01*
X198677Y788567D01*
X198014Y788976D01*
X197361Y789401D01*
X196718Y789842D01*
X196087Y790298D01*
X195466Y790770D01*
X194858Y791257D01*
X194262Y791759D01*
X193678Y792275D01*
X193107Y792805D01*
X192549Y793349D01*
X192005Y793907D01*
X191475Y794478D01*
X190959Y795062D01*
X190457Y795658D01*
X189970Y796266D01*
X189498Y796887D01*
X189042Y797518D01*
X188601Y798161D01*
X188176Y798814D01*
X187767Y799477D01*
X187375Y800150D01*
X186999Y800833D01*
X186640Y801525D01*
X186298Y802225D01*
X185974Y802934D01*
X185667Y803650D01*
X185377Y804373D01*
X185106Y805104D01*
X184852Y805841D01*
X184617Y806583D01*
X184400Y807332D01*
X184202Y808085D01*
X184021Y808844D01*
X183860Y809606D01*
X183717Y810372D01*
X183594Y811141D01*
X183489Y811913D01*
X183403Y812688D01*
X183336Y813464D01*
X183288Y814242D01*
X183260Y815021D01*
X183250Y815800D01*
X206652Y779955D02*
X206652Y771312D01*
X212414Y771312D01*
X216007Y771312D02*
X221769Y771312D01*
X216007Y771312D02*
X221769Y777074D01*
X221769Y778515D01*
X220329Y779955D01*
X217447Y779955D01*
X216007Y778515D01*
X187630Y189290D02*
X187630Y120710D01*
X12370Y120710D02*
X12370Y189290D01*
X49200Y120710D02*
X187630Y120710D01*
X49200Y120710D02*
X12370Y120710D01*
X33960Y180400D02*
X44120Y180400D01*
X152070Y180400D02*
X162230Y180400D01*
X118796Y180400D02*
X118794Y180514D01*
X118788Y180628D01*
X118778Y180741D01*
X118765Y180855D01*
X118747Y180967D01*
X118725Y181079D01*
X118700Y181190D01*
X118671Y181300D01*
X118638Y181410D01*
X118601Y181517D01*
X118561Y181624D01*
X118517Y181729D01*
X118469Y181833D01*
X118418Y181935D01*
X118363Y182035D01*
X118305Y182133D01*
X118243Y182229D01*
X118179Y182322D01*
X118111Y182414D01*
X118040Y182503D01*
X117966Y182590D01*
X117889Y182674D01*
X117809Y182755D01*
X117726Y182833D01*
X117641Y182909D01*
X117553Y182982D01*
X117462Y183051D01*
X117370Y183117D01*
X117275Y183181D01*
X117178Y183240D01*
X117079Y183297D01*
X116978Y183350D01*
X116875Y183399D01*
X116771Y183445D01*
X116665Y183487D01*
X116558Y183526D01*
X116449Y183561D01*
X116339Y183592D01*
X116229Y183619D01*
X116117Y183643D01*
X116005Y183662D01*
X115892Y183678D01*
X115779Y183690D01*
X115665Y183698D01*
X115551Y183702D01*
X115437Y183702D01*
X115323Y183698D01*
X115209Y183690D01*
X115096Y183678D01*
X114983Y183662D01*
X114871Y183643D01*
X114759Y183619D01*
X114649Y183592D01*
X114539Y183561D01*
X114430Y183526D01*
X114323Y183487D01*
X114217Y183445D01*
X114113Y183399D01*
X114010Y183350D01*
X113909Y183297D01*
X113810Y183240D01*
X113713Y183181D01*
X113618Y183117D01*
X113526Y183051D01*
X113435Y182982D01*
X113347Y182909D01*
X113262Y182833D01*
X113179Y182755D01*
X113099Y182674D01*
X113022Y182590D01*
X112948Y182503D01*
X112877Y182414D01*
X112809Y182322D01*
X112745Y182229D01*
X112683Y182133D01*
X112625Y182035D01*
X112570Y181935D01*
X112519Y181833D01*
X112471Y181729D01*
X112427Y181624D01*
X112387Y181517D01*
X112350Y181410D01*
X112317Y181300D01*
X112288Y181190D01*
X112263Y181079D01*
X112241Y180967D01*
X112223Y180855D01*
X112210Y180741D01*
X112200Y180628D01*
X112194Y180514D01*
X112192Y180400D01*
X118796Y180400D02*
X118798Y180286D01*
X118804Y180172D01*
X118814Y180059D01*
X118827Y179945D01*
X118845Y179833D01*
X118867Y179721D01*
X118892Y179610D01*
X118921Y179500D01*
X118954Y179390D01*
X118991Y179283D01*
X119031Y179176D01*
X119075Y179071D01*
X119123Y178967D01*
X119174Y178865D01*
X119229Y178765D01*
X119287Y178667D01*
X119349Y178571D01*
X119413Y178478D01*
X119481Y178386D01*
X119552Y178297D01*
X119626Y178210D01*
X119703Y178126D01*
X119783Y178045D01*
X119866Y177967D01*
X119951Y177891D01*
X120039Y177818D01*
X120130Y177749D01*
X120222Y177683D01*
X120317Y177619D01*
X120414Y177560D01*
X120513Y177503D01*
X120614Y177450D01*
X120717Y177401D01*
X120821Y177355D01*
X120927Y177313D01*
X121034Y177274D01*
X121143Y177239D01*
X121253Y177208D01*
X121363Y177181D01*
X121475Y177157D01*
X121587Y177138D01*
X121700Y177122D01*
X121813Y177110D01*
X121927Y177102D01*
X122041Y177098D01*
X122155Y177098D01*
X122269Y177102D01*
X122383Y177110D01*
X122496Y177122D01*
X122609Y177138D01*
X122721Y177157D01*
X122833Y177181D01*
X122943Y177208D01*
X123053Y177239D01*
X123162Y177274D01*
X123269Y177313D01*
X123375Y177355D01*
X123479Y177401D01*
X123582Y177450D01*
X123683Y177503D01*
X123782Y177560D01*
X123879Y177619D01*
X123974Y177683D01*
X124066Y177749D01*
X124157Y177818D01*
X124245Y177891D01*
X124330Y177967D01*
X124413Y178045D01*
X124493Y178126D01*
X124570Y178210D01*
X124644Y178297D01*
X124715Y178386D01*
X124783Y178478D01*
X124847Y178571D01*
X124909Y178667D01*
X124967Y178765D01*
X125022Y178865D01*
X125073Y178967D01*
X125121Y179071D01*
X125165Y179176D01*
X125205Y179283D01*
X125242Y179390D01*
X125275Y179500D01*
X125304Y179610D01*
X125329Y179721D01*
X125351Y179833D01*
X125369Y179945D01*
X125382Y180059D01*
X125392Y180172D01*
X125398Y180286D01*
X125400Y180400D01*
X80696Y180400D02*
X80694Y180514D01*
X80688Y180628D01*
X80678Y180741D01*
X80665Y180855D01*
X80647Y180967D01*
X80625Y181079D01*
X80600Y181190D01*
X80571Y181300D01*
X80538Y181410D01*
X80501Y181517D01*
X80461Y181624D01*
X80417Y181729D01*
X80369Y181833D01*
X80318Y181935D01*
X80263Y182035D01*
X80205Y182133D01*
X80143Y182229D01*
X80079Y182322D01*
X80011Y182414D01*
X79940Y182503D01*
X79866Y182590D01*
X79789Y182674D01*
X79709Y182755D01*
X79626Y182833D01*
X79541Y182909D01*
X79453Y182982D01*
X79362Y183051D01*
X79270Y183117D01*
X79175Y183181D01*
X79078Y183240D01*
X78979Y183297D01*
X78878Y183350D01*
X78775Y183399D01*
X78671Y183445D01*
X78565Y183487D01*
X78458Y183526D01*
X78349Y183561D01*
X78239Y183592D01*
X78129Y183619D01*
X78017Y183643D01*
X77905Y183662D01*
X77792Y183678D01*
X77679Y183690D01*
X77565Y183698D01*
X77451Y183702D01*
X77337Y183702D01*
X77223Y183698D01*
X77109Y183690D01*
X76996Y183678D01*
X76883Y183662D01*
X76771Y183643D01*
X76659Y183619D01*
X76549Y183592D01*
X76439Y183561D01*
X76330Y183526D01*
X76223Y183487D01*
X76117Y183445D01*
X76013Y183399D01*
X75910Y183350D01*
X75809Y183297D01*
X75710Y183240D01*
X75613Y183181D01*
X75518Y183117D01*
X75426Y183051D01*
X75335Y182982D01*
X75247Y182909D01*
X75162Y182833D01*
X75079Y182755D01*
X74999Y182674D01*
X74922Y182590D01*
X74848Y182503D01*
X74777Y182414D01*
X74709Y182322D01*
X74645Y182229D01*
X74583Y182133D01*
X74525Y182035D01*
X74470Y181935D01*
X74419Y181833D01*
X74371Y181729D01*
X74327Y181624D01*
X74287Y181517D01*
X74250Y181410D01*
X74217Y181300D01*
X74188Y181190D01*
X74163Y181079D01*
X74141Y180967D01*
X74123Y180855D01*
X74110Y180741D01*
X74100Y180628D01*
X74094Y180514D01*
X74092Y180400D01*
X80696Y180400D02*
X80698Y180286D01*
X80704Y180172D01*
X80714Y180059D01*
X80727Y179945D01*
X80745Y179833D01*
X80767Y179721D01*
X80792Y179610D01*
X80821Y179500D01*
X80854Y179390D01*
X80891Y179283D01*
X80931Y179176D01*
X80975Y179071D01*
X81023Y178967D01*
X81074Y178865D01*
X81129Y178765D01*
X81187Y178667D01*
X81249Y178571D01*
X81313Y178478D01*
X81381Y178386D01*
X81452Y178297D01*
X81526Y178210D01*
X81603Y178126D01*
X81683Y178045D01*
X81766Y177967D01*
X81851Y177891D01*
X81939Y177818D01*
X82030Y177749D01*
X82122Y177683D01*
X82217Y177619D01*
X82314Y177560D01*
X82413Y177503D01*
X82514Y177450D01*
X82617Y177401D01*
X82721Y177355D01*
X82827Y177313D01*
X82934Y177274D01*
X83043Y177239D01*
X83153Y177208D01*
X83263Y177181D01*
X83375Y177157D01*
X83487Y177138D01*
X83600Y177122D01*
X83713Y177110D01*
X83827Y177102D01*
X83941Y177098D01*
X84055Y177098D01*
X84169Y177102D01*
X84283Y177110D01*
X84396Y177122D01*
X84509Y177138D01*
X84621Y177157D01*
X84733Y177181D01*
X84843Y177208D01*
X84953Y177239D01*
X85062Y177274D01*
X85169Y177313D01*
X85275Y177355D01*
X85379Y177401D01*
X85482Y177450D01*
X85583Y177503D01*
X85682Y177560D01*
X85779Y177619D01*
X85874Y177683D01*
X85966Y177749D01*
X86057Y177818D01*
X86145Y177891D01*
X86230Y177967D01*
X86313Y178045D01*
X86393Y178126D01*
X86470Y178210D01*
X86544Y178297D01*
X86615Y178386D01*
X86683Y178478D01*
X86747Y178571D01*
X86809Y178667D01*
X86867Y178765D01*
X86922Y178865D01*
X86973Y178967D01*
X87021Y179071D01*
X87065Y179176D01*
X87105Y179283D01*
X87142Y179390D01*
X87175Y179500D01*
X87204Y179610D01*
X87229Y179721D01*
X87251Y179833D01*
X87269Y179945D01*
X87282Y180059D01*
X87292Y180172D01*
X87298Y180286D01*
X87300Y180400D01*
X49200Y189290D02*
X12370Y189290D01*
X49200Y189290D02*
X187630Y189290D01*
X39040Y185480D02*
X39040Y175320D01*
X49200Y142300D02*
X49200Y120710D01*
X49200Y167700D02*
X49200Y189290D01*
X59682Y117375D02*
X59682Y108732D01*
X59682Y117375D02*
X64003Y117375D01*
X65444Y115935D01*
X65444Y114494D01*
X64003Y113054D01*
X65444Y111613D01*
X65444Y110173D01*
X64003Y108732D01*
X59682Y108732D01*
X59682Y113054D02*
X64003Y113054D01*
X69037Y108732D02*
X74799Y108732D01*
X69037Y108732D02*
X74799Y114494D01*
X74799Y115935D01*
X73359Y117375D01*
X70477Y117375D01*
X69037Y115935D01*
X10790Y85000D02*
X10799Y85717D01*
X10825Y86433D01*
X10869Y87149D01*
X10931Y87863D01*
X11010Y88576D01*
X11106Y89286D01*
X11220Y89994D01*
X11351Y90699D01*
X11500Y91400D01*
X11665Y92097D01*
X11848Y92791D01*
X12048Y93479D01*
X12264Y94163D01*
X12497Y94841D01*
X12747Y95513D01*
X13013Y96178D01*
X13296Y96837D01*
X13594Y97489D01*
X13909Y98133D01*
X14239Y98769D01*
X14585Y99398D01*
X14946Y100017D01*
X15322Y100627D01*
X15713Y101228D01*
X16118Y101819D01*
X16538Y102400D01*
X16972Y102971D01*
X17420Y103531D01*
X17882Y104079D01*
X18357Y104616D01*
X18845Y105141D01*
X19345Y105655D01*
X19859Y106155D01*
X20384Y106643D01*
X20921Y107118D01*
X21469Y107580D01*
X22029Y108028D01*
X22600Y108462D01*
X23181Y108882D01*
X23772Y109287D01*
X24373Y109678D01*
X24983Y110054D01*
X25602Y110415D01*
X26231Y110761D01*
X26867Y111091D01*
X27511Y111406D01*
X28163Y111704D01*
X28822Y111987D01*
X29487Y112253D01*
X30159Y112503D01*
X30837Y112736D01*
X31521Y112952D01*
X32209Y113152D01*
X32903Y113335D01*
X33600Y113500D01*
X34301Y113649D01*
X35006Y113780D01*
X35714Y113894D01*
X36424Y113990D01*
X37137Y114069D01*
X37851Y114131D01*
X38567Y114175D01*
X39283Y114201D01*
X40000Y114210D01*
X40717Y114201D01*
X41433Y114175D01*
X42149Y114131D01*
X42863Y114069D01*
X43576Y113990D01*
X44286Y113894D01*
X44994Y113780D01*
X45699Y113649D01*
X46400Y113500D01*
X47097Y113335D01*
X47791Y113152D01*
X48479Y112952D01*
X49163Y112736D01*
X49841Y112503D01*
X50513Y112253D01*
X51178Y111987D01*
X51837Y111704D01*
X52489Y111406D01*
X53133Y111091D01*
X53769Y110761D01*
X54398Y110415D01*
X55017Y110054D01*
X55627Y109678D01*
X56228Y109287D01*
X56819Y108882D01*
X57400Y108462D01*
X57971Y108028D01*
X58531Y107580D01*
X59079Y107118D01*
X59616Y106643D01*
X60141Y106155D01*
X60655Y105655D01*
X61155Y105141D01*
X61643Y104616D01*
X62118Y104079D01*
X62580Y103531D01*
X63028Y102971D01*
X63462Y102400D01*
X63882Y101819D01*
X64287Y101228D01*
X64678Y100627D01*
X65054Y100017D01*
X65415Y99398D01*
X65761Y98769D01*
X66091Y98133D01*
X66406Y97489D01*
X66704Y96837D01*
X66987Y96178D01*
X67253Y95513D01*
X67503Y94841D01*
X67736Y94163D01*
X67952Y93479D01*
X68152Y92791D01*
X68335Y92097D01*
X68500Y91400D01*
X68649Y90699D01*
X68780Y89994D01*
X68894Y89286D01*
X68990Y88576D01*
X69069Y87863D01*
X69131Y87149D01*
X69175Y86433D01*
X69201Y85717D01*
X69210Y85000D01*
X69201Y84283D01*
X69175Y83567D01*
X69131Y82851D01*
X69069Y82137D01*
X68990Y81424D01*
X68894Y80714D01*
X68780Y80006D01*
X68649Y79301D01*
X68500Y78600D01*
X68335Y77903D01*
X68152Y77209D01*
X67952Y76521D01*
X67736Y75837D01*
X67503Y75159D01*
X67253Y74487D01*
X66987Y73822D01*
X66704Y73163D01*
X66406Y72511D01*
X66091Y71867D01*
X65761Y71231D01*
X65415Y70602D01*
X65054Y69983D01*
X64678Y69373D01*
X64287Y68772D01*
X63882Y68181D01*
X63462Y67600D01*
X63028Y67029D01*
X62580Y66469D01*
X62118Y65921D01*
X61643Y65384D01*
X61155Y64859D01*
X60655Y64345D01*
X60141Y63845D01*
X59616Y63357D01*
X59079Y62882D01*
X58531Y62420D01*
X57971Y61972D01*
X57400Y61538D01*
X56819Y61118D01*
X56228Y60713D01*
X55627Y60322D01*
X55017Y59946D01*
X54398Y59585D01*
X53769Y59239D01*
X53133Y58909D01*
X52489Y58594D01*
X51837Y58296D01*
X51178Y58013D01*
X50513Y57747D01*
X49841Y57497D01*
X49163Y57264D01*
X48479Y57048D01*
X47791Y56848D01*
X47097Y56665D01*
X46400Y56500D01*
X45699Y56351D01*
X44994Y56220D01*
X44286Y56106D01*
X43576Y56010D01*
X42863Y55931D01*
X42149Y55869D01*
X41433Y55825D01*
X40717Y55799D01*
X40000Y55790D01*
X39283Y55799D01*
X38567Y55825D01*
X37851Y55869D01*
X37137Y55931D01*
X36424Y56010D01*
X35714Y56106D01*
X35006Y56220D01*
X34301Y56351D01*
X33600Y56500D01*
X32903Y56665D01*
X32209Y56848D01*
X31521Y57048D01*
X30837Y57264D01*
X30159Y57497D01*
X29487Y57747D01*
X28822Y58013D01*
X28163Y58296D01*
X27511Y58594D01*
X26867Y58909D01*
X26231Y59239D01*
X25602Y59585D01*
X24983Y59946D01*
X24373Y60322D01*
X23772Y60713D01*
X23181Y61118D01*
X22600Y61538D01*
X22029Y61972D01*
X21469Y62420D01*
X20921Y62882D01*
X20384Y63357D01*
X19859Y63845D01*
X19345Y64345D01*
X18845Y64859D01*
X18357Y65384D01*
X17882Y65921D01*
X17420Y66469D01*
X16972Y67029D01*
X16538Y67600D01*
X16118Y68181D01*
X15713Y68772D01*
X15322Y69373D01*
X14946Y69983D01*
X14585Y70602D01*
X14239Y71231D01*
X13909Y71867D01*
X13594Y72511D01*
X13296Y73163D01*
X13013Y73822D01*
X12747Y74487D01*
X12497Y75159D01*
X12264Y75837D01*
X12048Y76521D01*
X11848Y77209D01*
X11665Y77903D01*
X11500Y78600D01*
X11351Y79301D01*
X11220Y80006D01*
X11106Y80714D01*
X11010Y81424D01*
X10931Y82137D01*
X10869Y82851D01*
X10825Y83567D01*
X10799Y84283D01*
X10790Y85000D01*
D14*
X25000Y85000D02*
X25005Y85368D01*
X25018Y85736D01*
X25041Y86103D01*
X25072Y86470D01*
X25113Y86836D01*
X25162Y87201D01*
X25221Y87564D01*
X25288Y87926D01*
X25364Y88287D01*
X25450Y88645D01*
X25543Y89001D01*
X25646Y89354D01*
X25757Y89705D01*
X25877Y90053D01*
X26005Y90398D01*
X26142Y90740D01*
X26287Y91079D01*
X26440Y91413D01*
X26602Y91744D01*
X26771Y92071D01*
X26949Y92393D01*
X27134Y92712D01*
X27327Y93025D01*
X27528Y93334D01*
X27736Y93637D01*
X27952Y93935D01*
X28175Y94228D01*
X28405Y94516D01*
X28642Y94798D01*
X28886Y95073D01*
X29136Y95343D01*
X29393Y95607D01*
X29657Y95864D01*
X29927Y96114D01*
X30202Y96358D01*
X30484Y96595D01*
X30772Y96825D01*
X31065Y97048D01*
X31363Y97264D01*
X31666Y97472D01*
X31975Y97673D01*
X32288Y97866D01*
X32607Y98051D01*
X32929Y98229D01*
X33256Y98398D01*
X33587Y98560D01*
X33921Y98713D01*
X34260Y98858D01*
X34602Y98995D01*
X34947Y99123D01*
X35295Y99243D01*
X35646Y99354D01*
X35999Y99457D01*
X36355Y99550D01*
X36713Y99636D01*
X37074Y99712D01*
X37436Y99779D01*
X37799Y99838D01*
X38164Y99887D01*
X38530Y99928D01*
X38897Y99959D01*
X39264Y99982D01*
X39632Y99995D01*
X40000Y100000D01*
X40368Y99995D01*
X40736Y99982D01*
X41103Y99959D01*
X41470Y99928D01*
X41836Y99887D01*
X42201Y99838D01*
X42564Y99779D01*
X42926Y99712D01*
X43287Y99636D01*
X43645Y99550D01*
X44001Y99457D01*
X44354Y99354D01*
X44705Y99243D01*
X45053Y99123D01*
X45398Y98995D01*
X45740Y98858D01*
X46079Y98713D01*
X46413Y98560D01*
X46744Y98398D01*
X47071Y98229D01*
X47393Y98051D01*
X47712Y97866D01*
X48025Y97673D01*
X48334Y97472D01*
X48637Y97264D01*
X48935Y97048D01*
X49228Y96825D01*
X49516Y96595D01*
X49798Y96358D01*
X50073Y96114D01*
X50343Y95864D01*
X50607Y95607D01*
X50864Y95343D01*
X51114Y95073D01*
X51358Y94798D01*
X51595Y94516D01*
X51825Y94228D01*
X52048Y93935D01*
X52264Y93637D01*
X52472Y93334D01*
X52673Y93025D01*
X52866Y92712D01*
X53051Y92393D01*
X53229Y92071D01*
X53398Y91744D01*
X53560Y91413D01*
X53713Y91079D01*
X53858Y90740D01*
X53995Y90398D01*
X54123Y90053D01*
X54243Y89705D01*
X54354Y89354D01*
X54457Y89001D01*
X54550Y88645D01*
X54636Y88287D01*
X54712Y87926D01*
X54779Y87564D01*
X54838Y87201D01*
X54887Y86836D01*
X54928Y86470D01*
X54959Y86103D01*
X54982Y85736D01*
X54995Y85368D01*
X55000Y85000D01*
X54995Y84632D01*
X54982Y84264D01*
X54959Y83897D01*
X54928Y83530D01*
X54887Y83164D01*
X54838Y82799D01*
X54779Y82436D01*
X54712Y82074D01*
X54636Y81713D01*
X54550Y81355D01*
X54457Y80999D01*
X54354Y80646D01*
X54243Y80295D01*
X54123Y79947D01*
X53995Y79602D01*
X53858Y79260D01*
X53713Y78921D01*
X53560Y78587D01*
X53398Y78256D01*
X53229Y77929D01*
X53051Y77607D01*
X52866Y77288D01*
X52673Y76975D01*
X52472Y76666D01*
X52264Y76363D01*
X52048Y76065D01*
X51825Y75772D01*
X51595Y75484D01*
X51358Y75202D01*
X51114Y74927D01*
X50864Y74657D01*
X50607Y74393D01*
X50343Y74136D01*
X50073Y73886D01*
X49798Y73642D01*
X49516Y73405D01*
X49228Y73175D01*
X48935Y72952D01*
X48637Y72736D01*
X48334Y72528D01*
X48025Y72327D01*
X47712Y72134D01*
X47393Y71949D01*
X47071Y71771D01*
X46744Y71602D01*
X46413Y71440D01*
X46079Y71287D01*
X45740Y71142D01*
X45398Y71005D01*
X45053Y70877D01*
X44705Y70757D01*
X44354Y70646D01*
X44001Y70543D01*
X43645Y70450D01*
X43287Y70364D01*
X42926Y70288D01*
X42564Y70221D01*
X42201Y70162D01*
X41836Y70113D01*
X41470Y70072D01*
X41103Y70041D01*
X40736Y70018D01*
X40368Y70005D01*
X40000Y70000D01*
X39632Y70005D01*
X39264Y70018D01*
X38897Y70041D01*
X38530Y70072D01*
X38164Y70113D01*
X37799Y70162D01*
X37436Y70221D01*
X37074Y70288D01*
X36713Y70364D01*
X36355Y70450D01*
X35999Y70543D01*
X35646Y70646D01*
X35295Y70757D01*
X34947Y70877D01*
X34602Y71005D01*
X34260Y71142D01*
X33921Y71287D01*
X33587Y71440D01*
X33256Y71602D01*
X32929Y71771D01*
X32607Y71949D01*
X32288Y72134D01*
X31975Y72327D01*
X31666Y72528D01*
X31363Y72736D01*
X31065Y72952D01*
X30772Y73175D01*
X30484Y73405D01*
X30202Y73642D01*
X29927Y73886D01*
X29657Y74136D01*
X29393Y74393D01*
X29136Y74657D01*
X28886Y74927D01*
X28642Y75202D01*
X28405Y75484D01*
X28175Y75772D01*
X27952Y76065D01*
X27736Y76363D01*
X27528Y76666D01*
X27327Y76975D01*
X27134Y77288D01*
X26949Y77607D01*
X26771Y77929D01*
X26602Y78256D01*
X26440Y78587D01*
X26287Y78921D01*
X26142Y79260D01*
X26005Y79602D01*
X25877Y79947D01*
X25757Y80295D01*
X25646Y80646D01*
X25543Y80999D01*
X25450Y81355D01*
X25364Y81713D01*
X25288Y82074D01*
X25221Y82436D01*
X25162Y82799D01*
X25113Y83164D01*
X25072Y83530D01*
X25041Y83897D01*
X25018Y84264D01*
X25005Y84632D01*
X25000Y85000D01*
D13*
X440790Y470000D02*
X440799Y470717D01*
X440825Y471433D01*
X440869Y472149D01*
X440931Y472863D01*
X441010Y473576D01*
X441106Y474286D01*
X441220Y474994D01*
X441351Y475699D01*
X441500Y476400D01*
X441665Y477097D01*
X441848Y477791D01*
X442048Y478479D01*
X442264Y479163D01*
X442497Y479841D01*
X442747Y480513D01*
X443013Y481178D01*
X443296Y481837D01*
X443594Y482489D01*
X443909Y483133D01*
X444239Y483769D01*
X444585Y484398D01*
X444946Y485017D01*
X445322Y485627D01*
X445713Y486228D01*
X446118Y486819D01*
X446538Y487400D01*
X446972Y487971D01*
X447420Y488531D01*
X447882Y489079D01*
X448357Y489616D01*
X448845Y490141D01*
X449345Y490655D01*
X449859Y491155D01*
X450384Y491643D01*
X450921Y492118D01*
X451469Y492580D01*
X452029Y493028D01*
X452600Y493462D01*
X453181Y493882D01*
X453772Y494287D01*
X454373Y494678D01*
X454983Y495054D01*
X455602Y495415D01*
X456231Y495761D01*
X456867Y496091D01*
X457511Y496406D01*
X458163Y496704D01*
X458822Y496987D01*
X459487Y497253D01*
X460159Y497503D01*
X460837Y497736D01*
X461521Y497952D01*
X462209Y498152D01*
X462903Y498335D01*
X463600Y498500D01*
X464301Y498649D01*
X465006Y498780D01*
X465714Y498894D01*
X466424Y498990D01*
X467137Y499069D01*
X467851Y499131D01*
X468567Y499175D01*
X469283Y499201D01*
X470000Y499210D01*
X470717Y499201D01*
X471433Y499175D01*
X472149Y499131D01*
X472863Y499069D01*
X473576Y498990D01*
X474286Y498894D01*
X474994Y498780D01*
X475699Y498649D01*
X476400Y498500D01*
X477097Y498335D01*
X477791Y498152D01*
X478479Y497952D01*
X479163Y497736D01*
X479841Y497503D01*
X480513Y497253D01*
X481178Y496987D01*
X481837Y496704D01*
X482489Y496406D01*
X483133Y496091D01*
X483769Y495761D01*
X484398Y495415D01*
X485017Y495054D01*
X485627Y494678D01*
X486228Y494287D01*
X486819Y493882D01*
X487400Y493462D01*
X487971Y493028D01*
X488531Y492580D01*
X489079Y492118D01*
X489616Y491643D01*
X490141Y491155D01*
X490655Y490655D01*
X491155Y490141D01*
X491643Y489616D01*
X492118Y489079D01*
X492580Y488531D01*
X493028Y487971D01*
X493462Y487400D01*
X493882Y486819D01*
X494287Y486228D01*
X494678Y485627D01*
X495054Y485017D01*
X495415Y484398D01*
X495761Y483769D01*
X496091Y483133D01*
X496406Y482489D01*
X496704Y481837D01*
X496987Y481178D01*
X497253Y480513D01*
X497503Y479841D01*
X497736Y479163D01*
X497952Y478479D01*
X498152Y477791D01*
X498335Y477097D01*
X498500Y476400D01*
X498649Y475699D01*
X498780Y474994D01*
X498894Y474286D01*
X498990Y473576D01*
X499069Y472863D01*
X499131Y472149D01*
X499175Y471433D01*
X499201Y470717D01*
X499210Y470000D01*
X499201Y469283D01*
X499175Y468567D01*
X499131Y467851D01*
X499069Y467137D01*
X498990Y466424D01*
X498894Y465714D01*
X498780Y465006D01*
X498649Y464301D01*
X498500Y463600D01*
X498335Y462903D01*
X498152Y462209D01*
X497952Y461521D01*
X497736Y460837D01*
X497503Y460159D01*
X497253Y459487D01*
X496987Y458822D01*
X496704Y458163D01*
X496406Y457511D01*
X496091Y456867D01*
X495761Y456231D01*
X495415Y455602D01*
X495054Y454983D01*
X494678Y454373D01*
X494287Y453772D01*
X493882Y453181D01*
X493462Y452600D01*
X493028Y452029D01*
X492580Y451469D01*
X492118Y450921D01*
X491643Y450384D01*
X491155Y449859D01*
X490655Y449345D01*
X490141Y448845D01*
X489616Y448357D01*
X489079Y447882D01*
X488531Y447420D01*
X487971Y446972D01*
X487400Y446538D01*
X486819Y446118D01*
X486228Y445713D01*
X485627Y445322D01*
X485017Y444946D01*
X484398Y444585D01*
X483769Y444239D01*
X483133Y443909D01*
X482489Y443594D01*
X481837Y443296D01*
X481178Y443013D01*
X480513Y442747D01*
X479841Y442497D01*
X479163Y442264D01*
X478479Y442048D01*
X477791Y441848D01*
X477097Y441665D01*
X476400Y441500D01*
X475699Y441351D01*
X474994Y441220D01*
X474286Y441106D01*
X473576Y441010D01*
X472863Y440931D01*
X472149Y440869D01*
X471433Y440825D01*
X470717Y440799D01*
X470000Y440790D01*
X469283Y440799D01*
X468567Y440825D01*
X467851Y440869D01*
X467137Y440931D01*
X466424Y441010D01*
X465714Y441106D01*
X465006Y441220D01*
X464301Y441351D01*
X463600Y441500D01*
X462903Y441665D01*
X462209Y441848D01*
X461521Y442048D01*
X460837Y442264D01*
X460159Y442497D01*
X459487Y442747D01*
X458822Y443013D01*
X458163Y443296D01*
X457511Y443594D01*
X456867Y443909D01*
X456231Y444239D01*
X455602Y444585D01*
X454983Y444946D01*
X454373Y445322D01*
X453772Y445713D01*
X453181Y446118D01*
X452600Y446538D01*
X452029Y446972D01*
X451469Y447420D01*
X450921Y447882D01*
X450384Y448357D01*
X449859Y448845D01*
X449345Y449345D01*
X448845Y449859D01*
X448357Y450384D01*
X447882Y450921D01*
X447420Y451469D01*
X446972Y452029D01*
X446538Y452600D01*
X446118Y453181D01*
X445713Y453772D01*
X445322Y454373D01*
X444946Y454983D01*
X444585Y455602D01*
X444239Y456231D01*
X443909Y456867D01*
X443594Y457511D01*
X443296Y458163D01*
X443013Y458822D01*
X442747Y459487D01*
X442497Y460159D01*
X442264Y460837D01*
X442048Y461521D01*
X441848Y462209D01*
X441665Y462903D01*
X441500Y463600D01*
X441351Y464301D01*
X441220Y465006D01*
X441106Y465714D01*
X441010Y466424D01*
X440931Y467137D01*
X440869Y467851D01*
X440825Y468567D01*
X440799Y469283D01*
X440790Y470000D01*
D14*
X455000Y470000D02*
X455005Y470368D01*
X455018Y470736D01*
X455041Y471103D01*
X455072Y471470D01*
X455113Y471836D01*
X455162Y472201D01*
X455221Y472564D01*
X455288Y472926D01*
X455364Y473287D01*
X455450Y473645D01*
X455543Y474001D01*
X455646Y474354D01*
X455757Y474705D01*
X455877Y475053D01*
X456005Y475398D01*
X456142Y475740D01*
X456287Y476079D01*
X456440Y476413D01*
X456602Y476744D01*
X456771Y477071D01*
X456949Y477393D01*
X457134Y477712D01*
X457327Y478025D01*
X457528Y478334D01*
X457736Y478637D01*
X457952Y478935D01*
X458175Y479228D01*
X458405Y479516D01*
X458642Y479798D01*
X458886Y480073D01*
X459136Y480343D01*
X459393Y480607D01*
X459657Y480864D01*
X459927Y481114D01*
X460202Y481358D01*
X460484Y481595D01*
X460772Y481825D01*
X461065Y482048D01*
X461363Y482264D01*
X461666Y482472D01*
X461975Y482673D01*
X462288Y482866D01*
X462607Y483051D01*
X462929Y483229D01*
X463256Y483398D01*
X463587Y483560D01*
X463921Y483713D01*
X464260Y483858D01*
X464602Y483995D01*
X464947Y484123D01*
X465295Y484243D01*
X465646Y484354D01*
X465999Y484457D01*
X466355Y484550D01*
X466713Y484636D01*
X467074Y484712D01*
X467436Y484779D01*
X467799Y484838D01*
X468164Y484887D01*
X468530Y484928D01*
X468897Y484959D01*
X469264Y484982D01*
X469632Y484995D01*
X470000Y485000D01*
X470368Y484995D01*
X470736Y484982D01*
X471103Y484959D01*
X471470Y484928D01*
X471836Y484887D01*
X472201Y484838D01*
X472564Y484779D01*
X472926Y484712D01*
X473287Y484636D01*
X473645Y484550D01*
X474001Y484457D01*
X474354Y484354D01*
X474705Y484243D01*
X475053Y484123D01*
X475398Y483995D01*
X475740Y483858D01*
X476079Y483713D01*
X476413Y483560D01*
X476744Y483398D01*
X477071Y483229D01*
X477393Y483051D01*
X477712Y482866D01*
X478025Y482673D01*
X478334Y482472D01*
X478637Y482264D01*
X478935Y482048D01*
X479228Y481825D01*
X479516Y481595D01*
X479798Y481358D01*
X480073Y481114D01*
X480343Y480864D01*
X480607Y480607D01*
X480864Y480343D01*
X481114Y480073D01*
X481358Y479798D01*
X481595Y479516D01*
X481825Y479228D01*
X482048Y478935D01*
X482264Y478637D01*
X482472Y478334D01*
X482673Y478025D01*
X482866Y477712D01*
X483051Y477393D01*
X483229Y477071D01*
X483398Y476744D01*
X483560Y476413D01*
X483713Y476079D01*
X483858Y475740D01*
X483995Y475398D01*
X484123Y475053D01*
X484243Y474705D01*
X484354Y474354D01*
X484457Y474001D01*
X484550Y473645D01*
X484636Y473287D01*
X484712Y472926D01*
X484779Y472564D01*
X484838Y472201D01*
X484887Y471836D01*
X484928Y471470D01*
X484959Y471103D01*
X484982Y470736D01*
X484995Y470368D01*
X485000Y470000D01*
X484995Y469632D01*
X484982Y469264D01*
X484959Y468897D01*
X484928Y468530D01*
X484887Y468164D01*
X484838Y467799D01*
X484779Y467436D01*
X484712Y467074D01*
X484636Y466713D01*
X484550Y466355D01*
X484457Y465999D01*
X484354Y465646D01*
X484243Y465295D01*
X484123Y464947D01*
X483995Y464602D01*
X483858Y464260D01*
X483713Y463921D01*
X483560Y463587D01*
X483398Y463256D01*
X483229Y462929D01*
X483051Y462607D01*
X482866Y462288D01*
X482673Y461975D01*
X482472Y461666D01*
X482264Y461363D01*
X482048Y461065D01*
X481825Y460772D01*
X481595Y460484D01*
X481358Y460202D01*
X481114Y459927D01*
X480864Y459657D01*
X480607Y459393D01*
X480343Y459136D01*
X480073Y458886D01*
X479798Y458642D01*
X479516Y458405D01*
X479228Y458175D01*
X478935Y457952D01*
X478637Y457736D01*
X478334Y457528D01*
X478025Y457327D01*
X477712Y457134D01*
X477393Y456949D01*
X477071Y456771D01*
X476744Y456602D01*
X476413Y456440D01*
X476079Y456287D01*
X475740Y456142D01*
X475398Y456005D01*
X475053Y455877D01*
X474705Y455757D01*
X474354Y455646D01*
X474001Y455543D01*
X473645Y455450D01*
X473287Y455364D01*
X472926Y455288D01*
X472564Y455221D01*
X472201Y455162D01*
X471836Y455113D01*
X471470Y455072D01*
X471103Y455041D01*
X470736Y455018D01*
X470368Y455005D01*
X470000Y455000D01*
X469632Y455005D01*
X469264Y455018D01*
X468897Y455041D01*
X468530Y455072D01*
X468164Y455113D01*
X467799Y455162D01*
X467436Y455221D01*
X467074Y455288D01*
X466713Y455364D01*
X466355Y455450D01*
X465999Y455543D01*
X465646Y455646D01*
X465295Y455757D01*
X464947Y455877D01*
X464602Y456005D01*
X464260Y456142D01*
X463921Y456287D01*
X463587Y456440D01*
X463256Y456602D01*
X462929Y456771D01*
X462607Y456949D01*
X462288Y457134D01*
X461975Y457327D01*
X461666Y457528D01*
X461363Y457736D01*
X461065Y457952D01*
X460772Y458175D01*
X460484Y458405D01*
X460202Y458642D01*
X459927Y458886D01*
X459657Y459136D01*
X459393Y459393D01*
X459136Y459657D01*
X458886Y459927D01*
X458642Y460202D01*
X458405Y460484D01*
X458175Y460772D01*
X457952Y461065D01*
X457736Y461363D01*
X457528Y461666D01*
X457327Y461975D01*
X457134Y462288D01*
X456949Y462607D01*
X456771Y462929D01*
X456602Y463256D01*
X456440Y463587D01*
X456287Y463921D01*
X456142Y464260D01*
X456005Y464602D01*
X455877Y464947D01*
X455757Y465295D01*
X455646Y465646D01*
X455543Y465999D01*
X455450Y466355D01*
X455364Y466713D01*
X455288Y467074D01*
X455221Y467436D01*
X455162Y467799D01*
X455113Y468164D01*
X455072Y468530D01*
X455041Y468897D01*
X455018Y469264D01*
X455005Y469632D01*
X455000Y470000D01*
D13*
X440790Y250000D02*
X440799Y250717D01*
X440825Y251433D01*
X440869Y252149D01*
X440931Y252863D01*
X441010Y253576D01*
X441106Y254286D01*
X441220Y254994D01*
X441351Y255699D01*
X441500Y256400D01*
X441665Y257097D01*
X441848Y257791D01*
X442048Y258479D01*
X442264Y259163D01*
X442497Y259841D01*
X442747Y260513D01*
X443013Y261178D01*
X443296Y261837D01*
X443594Y262489D01*
X443909Y263133D01*
X444239Y263769D01*
X444585Y264398D01*
X444946Y265017D01*
X445322Y265627D01*
X445713Y266228D01*
X446118Y266819D01*
X446538Y267400D01*
X446972Y267971D01*
X447420Y268531D01*
X447882Y269079D01*
X448357Y269616D01*
X448845Y270141D01*
X449345Y270655D01*
X449859Y271155D01*
X450384Y271643D01*
X450921Y272118D01*
X451469Y272580D01*
X452029Y273028D01*
X452600Y273462D01*
X453181Y273882D01*
X453772Y274287D01*
X454373Y274678D01*
X454983Y275054D01*
X455602Y275415D01*
X456231Y275761D01*
X456867Y276091D01*
X457511Y276406D01*
X458163Y276704D01*
X458822Y276987D01*
X459487Y277253D01*
X460159Y277503D01*
X460837Y277736D01*
X461521Y277952D01*
X462209Y278152D01*
X462903Y278335D01*
X463600Y278500D01*
X464301Y278649D01*
X465006Y278780D01*
X465714Y278894D01*
X466424Y278990D01*
X467137Y279069D01*
X467851Y279131D01*
X468567Y279175D01*
X469283Y279201D01*
X470000Y279210D01*
X470717Y279201D01*
X471433Y279175D01*
X472149Y279131D01*
X472863Y279069D01*
X473576Y278990D01*
X474286Y278894D01*
X474994Y278780D01*
X475699Y278649D01*
X476400Y278500D01*
X477097Y278335D01*
X477791Y278152D01*
X478479Y277952D01*
X479163Y277736D01*
X479841Y277503D01*
X480513Y277253D01*
X481178Y276987D01*
X481837Y276704D01*
X482489Y276406D01*
X483133Y276091D01*
X483769Y275761D01*
X484398Y275415D01*
X485017Y275054D01*
X485627Y274678D01*
X486228Y274287D01*
X486819Y273882D01*
X487400Y273462D01*
X487971Y273028D01*
X488531Y272580D01*
X489079Y272118D01*
X489616Y271643D01*
X490141Y271155D01*
X490655Y270655D01*
X491155Y270141D01*
X491643Y269616D01*
X492118Y269079D01*
X492580Y268531D01*
X493028Y267971D01*
X493462Y267400D01*
X493882Y266819D01*
X494287Y266228D01*
X494678Y265627D01*
X495054Y265017D01*
X495415Y264398D01*
X495761Y263769D01*
X496091Y263133D01*
X496406Y262489D01*
X496704Y261837D01*
X496987Y261178D01*
X497253Y260513D01*
X497503Y259841D01*
X497736Y259163D01*
X497952Y258479D01*
X498152Y257791D01*
X498335Y257097D01*
X498500Y256400D01*
X498649Y255699D01*
X498780Y254994D01*
X498894Y254286D01*
X498990Y253576D01*
X499069Y252863D01*
X499131Y252149D01*
X499175Y251433D01*
X499201Y250717D01*
X499210Y250000D01*
X499201Y249283D01*
X499175Y248567D01*
X499131Y247851D01*
X499069Y247137D01*
X498990Y246424D01*
X498894Y245714D01*
X498780Y245006D01*
X498649Y244301D01*
X498500Y243600D01*
X498335Y242903D01*
X498152Y242209D01*
X497952Y241521D01*
X497736Y240837D01*
X497503Y240159D01*
X497253Y239487D01*
X496987Y238822D01*
X496704Y238163D01*
X496406Y237511D01*
X496091Y236867D01*
X495761Y236231D01*
X495415Y235602D01*
X495054Y234983D01*
X494678Y234373D01*
X494287Y233772D01*
X493882Y233181D01*
X493462Y232600D01*
X493028Y232029D01*
X492580Y231469D01*
X492118Y230921D01*
X491643Y230384D01*
X491155Y229859D01*
X490655Y229345D01*
X490141Y228845D01*
X489616Y228357D01*
X489079Y227882D01*
X488531Y227420D01*
X487971Y226972D01*
X487400Y226538D01*
X486819Y226118D01*
X486228Y225713D01*
X485627Y225322D01*
X485017Y224946D01*
X484398Y224585D01*
X483769Y224239D01*
X483133Y223909D01*
X482489Y223594D01*
X481837Y223296D01*
X481178Y223013D01*
X480513Y222747D01*
X479841Y222497D01*
X479163Y222264D01*
X478479Y222048D01*
X477791Y221848D01*
X477097Y221665D01*
X476400Y221500D01*
X475699Y221351D01*
X474994Y221220D01*
X474286Y221106D01*
X473576Y221010D01*
X472863Y220931D01*
X472149Y220869D01*
X471433Y220825D01*
X470717Y220799D01*
X470000Y220790D01*
X469283Y220799D01*
X468567Y220825D01*
X467851Y220869D01*
X467137Y220931D01*
X466424Y221010D01*
X465714Y221106D01*
X465006Y221220D01*
X464301Y221351D01*
X463600Y221500D01*
X462903Y221665D01*
X462209Y221848D01*
X461521Y222048D01*
X460837Y222264D01*
X460159Y222497D01*
X459487Y222747D01*
X458822Y223013D01*
X458163Y223296D01*
X457511Y223594D01*
X456867Y223909D01*
X456231Y224239D01*
X455602Y224585D01*
X454983Y224946D01*
X454373Y225322D01*
X453772Y225713D01*
X453181Y226118D01*
X452600Y226538D01*
X452029Y226972D01*
X451469Y227420D01*
X450921Y227882D01*
X450384Y228357D01*
X449859Y228845D01*
X449345Y229345D01*
X448845Y229859D01*
X448357Y230384D01*
X447882Y230921D01*
X447420Y231469D01*
X446972Y232029D01*
X446538Y232600D01*
X446118Y233181D01*
X445713Y233772D01*
X445322Y234373D01*
X444946Y234983D01*
X444585Y235602D01*
X444239Y236231D01*
X443909Y236867D01*
X443594Y237511D01*
X443296Y238163D01*
X443013Y238822D01*
X442747Y239487D01*
X442497Y240159D01*
X442264Y240837D01*
X442048Y241521D01*
X441848Y242209D01*
X441665Y242903D01*
X441500Y243600D01*
X441351Y244301D01*
X441220Y245006D01*
X441106Y245714D01*
X441010Y246424D01*
X440931Y247137D01*
X440869Y247851D01*
X440825Y248567D01*
X440799Y249283D01*
X440790Y250000D01*
D14*
X455000Y250000D02*
X455005Y250368D01*
X455018Y250736D01*
X455041Y251103D01*
X455072Y251470D01*
X455113Y251836D01*
X455162Y252201D01*
X455221Y252564D01*
X455288Y252926D01*
X455364Y253287D01*
X455450Y253645D01*
X455543Y254001D01*
X455646Y254354D01*
X455757Y254705D01*
X455877Y255053D01*
X456005Y255398D01*
X456142Y255740D01*
X456287Y256079D01*
X456440Y256413D01*
X456602Y256744D01*
X456771Y257071D01*
X456949Y257393D01*
X457134Y257712D01*
X457327Y258025D01*
X457528Y258334D01*
X457736Y258637D01*
X457952Y258935D01*
X458175Y259228D01*
X458405Y259516D01*
X458642Y259798D01*
X458886Y260073D01*
X459136Y260343D01*
X459393Y260607D01*
X459657Y260864D01*
X459927Y261114D01*
X460202Y261358D01*
X460484Y261595D01*
X460772Y261825D01*
X461065Y262048D01*
X461363Y262264D01*
X461666Y262472D01*
X461975Y262673D01*
X462288Y262866D01*
X462607Y263051D01*
X462929Y263229D01*
X463256Y263398D01*
X463587Y263560D01*
X463921Y263713D01*
X464260Y263858D01*
X464602Y263995D01*
X464947Y264123D01*
X465295Y264243D01*
X465646Y264354D01*
X465999Y264457D01*
X466355Y264550D01*
X466713Y264636D01*
X467074Y264712D01*
X467436Y264779D01*
X467799Y264838D01*
X468164Y264887D01*
X468530Y264928D01*
X468897Y264959D01*
X469264Y264982D01*
X469632Y264995D01*
X470000Y265000D01*
X470368Y264995D01*
X470736Y264982D01*
X471103Y264959D01*
X471470Y264928D01*
X471836Y264887D01*
X472201Y264838D01*
X472564Y264779D01*
X472926Y264712D01*
X473287Y264636D01*
X473645Y264550D01*
X474001Y264457D01*
X474354Y264354D01*
X474705Y264243D01*
X475053Y264123D01*
X475398Y263995D01*
X475740Y263858D01*
X476079Y263713D01*
X476413Y263560D01*
X476744Y263398D01*
X477071Y263229D01*
X477393Y263051D01*
X477712Y262866D01*
X478025Y262673D01*
X478334Y262472D01*
X478637Y262264D01*
X478935Y262048D01*
X479228Y261825D01*
X479516Y261595D01*
X479798Y261358D01*
X480073Y261114D01*
X480343Y260864D01*
X480607Y260607D01*
X480864Y260343D01*
X481114Y260073D01*
X481358Y259798D01*
X481595Y259516D01*
X481825Y259228D01*
X482048Y258935D01*
X482264Y258637D01*
X482472Y258334D01*
X482673Y258025D01*
X482866Y257712D01*
X483051Y257393D01*
X483229Y257071D01*
X483398Y256744D01*
X483560Y256413D01*
X483713Y256079D01*
X483858Y255740D01*
X483995Y255398D01*
X484123Y255053D01*
X484243Y254705D01*
X484354Y254354D01*
X484457Y254001D01*
X484550Y253645D01*
X484636Y253287D01*
X484712Y252926D01*
X484779Y252564D01*
X484838Y252201D01*
X484887Y251836D01*
X484928Y251470D01*
X484959Y251103D01*
X484982Y250736D01*
X484995Y250368D01*
X485000Y250000D01*
X484995Y249632D01*
X484982Y249264D01*
X484959Y248897D01*
X484928Y248530D01*
X484887Y248164D01*
X484838Y247799D01*
X484779Y247436D01*
X484712Y247074D01*
X484636Y246713D01*
X484550Y246355D01*
X484457Y245999D01*
X484354Y245646D01*
X484243Y245295D01*
X484123Y244947D01*
X483995Y244602D01*
X483858Y244260D01*
X483713Y243921D01*
X483560Y243587D01*
X483398Y243256D01*
X483229Y242929D01*
X483051Y242607D01*
X482866Y242288D01*
X482673Y241975D01*
X482472Y241666D01*
X482264Y241363D01*
X482048Y241065D01*
X481825Y240772D01*
X481595Y240484D01*
X481358Y240202D01*
X481114Y239927D01*
X480864Y239657D01*
X480607Y239393D01*
X480343Y239136D01*
X480073Y238886D01*
X479798Y238642D01*
X479516Y238405D01*
X479228Y238175D01*
X478935Y237952D01*
X478637Y237736D01*
X478334Y237528D01*
X478025Y237327D01*
X477712Y237134D01*
X477393Y236949D01*
X477071Y236771D01*
X476744Y236602D01*
X476413Y236440D01*
X476079Y236287D01*
X475740Y236142D01*
X475398Y236005D01*
X475053Y235877D01*
X474705Y235757D01*
X474354Y235646D01*
X474001Y235543D01*
X473645Y235450D01*
X473287Y235364D01*
X472926Y235288D01*
X472564Y235221D01*
X472201Y235162D01*
X471836Y235113D01*
X471470Y235072D01*
X471103Y235041D01*
X470736Y235018D01*
X470368Y235005D01*
X470000Y235000D01*
X469632Y235005D01*
X469264Y235018D01*
X468897Y235041D01*
X468530Y235072D01*
X468164Y235113D01*
X467799Y235162D01*
X467436Y235221D01*
X467074Y235288D01*
X466713Y235364D01*
X466355Y235450D01*
X465999Y235543D01*
X465646Y235646D01*
X465295Y235757D01*
X464947Y235877D01*
X464602Y236005D01*
X464260Y236142D01*
X463921Y236287D01*
X463587Y236440D01*
X463256Y236602D01*
X462929Y236771D01*
X462607Y236949D01*
X462288Y237134D01*
X461975Y237327D01*
X461666Y237528D01*
X461363Y237736D01*
X461065Y237952D01*
X460772Y238175D01*
X460484Y238405D01*
X460202Y238642D01*
X459927Y238886D01*
X459657Y239136D01*
X459393Y239393D01*
X459136Y239657D01*
X458886Y239927D01*
X458642Y240202D01*
X458405Y240484D01*
X458175Y240772D01*
X457952Y241065D01*
X457736Y241363D01*
X457528Y241666D01*
X457327Y241975D01*
X457134Y242288D01*
X456949Y242607D01*
X456771Y242929D01*
X456602Y243256D01*
X456440Y243587D01*
X456287Y243921D01*
X456142Y244260D01*
X456005Y244602D01*
X455877Y244947D01*
X455757Y245295D01*
X455646Y245646D01*
X455543Y245999D01*
X455450Y246355D01*
X455364Y246713D01*
X455288Y247074D01*
X455221Y247436D01*
X455162Y247799D01*
X455113Y248164D01*
X455072Y248530D01*
X455041Y248897D01*
X455018Y249264D01*
X455005Y249632D01*
X455000Y250000D01*
D13*
X198010Y408180D02*
X195470Y405640D01*
X198010Y408180D02*
X291990Y408180D01*
X294530Y405640D01*
X195470Y405640D02*
X194200Y376430D01*
X295800Y376430D02*
X294530Y405640D01*
D18*
X289958Y402084D03*
D19*
X245000Y368810D03*
D20*
X288815Y375160D03*
X201185Y375160D03*
D23*
X245000Y375160D03*
D24*
X245000Y411355D03*
D13*
X274312Y417495D02*
X274312Y423257D01*
X275752Y424697D01*
X278633Y424697D01*
X280074Y423257D01*
X280074Y417495D01*
X278633Y416054D01*
X275752Y416054D01*
X274312Y417495D01*
X277193Y418935D02*
X280074Y416054D01*
X283667Y416054D02*
X289429Y416054D01*
X283667Y416054D02*
X289429Y421816D01*
X289429Y423257D01*
X287989Y424697D01*
X285107Y424697D01*
X283667Y423257D01*
D14*
X140000Y115000D02*
X139860Y114998D01*
X139720Y114992D01*
X139580Y114982D01*
X139440Y114969D01*
X139301Y114951D01*
X139162Y114929D01*
X139025Y114904D01*
X138887Y114875D01*
X138751Y114842D01*
X138616Y114805D01*
X138482Y114764D01*
X138349Y114719D01*
X138217Y114671D01*
X138087Y114619D01*
X137958Y114564D01*
X137831Y114505D01*
X137705Y114442D01*
X137581Y114376D01*
X137460Y114307D01*
X137340Y114234D01*
X137222Y114157D01*
X137107Y114078D01*
X136993Y113995D01*
X136883Y113909D01*
X136774Y113820D01*
X136668Y113728D01*
X136565Y113633D01*
X136464Y113536D01*
X136367Y113435D01*
X136272Y113332D01*
X136180Y113226D01*
X136091Y113117D01*
X136005Y113007D01*
X135922Y112893D01*
X135843Y112778D01*
X135766Y112660D01*
X135693Y112540D01*
X135624Y112419D01*
X135558Y112295D01*
X135495Y112169D01*
X135436Y112042D01*
X135381Y111913D01*
X135329Y111783D01*
X135281Y111651D01*
X135236Y111518D01*
X135195Y111384D01*
X135158Y111249D01*
X135125Y111113D01*
X135096Y110975D01*
X135071Y110838D01*
X135049Y110699D01*
X135031Y110560D01*
X135018Y110420D01*
X135008Y110280D01*
X135002Y110140D01*
X135000Y110000D01*
X135000Y10000D01*
X135002Y9860D01*
X135008Y9720D01*
X135018Y9580D01*
X135031Y9440D01*
X135049Y9301D01*
X135071Y9162D01*
X135096Y9025D01*
X135125Y8887D01*
X135158Y8751D01*
X135195Y8616D01*
X135236Y8482D01*
X135281Y8349D01*
X135329Y8217D01*
X135381Y8087D01*
X135436Y7958D01*
X135495Y7831D01*
X135558Y7705D01*
X135624Y7581D01*
X135693Y7460D01*
X135766Y7340D01*
X135843Y7222D01*
X135922Y7107D01*
X136005Y6993D01*
X136091Y6883D01*
X136180Y6774D01*
X136272Y6668D01*
X136367Y6565D01*
X136464Y6464D01*
X136565Y6367D01*
X136668Y6272D01*
X136774Y6180D01*
X136883Y6091D01*
X136993Y6005D01*
X137107Y5922D01*
X137222Y5843D01*
X137340Y5766D01*
X137460Y5693D01*
X137581Y5624D01*
X137705Y5558D01*
X137831Y5495D01*
X137958Y5436D01*
X138087Y5381D01*
X138217Y5329D01*
X138349Y5281D01*
X138482Y5236D01*
X138616Y5195D01*
X138751Y5158D01*
X138887Y5125D01*
X139025Y5096D01*
X139162Y5071D01*
X139301Y5049D01*
X139440Y5031D01*
X139580Y5018D01*
X139720Y5008D01*
X139860Y5002D01*
X140000Y5000D01*
X180000Y5000D01*
X180140Y5002D01*
X180280Y5008D01*
X180420Y5018D01*
X180560Y5031D01*
X180699Y5049D01*
X180838Y5071D01*
X180975Y5096D01*
X181113Y5125D01*
X181249Y5158D01*
X181384Y5195D01*
X181518Y5236D01*
X181651Y5281D01*
X181783Y5329D01*
X181913Y5381D01*
X182042Y5436D01*
X182169Y5495D01*
X182295Y5558D01*
X182419Y5624D01*
X182540Y5693D01*
X182660Y5766D01*
X182778Y5843D01*
X182893Y5922D01*
X183007Y6005D01*
X183117Y6091D01*
X183226Y6180D01*
X183332Y6272D01*
X183435Y6367D01*
X183536Y6464D01*
X183633Y6565D01*
X183728Y6668D01*
X183820Y6774D01*
X183909Y6883D01*
X183995Y6993D01*
X184078Y7107D01*
X184157Y7222D01*
X184234Y7340D01*
X184307Y7460D01*
X184376Y7581D01*
X184442Y7705D01*
X184505Y7831D01*
X184564Y7958D01*
X184619Y8087D01*
X184671Y8217D01*
X184719Y8349D01*
X184764Y8482D01*
X184805Y8616D01*
X184842Y8751D01*
X184875Y8887D01*
X184904Y9025D01*
X184929Y9162D01*
X184951Y9301D01*
X184969Y9440D01*
X184982Y9580D01*
X184992Y9720D01*
X184998Y9860D01*
X185000Y10000D01*
X185000Y110000D01*
X184998Y110140D01*
X184992Y110280D01*
X184982Y110420D01*
X184969Y110560D01*
X184951Y110699D01*
X184929Y110838D01*
X184904Y110975D01*
X184875Y111113D01*
X184842Y111249D01*
X184805Y111384D01*
X184764Y111518D01*
X184719Y111651D01*
X184671Y111783D01*
X184619Y111913D01*
X184564Y112042D01*
X184505Y112169D01*
X184442Y112295D01*
X184376Y112419D01*
X184307Y112540D01*
X184234Y112660D01*
X184157Y112778D01*
X184078Y112893D01*
X183995Y113007D01*
X183909Y113117D01*
X183820Y113226D01*
X183728Y113332D01*
X183633Y113435D01*
X183536Y113536D01*
X183435Y113633D01*
X183332Y113728D01*
X183226Y113820D01*
X183117Y113909D01*
X183007Y113995D01*
X182893Y114078D01*
X182778Y114157D01*
X182660Y114234D01*
X182540Y114307D01*
X182419Y114376D01*
X182295Y114442D01*
X182169Y114505D01*
X182042Y114564D01*
X181913Y114619D01*
X181783Y114671D01*
X181651Y114719D01*
X181518Y114764D01*
X181384Y114805D01*
X181249Y114842D01*
X181113Y114875D01*
X180975Y114904D01*
X180838Y114929D01*
X180699Y114951D01*
X180560Y114969D01*
X180420Y114982D01*
X180280Y114992D01*
X180140Y114998D01*
X180000Y115000D01*
X140000Y115000D01*
D13*
X119989Y120305D02*
X118548Y121745D01*
X115667Y121745D01*
X114227Y120305D01*
X114227Y114543D01*
X115667Y113102D01*
X118548Y113102D01*
X119989Y114543D01*
X123582Y113102D02*
X129344Y113102D01*
X123582Y113102D02*
X129344Y118864D01*
X129344Y120305D01*
X127904Y121745D01*
X125022Y121745D01*
X123582Y120305D01*
X494530Y794360D02*
X495800Y823570D01*
X494530Y794360D02*
X491990Y791820D01*
X398010Y791820D01*
X395470Y794360D01*
X394200Y823570D01*
D18*
X400042Y797916D03*
D19*
X445000Y831190D03*
D20*
X401185Y824840D03*
D21*
X432300Y824840D03*
X457700Y824840D03*
D20*
X488815Y824840D03*
D13*
X377462Y803953D02*
X377462Y795310D01*
X381784Y795310D01*
X383224Y796751D01*
X383224Y802513D01*
X381784Y803953D01*
X377462Y803953D01*
X386817Y801072D02*
X389698Y803953D01*
X389698Y795310D01*
X386817Y795310D02*
X392579Y795310D01*
X291430Y819170D02*
X291430Y826790D01*
X287620Y822980D02*
X295240Y822980D01*
X239360Y792500D02*
X239372Y793497D01*
X239409Y794494D01*
X239470Y795490D01*
X239556Y796483D01*
X239666Y797475D01*
X239800Y798463D01*
X239958Y799448D01*
X240141Y800428D01*
X240347Y801404D01*
X240578Y802375D01*
X240832Y803339D01*
X241110Y804297D01*
X241411Y805248D01*
X241736Y806191D01*
X242083Y807126D01*
X242454Y808052D01*
X242847Y808969D01*
X243262Y809876D01*
X243699Y810772D01*
X244159Y811658D01*
X244640Y812531D01*
X245142Y813393D01*
X245665Y814242D01*
X246209Y815078D01*
X246773Y815901D01*
X247358Y816709D01*
X247962Y817503D01*
X248585Y818282D01*
X249227Y819045D01*
X249888Y819792D01*
X250567Y820523D01*
X251263Y821237D01*
X251977Y821933D01*
X252708Y822612D01*
X253455Y823273D01*
X254218Y823915D01*
X254997Y824538D01*
X255791Y825142D01*
X256599Y825727D01*
X257422Y826291D01*
X258258Y826835D01*
X259107Y827358D01*
X259969Y827860D01*
X260842Y828341D01*
X261728Y828801D01*
X262624Y829238D01*
X263531Y829653D01*
X264448Y830046D01*
X265374Y830417D01*
X266309Y830764D01*
X267252Y831089D01*
X268203Y831390D01*
X269161Y831668D01*
X270125Y831922D01*
X271096Y832153D01*
X272072Y832359D01*
X273052Y832542D01*
X274037Y832700D01*
X275025Y832834D01*
X276017Y832944D01*
X277010Y833030D01*
X278006Y833091D01*
X279003Y833128D01*
X280000Y833140D01*
X280997Y833128D01*
X281994Y833091D01*
X282990Y833030D01*
X283983Y832944D01*
X284975Y832834D01*
X285963Y832700D01*
X286948Y832542D01*
X287928Y832359D01*
X288904Y832153D01*
X289875Y831922D01*
X290839Y831668D01*
X291797Y831390D01*
X292748Y831089D01*
X293691Y830764D01*
X294626Y830417D01*
X295552Y830046D01*
X296469Y829653D01*
X297376Y829238D01*
X298272Y828801D01*
X299158Y828341D01*
X300031Y827860D01*
X300893Y827358D01*
X301742Y826835D01*
X302578Y826291D01*
X303401Y825727D01*
X304209Y825142D01*
X305003Y824538D01*
X305782Y823915D01*
X306545Y823273D01*
X307292Y822612D01*
X308023Y821933D01*
X308737Y821237D01*
X309433Y820523D01*
X310112Y819792D01*
X310773Y819045D01*
X311415Y818282D01*
X312038Y817503D01*
X312642Y816709D01*
X313227Y815901D01*
X313791Y815078D01*
X314335Y814242D01*
X314858Y813393D01*
X315360Y812531D01*
X315841Y811658D01*
X316301Y810772D01*
X316738Y809876D01*
X317153Y808969D01*
X317546Y808052D01*
X317917Y807126D01*
X318264Y806191D01*
X318589Y805248D01*
X318890Y804297D01*
X319168Y803339D01*
X319422Y802375D01*
X319653Y801404D01*
X319859Y800428D01*
X320042Y799448D01*
X320200Y798463D01*
X320334Y797475D01*
X320444Y796483D01*
X320530Y795490D01*
X320591Y794494D01*
X320628Y793497D01*
X320640Y792500D01*
X320628Y791503D01*
X320591Y790506D01*
X320530Y789510D01*
X320444Y788517D01*
X320334Y787525D01*
X320200Y786537D01*
X320042Y785552D01*
X319859Y784572D01*
X319653Y783596D01*
X319422Y782625D01*
X319168Y781661D01*
X318890Y780703D01*
X318589Y779752D01*
X318264Y778809D01*
X317917Y777874D01*
X317546Y776948D01*
X317153Y776031D01*
X316738Y775124D01*
X316301Y774228D01*
X315841Y773342D01*
X315360Y772469D01*
X314858Y771607D01*
X314335Y770758D01*
X313791Y769922D01*
X313227Y769099D01*
X312642Y768291D01*
X312038Y767497D01*
X311415Y766718D01*
X310773Y765955D01*
X310112Y765208D01*
X309433Y764477D01*
X308737Y763763D01*
X308023Y763067D01*
X307292Y762388D01*
X306545Y761727D01*
X305782Y761085D01*
X305003Y760462D01*
X304209Y759858D01*
X303401Y759273D01*
X302578Y758709D01*
X301742Y758165D01*
X300893Y757642D01*
X300031Y757140D01*
X299158Y756659D01*
X298272Y756199D01*
X297376Y755762D01*
X296469Y755347D01*
X295552Y754954D01*
X294626Y754583D01*
X293691Y754236D01*
X292748Y753911D01*
X291797Y753610D01*
X290839Y753332D01*
X289875Y753078D01*
X288904Y752847D01*
X287928Y752641D01*
X286948Y752458D01*
X285963Y752300D01*
X284975Y752166D01*
X283983Y752056D01*
X282990Y751970D01*
X281994Y751909D01*
X280997Y751872D01*
X280000Y751860D01*
X279003Y751872D01*
X278006Y751909D01*
X277010Y751970D01*
X276017Y752056D01*
X275025Y752166D01*
X274037Y752300D01*
X273052Y752458D01*
X272072Y752641D01*
X271096Y752847D01*
X270125Y753078D01*
X269161Y753332D01*
X268203Y753610D01*
X267252Y753911D01*
X266309Y754236D01*
X265374Y754583D01*
X264448Y754954D01*
X263531Y755347D01*
X262624Y755762D01*
X261728Y756199D01*
X260842Y756659D01*
X259969Y757140D01*
X259107Y757642D01*
X258258Y758165D01*
X257422Y758709D01*
X256599Y759273D01*
X255791Y759858D01*
X254997Y760462D01*
X254218Y761085D01*
X253455Y761727D01*
X252708Y762388D01*
X251977Y763067D01*
X251263Y763763D01*
X250567Y764477D01*
X249888Y765208D01*
X249227Y765955D01*
X248585Y766718D01*
X247962Y767497D01*
X247358Y768291D01*
X246773Y769099D01*
X246209Y769922D01*
X245665Y770758D01*
X245142Y771607D01*
X244640Y772469D01*
X244159Y773342D01*
X243699Y774228D01*
X243262Y775124D01*
X242847Y776031D01*
X242454Y776948D01*
X242083Y777874D01*
X241736Y778809D01*
X241411Y779752D01*
X241110Y780703D01*
X240832Y781661D01*
X240578Y782625D01*
X240347Y783596D01*
X240141Y784572D01*
X239958Y785552D01*
X239800Y786537D01*
X239666Y787525D01*
X239556Y788517D01*
X239470Y789510D01*
X239409Y790506D01*
X239372Y791503D01*
X239360Y792500D01*
X230604Y757345D02*
X232044Y755905D01*
X230604Y757345D02*
X227723Y757345D01*
X226282Y755905D01*
X226282Y750143D01*
X227723Y748702D01*
X230604Y748702D01*
X232044Y750143D01*
X235637Y748702D02*
X241399Y748702D01*
X235637Y748702D02*
X241399Y754464D01*
X241399Y755905D01*
X239959Y757345D01*
X237078Y757345D01*
X235637Y755905D01*
X244992Y754464D02*
X247874Y757345D01*
X247874Y748702D01*
X250755Y748702D02*
X244992Y748702D01*
X481670Y738570D02*
X489290Y738570D01*
X485480Y742380D02*
X485480Y734760D01*
X414360Y750000D02*
X414372Y750997D01*
X414409Y751994D01*
X414470Y752990D01*
X414556Y753983D01*
X414666Y754975D01*
X414800Y755963D01*
X414958Y756948D01*
X415141Y757928D01*
X415347Y758904D01*
X415578Y759875D01*
X415832Y760839D01*
X416110Y761797D01*
X416411Y762748D01*
X416736Y763691D01*
X417083Y764626D01*
X417454Y765552D01*
X417847Y766469D01*
X418262Y767376D01*
X418699Y768272D01*
X419159Y769158D01*
X419640Y770031D01*
X420142Y770893D01*
X420665Y771742D01*
X421209Y772578D01*
X421773Y773401D01*
X422358Y774209D01*
X422962Y775003D01*
X423585Y775782D01*
X424227Y776545D01*
X424888Y777292D01*
X425567Y778023D01*
X426263Y778737D01*
X426977Y779433D01*
X427708Y780112D01*
X428455Y780773D01*
X429218Y781415D01*
X429997Y782038D01*
X430791Y782642D01*
X431599Y783227D01*
X432422Y783791D01*
X433258Y784335D01*
X434107Y784858D01*
X434969Y785360D01*
X435842Y785841D01*
X436728Y786301D01*
X437624Y786738D01*
X438531Y787153D01*
X439448Y787546D01*
X440374Y787917D01*
X441309Y788264D01*
X442252Y788589D01*
X443203Y788890D01*
X444161Y789168D01*
X445125Y789422D01*
X446096Y789653D01*
X447072Y789859D01*
X448052Y790042D01*
X449037Y790200D01*
X450025Y790334D01*
X451017Y790444D01*
X452010Y790530D01*
X453006Y790591D01*
X454003Y790628D01*
X455000Y790640D01*
X455997Y790628D01*
X456994Y790591D01*
X457990Y790530D01*
X458983Y790444D01*
X459975Y790334D01*
X460963Y790200D01*
X461948Y790042D01*
X462928Y789859D01*
X463904Y789653D01*
X464875Y789422D01*
X465839Y789168D01*
X466797Y788890D01*
X467748Y788589D01*
X468691Y788264D01*
X469626Y787917D01*
X470552Y787546D01*
X471469Y787153D01*
X472376Y786738D01*
X473272Y786301D01*
X474158Y785841D01*
X475031Y785360D01*
X475893Y784858D01*
X476742Y784335D01*
X477578Y783791D01*
X478401Y783227D01*
X479209Y782642D01*
X480003Y782038D01*
X480782Y781415D01*
X481545Y780773D01*
X482292Y780112D01*
X483023Y779433D01*
X483737Y778737D01*
X484433Y778023D01*
X485112Y777292D01*
X485773Y776545D01*
X486415Y775782D01*
X487038Y775003D01*
X487642Y774209D01*
X488227Y773401D01*
X488791Y772578D01*
X489335Y771742D01*
X489858Y770893D01*
X490360Y770031D01*
X490841Y769158D01*
X491301Y768272D01*
X491738Y767376D01*
X492153Y766469D01*
X492546Y765552D01*
X492917Y764626D01*
X493264Y763691D01*
X493589Y762748D01*
X493890Y761797D01*
X494168Y760839D01*
X494422Y759875D01*
X494653Y758904D01*
X494859Y757928D01*
X495042Y756948D01*
X495200Y755963D01*
X495334Y754975D01*
X495444Y753983D01*
X495530Y752990D01*
X495591Y751994D01*
X495628Y750997D01*
X495640Y750000D01*
X495628Y749003D01*
X495591Y748006D01*
X495530Y747010D01*
X495444Y746017D01*
X495334Y745025D01*
X495200Y744037D01*
X495042Y743052D01*
X494859Y742072D01*
X494653Y741096D01*
X494422Y740125D01*
X494168Y739161D01*
X493890Y738203D01*
X493589Y737252D01*
X493264Y736309D01*
X492917Y735374D01*
X492546Y734448D01*
X492153Y733531D01*
X491738Y732624D01*
X491301Y731728D01*
X490841Y730842D01*
X490360Y729969D01*
X489858Y729107D01*
X489335Y728258D01*
X488791Y727422D01*
X488227Y726599D01*
X487642Y725791D01*
X487038Y724997D01*
X486415Y724218D01*
X485773Y723455D01*
X485112Y722708D01*
X484433Y721977D01*
X483737Y721263D01*
X483023Y720567D01*
X482292Y719888D01*
X481545Y719227D01*
X480782Y718585D01*
X480003Y717962D01*
X479209Y717358D01*
X478401Y716773D01*
X477578Y716209D01*
X476742Y715665D01*
X475893Y715142D01*
X475031Y714640D01*
X474158Y714159D01*
X473272Y713699D01*
X472376Y713262D01*
X471469Y712847D01*
X470552Y712454D01*
X469626Y712083D01*
X468691Y711736D01*
X467748Y711411D01*
X466797Y711110D01*
X465839Y710832D01*
X464875Y710578D01*
X463904Y710347D01*
X462928Y710141D01*
X461948Y709958D01*
X460963Y709800D01*
X459975Y709666D01*
X458983Y709556D01*
X457990Y709470D01*
X456994Y709409D01*
X455997Y709372D01*
X455000Y709360D01*
X454003Y709372D01*
X453006Y709409D01*
X452010Y709470D01*
X451017Y709556D01*
X450025Y709666D01*
X449037Y709800D01*
X448052Y709958D01*
X447072Y710141D01*
X446096Y710347D01*
X445125Y710578D01*
X444161Y710832D01*
X443203Y711110D01*
X442252Y711411D01*
X441309Y711736D01*
X440374Y712083D01*
X439448Y712454D01*
X438531Y712847D01*
X437624Y713262D01*
X436728Y713699D01*
X435842Y714159D01*
X434969Y714640D01*
X434107Y715142D01*
X433258Y715665D01*
X432422Y716209D01*
X431599Y716773D01*
X430791Y717358D01*
X429997Y717962D01*
X429218Y718585D01*
X428455Y719227D01*
X427708Y719888D01*
X426977Y720567D01*
X426263Y721263D01*
X425567Y721977D01*
X424888Y722708D01*
X424227Y723455D01*
X423585Y724218D01*
X422962Y724997D01*
X422358Y725791D01*
X421773Y726599D01*
X421209Y727422D01*
X420665Y728258D01*
X420142Y729107D01*
X419640Y729969D01*
X419159Y730842D01*
X418699Y731728D01*
X418262Y732624D01*
X417847Y733531D01*
X417454Y734448D01*
X417083Y735374D01*
X416736Y736309D01*
X416411Y737252D01*
X416110Y738203D01*
X415832Y739161D01*
X415578Y740125D01*
X415347Y741096D01*
X415141Y742072D01*
X414958Y743052D01*
X414800Y744037D01*
X414666Y745025D01*
X414556Y746017D01*
X414470Y747010D01*
X414409Y748006D01*
X414372Y749003D01*
X414360Y750000D01*
X390439Y757365D02*
X388998Y758805D01*
X386117Y758805D01*
X384676Y757365D01*
X384676Y751603D01*
X386117Y750162D01*
X388998Y750162D01*
X390439Y751603D01*
X394032Y755924D02*
X396913Y758805D01*
X396913Y750162D01*
X394032Y750162D02*
X399794Y750162D01*
X403387Y750162D02*
X409149Y750162D01*
X403387Y750162D02*
X409149Y755924D01*
X409149Y757365D01*
X407709Y758805D01*
X404827Y758805D01*
X403387Y757365D01*
X461952Y664252D02*
X461855Y664160D01*
X461761Y664065D01*
X461670Y663968D01*
X461582Y663867D01*
X461496Y663764D01*
X461414Y663659D01*
X461335Y663551D01*
X461260Y663441D01*
X461187Y663329D01*
X461118Y663214D01*
X461053Y663098D01*
X460990Y662980D01*
X460932Y662860D01*
X460877Y662738D01*
X460826Y662614D01*
X460778Y662490D01*
X460734Y662363D01*
X460694Y662236D01*
X460658Y662107D01*
X460625Y661978D01*
X460596Y661847D01*
X460572Y661716D01*
X460551Y661584D01*
X460534Y661451D01*
X460521Y661318D01*
X460512Y661185D01*
X460507Y661051D01*
X460506Y660918D01*
X460509Y660784D01*
X460516Y660651D01*
X460527Y660518D01*
X460542Y660385D01*
X460560Y660253D01*
X460583Y660121D01*
X460610Y659990D01*
X460640Y659860D01*
X460675Y659731D01*
X460713Y659603D01*
X460755Y659476D01*
X460800Y659350D01*
X460850Y659226D01*
X460903Y659103D01*
X460960Y658982D01*
X461020Y658863D01*
X461084Y658746D01*
X461151Y658630D01*
X461222Y658517D01*
X461296Y658406D01*
X461373Y658297D01*
X461453Y658190D01*
X461537Y658086D01*
X461624Y657984D01*
X461713Y657885D01*
X461806Y657789D01*
X461901Y657695D01*
X462000Y657604D01*
X462100Y657517D01*
X462204Y657432D01*
X462310Y657350D01*
X462418Y657272D01*
X462528Y657197D01*
X462641Y657125D01*
X462756Y657057D01*
X462872Y656992D01*
X462991Y656930D01*
X463112Y656872D01*
X463234Y656818D01*
X463357Y656767D01*
X463482Y656720D01*
X463609Y656677D01*
X463736Y656637D01*
X463865Y656602D01*
X463995Y656570D01*
X464126Y656542D01*
X464257Y656518D01*
X464389Y656498D01*
X464522Y656482D01*
X464655Y656469D01*
X464788Y656461D01*
X464922Y656457D01*
X465055Y656456D01*
X465189Y656460D01*
X465322Y656468D01*
X465456Y656479D01*
X465588Y656495D01*
X465721Y656514D01*
X465852Y656538D01*
X465983Y656565D01*
X466113Y656596D01*
X466242Y656631D01*
X466370Y656670D01*
X466496Y656712D01*
X466622Y656759D01*
X466746Y656809D01*
X466868Y656863D01*
X466989Y656920D01*
X467108Y656981D01*
X467225Y657045D01*
X467340Y657113D01*
X467453Y657184D01*
X467564Y657259D01*
X467672Y657337D01*
X467778Y657418D01*
X467882Y657502D01*
X467983Y657589D01*
X468082Y657679D01*
X468178Y657772D01*
X468048Y695748D02*
X468145Y695840D01*
X468239Y695935D01*
X468330Y696032D01*
X468418Y696133D01*
X468504Y696236D01*
X468586Y696341D01*
X468665Y696449D01*
X468740Y696559D01*
X468813Y696671D01*
X468882Y696786D01*
X468947Y696902D01*
X469010Y697020D01*
X469068Y697140D01*
X469123Y697262D01*
X469174Y697386D01*
X469222Y697510D01*
X469266Y697637D01*
X469306Y697764D01*
X469342Y697893D01*
X469375Y698022D01*
X469404Y698153D01*
X469428Y698284D01*
X469449Y698416D01*
X469466Y698549D01*
X469479Y698682D01*
X469488Y698815D01*
X469493Y698949D01*
X469494Y699082D01*
X469491Y699216D01*
X469484Y699349D01*
X469473Y699482D01*
X469458Y699615D01*
X469440Y699747D01*
X469417Y699879D01*
X469390Y700010D01*
X469360Y700140D01*
X469325Y700269D01*
X469287Y700397D01*
X469245Y700524D01*
X469200Y700650D01*
X469150Y700774D01*
X469097Y700897D01*
X469040Y701018D01*
X468980Y701137D01*
X468916Y701254D01*
X468849Y701370D01*
X468778Y701483D01*
X468704Y701594D01*
X468627Y701703D01*
X468547Y701810D01*
X468463Y701914D01*
X468376Y702016D01*
X468287Y702115D01*
X468194Y702211D01*
X468099Y702305D01*
X468000Y702396D01*
X467900Y702483D01*
X467796Y702568D01*
X467690Y702650D01*
X467582Y702728D01*
X467472Y702803D01*
X467359Y702875D01*
X467244Y702943D01*
X467128Y703008D01*
X467009Y703070D01*
X466888Y703128D01*
X466766Y703182D01*
X466643Y703233D01*
X466518Y703280D01*
X466391Y703323D01*
X466264Y703363D01*
X466135Y703398D01*
X466005Y703430D01*
X465874Y703458D01*
X465743Y703482D01*
X465611Y703502D01*
X465478Y703518D01*
X465345Y703531D01*
X465212Y703539D01*
X465078Y703543D01*
X464945Y703544D01*
X464811Y703540D01*
X464678Y703532D01*
X464544Y703521D01*
X464412Y703505D01*
X464279Y703486D01*
X464148Y703462D01*
X464017Y703435D01*
X463887Y703404D01*
X463758Y703369D01*
X463630Y703330D01*
X463504Y703288D01*
X463378Y703241D01*
X463254Y703191D01*
X463132Y703137D01*
X463011Y703080D01*
X462892Y703019D01*
X462775Y702955D01*
X462660Y702887D01*
X462547Y702816D01*
X462436Y702741D01*
X462328Y702663D01*
X462222Y702582D01*
X462118Y702498D01*
X462017Y702411D01*
X461918Y702321D01*
X461822Y702228D01*
X468048Y695748D02*
X461698Y689398D01*
X455348Y695748D02*
X461698Y702098D01*
X468048Y670348D02*
X461698Y663998D01*
X468048Y657648D02*
X474398Y663998D01*
D22*
X471350Y667300D02*
X465000Y660950D01*
X458650Y692700D02*
X465000Y699050D01*
X467540Y682540D02*
X462460Y677460D01*
D13*
X433250Y680000D02*
X433260Y680779D01*
X433288Y681558D01*
X433336Y682336D01*
X433403Y683112D01*
X433489Y683887D01*
X433594Y684659D01*
X433717Y685428D01*
X433860Y686194D01*
X434021Y686956D01*
X434202Y687715D01*
X434400Y688468D01*
X434617Y689217D01*
X434852Y689959D01*
X435106Y690696D01*
X435377Y691427D01*
X435667Y692150D01*
X435974Y692866D01*
X436298Y693575D01*
X436640Y694275D01*
X436999Y694967D01*
X437375Y695650D01*
X437767Y696323D01*
X438176Y696986D01*
X438601Y697639D01*
X439042Y698282D01*
X439498Y698913D01*
X439970Y699534D01*
X440457Y700142D01*
X440959Y700738D01*
X441475Y701322D01*
X442005Y701893D01*
X442549Y702451D01*
X443107Y702995D01*
X443678Y703525D01*
X444262Y704041D01*
X444858Y704543D01*
X445466Y705030D01*
X446087Y705502D01*
X446718Y705958D01*
X447361Y706399D01*
X448014Y706824D01*
X448677Y707233D01*
X449350Y707625D01*
X450033Y708001D01*
X450725Y708360D01*
X451425Y708702D01*
X452134Y709026D01*
X452850Y709333D01*
X453573Y709623D01*
X454304Y709894D01*
X455041Y710148D01*
X455783Y710383D01*
X456532Y710600D01*
X457285Y710798D01*
X458044Y710979D01*
X458806Y711140D01*
X459572Y711283D01*
X460341Y711406D01*
X461113Y711511D01*
X461888Y711597D01*
X462664Y711664D01*
X463442Y711712D01*
X464221Y711740D01*
X465000Y711750D01*
X465779Y711740D01*
X466558Y711712D01*
X467336Y711664D01*
X468112Y711597D01*
X468887Y711511D01*
X469659Y711406D01*
X470428Y711283D01*
X471194Y711140D01*
X471956Y710979D01*
X472715Y710798D01*
X473468Y710600D01*
X474217Y710383D01*
X474959Y710148D01*
X475696Y709894D01*
X476427Y709623D01*
X477150Y709333D01*
X477866Y709026D01*
X478575Y708702D01*
X479275Y708360D01*
X479967Y708001D01*
X480650Y707625D01*
X481323Y707233D01*
X481986Y706824D01*
X482639Y706399D01*
X483282Y705958D01*
X483913Y705502D01*
X484534Y705030D01*
X485142Y704543D01*
X485738Y704041D01*
X486322Y703525D01*
X486893Y702995D01*
X487451Y702451D01*
X487995Y701893D01*
X488525Y701322D01*
X489041Y700738D01*
X489543Y700142D01*
X490030Y699534D01*
X490502Y698913D01*
X490958Y698282D01*
X491399Y697639D01*
X491824Y696986D01*
X492233Y696323D01*
X492625Y695650D01*
X493001Y694967D01*
X493360Y694275D01*
X493702Y693575D01*
X494026Y692866D01*
X494333Y692150D01*
X494623Y691427D01*
X494894Y690696D01*
X495148Y689959D01*
X495383Y689217D01*
X495600Y688468D01*
X495798Y687715D01*
X495979Y686956D01*
X496140Y686194D01*
X496283Y685428D01*
X496406Y684659D01*
X496511Y683887D01*
X496597Y683112D01*
X496664Y682336D01*
X496712Y681558D01*
X496740Y680779D01*
X496750Y680000D01*
X496740Y679221D01*
X496712Y678442D01*
X496664Y677664D01*
X496597Y676888D01*
X496511Y676113D01*
X496406Y675341D01*
X496283Y674572D01*
X496140Y673806D01*
X495979Y673044D01*
X495798Y672285D01*
X495600Y671532D01*
X495383Y670783D01*
X495148Y670041D01*
X494894Y669304D01*
X494623Y668573D01*
X494333Y667850D01*
X494026Y667134D01*
X493702Y666425D01*
X493360Y665725D01*
X493001Y665033D01*
X492625Y664350D01*
X492233Y663677D01*
X491824Y663014D01*
X491399Y662361D01*
X490958Y661718D01*
X490502Y661087D01*
X490030Y660466D01*
X489543Y659858D01*
X489041Y659262D01*
X488525Y658678D01*
X487995Y658107D01*
X487451Y657549D01*
X486893Y657005D01*
X486322Y656475D01*
X485738Y655959D01*
X485142Y655457D01*
X484534Y654970D01*
X483913Y654498D01*
X483282Y654042D01*
X482639Y653601D01*
X481986Y653176D01*
X481323Y652767D01*
X480650Y652375D01*
X479967Y651999D01*
X479275Y651640D01*
X478575Y651298D01*
X477866Y650974D01*
X477150Y650667D01*
X476427Y650377D01*
X475696Y650106D01*
X474959Y649852D01*
X474217Y649617D01*
X473468Y649400D01*
X472715Y649202D01*
X471956Y649021D01*
X471194Y648860D01*
X470428Y648717D01*
X469659Y648594D01*
X468887Y648489D01*
X468112Y648403D01*
X467336Y648336D01*
X466558Y648288D01*
X465779Y648260D01*
X465000Y648250D01*
X464221Y648260D01*
X463442Y648288D01*
X462664Y648336D01*
X461888Y648403D01*
X461113Y648489D01*
X460341Y648594D01*
X459572Y648717D01*
X458806Y648860D01*
X458044Y649021D01*
X457285Y649202D01*
X456532Y649400D01*
X455783Y649617D01*
X455041Y649852D01*
X454304Y650106D01*
X453573Y650377D01*
X452850Y650667D01*
X452134Y650974D01*
X451425Y651298D01*
X450725Y651640D01*
X450033Y651999D01*
X449350Y652375D01*
X448677Y652767D01*
X448014Y653176D01*
X447361Y653601D01*
X446718Y654042D01*
X446087Y654498D01*
X445466Y654970D01*
X444858Y655457D01*
X444262Y655959D01*
X443678Y656475D01*
X443107Y657005D01*
X442549Y657549D01*
X442005Y658107D01*
X441475Y658678D01*
X440959Y659262D01*
X440457Y659858D01*
X439970Y660466D01*
X439498Y661087D01*
X439042Y661718D01*
X438601Y662361D01*
X438176Y663014D01*
X437767Y663677D01*
X437375Y664350D01*
X436999Y665033D01*
X436640Y665725D01*
X436298Y666425D01*
X435974Y667134D01*
X435667Y667850D01*
X435377Y668573D01*
X435106Y669304D01*
X434852Y670041D01*
X434617Y670783D01*
X434400Y671532D01*
X434202Y672285D01*
X434021Y673044D01*
X433860Y673806D01*
X433717Y674572D01*
X433594Y675341D01*
X433489Y676113D01*
X433403Y676888D01*
X433336Y677664D01*
X433288Y678442D01*
X433260Y679221D01*
X433250Y680000D01*
X427862Y656195D02*
X427862Y647552D01*
X433624Y647552D01*
X437217Y654755D02*
X438658Y656195D01*
X441539Y656195D01*
X442979Y654755D01*
X442979Y653314D01*
X441539Y651874D01*
X440098Y651874D01*
X441539Y651874D02*
X442979Y650433D01*
X442979Y648993D01*
X441539Y647552D01*
X438658Y647552D01*
X437217Y648993D01*
X381070Y650710D02*
X381070Y658330D01*
X384880Y654520D02*
X377260Y654520D01*
X351860Y685000D02*
X351872Y685997D01*
X351909Y686994D01*
X351970Y687990D01*
X352056Y688983D01*
X352166Y689975D01*
X352300Y690963D01*
X352458Y691948D01*
X352641Y692928D01*
X352847Y693904D01*
X353078Y694875D01*
X353332Y695839D01*
X353610Y696797D01*
X353911Y697748D01*
X354236Y698691D01*
X354583Y699626D01*
X354954Y700552D01*
X355347Y701469D01*
X355762Y702376D01*
X356199Y703272D01*
X356659Y704158D01*
X357140Y705031D01*
X357642Y705893D01*
X358165Y706742D01*
X358709Y707578D01*
X359273Y708401D01*
X359858Y709209D01*
X360462Y710003D01*
X361085Y710782D01*
X361727Y711545D01*
X362388Y712292D01*
X363067Y713023D01*
X363763Y713737D01*
X364477Y714433D01*
X365208Y715112D01*
X365955Y715773D01*
X366718Y716415D01*
X367497Y717038D01*
X368291Y717642D01*
X369099Y718227D01*
X369922Y718791D01*
X370758Y719335D01*
X371607Y719858D01*
X372469Y720360D01*
X373342Y720841D01*
X374228Y721301D01*
X375124Y721738D01*
X376031Y722153D01*
X376948Y722546D01*
X377874Y722917D01*
X378809Y723264D01*
X379752Y723589D01*
X380703Y723890D01*
X381661Y724168D01*
X382625Y724422D01*
X383596Y724653D01*
X384572Y724859D01*
X385552Y725042D01*
X386537Y725200D01*
X387525Y725334D01*
X388517Y725444D01*
X389510Y725530D01*
X390506Y725591D01*
X391503Y725628D01*
X392500Y725640D01*
X393497Y725628D01*
X394494Y725591D01*
X395490Y725530D01*
X396483Y725444D01*
X397475Y725334D01*
X398463Y725200D01*
X399448Y725042D01*
X400428Y724859D01*
X401404Y724653D01*
X402375Y724422D01*
X403339Y724168D01*
X404297Y723890D01*
X405248Y723589D01*
X406191Y723264D01*
X407126Y722917D01*
X408052Y722546D01*
X408969Y722153D01*
X409876Y721738D01*
X410772Y721301D01*
X411658Y720841D01*
X412531Y720360D01*
X413393Y719858D01*
X414242Y719335D01*
X415078Y718791D01*
X415901Y718227D01*
X416709Y717642D01*
X417503Y717038D01*
X418282Y716415D01*
X419045Y715773D01*
X419792Y715112D01*
X420523Y714433D01*
X421237Y713737D01*
X421933Y713023D01*
X422612Y712292D01*
X423273Y711545D01*
X423915Y710782D01*
X424538Y710003D01*
X425142Y709209D01*
X425727Y708401D01*
X426291Y707578D01*
X426835Y706742D01*
X427358Y705893D01*
X427860Y705031D01*
X428341Y704158D01*
X428801Y703272D01*
X429238Y702376D01*
X429653Y701469D01*
X430046Y700552D01*
X430417Y699626D01*
X430764Y698691D01*
X431089Y697748D01*
X431390Y696797D01*
X431668Y695839D01*
X431922Y694875D01*
X432153Y693904D01*
X432359Y692928D01*
X432542Y691948D01*
X432700Y690963D01*
X432834Y689975D01*
X432944Y688983D01*
X433030Y687990D01*
X433091Y686994D01*
X433128Y685997D01*
X433140Y685000D01*
X433128Y684003D01*
X433091Y683006D01*
X433030Y682010D01*
X432944Y681017D01*
X432834Y680025D01*
X432700Y679037D01*
X432542Y678052D01*
X432359Y677072D01*
X432153Y676096D01*
X431922Y675125D01*
X431668Y674161D01*
X431390Y673203D01*
X431089Y672252D01*
X430764Y671309D01*
X430417Y670374D01*
X430046Y669448D01*
X429653Y668531D01*
X429238Y667624D01*
X428801Y666728D01*
X428341Y665842D01*
X427860Y664969D01*
X427358Y664107D01*
X426835Y663258D01*
X426291Y662422D01*
X425727Y661599D01*
X425142Y660791D01*
X424538Y659997D01*
X423915Y659218D01*
X423273Y658455D01*
X422612Y657708D01*
X421933Y656977D01*
X421237Y656263D01*
X420523Y655567D01*
X419792Y654888D01*
X419045Y654227D01*
X418282Y653585D01*
X417503Y652962D01*
X416709Y652358D01*
X415901Y651773D01*
X415078Y651209D01*
X414242Y650665D01*
X413393Y650142D01*
X412531Y649640D01*
X411658Y649159D01*
X410772Y648699D01*
X409876Y648262D01*
X408969Y647847D01*
X408052Y647454D01*
X407126Y647083D01*
X406191Y646736D01*
X405248Y646411D01*
X404297Y646110D01*
X403339Y645832D01*
X402375Y645578D01*
X401404Y645347D01*
X400428Y645141D01*
X399448Y644958D01*
X398463Y644800D01*
X397475Y644666D01*
X396483Y644556D01*
X395490Y644470D01*
X394494Y644409D01*
X393497Y644372D01*
X392500Y644360D01*
X391503Y644372D01*
X390506Y644409D01*
X389510Y644470D01*
X388517Y644556D01*
X387525Y644666D01*
X386537Y644800D01*
X385552Y644958D01*
X384572Y645141D01*
X383596Y645347D01*
X382625Y645578D01*
X381661Y645832D01*
X380703Y646110D01*
X379752Y646411D01*
X378809Y646736D01*
X377874Y647083D01*
X376948Y647454D01*
X376031Y647847D01*
X375124Y648262D01*
X374228Y648699D01*
X373342Y649159D01*
X372469Y649640D01*
X371607Y650142D01*
X370758Y650665D01*
X369922Y651209D01*
X369099Y651773D01*
X368291Y652358D01*
X367497Y652962D01*
X366718Y653585D01*
X365955Y654227D01*
X365208Y654888D01*
X364477Y655567D01*
X363763Y656263D01*
X363067Y656977D01*
X362388Y657708D01*
X361727Y658455D01*
X361085Y659218D01*
X360462Y659997D01*
X359858Y660791D01*
X359273Y661599D01*
X358709Y662422D01*
X358165Y663258D01*
X357642Y664107D01*
X357140Y664969D01*
X356659Y665842D01*
X356199Y666728D01*
X355762Y667624D01*
X355347Y668531D01*
X354954Y669448D01*
X354583Y670374D01*
X354236Y671309D01*
X353911Y672252D01*
X353610Y673203D01*
X353332Y674161D01*
X353078Y675125D01*
X352847Y676096D01*
X352641Y677072D01*
X352458Y678052D01*
X352300Y679037D01*
X352166Y680025D01*
X352056Y681017D01*
X351970Y682010D01*
X351909Y683006D01*
X351872Y684003D01*
X351860Y685000D01*
X392939Y737365D02*
X391498Y738805D01*
X388617Y738805D01*
X387176Y737365D01*
X387176Y731603D01*
X388617Y730162D01*
X391498Y730162D01*
X392939Y731603D01*
X396532Y730162D02*
X402294Y730162D01*
X396532Y730162D02*
X402294Y735924D01*
X402294Y737365D01*
X400853Y738805D01*
X397972Y738805D01*
X396532Y737365D01*
X405887Y737365D02*
X407327Y738805D01*
X410209Y738805D01*
X411649Y737365D01*
X411649Y735924D01*
X410209Y734484D01*
X408768Y734484D01*
X410209Y734484D02*
X411649Y733043D01*
X411649Y731603D01*
X410209Y730162D01*
X407327Y730162D01*
X405887Y731603D01*
D14*
X315913Y517500D02*
X315911Y517360D01*
X315905Y517220D01*
X315895Y517080D01*
X315882Y516940D01*
X315864Y516801D01*
X315842Y516662D01*
X315817Y516525D01*
X315788Y516387D01*
X315755Y516251D01*
X315718Y516116D01*
X315677Y515982D01*
X315632Y515849D01*
X315584Y515717D01*
X315532Y515587D01*
X315477Y515458D01*
X315418Y515331D01*
X315355Y515205D01*
X315289Y515081D01*
X315220Y514960D01*
X315147Y514840D01*
X315070Y514722D01*
X314991Y514607D01*
X314908Y514493D01*
X314822Y514383D01*
X314733Y514274D01*
X314641Y514168D01*
X314546Y514065D01*
X314449Y513964D01*
X314348Y513867D01*
X314245Y513772D01*
X314139Y513680D01*
X314030Y513591D01*
X313920Y513505D01*
X313806Y513422D01*
X313691Y513343D01*
X313573Y513266D01*
X313453Y513193D01*
X313332Y513124D01*
X313208Y513058D01*
X313082Y512995D01*
X312955Y512936D01*
X312826Y512881D01*
X312696Y512829D01*
X312564Y512781D01*
X312431Y512736D01*
X312297Y512695D01*
X312162Y512658D01*
X312026Y512625D01*
X311888Y512596D01*
X311751Y512571D01*
X311612Y512549D01*
X311473Y512531D01*
X311333Y512518D01*
X311193Y512508D01*
X311053Y512502D01*
X310913Y512500D01*
X315913Y517500D02*
X315913Y612500D01*
X315911Y612640D01*
X315905Y612780D01*
X315895Y612920D01*
X315882Y613060D01*
X315864Y613199D01*
X315842Y613338D01*
X315817Y613475D01*
X315788Y613613D01*
X315755Y613749D01*
X315718Y613884D01*
X315677Y614018D01*
X315632Y614151D01*
X315584Y614283D01*
X315532Y614413D01*
X315477Y614542D01*
X315418Y614669D01*
X315355Y614795D01*
X315289Y614919D01*
X315220Y615040D01*
X315147Y615160D01*
X315070Y615278D01*
X314991Y615393D01*
X314908Y615507D01*
X314822Y615617D01*
X314733Y615726D01*
X314641Y615832D01*
X314546Y615935D01*
X314449Y616036D01*
X314348Y616133D01*
X314245Y616228D01*
X314139Y616320D01*
X314030Y616409D01*
X313920Y616495D01*
X313806Y616578D01*
X313691Y616657D01*
X313573Y616734D01*
X313453Y616807D01*
X313332Y616876D01*
X313208Y616942D01*
X313082Y617005D01*
X312955Y617064D01*
X312826Y617119D01*
X312696Y617171D01*
X312564Y617219D01*
X312431Y617264D01*
X312297Y617305D01*
X312162Y617342D01*
X312026Y617375D01*
X311888Y617404D01*
X311751Y617429D01*
X311612Y617451D01*
X311473Y617469D01*
X311333Y617482D01*
X311193Y617492D01*
X311053Y617498D01*
X310913Y617500D01*
X274087Y617500D01*
X273947Y617498D01*
X273807Y617492D01*
X273667Y617482D01*
X273527Y617469D01*
X273388Y617451D01*
X273249Y617429D01*
X273112Y617404D01*
X272974Y617375D01*
X272838Y617342D01*
X272703Y617305D01*
X272569Y617264D01*
X272436Y617219D01*
X272304Y617171D01*
X272174Y617119D01*
X272045Y617064D01*
X271918Y617005D01*
X271792Y616942D01*
X271668Y616876D01*
X271547Y616807D01*
X271427Y616734D01*
X271309Y616657D01*
X271194Y616578D01*
X271080Y616495D01*
X270970Y616409D01*
X270861Y616320D01*
X270755Y616228D01*
X270652Y616133D01*
X270551Y616036D01*
X270454Y615935D01*
X270359Y615832D01*
X270267Y615726D01*
X270178Y615617D01*
X270092Y615507D01*
X270009Y615393D01*
X269930Y615278D01*
X269853Y615160D01*
X269780Y615040D01*
X269711Y614919D01*
X269645Y614795D01*
X269582Y614669D01*
X269523Y614542D01*
X269468Y614413D01*
X269416Y614283D01*
X269368Y614151D01*
X269323Y614018D01*
X269282Y613884D01*
X269245Y613749D01*
X269212Y613613D01*
X269183Y613475D01*
X269158Y613338D01*
X269136Y613199D01*
X269118Y613060D01*
X269105Y612920D01*
X269095Y612780D01*
X269089Y612640D01*
X269087Y612500D01*
X269087Y517500D01*
X269089Y517360D01*
X269095Y517220D01*
X269105Y517080D01*
X269118Y516940D01*
X269136Y516801D01*
X269158Y516662D01*
X269183Y516525D01*
X269212Y516387D01*
X269245Y516251D01*
X269282Y516116D01*
X269323Y515982D01*
X269368Y515849D01*
X269416Y515717D01*
X269468Y515587D01*
X269523Y515458D01*
X269582Y515331D01*
X269645Y515205D01*
X269711Y515081D01*
X269780Y514960D01*
X269853Y514840D01*
X269930Y514722D01*
X270009Y514607D01*
X270092Y514493D01*
X270178Y514383D01*
X270267Y514274D01*
X270359Y514168D01*
X270454Y514065D01*
X270551Y513964D01*
X270652Y513867D01*
X270755Y513772D01*
X270861Y513680D01*
X270970Y513591D01*
X271080Y513505D01*
X271194Y513422D01*
X271309Y513343D01*
X271427Y513266D01*
X271547Y513193D01*
X271668Y513124D01*
X271792Y513058D01*
X271918Y512995D01*
X272045Y512936D01*
X272174Y512881D01*
X272304Y512829D01*
X272436Y512781D01*
X272569Y512736D01*
X272703Y512695D01*
X272838Y512658D01*
X272974Y512625D01*
X273112Y512596D01*
X273249Y512571D01*
X273388Y512549D01*
X273527Y512531D01*
X273667Y512518D01*
X273807Y512508D01*
X273947Y512502D01*
X274087Y512500D01*
X310913Y512500D01*
D13*
X320755Y539193D02*
X322195Y540634D01*
X320755Y539193D02*
X320755Y536312D01*
X322195Y534871D01*
X327957Y534871D01*
X329398Y536312D01*
X329398Y539193D01*
X327957Y540634D01*
X329398Y544227D02*
X329398Y549989D01*
X329398Y544227D02*
X323636Y549989D01*
X322195Y549989D01*
X320755Y548548D01*
X320755Y545667D01*
X322195Y544227D01*
X322195Y556463D02*
X320755Y559344D01*
X322195Y556463D02*
X325076Y553582D01*
X327957Y553582D01*
X329398Y555022D01*
X329398Y557904D01*
X327957Y559344D01*
X326517Y559344D01*
X325076Y557904D01*
X325076Y553582D01*
D15*
X266700Y459500D02*
X266700Y740500D01*
X4200Y740500D01*
X4200Y459500D01*
X266700Y459500D01*
D25*
X179498Y725608D02*
X179498Y733404D01*
X181447Y733404D01*
X189243Y725608D01*
X191192Y725608D01*
X90292Y727557D02*
X88343Y725608D01*
X90292Y727557D02*
X90292Y731455D01*
X88343Y733404D01*
X80547Y733404D01*
X78598Y731455D01*
X78598Y727557D01*
X80547Y725608D01*
X82496Y725608D01*
X84445Y727557D01*
X84445Y733404D01*
X35796Y720408D02*
X31898Y724306D01*
X43592Y724306D01*
X43592Y720408D02*
X43592Y728204D01*
X41643Y732102D02*
X33847Y732102D01*
X31898Y734051D01*
X31898Y737949D01*
X33847Y739898D01*
X41643Y739898D01*
X43592Y737949D01*
X43592Y734051D01*
X41643Y732102D01*
X33847Y739898D01*
D15*
X33400Y573900D02*
X33400Y520600D01*
D26*
X33400Y573900D02*
X135000Y573900D01*
D15*
X135000Y520600D01*
X185800Y520600D02*
X185800Y573900D01*
D26*
X236600Y573900D01*
D15*
X236600Y520600D01*
X33400Y645100D02*
X33400Y678400D01*
D22*
X33400Y645100D02*
X83400Y645100D01*
X84200Y645100D01*
D26*
X33400Y609700D02*
X236600Y609700D01*
D15*
X44720Y627400D02*
X33400Y627400D01*
X54720Y627400D02*
X66040Y627400D01*
X76040Y627400D02*
X87360Y627400D01*
X97360Y627400D02*
X108680Y627400D01*
X118680Y627400D02*
X130000Y627400D01*
X140000Y627400D02*
X151320Y627400D01*
X161320Y627400D02*
X172640Y627400D01*
X182640Y627400D02*
X193960Y627400D01*
X203960Y627400D02*
X215280Y627400D01*
X225280Y627400D02*
X236600Y627400D01*
X236600Y637733D01*
X236600Y647733D02*
X236600Y658067D01*
X236600Y668067D02*
X236600Y678400D01*
X135000Y677400D02*
X135000Y645100D01*
D22*
X185800Y645100D01*
D15*
X185800Y678400D01*
D26*
X236600Y591700D02*
X33400Y591700D01*
D15*
X83400Y645100D02*
X83400Y678400D01*
D13*
X17713Y523943D02*
X9070Y523943D01*
X9070Y521062D02*
X9070Y526824D01*
X11951Y530417D02*
X9070Y533298D01*
X17713Y533298D01*
X17713Y530417D02*
X17713Y536179D01*
D27*
X367472Y816549D02*
X375861Y816549D01*
X367472Y816549D02*
X367472Y820743D01*
X368870Y822141D01*
X371666Y822141D01*
X373065Y820743D01*
X373065Y816549D01*
X370268Y825904D02*
X367472Y828700D01*
X375861Y828700D01*
X375861Y825904D02*
X375861Y831497D01*
D14*
X363000Y834500D02*
X363000Y755500D01*
X321000Y755500D01*
X321000Y834500D01*
X363000Y834500D01*
D27*
X302521Y631519D02*
X294132Y631519D01*
X294132Y635714D01*
X295530Y637112D01*
X298326Y637112D01*
X299725Y635714D01*
X299725Y631519D01*
X302521Y640874D02*
X302521Y646467D01*
X302521Y640874D02*
X296928Y646467D01*
X295530Y646467D01*
X294132Y645069D01*
X294132Y642272D01*
X295530Y640874D01*
D14*
X307000Y630500D02*
X307000Y709500D01*
X349000Y709500D01*
X349000Y630500D01*
X307000Y630500D01*
M02*
