G04 EAGLE Gerber X2 export*
%TF.Part,Single*%
%TF.FileFunction,Soldermask,Bot,1*%
%TF.FilePolarity,Negative*%
%TF.GenerationSoftware,Autodesk,EAGLE,9.0.0*%
%TF.CreationDate,2019-06-10T11:01:14Z*%
G75*
%MOMM*%
%FSLAX34Y34*%
%LPD*%
%AMOC8*
5,1,8,0,0,1.08239X$1,22.5*%
G01*
%ADD10C,2.203200*%
%ADD11P,2.556822X8X292.500000*%
%ADD12P,2.144431X8X292.500000*%
%ADD13C,1.727200*%
%ADD14C,1.879600*%
%ADD15P,3.656530X8X202.500000*%
%ADD16P,1.649562X8X202.500000*%
%ADD17P,3.629037X8X292.500000*%
%ADD18C,3.352800*%
%ADD19R,2.203200X1.703200*%
%ADD20R,2.203200X1.803200*%
%ADD21R,1.803200X2.203200*%
%ADD22R,1.703200X2.203200*%
%ADD23R,0.863600X2.235200*%
%ADD24R,1.203200X1.703200*%
%ADD25C,1.524000*%
%ADD26R,1.803200X1.503200*%
%ADD27R,1.703200X1.203200*%
%ADD28C,2.108200*%
%ADD29P,2.281895X8X202.500000*%
%ADD30R,1.503200X1.803200*%
%ADD31P,1.951982X8X292.500000*%
%ADD32C,1.803400*%
%ADD33R,1.203200X1.603200*%
%ADD34R,4.003200X3.003200*%
%ADD35R,1.703200X1.403200*%
%ADD36C,3.003200*%
%ADD37P,2.144431X8X112.500000*%
%ADD38R,1.403200X1.703200*%
%ADD39R,1.703200X2.303200*%
%ADD40R,2.003200X1.603200*%
%ADD41P,1.951982X8X202.500000*%
%ADD42P,1.951982X8X112.500000*%
%ADD43R,2.743200X2.743200*%
%ADD44R,3.403200X2.003200*%
%ADD45C,1.473200*%
%ADD46R,1.727200X1.727200*%
%ADD47P,1.869504X8X22.500000*%
%ADD48P,1.869504X8X202.500000*%


D10*
X470000Y105000D03*
X425000Y75000D03*
X180000Y140000D03*
X63000Y182000D03*
X136000Y182000D03*
X246000Y395000D03*
X246000Y346500D03*
X246000Y271500D03*
X368500Y209000D03*
X403500Y209000D03*
X438500Y209000D03*
D11*
X378200Y177430D03*
X378200Y27570D03*
D12*
X101400Y100588D03*
X101400Y21212D03*
D13*
X416480Y126800D02*
X431720Y126800D01*
X431720Y177600D02*
X416480Y177600D01*
D14*
X330282Y166170D02*
X313518Y166170D01*
X228682Y166170D02*
X211918Y166170D01*
X211918Y36630D02*
X228682Y36630D01*
X313518Y36630D02*
X330282Y36630D01*
D15*
X467500Y145600D03*
X466000Y70600D03*
X30100Y32100D03*
D16*
X466700Y32900D03*
X415900Y32900D03*
D17*
X96100Y247500D03*
D18*
X96100Y323700D03*
D19*
X58200Y328900D03*
X58200Y298900D03*
X58300Y278900D03*
X58300Y248900D03*
D20*
X367900Y119600D03*
X367900Y147600D03*
X368100Y59600D03*
X368100Y87600D03*
D21*
X313400Y251300D03*
X285400Y251300D03*
X371400Y251500D03*
X343400Y251500D03*
X70900Y425700D03*
X42900Y425700D03*
D20*
X101100Y425400D03*
X101100Y397400D03*
D22*
X41100Y397700D03*
X71100Y397700D03*
D23*
X415250Y328566D03*
X415250Y390034D03*
X402550Y328566D03*
X389850Y328566D03*
X402550Y390034D03*
X389850Y390034D03*
X377150Y328566D03*
X377150Y390034D03*
D24*
X301000Y331500D03*
X301000Y312700D03*
D25*
X463000Y584196D02*
X463000Y597404D01*
X437600Y597404D02*
X437600Y584196D01*
X437600Y521204D02*
X437600Y507996D01*
X463000Y507996D02*
X463000Y521204D01*
D26*
X326400Y311800D03*
X326400Y331800D03*
D27*
X391100Y490900D03*
X372300Y490900D03*
D28*
X413200Y464400D03*
D29*
X362400Y464400D03*
D30*
X402200Y440300D03*
X382200Y440300D03*
D13*
X37000Y804080D02*
X37000Y819320D01*
X62400Y819320D02*
X62400Y804080D01*
X87800Y804080D02*
X87800Y819320D01*
D31*
X148500Y772520D03*
D32*
X148500Y808080D03*
D26*
X167700Y800700D03*
X167700Y780700D03*
X300800Y803200D03*
X300800Y783200D03*
D25*
X195950Y809196D02*
X195950Y822404D01*
X234050Y822404D02*
X234050Y809196D01*
D21*
X313200Y275900D03*
X285200Y275900D03*
D26*
X432300Y390600D03*
X432300Y410600D03*
X450700Y355100D03*
X450700Y375100D03*
D24*
X432900Y373800D03*
X432900Y355000D03*
D30*
X428900Y294500D03*
X408900Y294500D03*
D33*
X427900Y639200D03*
X418400Y617200D03*
X437400Y617200D03*
D24*
X368600Y621200D03*
X368600Y640000D03*
X396500Y639800D03*
X396500Y621000D03*
D27*
X473800Y620400D03*
X455000Y620400D03*
D24*
X368800Y584700D03*
X368800Y603500D03*
D26*
X396700Y583100D03*
X396700Y603100D03*
D22*
X18100Y773900D03*
X48100Y773900D03*
D21*
X46800Y750700D03*
X74800Y750700D03*
D34*
X151200Y364200D03*
X151200Y438200D03*
D13*
X157150Y162620D02*
X157150Y147380D01*
X119050Y147380D02*
X119050Y162620D01*
X80950Y162620D02*
X80950Y147380D01*
X42850Y147380D02*
X42850Y162620D01*
D35*
X402000Y420000D03*
X373000Y420000D03*
D36*
X40000Y85000D03*
X470000Y470000D03*
X470000Y250000D03*
D13*
X270400Y382780D02*
X270400Y398020D01*
X245000Y420880D02*
X245000Y436120D01*
X219600Y398020D02*
X219600Y382780D01*
D37*
X160000Y18725D03*
X160000Y101275D03*
D35*
X304000Y379500D03*
X333000Y379500D03*
D38*
X349500Y302500D03*
X349500Y331500D03*
D39*
X312000Y490000D03*
X348000Y490000D03*
D40*
X332500Y422000D03*
X332500Y456000D03*
D20*
X306500Y423000D03*
X306500Y451000D03*
D21*
X332500Y400000D03*
X304500Y400000D03*
D13*
X419600Y801980D02*
X419600Y817220D01*
X445000Y817220D02*
X445000Y801980D01*
X470400Y801980D02*
X470400Y817220D01*
D31*
X280000Y774720D03*
D32*
X280000Y810280D03*
D41*
X437220Y750000D03*
D32*
X472780Y750000D03*
D30*
X465000Y725000D03*
X445000Y725000D03*
D25*
X484050Y686604D02*
X484050Y673396D01*
X445950Y673396D02*
X445950Y686604D01*
D42*
X392500Y702780D03*
D32*
X392500Y667220D03*
D26*
X370000Y670000D03*
X370000Y690000D03*
D19*
X395000Y810000D03*
X395000Y780000D03*
D21*
X416000Y780000D03*
X444000Y780000D03*
D12*
X292500Y604688D03*
X292500Y525312D03*
D43*
X34200Y498500D03*
X84200Y498500D03*
X134200Y498500D03*
X184200Y498500D03*
X234200Y498500D03*
X34200Y701000D03*
X84200Y701000D03*
X134200Y701000D03*
X184200Y701000D03*
X234200Y701000D03*
D27*
X455600Y640000D03*
X474400Y640000D03*
D44*
X215000Y264500D03*
X215000Y320500D03*
X175000Y264500D03*
X175000Y320500D03*
D45*
X372500Y277500D03*
X317500Y362500D03*
X347500Y277500D03*
X442500Y337500D03*
X445000Y295000D03*
D46*
X345000Y820000D03*
D47*
X345000Y795000D03*
X345000Y770000D03*
D46*
X325000Y645000D03*
D48*
X325000Y670000D03*
X325000Y695000D03*
D45*
X270000Y292500D03*
X127500Y292500D03*
X367500Y292500D03*
X362500Y355000D03*
X412500Y642500D03*
X412500Y695000D03*
M02*
