G04 EAGLE Gerber X2 export*
%TF.Part,Single*%
%TF.FileFunction,Paste,Bot*%
%TF.FilePolarity,Positive*%
%TF.GenerationSoftware,Autodesk,EAGLE,9.0.0*%
%TF.CreationDate,2019-06-10T11:01:15Z*%
G75*
%MOMM*%
%FSLAX34Y34*%
%LPD*%
%AMOC8*
5,1,8,0,0,1.08239X$1,22.5*%
G01*
%ADD10R,2.000000X1.500000*%
%ADD11R,2.000000X1.600000*%
%ADD12R,1.600000X2.000000*%
%ADD13R,1.500000X2.000000*%
%ADD14R,0.660400X2.032000*%
%ADD15R,1.000000X1.500000*%
%ADD16R,1.600000X1.300000*%
%ADD17R,1.500000X1.000000*%
%ADD18R,1.300000X1.600000*%
%ADD19R,1.000000X1.400000*%
%ADD20R,3.800000X2.800000*%
%ADD21R,1.500000X1.200000*%
%ADD22R,1.200000X1.500000*%
%ADD23R,1.500000X2.100000*%
%ADD24R,1.800000X1.400000*%
%ADD25R,3.200000X1.800000*%


D10*
X58200Y328900D03*
X58200Y298900D03*
X58300Y278900D03*
X58300Y248900D03*
D11*
X367900Y119600D03*
X367900Y147600D03*
X368100Y59600D03*
X368100Y87600D03*
D12*
X313400Y251300D03*
X285400Y251300D03*
X371400Y251500D03*
X343400Y251500D03*
X70900Y425700D03*
X42900Y425700D03*
D11*
X101100Y425400D03*
X101100Y397400D03*
D13*
X41100Y397700D03*
X71100Y397700D03*
D14*
X415250Y328566D03*
X415250Y390034D03*
X402550Y328566D03*
X389850Y328566D03*
X402550Y390034D03*
X389850Y390034D03*
X377150Y328566D03*
X377150Y390034D03*
D15*
X301000Y331500D03*
X301000Y312700D03*
D16*
X326400Y311800D03*
X326400Y331800D03*
D17*
X391100Y490900D03*
X372300Y490900D03*
D18*
X402200Y440300D03*
X382200Y440300D03*
D16*
X167700Y800700D03*
X167700Y780700D03*
X300800Y803200D03*
X300800Y783200D03*
D12*
X313200Y275900D03*
X285200Y275900D03*
D16*
X432300Y390600D03*
X432300Y410600D03*
X450700Y355100D03*
X450700Y375100D03*
D15*
X432900Y373800D03*
X432900Y355000D03*
D18*
X428900Y294500D03*
X408900Y294500D03*
D19*
X427900Y639200D03*
X418400Y617200D03*
X437400Y617200D03*
D15*
X368600Y621200D03*
X368600Y640000D03*
X396500Y639800D03*
X396500Y621000D03*
D17*
X473800Y620400D03*
X455000Y620400D03*
D15*
X368800Y584700D03*
X368800Y603500D03*
D16*
X396700Y583100D03*
X396700Y603100D03*
D13*
X18100Y773900D03*
X48100Y773900D03*
D12*
X46800Y750700D03*
X74800Y750700D03*
D20*
X151200Y364200D03*
X151200Y438200D03*
D21*
X402000Y420000D03*
X373000Y420000D03*
X304000Y379500D03*
X333000Y379500D03*
D22*
X349500Y302500D03*
X349500Y331500D03*
D23*
X312000Y490000D03*
X348000Y490000D03*
D24*
X332500Y422000D03*
X332500Y456000D03*
D11*
X306500Y423000D03*
X306500Y451000D03*
D12*
X332500Y400000D03*
X304500Y400000D03*
D18*
X465000Y725000D03*
X445000Y725000D03*
D16*
X370000Y670000D03*
X370000Y690000D03*
D10*
X395000Y810000D03*
X395000Y780000D03*
D12*
X416000Y780000D03*
X444000Y780000D03*
D17*
X455600Y640000D03*
X474400Y640000D03*
D25*
X215000Y264500D03*
X215000Y320500D03*
X175000Y264500D03*
X175000Y320500D03*
M02*
